<svg width="281" height="194" viewBox="0 0 281 194" fill="none" xmlns="http://www.w3.org/2000/svg">
<path d="M30.5934 90.4792C34.9701 90.4792 38.5181 86.9187 38.5181 82.5265C38.5181 78.1343 34.9701 74.5737 30.5934 74.5737C26.2167 74.5737 22.6687 78.1343 22.6687 82.5265C22.6687 86.9187 26.2167 90.4792 30.5934 90.4792Z" fill="#FFB8B8"/>
<path d="M3.81616 177.827L5.82274 181.249L19.9265 175.109L16.9649 170.061L3.81616 177.827Z" fill="#FFB8B8"/>
<path d="M4.41777 176.297L8.36971 183.035C8.70044 183.598 8.91741 184.222 9.00793 184.87C9.09845 185.518 9.06091 186.178 8.89744 186.811C8.73398 187.444 8.44779 188.039 8.05523 188.562C7.66266 189.084 7.1714 189.524 6.6095 189.855L6.47046 189.938L0 178.907L4.41777 176.297Z" fill="#845D5D"/>
<path d="M27.0656 190.152L31.0216 190.152L32.9035 174.84L27.0649 174.84L27.0656 190.152Z" fill="#FFB8B8"/>
<path d="M26.0566 188.856L33.8473 188.855C34.4993 188.855 35.1452 188.984 35.7476 189.235C36.35 189.485 36.8973 189.852 37.3583 190.315C37.8194 190.777 38.1851 191.326 38.4346 191.931C38.6841 192.535 38.8125 193.183 38.8125 193.837V193.999L26.0569 194L26.0566 188.856Z" fill="#845D5D"/>
<path d="M11.1624 180.875C10.9348 180.875 10.7103 180.822 10.5071 180.719C10.304 180.616 10.1279 180.466 9.99311 180.282L6.17816 175.082C6.06177 174.923 5.97864 174.743 5.93379 174.551C5.88895 174.359 5.88331 174.16 5.91722 173.966C5.95114 173.772 6.0239 173.587 6.13111 173.422C6.23832 173.257 6.37775 173.116 6.54098 173.007L23.517 161.628L13.2739 134.599L35.1785 136.413L35.9163 159.64C35.9855 161.755 35.4803 163.85 34.4547 165.699C33.4291 167.548 31.9218 169.083 30.094 170.139L11.8878 180.68C11.6674 180.808 11.4172 180.875 11.1624 180.875Z" fill="#774F9F"/>
<path d="M27.1851 187.044C26.8095 187.043 26.4487 186.896 26.1786 186.634C25.9085 186.372 25.7501 186.015 25.7367 185.638L24.9339 163.011L34.8751 162.485L34.0835 185.275C34.0718 185.636 33.9266 185.98 33.676 186.239C33.4255 186.499 33.0876 186.655 32.7283 186.678L27.2839 187.04C27.2508 187.043 27.2179 187.044 27.1851 187.044Z" fill="#774F9F"/>
<path d="M37.7137 140.906C35.1846 140.906 26.3509 138.052 23.2843 137.034C22.8255 137.403 20.3051 139.294 17.3632 138.948C15.548 138.734 13.9499 137.703 12.6135 135.883C9.66217 131.864 13.3074 114.626 16.8851 100.872C17.6023 98.0925 19.3656 95.6999 21.8042 94.1975C24.2429 92.6952 27.1669 92.2001 29.9617 92.8165C31.9873 93.2652 33.8482 94.272 35.3351 95.7235C36.822 97.1751 37.8761 99.0141 38.379 101.034C39.0525 103.785 38.4731 107.022 38.05 109.386C37.8511 110.497 37.694 111.375 37.7477 111.806C37.9553 113.473 39.1089 139.617 38.3671 140.734C38.2881 140.853 38.0597 140.906 37.7137 140.906Z" fill="#5B8348"/>
<path d="M28.4622 140.953C28.8687 140.649 29.2039 140.26 29.4442 139.812C29.6845 139.364 29.824 138.869 29.853 138.362C29.8819 137.854 29.7996 137.346 29.6118 136.874C29.424 136.401 29.1353 135.976 28.766 135.628L28.9226 103.947L21.4866 105.189L23.6708 135.94C23.129 136.601 22.8477 137.439 22.8803 138.295C22.9129 139.15 23.2571 139.964 23.8477 140.582C24.4382 141.2 25.2342 141.579 26.0847 141.647C26.9352 141.716 27.7811 141.469 28.4622 140.953Z" fill="#FFB8B8"/>
<path d="M30.1821 124.292H22.1727C21.7902 124.291 21.4235 124.139 21.1518 123.869C20.8801 123.599 20.7252 123.232 20.7206 122.848L20.524 101.06C20.5172 100.306 20.6593 99.5589 20.9421 98.8609C21.2249 98.163 21.6428 97.5282 22.1717 96.9934C22.7005 96.4585 23.3298 96.0342 24.0231 95.7449C24.7164 95.4557 25.4599 95.3072 26.2108 95.3081C26.9616 95.309 27.7048 95.4593 28.3974 95.7503C29.09 96.0413 29.7182 96.4671 30.2458 97.0033C30.7733 97.5394 31.1896 98.1752 31.4708 98.8738C31.7519 99.5725 31.8922 100.32 31.8835 101.073L31.6341 122.852C31.6284 123.235 31.4731 123.601 31.2015 123.87C30.93 124.139 30.5639 124.291 30.1821 124.292Z" fill="#5B8348"/>
<path d="M28.5756 90.4463C24.9473 90.4529 21.5243 87.5748 20.8956 83.9887C20.6705 82.5799 20.7719 81.138 21.1922 79.775C21.6484 78.2233 22.4309 76.7878 23.4867 75.5652C24.5426 74.3427 25.8474 73.3616 27.3131 72.6879C28.7789 72.0143 30.3715 71.6638 31.9836 71.6602C33.5957 71.6565 35.1899 71.9998 36.6586 72.6667C37.6293 73.1075 38.5853 73.7406 39.0298 74.7123C39.4742 75.684 39.196 77.0421 38.2238 77.4793C37.5884 77.7651 36.7912 77.6247 36.2275 78.0349C35.4179 78.624 35.6263 79.8777 35.9878 80.8134C36.3493 81.7491 36.7582 82.8815 36.1522 83.6798C35.5875 84.4236 34.4587 84.4006 33.5696 84.1206C32.6804 83.8406 31.8029 83.3717 30.8758 83.4671C29.5238 83.6062 28.5522 84.9558 28.3724 86.3078C28.1925 87.6597 28.6159 89.0111 29.0339 90.3089L28.5756 90.4463Z" fill="#443F3A"/>
<path d="M275.676 140.705H68.9081C67.4967 140.703 66.1435 140.14 65.1454 139.138C64.1474 138.136 63.5859 136.778 63.5844 135.362V7.41294C63.5855 6.37522 63.9968 5.38034 64.728 4.64654C65.4591 3.91275 66.4505 3.49998 67.4845 3.49878H277.032C278.084 3.49998 279.093 3.91988 279.837 4.66636C280.58 5.41284 280.999 6.42494 281 7.48061V135.362C280.998 136.778 280.437 138.136 279.439 139.138C278.441 140.14 277.088 140.703 275.676 140.705Z" fill="#55607B"/>
<path d="M268.991 133.959H76.2884C73.4636 133.959 71.1655 131.799 71.1655 129.145V17.7252C71.1655 15.7565 72.8684 14.1548 74.9617 14.1548H270.255C272.383 14.1548 274.114 15.7829 274.114 17.784V129.145C274.114 131.799 271.816 133.959 268.991 133.959Z" fill="white"/>
<path d="M280.926 8.07875H63.5096V5.35874C63.5117 3.93758 64.0754 2.57525 65.0771 1.57064C66.0788 0.566031 67.4366 0.00117841 68.8528 0H275.583C276.999 0.00116643 278.357 0.566015 279.358 1.57063C280.36 2.57524 280.924 3.93757 280.926 5.35874V8.07875Z" fill="#3C4A6D"/>
<path d="M73.2201 5.4343C73.9834 5.4343 74.6022 4.81334 74.6022 4.04735C74.6022 3.28136 73.9834 2.6604 73.2201 2.6604C72.4567 2.6604 71.8379 3.28136 71.8379 4.04735C71.8379 4.81334 72.4567 5.4343 73.2201 5.4343Z" fill="#F2554E"/>
<path d="M78.466 5.4343C79.2294 5.4343 79.8482 4.81334 79.8482 4.04735C79.8482 3.28136 79.2294 2.6604 78.466 2.6604C77.7027 2.6604 77.0839 3.28136 77.0839 4.04735C77.0839 4.81334 77.7027 5.4343 78.466 5.4343Z" fill="#DBB636"/>
<path d="M83.7119 5.4343C84.4753 5.4343 85.0941 4.81334 85.0941 4.04735C85.0941 3.28136 84.4753 2.6604 83.7119 2.6604C82.9486 2.6604 82.3298 3.28136 82.3298 4.04735C82.3298 4.81334 82.9486 5.4343 83.7119 5.4343Z" fill="#4DB837"/>
<path d="M168.068 38.5168H130.38C129.818 38.5168 129.279 38.2928 128.881 37.8941C128.484 37.4954 128.261 36.9546 128.261 36.3907C128.261 35.8269 128.484 35.2861 128.881 34.8874C129.279 34.4886 129.818 34.2646 130.38 34.2646H168.068C168.63 34.2646 169.169 34.4886 169.566 34.8874C169.963 35.2861 170.187 35.8269 170.187 36.3907C170.187 36.9546 169.963 37.4954 169.566 37.8941C169.169 38.2928 168.63 38.5168 168.068 38.5168Z" fill="#78C2C2"/>
<path d="M214.9 38.5168H177.211C176.65 38.5168 176.111 38.2928 175.713 37.8941C175.316 37.4954 175.093 36.9546 175.093 36.3907C175.093 35.8269 175.316 35.2861 175.713 34.8874C176.111 34.4886 176.65 34.2646 177.211 34.2646H214.9C215.462 34.2646 216.001 34.4886 216.398 34.8874C216.795 35.2861 217.018 35.8269 217.018 36.3907C217.018 36.9546 216.795 37.4954 216.398 37.8941C216.001 38.2928 215.462 38.5168 214.9 38.5168Z" fill="#D77676"/>
<path d="M214.9 46.5737H149.335C148.774 46.5737 148.235 46.3497 147.837 45.951C147.44 45.5523 147.217 45.0115 147.217 44.4476C147.217 43.8837 147.44 43.343 147.837 42.9442C148.235 42.5455 148.774 42.3215 149.335 42.3215H214.9C215.462 42.3215 216.001 42.5455 216.398 42.9442C216.795 43.343 217.018 43.8837 217.018 44.4476C217.018 45.0115 216.795 45.5523 216.398 45.951C216.001 46.3497 215.462 46.5737 214.9 46.5737Z" fill="#78C2C2"/>
<path d="M168.068 30.3484H130.38C129.818 30.3477 129.28 30.1234 128.883 29.7247C128.487 29.3261 128.264 28.7857 128.264 28.2223C128.264 27.6589 128.487 27.1185 128.883 26.7198C129.28 26.3212 129.818 26.0969 130.38 26.0962H168.068C168.347 26.0958 168.622 26.1506 168.88 26.2573C169.137 26.364 169.371 26.5205 169.568 26.718C169.765 26.9154 169.921 27.1499 170.028 27.408C170.134 27.6662 170.189 27.9429 170.189 28.2223C170.189 28.5017 170.134 28.7784 170.028 29.0365C169.921 29.2946 169.765 29.5291 169.568 29.7266C169.371 29.924 169.137 30.0806 168.88 30.1873C168.622 30.294 168.347 30.3487 168.068 30.3484Z" fill="#78C2C2"/>
<path d="M188.808 30.4602H178.103C177.542 30.4602 177.003 30.2362 176.605 29.8375C176.208 29.4387 175.985 28.898 175.985 28.3341C175.985 27.7702 176.208 27.2294 176.605 26.8307C177.003 26.432 177.542 26.208 178.103 26.208H188.808C189.37 26.208 189.909 26.432 190.306 26.8307C190.703 27.2294 190.926 27.7702 190.926 28.3341C190.926 28.898 190.703 29.4387 190.306 29.8375C189.909 30.2362 189.37 30.4602 188.808 30.4602Z" fill="#7AACE6"/>
<path d="M141.084 46.5737H130.38C129.818 46.573 129.28 46.3487 128.883 45.9501C128.487 45.5514 128.264 45.011 128.264 44.4476C128.264 43.8842 128.487 43.3438 128.883 42.9452C129.28 42.5465 129.818 42.3222 130.38 42.3215H141.084C141.362 42.3212 141.638 42.3759 141.896 42.4826C142.153 42.5893 142.387 42.7459 142.584 42.9433C142.781 43.1408 142.937 43.3753 143.044 43.6334C143.15 43.8915 143.205 44.1682 143.205 44.4476C143.205 44.727 143.15 45.0037 143.044 45.2618C142.937 45.52 142.781 45.7545 142.584 45.9519C142.387 46.1494 142.153 46.3059 141.896 46.4126C141.638 46.5193 141.362 46.574 141.084 46.5737Z" fill="#D77676"/>
<path d="M168.068 113.961H130.38C129.818 113.961 129.279 113.737 128.881 113.338C128.484 112.94 128.261 112.399 128.261 111.835C128.261 111.271 128.484 110.73 128.881 110.332C129.279 109.933 129.818 109.709 130.38 109.709H168.068C168.346 109.709 168.622 109.764 168.879 109.871C169.136 109.978 169.369 110.134 169.566 110.332C169.763 110.529 169.919 110.763 170.025 111.021C170.132 111.279 170.187 111.556 170.187 111.835C170.187 112.114 170.132 112.391 170.025 112.649C169.919 112.907 169.763 113.141 169.566 113.338C169.369 113.536 169.136 113.692 168.879 113.799C168.622 113.906 168.346 113.961 168.068 113.961Z" fill="#D77676"/>
<path d="M214.9 113.961H177.211C176.65 113.961 176.111 113.737 175.713 113.338C175.316 112.94 175.093 112.399 175.093 111.835C175.093 111.271 175.316 110.73 175.713 110.332C176.111 109.933 176.65 109.709 177.211 109.709H214.9C215.178 109.709 215.454 109.764 215.711 109.871C215.968 109.978 216.201 110.134 216.398 110.332C216.595 110.529 216.751 110.763 216.857 111.021C216.964 111.279 217.018 111.556 217.018 111.835C217.018 112.114 216.964 112.391 216.857 112.649C216.751 112.907 216.595 113.141 216.398 113.338C216.201 113.536 215.968 113.692 215.711 113.799C215.454 113.906 215.178 113.961 214.9 113.961Z" fill="#D77676"/>
<path d="M214.9 122.018H149.335C148.774 122.018 148.235 121.794 147.837 121.395C147.44 120.996 147.217 120.456 147.217 119.892C147.217 119.328 147.44 118.787 147.837 118.388C148.235 117.99 148.774 117.766 149.335 117.766H214.9C215.178 117.765 215.454 117.82 215.711 117.927C215.969 118.033 216.203 118.19 216.4 118.387C216.597 118.585 216.753 118.819 216.86 119.077C216.966 119.336 217.021 119.612 217.021 119.892C217.021 120.171 216.966 120.448 216.86 120.706C216.753 120.964 216.597 121.199 216.4 121.396C216.203 121.593 215.969 121.75 215.711 121.857C215.454 121.963 215.178 122.018 214.9 122.018Z" fill="#D5D776"/>
<path d="M168.068 105.793H130.38C129.818 105.793 129.279 105.569 128.881 105.17C128.484 104.771 128.261 104.23 128.261 103.667C128.261 103.103 128.484 102.562 128.881 102.163C129.279 101.765 129.818 101.541 130.38 101.541H168.068C168.63 101.541 169.169 101.765 169.566 102.163C169.963 102.562 170.187 103.103 170.187 103.667C170.187 104.23 169.963 104.771 169.566 105.17C169.169 105.569 168.63 105.793 168.068 105.793Z" fill="#D5D776"/>
<path d="M188.808 105.905H178.103C177.542 105.905 177.003 105.681 176.605 105.282C176.208 104.883 175.985 104.342 175.985 103.778C175.985 103.215 176.208 102.674 176.605 102.275C177.003 101.876 177.542 101.652 178.103 101.652H188.808C189.37 101.652 189.909 101.876 190.306 102.275C190.703 102.674 190.926 103.215 190.926 103.778C190.926 104.342 190.703 104.883 190.306 105.282C189.909 105.681 189.37 105.905 188.808 105.905Z" fill="#D77676"/>
<path d="M141.084 122.018H130.38C129.818 122.018 129.279 121.794 128.881 121.395C128.484 120.996 128.261 120.456 128.261 119.892C128.261 119.328 128.484 118.787 128.881 118.388C129.279 117.99 129.818 117.766 130.38 117.766H141.084C141.362 117.765 141.638 117.82 141.896 117.927C142.153 118.033 142.387 118.19 142.584 118.387C142.781 118.585 142.937 118.819 143.044 119.077C143.15 119.336 143.205 119.612 143.205 119.892C143.205 120.171 143.15 120.448 143.044 120.706C142.937 120.964 142.781 121.199 142.584 121.396C142.387 121.593 142.153 121.75 141.896 121.857C141.638 121.963 141.362 122.018 141.084 122.018Z" fill="#78C2C2"/>
<path d="M158.225 91.1361C157.425 91.1379 156.657 90.8225 156.088 90.2585L141.921 76.219C141.642 75.9434 141.422 75.6151 141.271 75.2531C141.12 74.8912 141.043 74.5028 141.043 74.1105C141.043 73.7183 141.12 73.3299 141.271 72.968C141.422 72.606 141.642 72.2777 141.921 72.0021L156.031 58.0192C156.618 57.4395 157.41 57.1158 158.234 57.1184C159.059 57.121 159.849 57.4497 160.433 58.0331C161.017 58.6213 161.346 59.4181 161.346 60.2489C161.346 61.0798 161.017 61.8767 160.433 62.4648L149.948 72.9871C149.621 73.3157 149.438 73.7609 149.438 74.225C149.438 74.6892 149.621 75.1344 149.948 75.463L160.376 85.9281C160.802 86.3546 161.092 86.8984 161.209 87.4905C161.327 88.0826 161.267 88.6964 161.036 89.2542C160.806 89.8119 160.416 90.2885 159.915 90.6235C159.415 90.9585 158.827 91.1369 158.225 91.1361Z" fill="#78C2C2"/>
<path d="M180.8 91.1361C180.198 91.1369 179.61 90.9586 179.109 90.6235C178.609 90.2885 178.218 89.8119 177.988 89.2542C177.758 88.6964 177.697 88.0826 177.815 87.4905C177.933 86.8984 178.223 86.3546 178.649 85.9281L189.077 75.463C189.403 75.1344 189.587 74.6892 189.587 74.225C189.587 73.7609 189.403 73.3157 189.077 72.9871L178.592 62.4648C178.302 62.1738 178.072 61.8284 177.915 61.4482C177.758 61.068 177.677 60.6605 177.677 60.249C177.677 59.8374 177.758 59.4299 177.915 59.0498C178.072 58.6696 178.302 58.3241 178.592 58.0331C179.176 57.4497 179.966 57.121 180.79 57.1184C181.614 57.1158 182.406 57.4395 182.994 58.0192L197.104 72.0021C197.382 72.2777 197.603 72.606 197.754 72.968C197.904 73.3299 197.982 73.7183 197.982 74.1105C197.982 74.5028 197.904 74.8912 197.754 75.2531C197.603 75.6151 197.382 75.9434 197.104 76.219L182.937 90.2585C182.367 90.8224 181.599 91.1378 180.8 91.1361Z" fill="#78C2C2"/>
</svg>
