<svg width="275" height="220" viewBox="0 0 275 220" fill="none" xmlns="http://www.w3.org/2000/svg">
<g clip-path="url(#clip0_45_2376)">
<path d="M110.265 23C143.24 23 237.417 104.785 237.417 138C237.417 171.215 128.194 195.645 95.2184 195.645C62.243 195.645 16.6065 162.713 35.5113 135.504C54.4161 108.294 77.2896 23 110.265 23Z" fill="#31384A"/>
<path d="M240.837 213.485L235.137 213.484L232.426 191.34L240.838 191.34L240.837 213.485Z" fill="#FFB6B6"/>
<path d="M241.037 219.474L223.51 219.473V219.25C223.51 215.455 226.565 212.378 230.332 212.378L233.534 209.932L239.508 212.379L241.038 212.379L241.037 219.474Z" fill="#C2C2C2"/>
<path d="M215.568 213.485L209.869 213.484L207.157 191.34L215.569 191.34L215.568 213.485Z" fill="#FFB6B6"/>
<path d="M215.769 219.474L198.242 219.473V219.25C198.242 215.455 201.296 212.378 205.064 212.378L208.266 209.932L214.239 212.379L215.769 212.379L215.769 219.474Z" fill="#C2C2C2"/>
<path d="M212.852 89.9014L245.736 90.5987C245.736 90.5987 251.648 100.361 247.134 114.133L247.64 117.969L245.563 123.896L244.525 142.026L245.563 144.816L244.871 150.046C244.871 150.046 247.64 184.563 240.717 201.996L232.409 201.648L229.294 156.164L231.025 152.835L230.679 151.44L226.525 130.521L222.371 141.329V147.335L218.564 151.789C218.564 151.789 219.948 192.931 216.141 201.299H206.84L203.333 145.513L206.795 113.087L206.102 110.995L207.141 109.949L206.449 106.463L212.852 89.9014Z" fill="#3D5170"/>
<path d="M226.871 26.2702L236.909 23.8296L239.678 30.4542C239.678 30.4542 254.006 38.1248 254.698 48.5846C254.698 48.5846 256.64 56.9525 254.909 60.7878C253.178 64.6231 245.909 76.8263 245.909 76.8263C245.909 76.8263 252.486 98.0947 250.755 99.1407C249.024 100.187 207.833 98.0947 207.833 96.0027C207.833 93.9107 214.688 71.945 214.688 71.945L216.141 34.2895L225.486 30.8028L226.871 26.2702Z" fill="#1495FF"/>
<path d="M253.632 112.099C251.531 111.032 250.686 108.452 251.745 106.336C251.852 106.123 251.977 105.927 252.112 105.74L246.526 67.165L254.259 67.4142L258.305 104.999C259.771 106.252 260.257 108.392 259.354 110.198C258.295 112.314 255.733 113.165 253.632 112.099Z" fill="#FFB6B6"/>
<path d="M180.256 93.8928C179.411 91.6815 180.504 89.1981 182.7 88.3461C182.921 88.2603 183.145 88.1995 183.369 88.1525L204.947 55.791L210.511 61.2064L188.451 91.7926C188.703 93.7125 187.636 95.627 185.763 96.354C183.568 97.2061 181.102 96.1041 180.256 93.8928Z" fill="#FFB6B6"/>
<path d="M239.541 57.4352C237.356 49.8742 240.985 42.1601 248.803 42.1974C251.063 42.2082 252.818 42.8686 253.305 44.6968C255.007 51.0955 255.936 60.7543 255.936 60.7543L257.956 71.0381L256.733 73.1733L259.283 80.065L258.046 83.3253L257.779 99.9751L251.548 99.6265L244.683 86.9336L242.058 85.3614C242.058 85.3614 244.166 64.8391 239.973 58.9301L239.541 57.4352Z" fill="#1495FF"/>
<path d="M211.633 38.8274C215.276 31.86 224.603 30.2096 230.201 35.7071C231.819 37.2961 232.626 38.9996 231.715 40.6551C228.526 46.4492 221.136 52.6876 221.136 52.6876L212.035 67.4253L209.682 68.105L206.764 74.847L200.509 82.2535L192.226 86.6537L187.38 81.7724L188.409 75.4977L200.88 58.7607C200.88 58.7607 209.853 47.389 210.912 40.205L211.633 38.8274Z" fill="#1495FF"/>
<path d="M228.778 24.2326C229.008 24.2604 229.236 24.2812 229.464 24.2917C230.171 24.3307 230.87 24.2901 231.544 24.1751C233.59 23.8447 235.449 22.8683 236.884 21.4364C238.401 19.9256 239.439 17.909 239.719 15.6132C240.377 10.1942 236.546 5.25795 231.166 4.59581C225.863 3.93934 221.03 7.67511 220.258 12.9697C220.246 13.0516 220.233 13.1302 220.225 13.2117C219.568 18.6342 223.395 23.5674 228.778 24.2326Z" fill="#FFB6B6"/>
<path d="M218.046 12.6068C219.439 13.301 221.717 11.1186 222.589 12.3743C222.73 12.1029 222.887 11.8405 223.041 11.5923C223.181 11.3702 223.381 10.8962 223.613 10.815C223.32 11.5271 223.385 12.4914 223.689 13.3176C225.063 13.835 226.863 12.6898 228.135 11.3351C230.133 9.21106 233.395 14.6578 232.624 17.4766C233.605 16.2692 235.736 16.9502 236.457 18.3308C237.179 19.7079 235.96 20.8113 235.699 22.3475L237.667 22.0957C238.909 20.8776 238.822 18.8251 239.844 17.4133C241.552 15.0507 242.214 12.64 240.93 10.2016C239.791 8.04561 239.685 5.25527 237.596 4.01226C238.508 3.56271 235.262 4.26502 236.129 2.79997C237 1.338 232.358 1.16055 232.055 1.94379C230.729 0.344633 229.391 -0.709726 227.759 0.571659C226.156 1.83234 226.322 3.15745 224.44 3.0387C223.557 2.98358 223.654 4.64228 223.129 5.36544C222.607 6.08474 220.577 6.54651 220.479 6.46953C219.943 6.04717 218.119 9.6427 218.119 9.6427C218.119 9.6427 216.641 11.9034 218.046 12.6068Z" fill="#424242"/>
<path d="M175.132 78.2236C174.597 78.2236 174.161 78.6622 174.161 79.2015V110.495C174.161 111.034 174.597 111.472 175.132 111.472C175.667 111.472 176.103 111.034 176.103 110.495V79.2015C176.103 78.6622 175.667 78.2236 175.132 78.2236Z" fill="#AE3030"/>
<path d="M12.0297 54.7539C11.4942 54.7539 11.0588 55.1925 11.0588 55.7318V63.5551C11.0588 64.0944 11.4942 64.533 12.0297 64.533C12.5651 64.533 13.0005 64.0944 13.0005 63.5551V55.7318C13.0005 55.1925 12.5651 54.7539 12.0297 54.7539Z" fill="#3F5CA7"/>
<path d="M99.1018 23.9497C98.5663 23.9497 98.1309 24.3883 98.1309 24.9276V40.0852C98.1309 40.6245 98.5663 41.0631 99.1018 41.0631C99.6372 41.0631 100.073 40.6245 100.073 40.0852V24.9276C100.073 24.3883 99.6372 23.9497 99.1018 23.9497Z" fill="#9F1660"/>
<path d="M247.834 211.525C248.836 211.588 249.391 210.333 248.632 209.602L248.556 209.3C248.566 209.275 248.576 209.251 248.586 209.227C249.601 206.791 253.038 206.808 254.043 209.247C254.936 211.413 256.072 213.581 256.352 215.871C256.477 216.881 256.421 217.911 256.198 218.903C258.289 214.301 259.39 209.277 259.39 204.224C259.39 202.954 259.321 201.685 259.18 200.418C259.064 199.382 258.904 198.353 258.697 197.333C257.578 191.819 255.154 186.567 251.658 182.18C249.978 181.255 248.576 179.809 247.73 178.075C247.426 177.449 247.187 176.777 247.075 176.092C247.266 176.117 247.796 173.183 247.651 173.003C247.918 172.596 248.395 172.393 248.686 171.996C250.134 170.018 252.128 170.364 253.17 173.05C255.394 174.181 255.415 176.056 254.051 177.86C253.182 179.008 253.063 180.56 252.301 181.789C252.38 181.89 252.461 181.988 252.539 182.089C253.977 183.946 255.22 185.942 256.268 188.039C255.972 185.708 256.409 182.901 257.155 181.091C258.003 179.029 259.594 177.292 260.994 175.509C262.677 173.368 266.127 174.303 266.423 177.017C266.426 177.043 266.429 177.069 266.432 177.096C266.224 177.214 266.02 177.34 265.821 177.472C264.685 178.229 265.078 180.002 266.423 180.211L266.454 180.216C266.379 180.971 266.25 181.719 266.062 182.455C267.859 189.455 263.979 192.004 258.44 192.119C258.318 192.182 258.199 192.245 258.076 192.305C258.638 193.897 259.086 195.53 259.418 197.184C259.716 198.647 259.923 200.125 260.039 201.609C260.183 203.482 260.171 205.364 260.014 207.233L260.023 207.167C260.422 205.108 261.531 203.185 263.143 201.852C265.544 199.866 268.935 199.134 271.525 197.537C272.772 196.769 274.37 197.762 274.152 199.218L274.142 199.288C273.756 199.446 273.38 199.629 273.016 199.834C272.808 199.952 272.604 200.078 272.405 200.21C271.269 200.967 271.662 202.74 273.007 202.949L273.038 202.954C273.06 202.957 273.079 202.961 273.101 202.964C272.439 204.546 271.517 206.014 270.364 207.281C269.24 213.391 264.414 213.971 259.252 212.192H259.249C258.685 214.668 257.86 217.087 256.8 219.392H248.053C248.021 219.294 247.993 219.193 247.965 219.095C248.774 219.146 249.589 219.098 250.386 218.95C249.736 218.148 249.087 217.339 248.438 216.537C248.423 216.521 248.41 216.505 248.398 216.49C248.069 216.079 247.736 215.672 247.407 215.261C247.386 214.001 247.536 212.744 247.834 211.525Z" fill="#83A772"/>
<path d="M69.1127 131.45H35.5113V130.472H69.1126C72.0316 130.472 74.4063 128.08 74.4063 125.139V102.255H75.3772V125.139C75.3772 128.619 72.567 131.45 69.1127 131.45Z" fill="#FFCC4C"/>
<path d="M133.227 181.057H56.8038V182.035H133.227V181.057Z" fill="#E963FF"/>
<path d="M181.715 124.911H140.895C138.692 124.911 136.9 123.106 136.9 120.887V80.2716C136.9 78.0527 138.692 76.2476 140.895 76.2476H181.715C183.918 76.2476 185.71 78.0527 185.71 80.2716V120.887C185.71 123.106 183.918 124.911 181.715 124.911Z" fill="#29DF90"/>
<path d="M148.497 77.4463C142.749 77.4463 138.09 82.1394 138.09 87.9287V120.025C138.09 122.061 139.729 123.712 141.75 123.712H166.711C176.546 123.712 184.52 115.681 184.52 105.773V81.1331C184.52 79.0969 182.881 77.4463 180.859 77.4463L148.497 77.4463Z" fill="white"/>
<path d="M172.238 89.2497H150.286C149.868 89.2497 149.527 88.9065 149.527 88.4846C149.527 88.0628 149.868 87.7197 150.286 87.7197H172.238C172.656 87.7197 172.997 88.0628 172.997 88.4846C172.997 88.9065 172.656 89.2497 172.238 89.2497Z" fill="#29DF90"/>
<path d="M172.238 105.563H150.286C149.868 105.563 149.527 105.22 149.527 104.798C149.527 104.376 149.868 104.033 150.286 104.033H172.238C172.656 104.033 172.997 104.376 172.997 104.798C172.997 105.22 172.656 105.563 172.238 105.563Z" fill="#29DF90"/>
<path d="M181.152 97.4118H141.373C140.954 97.4118 140.613 97.0686 140.613 96.6468C140.613 96.2249 140.954 95.8818 141.373 95.8818H181.152C181.57 95.8818 181.911 96.2249 181.911 96.6468C181.911 97.0686 181.57 97.4118 181.152 97.4118Z" fill="#29DF90"/>
<path d="M181.558 112.196H167.187C166.769 112.196 166.428 111.853 166.428 111.431C166.428 111.009 166.769 110.666 167.187 110.666H181.558C181.976 110.666 182.317 111.009 182.317 111.431C182.317 111.853 181.976 112.196 181.558 112.196Z" fill="#29DF90"/>
<path d="M95.9737 205.835H63.5598C61.8105 205.835 60.3875 204.401 60.3875 202.639V170.388C60.3875 168.626 61.8105 167.193 63.5598 167.193H95.9737C97.723 167.193 99.146 168.626 99.146 170.388V202.639C99.146 204.401 97.723 205.835 95.9737 205.835Z" fill="#EEA1FF"/>
<path d="M69.5963 168.145C65.0324 168.145 61.3326 171.871 61.3326 176.469V201.955C61.3326 203.572 62.6339 204.883 64.2391 204.883H84.0594C91.8695 204.883 98.2008 198.505 98.2008 190.638V171.072C98.2008 169.456 96.8996 168.145 95.2944 168.145L69.5963 168.145Z" fill="white"/>
<path d="M88.4481 177.517H71.0174C70.6849 177.517 70.4143 177.245 70.4143 176.91C70.4143 176.575 70.6849 176.302 71.0174 176.302H88.4481C88.7807 176.302 89.0511 176.575 89.0511 176.91C89.0511 177.245 88.7807 177.517 88.4481 177.517Z" fill="#EEA1FF"/>
<path d="M88.4481 190.471H71.0174C70.6849 190.471 70.4143 190.198 70.4143 189.863C70.4143 189.529 70.6849 189.256 71.0174 189.256H88.4481C88.7807 189.256 89.0511 189.529 89.0511 189.863C89.0511 190.198 88.7807 190.471 88.4481 190.471Z" fill="#EEA1FF"/>
<path d="M95.5264 183.998H63.9392C63.6067 183.998 63.3361 183.726 63.3361 183.391C63.3361 183.056 63.6066 182.783 63.9392 182.783H95.5264C95.8589 182.783 96.1294 183.056 96.1294 183.391C96.1294 183.726 95.8589 183.998 95.5264 183.998Z" fill="#EEA1FF"/>
<path d="M95.8489 195.738H84.4379C84.1054 195.738 83.8348 195.465 83.8348 195.13C83.8348 194.795 84.1054 194.523 84.4379 194.523H95.8489C96.1814 194.523 96.4519 194.795 96.4519 195.13C96.4519 195.465 96.1814 195.738 95.8489 195.738Z" fill="#EEA1FF"/>
<path d="M73.3184 102.008H49.3469C48.0532 102.008 47.0008 100.948 47.0008 99.6451V75.7938C47.0008 74.4907 48.0532 73.4307 49.3469 73.4307H73.3184C74.612 73.4307 75.6645 74.4907 75.6645 75.7938V99.6451C75.6645 100.948 74.612 102.008 73.3184 102.008Z" fill="#FFCC4C"/>
<path d="M53.8111 74.1348C50.436 74.1348 47.6998 76.8908 47.6998 80.2905V99.139C47.6998 100.335 48.6622 101.304 49.8493 101.304H64.5072C70.2831 101.304 74.9655 96.5878 74.9655 90.7698V76.2999C74.9655 75.1041 74.0031 74.1348 72.816 74.1348L53.8111 74.1348Z" fill="white"/>
<path d="M67.7529 81.066H54.8621C54.6162 81.066 54.4161 80.8644 54.4161 80.6167C54.4161 80.3689 54.6162 80.1675 54.8621 80.1675H67.7529C67.9988 80.1675 68.1988 80.3689 68.1988 80.6167C68.1988 80.8644 67.9988 81.066 67.7529 81.066Z" fill="#FFCC4C"/>
<path d="M67.7529 90.646H54.8621C54.6162 90.646 54.4161 90.4445 54.4161 90.1967C54.4161 89.949 54.6162 89.7476 54.8621 89.7476H67.7529C67.9988 89.7476 68.1988 89.949 68.1988 90.1967C68.1988 90.4445 67.9988 90.646 67.7529 90.646Z" fill="#FFCC4C"/>
<path d="M72.9875 85.8589H49.6274C49.3815 85.8589 49.1814 85.6574 49.1814 85.4096C49.1814 85.1619 49.3815 84.9604 49.6274 84.9604H72.9875C73.2335 84.9604 73.4335 85.1619 73.4335 85.4096C73.4335 85.6574 73.2335 85.8589 72.9875 85.8589Z" fill="#FFCC4C"/>
<path d="M73.2261 94.5411H64.7872C64.5412 94.5411 64.3411 94.3395 64.3411 94.0918C64.3411 93.844 64.5412 93.6426 64.7872 93.6426H73.2261C73.472 93.6426 73.672 93.844 73.672 94.0918C73.672 94.3395 73.472 94.5411 73.2261 94.5411Z" fill="#FFCC4C"/>
<path d="M143.275 132.081C145.956 132.081 148.13 129.892 148.13 127.192C148.13 124.491 145.956 122.302 143.275 122.302C140.594 122.302 138.421 124.491 138.421 127.192C138.421 129.892 140.594 132.081 143.275 132.081Z" fill="#29DF90"/>
<path d="M74.8306 107.144C77.5115 107.144 79.6848 104.955 79.6848 102.255C79.6848 99.5544 77.5115 97.3652 74.8306 97.3652C72.1496 97.3652 69.9763 99.5544 69.9763 102.255C69.9763 104.955 72.1496 107.144 74.8306 107.144Z" fill="#FFCC4C"/>
<path d="M98.1309 174.131C100.812 174.131 102.985 171.942 102.985 169.242C102.985 166.541 100.812 164.352 98.1309 164.352C95.45 164.352 93.2767 166.541 93.2767 169.242C93.2767 171.942 95.45 174.131 98.1309 174.131Z" fill="#EEA1FF"/>
<path d="M108.617 38.5556C111.958 38.5556 114.667 35.8848 114.667 32.5901C114.667 29.2954 111.958 26.6245 108.617 26.6245C105.275 26.6245 102.567 29.2954 102.567 32.5901C102.567 35.8848 105.275 38.5556 108.617 38.5556Z" fill="#3F5077"/>
<path d="M157.117 30.549H124.552C123.435 30.549 122.526 29.6334 122.526 28.5081C122.526 27.3828 123.435 26.4673 124.552 26.4673H157.117C158.234 26.4673 159.143 27.3828 159.143 28.5081C159.143 29.6334 158.234 30.549 157.117 30.549Z" fill="#9F1660"/>
<path d="M182.53 37.4567H124.552C123.435 37.4567 122.526 36.5411 122.526 35.4159C122.526 34.2906 123.435 33.375 124.552 33.375H182.53C183.647 33.375 184.556 34.2906 184.556 35.4159C184.556 36.5411 183.647 37.4567 182.53 37.4567Z" fill="#3F5077"/>
<path d="M21.0475 63.6274C23.21 63.6274 24.963 61.8989 24.963 59.7666C24.963 57.6343 23.21 55.9058 21.0475 55.9058C18.8851 55.9058 17.1321 57.6343 17.1321 59.7666C17.1321 61.8989 18.8851 63.6274 21.0475 63.6274Z" fill="#38A38F"/>
<path d="M52.4361 58.4458H31.3607C30.6377 58.4458 30.0494 57.8533 30.0494 57.125C30.0494 56.3967 30.6377 55.8042 31.3607 55.8042H52.4361C53.1591 55.8042 53.7473 56.3967 53.7473 57.125C53.7473 57.8533 53.1591 58.4458 52.4361 58.4458Z" fill="#3F5CA7"/>
<path d="M68.8833 62.916H31.3607C30.6377 62.916 30.0494 62.3235 30.0494 61.5952C30.0494 60.867 30.6377 60.2744 31.3607 60.2744H68.8833C69.6063 60.2744 70.1946 60.867 70.1946 61.5952C70.1946 62.3235 69.6063 62.916 68.8833 62.916Z" fill="#38A38F"/>
<path d="M138.52 201.023C140.682 201.023 142.435 199.295 142.435 197.163C142.435 195.03 140.682 193.302 138.52 193.302C136.358 193.302 134.605 195.03 134.605 197.163C134.605 199.295 136.358 201.023 138.52 201.023Z" fill="#FF8888"/>
<path d="M169.909 195.842H148.833C148.11 195.842 147.522 195.249 147.522 194.521C147.522 193.793 148.11 193.2 148.833 193.2H169.909C170.632 193.2 171.22 193.793 171.22 194.521C171.22 195.249 170.632 195.842 169.909 195.842Z" fill="#6B7FAE"/>
<path d="M186.356 200.312H148.833C148.11 200.312 147.522 199.72 147.522 198.991C147.522 198.263 148.11 197.671 148.833 197.671H186.356C187.079 197.671 187.667 198.263 187.667 198.991C187.667 199.72 187.079 200.312 186.356 200.312Z" fill="#FF8888"/>
<path d="M91.4563 76.2622H90.4854V122.713H91.4563V76.2622Z" fill="#FF9148"/>
<path d="M90.9708 125.647C92.5794 125.647 93.8834 124.333 93.8834 122.713C93.8834 121.093 92.5794 119.779 90.9708 119.779C89.3623 119.779 88.0583 121.093 88.0583 122.713C88.0583 124.333 89.3623 125.647 90.9708 125.647Z" fill="#FF9148"/>
<path d="M135.144 159.384C136.753 159.384 138.057 158.071 138.057 156.451C138.057 154.83 136.753 153.517 135.144 153.517C133.536 153.517 132.232 154.83 132.232 156.451C132.232 158.071 133.536 159.384 135.144 159.384Z" fill="#00ACCB"/>
<path d="M56.5058 119.29C58.1144 119.29 59.4183 117.977 59.4183 116.356C59.4183 114.736 58.1144 113.423 56.5058 113.423C54.8973 113.423 53.5933 114.736 53.5933 116.356C53.5933 117.977 54.8973 119.29 56.5058 119.29Z" fill="#FF9148"/>
<path d="M55.4294 116.361L39.5013 116.847L39.5307 117.825L55.4588 117.339L55.4294 116.361Z" fill="#FF9148"/>
<path d="M158.838 167.682H134.686V156.451H135.657V166.704H158.838V167.682Z" fill="#00ACCB"/>
<path d="M55.3102 151.324C56.9188 151.324 58.2228 150.011 58.2228 148.39C58.2228 146.77 56.9188 145.457 55.3102 145.457C53.7017 145.457 52.3977 146.77 52.3977 148.39C52.3977 150.011 53.7017 151.324 55.3102 151.324Z" fill="#FF8888"/>
<path d="M78.7168 159.621H54.5641V148.39H55.5349V158.643H78.7168V159.621Z" fill="#FF8888"/>
<path d="M152.62 137.227H36.6119V138.205H152.62V137.227Z" fill="#00ACCB"/>
</g>
<defs>
<clipPath id="clip0_45_2376">
<rect width="274.172" height="220" fill="white"/>
</clipPath>
</defs>
</svg>
