<svg xmlns="http://www.w3.org/2000/svg" xmlns:xlink="http://www.w3.org/1999/xlink" width="256" height="256" viewBox="0 0 256 256">
  <defs>
    <clipPath id="clip-path">
      <rect id="Rectangle_509" data-name="Rectangle 509" width="256" height="256" transform="translate(400 89)" fill="#fff"/>
    </clipPath>
  </defs>
  <g id="Github" transform="translate(-400 -89)" clip-path="url(#clip-path)">
    <path id="Octicons-mark-github" d="M128,0A128.006,128.006,0,0,0,87.52,249.44c6.4,1.12,8.8-2.72,8.8-6.08,0-3.04-.16-13.12-.16-23.84-32.16,5.92-40.48-7.84-43.04-15.04C51.68,200.8,45.44,189.44,40,186.4c-4.48-2.4-10.88-8.32-.16-8.48,10.08-.16,17.28,9.28,19.68,13.12C71.04,210.4,89.44,204.96,96.8,201.6c1.12-8.32,4.48-13.92,8.16-17.12-28.48-3.2-58.24-14.24-58.24-63.2a49.815,49.815,0,0,1,13.12-34.4c-1.28-3.2-5.76-16.32,1.28-33.92,0,0,10.72-3.36,35.2,13.12a120.678,120.678,0,0,1,64,0c24.48-16.64,35.2-13.12,35.2-13.12,7.04,17.6,2.56,30.72,1.28,33.92a49.526,49.526,0,0,1,13.12,34.4c0,49.12-29.92,60-58.4,63.2,4.64,4,8.64,11.68,8.64,23.68,0,17.12-.16,30.88-.16,35.2,0,3.36,2.4,7.36,8.8,6.08A128.068,128.068,0,0,0,128,0Z" transform="translate(400 92.158)" fill="#1b1f23" fill-rule="evenodd"/>
  </g>
</svg>
