<svg xmlns="http://www.w3.org/2000/svg" xmlns:xlink="http://www.w3.org/1999/xlink" width="256" height="256" viewBox="0 0 256 256">
  <defs>
    <clipPath id="clip-path">
      <rect id="Rectangle_512" data-name="Rectangle 512" width="256" height="256" transform="translate(873 89)" fill="#fff" stroke="#707070" stroke-width="1"/>
    </clipPath>
  </defs>
  <g id="Knime" transform="translate(-873 -89)" clip-path="url(#clip-path)">
    <path id="KNIME-1324888733804219328_0" d="M128.005,17.149,0,238.852H256ZM98.858,212.4V127.752L101.484,116l73.308,42.309,8.864,8.157L110.342,208.8Zm3.73-101.332,3.551-15.876,52.368,48.153ZM94.035,213.909l-15.523,4.862,15.523-69.428Zm93.347-44.018L199.359,180.9l-67.9,21.275ZM108.358,89.027,113.392,75.7l59.387,72.565ZM72.07,219.93l-14.061,2.3,33.156-87.72ZM203.581,185.9l9.023,11.021-92.541,15.149ZM115.446,66.772l5.233-10.664,63.4,94.524Zm-66.2,158.143-11.852.8L87.568,123.542Zm170.059-21.747,6.616,9.864-113.561,7.64Zm-27.425-56.056L123.225,44.734l4.781-8.275ZM80.6,118.552,26.277,229.2H16.722ZM111.467,229.2,234.5,220.922l4.78,8.277Z" transform="translate(873 89)" fill="#f8d300"/>
  </g>
</svg>
