<svg xmlns="http://www.w3.org/2000/svg" width="158.2" height="43.96" viewBox="0 0 158.2 43.96">
  <path id="ITSIG" d="M7.84-3.29V-39.27H3.71a1.565,1.565,0,0,1-1.155-.455A1.565,1.565,0,0,1,2.1-40.88a1.685,1.685,0,0,1,.455-1.19,1.508,1.508,0,0,1,1.155-.49H15.75a1.508,1.508,0,0,1,1.155.49,1.685,1.685,0,0,1,.455,1.19,1.565,1.565,0,0,1-.455,1.155,1.565,1.565,0,0,1-1.155.455H11.62V-3.29h4.13a1.565,1.565,0,0,1,1.155.455A1.565,1.565,0,0,1,17.36-1.68a1.685,1.685,0,0,1-.455,1.19A1.508,1.508,0,0,1,15.75,0H3.71A1.508,1.508,0,0,1,2.555-.49,1.685,1.685,0,0,1,2.1-1.68a1.565,1.565,0,0,1,.455-1.155A1.565,1.565,0,0,1,3.71-3.29ZM38.08-.91V-39.27H24.22v4.13a1.425,1.425,0,0,1-.56,1.155,2.044,2.044,0,0,1-1.33.455A2.044,2.044,0,0,1,21-33.985a1.425,1.425,0,0,1-.56-1.155v-5.74A1.525,1.525,0,0,1,21-42.07a1.864,1.864,0,0,1,1.26-.49H57.61a1.953,1.953,0,0,1,1.33.49,1.525,1.525,0,0,1,.56,1.19v5.74a1.425,1.425,0,0,1-.56,1.155,2.044,2.044,0,0,1-1.33.455,2.044,2.044,0,0,1-1.33-.455,1.425,1.425,0,0,1-.56-1.155v-4.13H41.86V-.91A1.425,1.425,0,0,1,41.3.245,2.044,2.044,0,0,1,39.97.7,2.044,2.044,0,0,1,38.64.245,1.425,1.425,0,0,1,38.08-.91ZM67.62-9.66v4.83a27.623,27.623,0,0,0,11.9,2.24q7.21,0,10.85-2.275a7.187,7.187,0,0,0,3.64-6.44A6.717,6.717,0,0,0,90.58-17.5q-3.43-2.03-10.92-3.465T68.425-24.78q-3.745-2.38-3.745-7.49,0-10.99,16.31-10.99,8.68,0,14.35,3.15a1.772,1.772,0,0,1,1.05,1.47v5.74a1.425,1.425,0,0,1-.56,1.155,2.044,2.044,0,0,1-1.33.455,2.044,2.044,0,0,1-1.33-.455,1.425,1.425,0,0,1-.56-1.155v-4.83a26.994,26.994,0,0,0-11.445-2.24q-6.615,0-9.66,1.89a6.362,6.362,0,0,0-3.045,5.81q0,3.71,3.92,5.53a30.288,30.288,0,0,0,7.175,2.275q4.515.945,6.4,1.435a36.792,36.792,0,0,1,4.41,1.505,13.252,13.252,0,0,1,3.92,2.275,11.3,11.3,0,0,1,2.45,3.325A10.281,10.281,0,0,1,97.79-11.2a10.084,10.084,0,0,1-4.585,8.68Q88.62.7,80.08.7a45.021,45.021,0,0,1-8.47-.875A20.216,20.216,0,0,1,64.75-2.52a1.629,1.629,0,0,1-.91-1.4V-9.66a1.425,1.425,0,0,1,.56-1.155,2.044,2.044,0,0,1,1.33-.455,2.044,2.044,0,0,1,1.33.455A1.425,1.425,0,0,1,67.62-9.66Zm41.16,6.37V-39.27h-4.13a1.565,1.565,0,0,1-1.155-.455,1.565,1.565,0,0,1-.455-1.155,1.685,1.685,0,0,1,.455-1.19,1.508,1.508,0,0,1,1.155-.49h12.04a1.508,1.508,0,0,1,1.155.49,1.685,1.685,0,0,1,.455,1.19,1.565,1.565,0,0,1-.455,1.155,1.565,1.565,0,0,1-1.155.455h-4.13V-3.29h4.13a1.565,1.565,0,0,1,1.155.455A1.565,1.565,0,0,1,118.3-1.68a1.685,1.685,0,0,1-.455,1.19A1.508,1.508,0,0,1,116.69,0H104.65A1.508,1.508,0,0,1,103.5-.49a1.685,1.685,0,0,1-.455-1.19,1.565,1.565,0,0,1,.455-1.155,1.565,1.565,0,0,1,1.155-.455ZM156.52-.91v-2.8A19.1,19.1,0,0,1,144.06.7a18.891,18.891,0,0,1-14.77-6.335q-5.67-6.335-5.67-15.96t5.845-15.645a19.183,19.183,0,0,1,14.315-6.02,29.215,29.215,0,0,1,14.56,3.43,1.671,1.671,0,0,1,1.12,1.47v6.02a1.425,1.425,0,0,1-.56,1.155,2.044,2.044,0,0,1-1.33.455,2.044,2.044,0,0,1-1.33-.455,1.425,1.425,0,0,1-.56-1.155v-5.11a26.021,26.021,0,0,0-11.41-2.52,15.691,15.691,0,0,0-12.215,5.145Q127.4-29.68,127.4-21.42t4.69,13.545a15.215,15.215,0,0,0,11.9,5.285,18.667,18.667,0,0,0,12.53-4.55v-10.5h-10.5a1.565,1.565,0,0,1-1.155-.455,1.565,1.565,0,0,1-.455-1.155,1.685,1.685,0,0,1,.455-1.19,1.508,1.508,0,0,1,1.155-.49h12.46q1.82,0,1.82,1.61V-.91a1.425,1.425,0,0,1-.56,1.155A2.044,2.044,0,0,1,158.41.7a2.044,2.044,0,0,1-1.33-.455A1.425,1.425,0,0,1,156.52-.91Z" transform="translate(-2.1 43.26)"/>
</svg>
