<svg width="512" height="512" viewBox="0 0 512 512" fill="none" xmlns="http://www.w3.org/2000/svg">
<g clip-path="url(#clip0_111_2915)">
<path d="M360.414 285.845V406.011L380.516 438.768L382.046 441.26H461.362L462.965 285.845H360.414Z" fill="#B5B5B5"/>
<path opacity="0.1" d="M360.414 285.845V406.011L380.516 438.768L381.75 285.845H360.414Z" fill="black"/>
<path d="M168.933 282.64V402.806L148.831 435.564L147.301 438.055H67.9852L66.3826 282.64H168.933Z" fill="#B5B5B5"/>
<path opacity="0.1" d="M168.933 282.64V402.806L148.831 435.564L147.598 282.64H168.933Z" fill="black"/>
<path d="M487 280.237V287.447H55.9673V277.032L96.0259 256.204H451.749L487 280.237Z" fill="#B5B5B5"/>
<path opacity="0.1" d="M487 280.237V287.447H55.9673V277.032L487 280.237Z" fill="black"/>
<path d="M117.658 316.287H98.4295L90.4177 310.679H126.471L117.658 316.287Z" fill="#474747"/>
<path d="M117.658 339.519H98.4295L90.4177 333.911H126.471L117.658 339.519Z" fill="#474747"/>
<path d="M117.658 372.365H98.4295L90.4177 366.756H126.471L117.658 372.365Z" fill="#474747"/>
<path d="M117.658 405.21H98.4295L90.4177 399.602H126.471L117.658 405.21Z" fill="#474747"/>
<path d="M411.689 319.491H430.918L438.93 313.883H402.876L411.689 319.491Z" fill="#474747"/>
<path d="M411.689 342.723H430.918L438.93 337.115H402.876L411.689 342.723Z" fill="#474747"/>
<path d="M411.689 375.569H430.918L438.93 369.961H402.876L411.689 375.569Z" fill="#474747"/>
<path d="M411.689 408.414H430.918L438.93 402.806H402.876L411.689 408.414Z" fill="#474747"/>
<path d="M424.783 117.244H262.908C262.104 117.244 261.308 117.402 260.565 117.709C259.823 118.017 259.148 118.468 258.579 119.036C258.011 119.605 257.56 120.28 257.252 121.022C256.945 121.765 256.786 122.561 256.786 123.365V232.399C256.786 233.203 256.945 233.999 257.252 234.742C257.56 235.484 258.011 236.159 258.579 236.728C259.148 237.296 259.823 237.747 260.565 238.055C261.308 238.362 262.104 238.52 262.908 238.52H324.357L322.055 253.217C322.055 253.217 308.899 260.206 318.149 260.412C327.4 260.617 370.981 260.412 370.981 260.412C370.981 260.412 379.41 260.412 366.048 253.012L363.882 238.52H424.783C425.587 238.52 426.384 238.362 427.126 238.055C427.869 237.747 428.544 237.296 429.113 236.728C429.681 236.159 430.132 235.484 430.44 234.742C430.747 233.999 430.905 233.203 430.905 232.399V123.365C430.905 122.561 430.747 121.765 430.44 121.022C430.132 120.28 429.681 119.605 429.113 119.036C428.544 118.468 427.869 118.017 427.126 117.709C426.384 117.402 425.587 117.244 424.783 117.244Z" fill="#4C468A"/>
<path d="M425.047 123.719H262.645V214.574H425.047V123.719Z" fill="#F2F2F2"/>
<path d="M343.846 121.869C344.414 121.869 344.874 121.408 344.874 120.841C344.874 120.273 344.414 119.813 343.846 119.813C343.278 119.813 342.818 120.273 342.818 120.841C342.818 121.408 343.278 121.869 343.846 121.869Z" fill="#F2F2F2"/>
<path d="M343.846 234.101C346.003 234.101 347.752 232.353 347.752 230.196C347.752 228.039 346.003 226.29 343.846 226.29C341.689 226.29 339.94 228.039 339.94 230.196C339.94 232.353 341.689 234.101 343.846 234.101Z" fill="#F2F2F2"/>
<path d="M337.759 271.512V273.567H227.162V271.923L227.314 271.512L230.04 264.112H335.498L337.759 271.512Z" fill="#4C468A"/>
<path d="M380.321 269.5C380.12 270.361 379.359 271.269 377.64 272.129C371.473 275.212 358.933 271.306 358.933 271.306C358.933 271.306 349.271 269.662 349.271 265.345C349.543 265.16 349.826 264.991 350.118 264.842C352.711 263.47 361.308 260.086 376.552 264.985C377.675 265.338 378.678 265.995 379.449 266.884C379.791 267.22 380.048 267.632 380.2 268.087C380.351 268.542 380.393 269.026 380.321 269.5Z" fill="#3F3D56"/>
<path opacity="0.1" d="M380.321 269.5C372.772 272.392 366.044 272.608 359.139 267.812C356.528 265.882 353.366 264.841 350.118 264.842C352.711 263.47 361.308 260.086 376.552 264.985C377.675 265.338 378.678 265.995 379.449 266.884C379.791 267.22 380.048 267.632 380.2 268.087C380.351 268.542 380.393 269.026 380.321 269.5Z" fill="black"/>
<path d="M370.856 267.812C372.332 267.812 373.529 267.444 373.529 266.99C373.529 266.536 372.332 266.167 370.856 266.167C369.38 266.167 368.184 266.536 368.184 266.99C368.184 267.444 369.38 267.812 370.856 267.812Z" fill="#F2F2F2"/>
<path opacity="0.1" d="M337.759 271.512V273.568H227.162V271.923L227.314 271.512H337.759Z" fill="black"/>
<path d="M86.4937 39.0001C85.3713 38.9079 84.2473 39.159 83.2708 39.72C82.312 40.3766 81.7076 41.5268 81.0907 42.5972C78.7322 46.7386 75.5392 50.345 71.714 53.1881C68.9278 55.229 65.3856 57.7738 65.8623 61.5367C66.1138 62.7794 66.5729 63.9708 67.2204 65.0609C69.7907 70.2489 76.8046 74.2582 76.1147 80.1782C78.6683 75.9035 75.2526 73.7897 77.8063 69.5151C79.0224 67.4793 81.135 65.1814 82.9711 66.4598C83.5858 66.8879 83.9895 67.6556 84.6296 68.0312C86.157 68.9274 87.782 67.2141 89.134 66.0005C93.7962 61.8156 100.426 62.912 106.228 64.2159C108.967 64.8314 111.975 65.6391 113.594 68.2566C115.723 71.6981 111.572 75.415 110.523 79.306C110.437 79.6375 110.433 79.9848 110.511 80.3183C110.589 80.6517 110.747 80.9614 110.97 81.2207C111.194 81.48 111.477 81.6813 111.795 81.8074C112.114 81.9334 112.458 81.9805 112.799 81.9446C114.539 81.7729 116.602 81.6321 116.705 80.8683C118.895 80.9462 121.578 80.6982 122.517 78.4178C122.804 77.5155 122.955 76.5758 122.967 75.6291C123.311 71.7985 124.937 68.3039 126.014 64.6581C127.091 61.0122 127.56 56.7396 125.742 53.5072C125.093 52.4317 124.291 51.4567 123.36 50.613C113.045 40.6314 99.4829 38.9853 86.4937 39.0001Z" fill="#48463D"/>
<path d="M78.358 87.6554C78.358 87.6554 80.6014 106.349 72.3756 107.844C64.1499 109.34 79.8536 134.763 79.8536 134.763L117.244 139.249L108.27 109.34C108.27 109.34 102.288 107.096 106.027 92.1418C109.766 77.1871 78.358 87.6554 78.358 87.6554Z" fill="#FFB8B8"/>
<path d="M55.5503 408.807L58.5418 449.933H74.245L69.7587 408.807H55.5503Z" fill="#FFB8B8"/>
<path d="M170.711 331.043L172.954 365.438L190.154 357.961L183.424 329.547L170.711 331.043Z" fill="#FFB8B8"/>
<path d="M44.3333 251.783C44.3333 251.783 45.081 295.152 49.5679 309.359C54.0547 323.566 53.3068 324.313 52.5591 326.557C51.8113 328.8 51.0635 327.304 51.0635 331.043C51.0635 334.782 49.5679 393.853 51.0635 399.087C52.5591 404.321 46.5767 413.294 51.0635 414.041C55.5502 414.789 76.4886 414.041 77.2364 409.555C77.9842 405.069 71.254 403.573 74.2452 400.582C77.2364 397.591 81.7232 336.277 81.7232 336.277L92.1924 293.656L111.635 271.224H152.764L165.477 320.575C165.477 320.575 160.242 334.782 163.981 334.782C167.72 334.782 190.154 339.268 190.154 322.818C190.154 306.368 182.676 257.765 181.18 256.27C179.685 254.774 181.928 249.54 179.685 247.297C177.441 245.054 151.268 229.351 141.547 226.36C131.826 223.369 118.188 219.81 118.188 219.81L44.3333 251.783Z" fill="#524F7D"/>
<path d="M190.154 351.979C190.154 351.979 178.937 348.241 173.702 359.457C168.468 370.673 170.711 373.664 170.711 373.664C170.711 373.664 187.91 379.645 190.902 376.654C192.203 375.353 196.335 374.901 200.589 374.806C207.068 374.66 208.791 365.495 202.673 363.361C202.49 363.298 202.306 363.242 202.119 363.195C196.136 361.7 190.154 351.979 190.154 351.979Z" fill="#414141"/>
<path d="M95.1835 99.9929C107.573 99.9929 117.617 89.9498 117.617 77.5609C117.617 65.1721 107.573 55.1289 95.1835 55.1289C82.7935 55.1289 72.7495 65.1721 72.7495 77.5609C72.7495 89.9498 82.7935 99.9929 95.1835 99.9929Z" fill="#FFB8B8"/>
<path d="M66.0194 117.191C66.0194 117.191 102.662 124.669 111.635 112.705C120.609 100.741 124.348 146.353 124.348 146.353L128.834 194.208L122.104 220.378C122.104 220.378 86.9578 248.792 75.7408 251.036C64.5238 253.279 47.3245 254.774 47.3245 254.774C47.3245 254.774 52.5591 171.776 52.5591 170.28C52.5591 168.785 66.0194 117.191 66.0194 117.191Z" fill="#C7C7C7"/>
<path d="M77.1632 103.168C77.1632 103.168 69.0107 98.4977 66.7673 102.984C64.5239 107.471 43.5855 118.687 41.3421 118.687C39.0987 118.687 45.8289 180.748 42.8377 188.226C39.8465 195.703 25.6384 250.288 33.8642 254.774C42.0899 259.26 36.1076 250.288 44.3333 261.504C52.5591 272.72 92.9402 272.72 95.1836 268.233C97.427 263.747 77.2364 230.099 80.9754 198.694C84.7144 167.289 90.6968 123.921 85.4622 117.939C80.2276 111.957 77.1632 103.168 77.1632 103.168Z" fill="#6D886B"/>
<path d="M104.157 108.218L105.199 104.634C105.199 104.634 136.313 114.948 137.808 121.677C139.304 128.407 138.556 175.514 133.321 179.253C128.087 182.991 120.609 188.973 125.843 197.946C131.078 206.919 137.06 216.639 141.547 217.387C146.034 218.135 154.26 223.369 152.016 228.603C149.773 233.837 122.852 224.117 122.852 224.117C122.852 224.117 104.905 210.658 105.653 189.721C106.401 168.784 104.157 108.218 104.157 108.218Z" fill="#6D886B"/>
<path d="M130.33 196.451L112.383 230.099C112.383 230.099 86.2099 257.017 101.166 260.008C116.122 262.999 124.348 235.333 124.348 235.333L143.79 207.667L130.33 196.451Z" fill="#FFB8B8"/>
<path d="M87.5865 44.8694C86.6823 44.8024 85.7766 44.9781 84.9629 45.3782C84.2273 45.9154 83.621 46.6102 83.1883 47.4118C81.1937 50.4118 78.5937 52.9616 75.5552 54.8974C73.2872 56.3399 70.4037 58.1385 70.7917 60.7981C71.0024 61.6898 71.3773 62.5345 71.8973 63.289C73.9968 66.9929 74.8326 71.2799 74.2782 75.5012L80.5146 66.4372C81.5046 64.9984 83.2243 63.3742 84.719 64.2778C85.2194 64.5803 85.5481 65.123 86.0691 65.3884C87.3125 66.0219 88.6353 64.8109 89.7359 63.9531C93.5311 60.9953 98.9283 61.7702 103.651 62.6917C105.881 63.1268 108.33 63.6976 109.648 65.5477C111.838 68.6222 109.551 73.0645 110.829 76.6162C111.187 76.3657 111.491 76.0459 111.723 75.6758C111.955 75.3057 112.11 74.8928 112.179 74.4615C113.962 74.5166 116.147 74.3414 116.911 72.7296C117.143 72.0979 117.267 71.4315 117.277 70.7585C117.558 68.0511 118.881 65.5811 119.758 63.0043C120.635 60.4274 121.016 57.4075 119.536 55.1229C118.995 54.3488 118.342 53.6594 117.598 53.0773C109.201 46.0224 98.1602 44.8589 87.5865 44.8694Z" fill="#48463D"/>
<path d="M130.33 118.687L137.297 120.536C137.297 120.536 153.512 162.055 149.773 190.469C146.034 218.883 143.79 212.901 143.79 212.901C143.79 212.901 137.808 199.442 124.348 202.433L130.33 118.687Z" fill="#6D886B"/>
<path d="M56.5864 444.497C54.7831 446.948 55.1447 450.45 53.5473 453.04C52.1627 455.284 49.5532 456.461 47.8213 458.449C47.2687 459.11 46.776 459.819 46.3492 460.567C44.7426 463.258 43.4368 466.706 45.019 469.412C46.2919 471.588 48.9673 472.438 51.421 473.018C54.5223 473.751 57.7446 474.337 60.8817 473.777C64.0188 473.217 67.0848 471.297 68.2034 468.313C68.4232 467.563 68.6845 466.825 68.9862 466.104C70.6865 462.757 76.0199 462.721 77.7601 459.394C78.9779 457.066 77.8585 454.252 76.7395 451.875L73.3217 444.615C72.1876 442.205 67.5898 443.591 65.1928 443.013C62.0667 442.26 58.8353 441.431 56.5864 444.497Z" fill="#414141"/>
<path d="M31.6206 211.405L63.0281 260.008C63.0281 260.008 82.4709 284.683 88.4532 273.467C94.4356 262.251 67.5149 243.558 67.5149 243.558L47.3244 206.171L31.6206 211.405Z" fill="#FFB8B8"/>
<path d="M47.3244 120.182L41.3421 118.687C41.3421 118.687 29.3773 122.425 26.3861 138.128C23.3949 153.83 25.6383 216.64 29.3773 217.387C33.1163 218.135 47.8441 206.451 50.2016 208.928C52.559 211.405 45.081 198.694 47.3244 191.964C49.5678 185.235 47.3244 120.182 47.3244 120.182Z" fill="#6D886B"/>
<path d="M328.475 153.559H309.147V158.211H328.475V153.559Z" fill="#CFCC81"/>
<path d="M395.406 153.559H388.605V158.211H395.406V153.559Z" fill="#CFCC81"/>
<path d="M409.006 153.559H402.206V158.211H409.006V153.559Z" fill="#CFCC81"/>
<path d="M381.447 153.559H335.275V158.211H381.447V153.559Z" fill="#CFCC81"/>
<path d="M304.136 183.621H284.809V188.274H304.136V183.621Z" fill="#CFCC81"/>
<path d="M371.067 183.621H364.267V188.274H371.067V183.621Z" fill="#CFCC81"/>
<path d="M384.668 183.621H377.868V188.274H384.668V183.621Z" fill="#CFCC81"/>
<path d="M357.108 183.621H310.937V188.274H357.108V183.621Z" fill="#CFCC81"/>
<path d="M383.952 163.938H364.625V168.59H383.952V163.938Z" fill="#CFCC81"/>
<path d="M410.08 163.938H390.753V168.59H410.08V163.938Z" fill="#CFCC81"/>
<path d="M291.609 163.938H284.809V168.59H291.609V163.938Z" fill="#CFCC81"/>
<path d="M305.21 163.938H298.409V168.59H305.21V163.938Z" fill="#CFCC81"/>
<path d="M358.182 163.938H312.01V168.59H358.182V163.938Z" fill="#CFCC81"/>
<path d="M343.865 173.958H324.538V178.611H343.865V173.958Z" fill="#CFCC81"/>
<path d="M317.737 173.958H298.409V178.611H317.737V173.958Z" fill="#CFCC81"/>
<path d="M291.609 173.958H284.809V178.611H291.609V173.958Z" fill="#CFCC81"/>
<path d="M410.08 173.958H403.28V178.611H410.08V173.958Z" fill="#CFCC81"/>
<path d="M396.479 173.958H350.308V178.611H396.479V173.958Z" fill="#CFCC81"/>
</g>
<defs>
<clipPath id="clip0_111_2915">
<rect width="462" height="435" fill="white" transform="translate(25 39)"/>
</clipPath>
</defs>
</svg>
