<svg xmlns="http://www.w3.org/2000/svg" xmlns:xlink="http://www.w3.org/1999/xlink" width="512" height="512" viewBox="0 0 512 512">
  <defs>
    <clipPath id="clip-path">
      <rect id="Rectangle_517" data-name="Rectangle 517" width="512" height="512" transform="translate(57 61)" fill="none" stroke="#707070" stroke-width="1"/>
    </clipPath>
  </defs>
  <g id="COMT-D" transform="translate(-57 -61)">
    <g id="Mask_Group_2" data-name="Mask Group 2" clip-path="url(#clip-path)">
      <g id="Group_37" data-name="Group 37" transform="translate(46.991 111.974)">
        <path id="Path_663" data-name="Path 663" d="M484.392,212.331h-2.249V150.715a35.662,35.662,0,0,0-35.662-35.662H315.939a35.662,35.662,0,0,0-35.662,35.662h0V488.746a35.662,35.662,0,0,0,35.662,35.662H446.481a35.662,35.662,0,0,0,35.662-35.662h0V256.19h2.249Z" transform="translate(-230.976 -115.053)" fill="#ccc"/>
        <path id="Path_664" data-name="Path 664" d="M454.156,130.21H437.116c.242.435-98.052.435-98.214,0H322.987a26.632,26.632,0,0,0-26.632,26.632V494.378a26.632,26.632,0,0,0,26.631,26.631H454.156a26.632,26.632,0,0,0,26.634-26.632h0V156.842a26.632,26.632,0,0,0-26.632-26.632Z" transform="translate(-236.913 -120.932)" fill="#fff"/>
        <path id="Path_667" data-name="Path 667" d="M474.229,487.844H315.12a2.95,2.95,0,0,1-2.947-2.947V411.84a2.95,2.95,0,0,1,2.947-2.947H474.229a2.95,2.95,0,0,1,2.947,2.947V484.9a2.95,2.95,0,0,1-2.947,2.946ZM315.12,410.072a1.77,1.77,0,0,0-1.768,1.768V484.9a1.769,1.769,0,0,0,1.768,1.768H474.229A1.769,1.769,0,0,0,476,484.9V411.84a1.77,1.77,0,0,0-1.768-1.768Z" transform="translate(-243.348 -229.029)" fill="#e6e6e6"/>
        <path id="Path_668" data-name="Path 668" d="M528.315,354.132H457.6a2.95,2.95,0,0,1-2.947-2.947V311.717a2.95,2.95,0,0,1,2.947-2.947h70.713a2.95,2.95,0,0,1,2.947,2.947v39.468A2.95,2.95,0,0,1,528.315,354.132ZM457.6,309.95a1.77,1.77,0,0,0-1.768,1.768v39.468a1.77,1.77,0,0,0,1.768,1.768h70.715a1.77,1.77,0,0,0,1.768-1.768V311.717a1.769,1.769,0,0,0-1.768-1.768Z" transform="translate(-298.615 -190.193)" fill="#e6e6e6"/>
        <path id="Path_669" data-name="Path 669" d="M385.835,643.429H315.12a2.95,2.95,0,0,1-2.947-2.947V566.836a2.95,2.95,0,0,1,2.947-2.946h70.715a2.95,2.95,0,0,1,2.947,2.946v73.647a2.95,2.95,0,0,1-2.947,2.947ZM315.12,565.068a1.769,1.769,0,0,0-1.768,1.768v73.647a1.769,1.769,0,0,0,1.768,1.768h70.715a1.769,1.769,0,0,0,1.768-1.768V566.836a1.77,1.77,0,0,0-1.768-1.768Z" transform="translate(-243.348 -289.15)" fill="#e6e6e6"/>
        <path id="Path_670" data-name="Path 670" d="M528.315,643.429H457.6a2.95,2.95,0,0,1-2.947-2.947V566.836a2.95,2.95,0,0,1,2.947-2.946h70.713a2.95,2.95,0,0,1,2.947,2.947v73.647a2.95,2.95,0,0,1-2.947,2.947ZM457.6,565.068a1.769,1.769,0,0,0-1.768,1.768v73.647a1.769,1.769,0,0,0,1.768,1.768h70.713a1.769,1.769,0,0,0,1.768-1.768V566.836a1.769,1.769,0,0,0-1.768-1.768Z" transform="translate(-298.615 -289.15)" fill="#e6e6e6"/>
        <g id="Group_37-2" data-name="Group 37" transform="translate(250.857 262.408)">
          <path id="Path_703" data-name="Path 703" d="M719.99,686.254,612.413,578.678c-2.474-2.475-3.546-5.413-2.4-6.566L637.923,544.2c1.153-1.147,4.09-.074,6.566,2.4L752.065,654.178c2.474,2.474,3.546,5.412,2.4,6.566l-27.908,27.908C725.4,689.8,722.465,688.727,719.99,686.254Z" transform="translate(-609.554 -543.744)" fill="#fff"/>
          <circle id="Ellipse_88" data-name="Ellipse 88" cx="12.592" cy="12.592" r="12.592" transform="translate(21.917 21.916)" fill="#29df90" opacity="0.997"/>
          <path id="Path_703-2" data-name="Path 703" d="M719.99,686.254,612.413,578.678c-2.474-2.475-3.546-5.413-2.4-6.566L637.923,544.2c1.153-1.147,4.09-.074,6.566,2.4L752.065,654.178c2.474,2.474,3.546,5.412,2.4,6.566l-27.908,27.908C725.4,689.8,722.465,688.727,719.99,686.254ZM643.655,547.436c-1.485-1.485-3.248-2.128-3.94-1.44L611.807,573.9c-.69.69-.044,2.454,1.44,3.94L720.823,685.42c1.485,1.484,3.248,2.128,3.939,1.439l27.908-27.908c.69-.69.045-2.454-1.439-3.939Z" transform="translate(-609.554 -543.744)" fill="#e6e6e6"/>
          <path id="Path_705" data-name="Path 705" d="M701.1,618.595a2,2,0,0,0-2.829,2.829L765.844,689a2,2,0,1,0,2.829-2.829Z" transform="translate(-643.739 -572.55)" fill="#29df90"/>
          <path id="Path_706" data-name="Path 706" d="M687.235,632.46a2,2,0,0,0-2.829,2.829l67.574,67.574a2,2,0,1,0,2.829-2.829Z" transform="translate(-638.361 -577.928)" fill="#29df90"/>
        </g>
        <path id="Path_677" data-name="Path 677" d="M390.375,359.362H324.038l15.609-27.04a3.188,3.188,0,0,1,5.522,0l6.669,11.551,11.341-19.642a3.991,3.991,0,0,1,6.913,0Zm-64.3-1.178h62.252l-19.262-33.36a2.812,2.812,0,0,0-4.871,0L351.84,346.231l-7.69-13.319a2.009,2.009,0,0,0-3.48,0Z" transform="translate(-247.95 -195.416)" fill="#e6e6e6"/>
        <path id="Path_678" data-name="Path 678" d="M529.006,359.362H462.669l15.609-27.04a3.188,3.188,0,0,1,5.522,0l6.668,11.551,11.342-19.642a3.991,3.991,0,0,1,6.913,0Zm-64.3-1.178h62.252L507.7,324.824a2.812,2.812,0,0,0-4.871,0l-12.36,21.407-7.69-13.319a2.009,2.009,0,0,0-3.48,0Z" transform="translate(-301.723 -195.416)" fill="#e6e6e6"/>
        <path id="Path_679" data-name="Path 679" d="M385.835,354.132H315.12a2.95,2.95,0,0,1-2.947-2.947V311.717a2.95,2.95,0,0,1,2.947-2.947h70.715a2.95,2.95,0,0,1,2.947,2.947v39.468a2.95,2.95,0,0,1-2.947,2.947ZM315.12,309.95a1.77,1.77,0,0,0-1.768,1.768v39.468a1.77,1.77,0,0,0,1.768,1.768h70.715a1.77,1.77,0,0,0,1.768-1.768V311.717a1.77,1.77,0,0,0-1.768-1.768Z" transform="translate(-243.348 -190.193)" fill="#e6e6e6"/>
        <path id="Path_680" data-name="Path 680" d="M340.336,588.7a2,2,0,0,0,0,4h40.579a2,2,0,0,0,0-4Z" transform="translate(-253.496 -298.774)" fill="#e6e6e6"/>
        <path id="Path_681" data-name="Path 681" d="M340.336,607.956a2,2,0,0,0,0,4h40.579a2,2,0,0,0,0-4Z" transform="translate(-253.496 -306.243)" fill="#e6e6e6"/>
        <path id="Path_682" data-name="Path 682" d="M366.772,653.062a12.591,12.591,0,1,1,12.591-12.591h0a12.606,12.606,0,0,1-12.591,12.592Zm0-24a11.413,11.413,0,1,0,11.413,11.413h0a11.426,11.426,0,0,0-11.413-11.411Z" transform="translate(-259.642 -313.971)" fill="#e6e6e6"/>
        <path id="Path_683" data-name="Path 683" d="M523.4,666.487a2,2,0,0,0,0-4H482.814a2,2,0,1,0,0,4Z" transform="translate(-308.761 -327.394)" fill="#e6e6e6"/>
        <path id="Path_684" data-name="Path 684" d="M523.4,647.231a2,2,0,0,0,0-4H482.814a2,2,0,1,0,0,4Z" transform="translate(-308.761 -319.925)" fill="#e6e6e6"/>
        <g id="Group_40" data-name="Group 40" transform="translate(276.642 105.83)">
          <path id="Path_686" data-name="Path 686" d="M871,744.681H861.1l-4.713-38.217h14.623Z" transform="translate(-731.081 -450.946)" fill="#a0616a"/>
          <path id="Path_687" data-name="Path 687" d="M841.978,764.272H864V776.3H832.865v-2.919a9.113,9.113,0,0,1,9.112-9.113Z" transform="translate(-721.959 -473.369)" fill="#2f2e41"/>
          <path id="Path_688" data-name="Path 688" d="M935.7,744.681H925.79l-4.713-38.217H935.7Z" transform="translate(-756.175 -450.946)" fill="#ffd7c5"/>
          <path id="Path_689" data-name="Path 689" d="M906.673,764.272H928.7V776.3H897.56v-2.919A9.113,9.113,0,0,1,906.673,764.272Z" transform="translate(-747.053 -473.369)" fill="#cfcfd5"/>
          <path id="Path_906" data-name="Path 906" d="M9.382,28.082V46.934a4.46,4.46,0,0,1-4.476,4.509A4.865,4.865,0,0,1,0,46.934V28.082c0-2.459,2.41-4.476,4.907-4.476A4.494,4.494,0,0,1,9.382,28.082Zm1.759,25.552a4.806,4.806,0,0,0,4.816,4.816H19.2l.049,9.945c0,6,8.985,5.958,8.985,0V58.452h6.053V68.4c0,5.973,9.039,5.989,9.039,0V58.452H46.61a4.8,4.8,0,0,0,4.785-4.816V24.427H11.141ZM51.5,22.857H10.958A18.28,18.28,0,0,1,21.308,6.68L18.209.934c-.455-.8.7-1.291,1.09-.617l3.158,5.8a21.987,21.987,0,0,1,17.626,0L43.224.335a.627.627,0,1,1,1.09.617l-3.1,5.728A18.342,18.342,0,0,1,51.5,22.857ZM23.721,13.818a1.7,1.7,0,1,0,0,.005Zm18.457,0a1.684,1.684,0,1,0,0,.005Z" transform="translate(0 72.111)" fill="#29df90"/>
          <path id="Path_690" data-name="Path 690" d="M12.869,33.459a7.578,7.578,0,0,0-.653-11.6L16.461,5.068,6.887,0,1.226,23.794a7.619,7.619,0,0,0,11.644,9.665Z" transform="translate(90.229 92.905) rotate(45)" fill="#ffd7c5"/>
          <path id="Path_691" data-name="Path 691" d="M912.823,541.008l-.808,56.572-.807,74.352-17.78-1.616-8.891-102.638L873.223,670.316H854.867l-1.848-103.448,6.466-22.627Z" transform="translate(-729.776 -386.768)" fill="#545361"/>
          <path id="Path_692" data-name="Path 692" d="M860.517,478.263l-.26-.118,10.133-69.308-5.151-20.948a4.585,4.585,0,0,1,2.841-5.386l9.269-3.476,3.274-9,25.835,2.784.635,7.039c2.8.9,25.854,8.576,24.263,17.323-1.57,8.635-10.84,35.8-11.311,37.179l-1.622,38.961-.2.1c-.241.122-18.048,8.876-37.393,8.876A49.232,49.232,0,0,1,860.517,478.263Z" transform="translate(-732.584 -320.445)" fill="#6d886b"/>
          <path id="Path_693" data-name="Path 693" d="M0,78.778l4.483-40.26C4.5,38.282,6.3,14.664,6.931,7.248,7.584-.407,13.585,0,13.645.005l3.307.274,5.309,17.727-4.73,34.3L12.9,80.664Z" transform="translate(134.766 50.972) rotate(45)" fill="#6d886b"/>
          <path id="Path_694" data-name="Path 694" d="M918.8,536.928a7.579,7.579,0,0,1,9.252-7.031l10.022-14.123,10.068,4-14.433,19.746a7.619,7.619,0,0,1-14.909-2.589Z" transform="translate(-755.289 -376.98)" fill="#ffd7c5"/>
          <path id="Path_695" data-name="Path 695" d="M936.771,482.527l17.819-29.967-7.26-19.358,9.887-26.366.367.157c.24.1,5.857,2.61,6.69,11.587l11.362,35.709-30.324,39.339Z" transform="translate(-762.262 -334.724)" fill="#6d886b"/>
          <circle id="Ellipse_109" data-name="Ellipse 109" cx="18.602" cy="18.602" r="18.602" transform="translate(141.344 7.92)" fill="#ffd7c5"/>
          <path id="Path_696" data-name="Path 696" d="M887.37,306.488c1.926,2.279,5.184,2.922,8.19,3.183a77.143,77.143,0,0,0,20.948-1.71c.429,4.127-.734,8.577,1.7,11.972a55.578,55.578,0,0,0,1.974-12.6,12.065,12.065,0,0,0-.7-5.4,4.963,4.963,0,0,0-4.228-3.117,10.6,10.6,0,0,1,4.727-2.02l-5.906-2.968,1.517-1.557-10.693-.654,3.1-1.967a67.168,67.168,0,0,0-14.075-.442,12.072,12.072,0,0,0-6.223,1.73c-1.765,1.263-2.786,3.772-1.69,5.625a8.169,8.169,0,0,0-6.225,4.939,13.191,13.191,0,0,0-.473,6.339,44.96,44.96,0,0,0,2.356,9.966" transform="translate(-739.91 -289.029)" fill="#484853"/>
        </g>
        <path id="Path_138" data-name="Path 138" d="M801.787,731.831H661.107c-1.438,0-2.6-2.387-2.605-5.33V655.1c0-2.943,1.167-5.325,2.605-5.33H801.787c1.438,0,2.6,2.387,2.6,5.33v71.4C804.39,729.443,803.223,731.828,801.787,731.831Z" transform="translate(-377.684 -322.461)" fill="#fff"/>
        <path id="Path_685" data-name="Path 685" d="M509.253,588.7a12.591,12.591,0,1,1-12.591,12.591h0A12.606,12.606,0,0,1,509.253,588.7Zm0,24a11.413,11.413,0,1,0-11.415-11.414h0a11.426,11.426,0,0,0,11.413,11.413Z" transform="translate(-314.909 -298.774)" fill="#e6e6e6"/>
        <g id="Group_38" data-name="Group 38" transform="translate(306.67 343.015)">
          <circle id="Ellipse_7" data-name="Ellipse 7" cx="12.302" cy="12.302" r="12.302" transform="translate(9.695 0.261)" fill="#3f3d56"/>
          <path id="Path_63" data-name="Path 63" d="M761.308,725.9H700.96a1.266,1.266,0,0,1-.225-.018l28.543-49.438a2,2,0,0,1,3.479,0l19.155,33.177.918,1.587Z" transform="translate(-700.735 -675.429)" fill="#29df90"/>
          <path id="Path_65" data-name="Path 65" d="M821.507,735.133h-52.2l10.114-14.691.728-1.058,13.18-19.146a2.667,2.667,0,0,1,3.962-.236,2.466,2.466,0,0,1,.19.236Z" transform="translate(-727.334 -684.662)" fill="#29df90"/>
        </g>
        <path id="Path_138-2" data-name="Path 138" d="M801.787,731.831H661.107c-1.438,0-2.6-2.387-2.605-5.33V655.1c0-2.943,1.167-5.325,2.605-5.33H801.787c1.438,0,2.6,2.387,2.6,5.33v71.4C804.39,729.443,803.223,731.828,801.787,731.831ZM661.107,651.9c-.863,0-1.562,1.433-1.563,3.2v71.4c0,1.765.7,3.2,1.563,3.2H801.787c.863,0,1.562-1.433,1.563-3.2V655.1c0-1.765-.7-3.2-1.563-3.2Z" transform="translate(-377.684 -322.461)" fill="#e6e6e6"/>
        <rect id="Rectangle_110" data-name="Rectangle 110" width="478.674" height="1.224" transform="translate(0 408.828)" fill="#e6e6e6"/>
        <path id="Path_1061" data-name="Path 1061" d="M6.293,0A6.293,6.293,0,1,1,0,6.293,6.293,6.293,0,0,1,6.293,0Z" transform="translate(145.367 13.681)" fill="#8f8e8e"/>
        <rect id="Rectangle_476" data-name="Rectangle 476" width="9.663" height="30.37" rx="4.832" transform="translate(327.486 205.988) rotate(-45)" fill="#29df90"/>
        <rect id="Rectangle_505" data-name="Rectangle 505" width="161.508" height="52.438" rx="1" transform="translate(69.857 49.338)" fill="#fff"/>
        <path id="Rectangle_505_-_Outline" data-name="Rectangle 505 - Outline" d="M1-.625H160.508A1.627,1.627,0,0,1,162.133,1V51.438a1.627,1.627,0,0,1-1.625,1.625H1A1.627,1.627,0,0,1-.625,51.438V1A1.627,1.627,0,0,1,1-.625ZM160.508,51.813a.375.375,0,0,0,.375-.375V1a.375.375,0,0,0-.375-.375H1A.375.375,0,0,0,.625,1V51.438A.375.375,0,0,0,1,51.813Z" transform="translate(69.857 49.338)" fill="#e6e6e6"/>
      </g>
    </g>
  </g>
</svg>
