<svg width="512" height="512" viewBox="0 0 512 512" fill="none" xmlns="http://www.w3.org/2000/svg">
<g clip-path="url(#clip0_111_2569)">
<mask id="mask0_111_2569" style="mask-type:luminance" maskUnits="userSpaceOnUse" x="0" y="0" width="512" height="512">
<path d="M512 0H0V512H512V0Z" fill="white"/>
</mask>
<g mask="url(#mask0_111_2569)">
</g>
<path d="M504.942 55H7V322.503H504.942V55Z" fill="#252F31"/>
<path d="M101.407 92.7134H97.0159V99.7299H101.407V92.7134Z" fill="#00ACCB"/>
<path d="M116.337 90.9595H111.946V97.976H116.337V90.9595Z" fill="#00ACCB"/>
<path d="M124.24 90.9595H119.849V97.976H124.24V90.9595Z" fill="#00ACCB"/>
<path d="M124.24 112.009H119.849V119.025H124.24V112.009Z" fill="#00ACCB"/>
<path d="M133.022 101.484H128.631V108.501H133.022V101.484Z" fill="#00ACCB"/>
<path d="M133.022 112.886H128.631V119.903H133.022V112.886Z" fill="#00ACCB"/>
<path d="M124.24 134.812H119.849V141.829H124.24V134.812Z" fill="#00ACCB"/>
<path d="M133.022 146.214H128.631V153.231H133.022V146.214Z" fill="#00ACCB"/>
<path d="M124.24 189.19H119.849V196.207H124.24V189.19Z" fill="#00ACCB"/>
<path d="M116.337 146.214H111.946V153.231H116.337V146.214Z" fill="#00ACCB"/>
<path d="M101.407 104.115H97.0159V111.132H101.407V104.115Z" fill="#00ACCB"/>
<path d="M101.407 213.748H97.0159V220.765H101.407V213.748Z" fill="#00ACCB"/>
<path d="M101.407 236.552H97.0159V243.568H101.407V236.552Z" fill="#00ACCB"/>
<path d="M101.407 247.953H97.0159V254.97H101.407V247.953Z" fill="#00ACCB"/>
<path d="M101.407 116.394H95.2595V117.271H101.407V116.394Z" fill="#00ACCB"/>
<path d="M125.119 126.919H118.971V127.796H125.119V126.919Z" fill="#00ACCB"/>
<path d="M101.407 172.526H95.2595V173.403H101.407V172.526Z" fill="#00ACCB"/>
<path d="M101.407 182.174H95.2595V183.051H101.407V182.174Z" fill="#00ACCB"/>
<path d="M125.119 238.306H118.971V239.183H125.119V238.306Z" fill="#00ACCB"/>
<path d="M118.093 259.355H111.946V260.232H118.093V259.355Z" fill="#00ACCB"/>
<path d="M97.0159 124.288V126.042H98.772V129.55H97.0159V131.304H101.407V124.288H97.0159Z" fill="#00ACCB"/>
<path d="M111.946 112.009V113.763H113.702V117.271H111.946V119.025H116.337V112.009H111.946Z" fill="#00ACCB"/>
<path d="M128.632 123.411V125.165H130.388V128.673H128.632V130.427H133.023V123.411H128.632Z" fill="#00ACCB"/>
<path d="M128.632 157.616V159.37H130.388V162.878H128.632V164.632H133.023V157.616H128.632Z" fill="#00ACCB"/>
<path d="M128.632 169.018V170.772H130.388V174.28H128.632V176.034H133.023V169.018H128.632Z" fill="#00ACCB"/>
<path d="M128.632 133.936V135.689H130.388V139.198H128.632V140.952H133.023V133.936H128.632Z" fill="#00ACCB"/>
<path d="M119.849 101.484V103.239H121.606V106.747H119.849V108.501H124.241V101.484H119.849Z" fill="#00ACCB"/>
<path d="M124.24 157.616H119.849V164.633H124.24V157.616Z" fill="#00ACCB"/>
<path d="M124.24 178.666H119.849V185.682H124.24V178.666Z" fill="#00ACCB"/>
<path d="M119.849 168.141V169.895H121.606V173.403H119.849V175.157H124.241V168.141H119.849Z" fill="#00ACCB"/>
<path d="M111.946 123.411V125.165H113.702V128.673H111.946V130.427H116.337V123.411H111.946Z" fill="#00ACCB"/>
<path d="M111.946 134.812V136.567H113.702V140.075H111.946V141.829H116.337V134.812H111.946Z" fill="#00ACCB"/>
<path d="M116.337 169.018H111.946V176.035H116.337V169.018Z" fill="#00ACCB"/>
<path d="M111.946 157.616V159.37H113.702V162.878H111.946V164.632H116.337V157.616H111.946Z" fill="#00ACCB"/>
<path d="M116.337 191.821H111.946V198.838H116.337V191.821Z" fill="#00ACCB"/>
<path d="M111.946 180.419V182.173H113.702V185.682H111.946V187.436H116.337V180.419H111.946Z" fill="#00ACCB"/>
<path d="M116.337 214.625H111.946V221.641H116.337V214.625Z" fill="#00ACCB"/>
<path d="M124.24 212.871H119.849V219.888H124.24V212.871Z" fill="#00ACCB"/>
<path d="M111.946 203.223V204.978H113.702V208.486H111.946V210.24H116.337V203.223H111.946Z" fill="#00ACCB"/>
<path d="M128.632 203.223V204.978H130.388V208.486H128.632V210.24H133.023V203.223H128.632Z" fill="#00ACCB"/>
<path d="M177.811 101.484H173.42V108.501H177.811V101.484Z" fill="#00ACCB"/>
<path d="M177.811 112.886H173.42V119.903H177.811V112.886Z" fill="#00ACCB"/>
<path d="M177.811 146.214H173.42V153.231H177.811V146.214Z" fill="#00ACCB"/>
<path d="M173.42 123.411V125.165H175.176V128.673H173.42V130.427H177.811V123.411H173.42Z" fill="#00ACCB"/>
<path d="M173.42 157.616V159.37H175.176V162.878H173.42V164.632H177.811V157.616H173.42Z" fill="#00ACCB"/>
<path d="M173.42 169.018V170.772H175.176V174.28H173.42V176.034H177.811V169.018H173.42Z" fill="#00ACCB"/>
<path d="M173.42 133.936V135.689H175.176V139.198H173.42V140.952H177.811V133.936H173.42Z" fill="#00ACCB"/>
<path d="M173.42 203.223V204.978H175.176V208.486H173.42V210.24H177.811V203.223H173.42Z" fill="#00ACCB"/>
<path d="M116.337 237.429H111.946V244.445H116.337V237.429Z" fill="#00ACCB"/>
<path d="M124.24 224.272H119.849V231.289H124.24V224.272Z" fill="#00ACCB"/>
<path d="M116.337 267.249H111.946V274.265H116.337V267.249Z" fill="#00ACCB"/>
<path d="M124.24 246.199H119.849V253.216H124.24V246.199Z" fill="#00ACCB"/>
<path d="M111.946 226.027V227.781H113.702V231.289H111.946V233.044H116.337V226.027H111.946Z" fill="#00ACCB"/>
<path d="M111.946 279.528V281.281H113.702V284.79H111.946V286.544H116.337V279.528H111.946Z" fill="#00ACCB"/>
<path d="M164.638 90.9595H160.247V97.976H164.638V90.9595Z" fill="#00ACCB"/>
<path d="M164.638 146.214H160.247V153.231H164.638V146.214Z" fill="#00ACCB"/>
<path d="M166.394 259.355H160.247V260.232H166.394V259.355Z" fill="#00ACCB"/>
<path d="M160.247 112.009V113.763H162.003V117.271H160.247V119.025H164.638V112.009H160.247Z" fill="#00ACCB"/>
<path d="M160.247 123.411V125.165H162.003V128.673H160.247V130.427H164.638V123.411H160.247Z" fill="#00ACCB"/>
<path d="M160.247 134.812V136.567H162.003V140.075H160.247V141.829H164.638V134.812H160.247Z" fill="#00ACCB"/>
<path d="M164.638 169.018H160.247V176.035H164.638V169.018Z" fill="#00ACCB"/>
<path d="M160.247 157.616V159.37H162.003V162.878H160.247V164.632H164.638V157.616H160.247Z" fill="#00ACCB"/>
<path d="M164.638 191.821H160.247V198.838H164.638V191.821Z" fill="#00ACCB"/>
<path d="M160.247 180.419V182.173H162.003V185.682H160.247V187.436H164.638V180.419H160.247Z" fill="#00ACCB"/>
<path d="M164.638 214.625H160.247V221.641H164.638V214.625Z" fill="#00ACCB"/>
<path d="M160.247 203.223V204.978H162.003V208.486H160.247V210.24H164.638V203.223H160.247Z" fill="#00ACCB"/>
<path d="M164.638 237.429H160.247V244.445H164.638V237.429Z" fill="#00ACCB"/>
<path d="M164.638 267.249H160.247V274.265H164.638V267.249Z" fill="#00ACCB"/>
<path d="M160.247 226.027V227.781H162.003V231.289H160.247V233.044H164.638V226.027H160.247Z" fill="#00ACCB"/>
<path d="M160.247 279.528V281.281H162.003V284.79H160.247V286.544H164.638V279.528H160.247Z" fill="#00ACCB"/>
<path d="M185.715 90.9595H181.323V97.976H185.715V90.9595Z" fill="#00ACCB"/>
<path d="M185.715 146.214H181.323V153.231H185.715V146.214Z" fill="#00ACCB"/>
<path d="M187.471 259.355H181.323V260.232H187.471V259.355Z" fill="#00ACCB"/>
<path d="M181.323 112.009V113.763H183.08V117.271H181.323V119.025H185.714V112.009H181.323Z" fill="#00ACCB"/>
<path d="M181.323 123.411V125.165H183.08V128.673H181.323V130.427H185.714V123.411H181.323Z" fill="#00ACCB"/>
<path d="M181.323 134.812V136.567H183.08V140.075H181.323V141.829H185.714V134.812H181.323Z" fill="#00ACCB"/>
<path d="M185.715 169.018H181.323V176.035H185.715V169.018Z" fill="#00ACCB"/>
<path d="M181.323 157.616V159.37H183.08V162.878H181.323V164.632H185.714V157.616H181.323Z" fill="#00ACCB"/>
<path d="M185.715 191.821H181.323V198.838H185.715V191.821Z" fill="#00ACCB"/>
<path d="M181.323 180.419V182.173H183.08V185.682H181.323V187.436H185.714V180.419H181.323Z" fill="#00ACCB"/>
<path d="M185.715 214.625H181.323V221.641H185.715V214.625Z" fill="#00ACCB"/>
<path d="M181.323 203.223V204.978H183.08V208.486H181.323V210.24H185.714V203.223H181.323Z" fill="#00ACCB"/>
<path d="M185.715 237.429H181.323V244.445H185.715V237.429Z" fill="#00ACCB"/>
<path d="M185.715 267.249H181.323V274.265H185.715V267.249Z" fill="#00ACCB"/>
<path d="M181.323 226.027V227.781H183.08V231.289H181.323V233.044H185.714V226.027H181.323Z" fill="#00ACCB"/>
<path d="M181.323 279.528V281.281H183.08V284.79H181.323V286.544H185.714V279.528H181.323Z" fill="#00ACCB"/>
<path d="M119.849 267.249V269.003H121.606V272.511H119.849V274.265H124.241V267.249H119.849Z" fill="#00ACCB"/>
<path d="M119.849 278.651V280.405H121.606V283.913H119.849V285.667H124.241V278.651H119.849Z" fill="#00ACCB"/>
<path d="M97.0159 146.214V147.968H98.772V151.477H97.0159V153.231H101.407V146.214H97.0159Z" fill="#00ACCB"/>
<path d="M97.0159 190.945V192.699H98.772V196.207H97.0159V197.961H101.407V190.945H97.0159Z" fill="#00ACCB"/>
<path d="M97.0159 202.346V204.101H98.772V207.609H97.0159V209.363H101.407V202.346H97.0159Z" fill="#00ACCB"/>
<path d="M97.0159 225.15V226.904H98.772V230.412H97.0159V232.166H101.407V225.15H97.0159Z" fill="#00ACCB"/>
<path d="M97.0159 257.601V259.355H98.772V262.863H97.0159V264.617H101.407V257.601H97.0159Z" fill="#00ACCB"/>
<path d="M97.0159 267.249V269.003H98.772V272.511H97.0159V274.265H101.407V267.249H97.0159Z" fill="#00ACCB"/>
<path d="M147.074 92.7134H142.683V99.7299H147.074V92.7134Z" fill="#00ACCB"/>
<path d="M147.074 104.115H142.683V111.132H147.074V104.115Z" fill="#00ACCB"/>
<path d="M147.074 116.394H140.926V117.271H147.074V116.394Z" fill="#00ACCB"/>
<path d="M147.074 172.526H140.926V173.403H147.074V172.526Z" fill="#00ACCB"/>
<path d="M147.074 182.174H140.926V183.051H147.074V182.174Z" fill="#00ACCB"/>
<path d="M142.683 124.288V126.042H144.439V129.55H142.683V131.304H147.074V124.288H142.683Z" fill="#00ACCB"/>
<path d="M142.683 146.214V147.968H144.439V151.477H142.683V153.231H147.074V146.214H142.683Z" fill="#00ACCB"/>
<path d="M142.683 190.945V192.699H144.439V196.207H142.683V197.961H147.074V190.945H142.683Z" fill="#00ACCB"/>
<path d="M197.131 169.018H192.74V176.035H197.131V169.018Z" fill="#00ACCB"/>
<path d="M197.131 180.419H192.74V187.436H197.131V180.419Z" fill="#00ACCB"/>
<path d="M197.131 192.699H190.984V193.576H197.131V192.699Z" fill="#00ACCB"/>
<path d="M197.131 248.831H190.984V249.708H197.131V248.831Z" fill="#00ACCB"/>
<path d="M197.131 258.478H190.984V259.355H197.131V258.478Z" fill="#00ACCB"/>
<path d="M192.74 200.592V202.346H194.496V205.855H192.74V207.609H197.131V200.592H192.74Z" fill="#00ACCB"/>
<path d="M192.74 222.519V224.273H194.496V227.781H192.74V229.535H197.131V222.519H192.74Z" fill="#00ACCB"/>
<path d="M192.74 267.249V269.003H194.496V272.511H192.74V274.265H197.131V267.249H192.74Z" fill="#00ACCB"/>
<path d="M211.183 92.7134H206.792V99.7299H211.183V92.7134Z" fill="#00ACCB"/>
<path d="M226.112 90.9595H221.721V97.976H226.112V90.9595Z" fill="#00ACCB"/>
<path d="M234.016 90.9595H229.625V97.976H234.016V90.9595Z" fill="#00ACCB"/>
<path d="M234.016 112.009H229.625V119.025H234.016V112.009Z" fill="#00ACCB"/>
<path d="M242.798 101.484H238.407V108.501H242.798V101.484Z" fill="#00ACCB"/>
<path d="M242.798 112.886H238.407V119.903H242.798V112.886Z" fill="#00ACCB"/>
<path d="M234.016 134.812H229.625V141.829H234.016V134.812Z" fill="#00ACCB"/>
<path d="M242.798 146.214H238.407V153.231H242.798V146.214Z" fill="#00ACCB"/>
<path d="M234.016 189.19H229.625V196.207H234.016V189.19Z" fill="#00ACCB"/>
<path d="M226.112 146.214H221.721V153.231H226.112V146.214Z" fill="#00ACCB"/>
<path d="M211.183 104.115H206.792V111.132H211.183V104.115Z" fill="#00ACCB"/>
<path d="M211.183 213.748H206.792V220.765H211.183V213.748Z" fill="#00ACCB"/>
<path d="M211.183 236.552H206.792V243.568H211.183V236.552Z" fill="#00ACCB"/>
<path d="M211.183 247.953H206.792V254.97H211.183V247.953Z" fill="#00ACCB"/>
<path d="M211.183 116.394H205.035V117.271H211.183V116.394Z" fill="#00ACCB"/>
<path d="M234.894 126.919H228.747V127.796H234.894V126.919Z" fill="#00ACCB"/>
<path d="M211.183 172.526H205.035V173.403H211.183V172.526Z" fill="#00ACCB"/>
<path d="M211.183 182.174H205.035V183.051H211.183V182.174Z" fill="#00ACCB"/>
<path d="M234.894 238.306H228.747V239.183H234.894V238.306Z" fill="#00ACCB"/>
<path d="M227.868 259.355H221.721V260.232H227.868V259.355Z" fill="#00ACCB"/>
<path d="M206.792 124.288V126.042H208.548V129.55H206.792V131.304H211.183V124.288H206.792Z" fill="#00ACCB"/>
<path d="M221.721 112.009V113.763H223.477V117.271H221.721V119.025H226.112V112.009H221.721Z" fill="#00ACCB"/>
<path d="M238.407 123.411V125.165H240.163V128.673H238.407V130.427H242.798V123.411H238.407Z" fill="#00ACCB"/>
<path d="M238.407 157.616V159.37H240.163V162.878H238.407V164.632H242.798V157.616H238.407Z" fill="#00ACCB"/>
<path d="M238.407 169.018V170.772H240.163V174.28H238.407V176.034H242.798V169.018H238.407Z" fill="#00ACCB"/>
<path d="M238.407 133.936V135.689H240.163V139.198H238.407V140.952H242.798V133.936H238.407Z" fill="#00ACCB"/>
<path d="M229.625 101.484V103.239H231.381V106.747H229.625V108.501H234.016V101.484H229.625Z" fill="#00ACCB"/>
<path d="M234.016 157.616H229.625V164.633H234.016V157.616Z" fill="#00ACCB"/>
<path d="M234.016 178.666H229.625V185.682H234.016V178.666Z" fill="#00ACCB"/>
<path d="M229.625 168.141V169.895H231.381V173.403H229.625V175.157H234.016V168.141H229.625Z" fill="#00ACCB"/>
<path d="M221.721 123.411V125.165H223.477V128.673H221.721V130.427H226.112V123.411H221.721Z" fill="#00ACCB"/>
<path d="M221.721 134.812V136.567H223.477V140.075H221.721V141.829H226.112V134.812H221.721Z" fill="#00ACCB"/>
<path d="M226.112 169.018H221.721V176.035H226.112V169.018Z" fill="#00ACCB"/>
<path d="M221.721 157.616V159.37H223.477V162.878H221.721V164.632H226.112V157.616H221.721Z" fill="#00ACCB"/>
<path d="M226.112 191.821H221.721V198.838H226.112V191.821Z" fill="#00ACCB"/>
<path d="M221.721 180.419V182.173H223.477V185.682H221.721V187.436H226.112V180.419H221.721Z" fill="#00ACCB"/>
<path d="M226.112 214.625H221.721V221.641H226.112V214.625Z" fill="#00ACCB"/>
<path d="M234.016 212.871H229.625V219.888H234.016V212.871Z" fill="#00ACCB"/>
<path d="M221.721 203.223V204.978H223.477V208.486H221.721V210.24H226.112V203.223H221.721Z" fill="#00ACCB"/>
<path d="M238.407 203.223V204.978H240.163V208.486H238.407V210.24H242.798V203.223H238.407Z" fill="#00ACCB"/>
<path d="M287.586 101.484H283.195V108.501H287.586V101.484Z" fill="#00ACCB"/>
<path d="M287.586 112.886H283.195V119.903H287.586V112.886Z" fill="#00ACCB"/>
<path d="M287.586 146.214H283.195V153.231H287.586V146.214Z" fill="#00ACCB"/>
<path d="M283.196 123.411V125.165H284.952V128.673H283.196V130.427H287.587V123.411H283.196Z" fill="#00ACCB"/>
<path d="M283.196 157.616V159.37H284.952V162.878H283.196V164.632H287.587V157.616H283.196Z" fill="#00ACCB"/>
<path d="M283.196 169.018V170.772H284.952V174.28H283.196V176.034H287.587V169.018H283.196Z" fill="#00ACCB"/>
<path d="M283.196 133.936V135.689H284.952V139.198H283.196V140.952H287.587V133.936H283.196Z" fill="#00ACCB"/>
<path d="M283.196 203.223V204.978H284.952V208.486H283.196V210.24H287.587V203.223H283.196Z" fill="#00ACCB"/>
<path d="M226.112 237.429H221.721V244.445H226.112V237.429Z" fill="#00ACCB"/>
<path d="M234.016 224.272H229.625V231.289H234.016V224.272Z" fill="#00ACCB"/>
<path d="M226.112 267.249H221.721V274.265H226.112V267.249Z" fill="#00ACCB"/>
<path d="M234.016 246.199H229.625V253.216H234.016V246.199Z" fill="#00ACCB"/>
<path d="M221.721 226.027V227.781H223.477V231.289H221.721V233.044H226.112V226.027H221.721Z" fill="#00ACCB"/>
<path d="M221.721 279.528V281.281H223.477V284.79H221.721V286.544H226.112V279.528H221.721Z" fill="#00ACCB"/>
<path d="M274.413 90.9595H270.022V97.976H274.413V90.9595Z" fill="#00ACCB"/>
<path d="M274.413 146.214H270.022V153.231H274.413V146.214Z" fill="#00ACCB"/>
<path d="M276.17 259.355H270.022V260.232H276.17V259.355Z" fill="#00ACCB"/>
<path d="M270.022 112.009V113.763H271.779V117.271H270.022V119.025H274.413V112.009H270.022Z" fill="#00ACCB"/>
<path d="M270.022 123.411V125.165H271.779V128.673H270.022V130.427H274.413V123.411H270.022Z" fill="#00ACCB"/>
<path d="M270.022 134.812V136.567H271.779V140.075H270.022V141.829H274.413V134.812H270.022Z" fill="#00ACCB"/>
<path d="M274.413 169.018H270.022V176.035H274.413V169.018Z" fill="#00ACCB"/>
<path d="M270.022 157.616V159.37H271.779V162.878H270.022V164.632H274.413V157.616H270.022Z" fill="#00ACCB"/>
<path d="M274.413 191.821H270.022V198.838H274.413V191.821Z" fill="#00ACCB"/>
<path d="M270.022 180.419V182.173H271.779V185.682H270.022V187.436H274.413V180.419H270.022Z" fill="#00ACCB"/>
<path d="M274.413 214.625H270.022V221.641H274.413V214.625Z" fill="#00ACCB"/>
<path d="M270.022 203.223V204.978H271.779V208.486H270.022V210.24H274.413V203.223H270.022Z" fill="#00ACCB"/>
<path d="M274.413 237.429H270.022V244.445H274.413V237.429Z" fill="#00ACCB"/>
<path d="M274.413 267.249H270.022V274.265H274.413V267.249Z" fill="#00ACCB"/>
<path d="M270.022 226.027V227.781H271.779V231.289H270.022V233.044H274.413V226.027H270.022Z" fill="#00ACCB"/>
<path d="M270.022 279.528V281.281H271.779V284.79H270.022V286.544H274.413V279.528H270.022Z" fill="#00ACCB"/>
<path d="M295.49 90.9595H291.099V97.976H295.49V90.9595Z" fill="#00ACCB"/>
<path d="M295.49 146.214H291.099V153.231H295.49V146.214Z" fill="#00ACCB"/>
<path d="M297.247 259.355H291.099V260.232H297.247V259.355Z" fill="#00ACCB"/>
<path d="M291.099 112.009V113.763H292.856V117.271H291.099V119.025H295.49V112.009H291.099Z" fill="#00ACCB"/>
<path d="M291.099 123.411V125.165H292.856V128.673H291.099V130.427H295.49V123.411H291.099Z" fill="#00ACCB"/>
<path d="M291.099 134.812V136.567H292.856V140.075H291.099V141.829H295.49V134.812H291.099Z" fill="#00ACCB"/>
<path d="M295.49 169.018H291.099V176.035H295.49V169.018Z" fill="#00ACCB"/>
<path d="M291.099 157.616V159.37H292.856V162.878H291.099V164.632H295.49V157.616H291.099Z" fill="#00ACCB"/>
<path d="M295.49 191.821H291.099V198.838H295.49V191.821Z" fill="#00ACCB"/>
<path d="M291.099 180.419V182.173H292.856V185.682H291.099V187.436H295.49V180.419H291.099Z" fill="#00ACCB"/>
<path d="M295.49 214.625H291.099V221.641H295.49V214.625Z" fill="#00ACCB"/>
<path d="M291.099 203.223V204.978H292.856V208.486H291.099V210.24H295.49V203.223H291.099Z" fill="#00ACCB"/>
<path d="M295.49 237.429H291.099V244.445H295.49V237.429Z" fill="#00ACCB"/>
<path d="M295.49 267.249H291.099V274.265H295.49V267.249Z" fill="#00ACCB"/>
<path d="M291.099 226.027V227.781H292.856V231.289H291.099V233.044H295.49V226.027H291.099Z" fill="#00ACCB"/>
<path d="M291.099 279.528V281.281H292.856V284.79H291.099V286.544H295.49V279.528H291.099Z" fill="#00ACCB"/>
<path d="M229.625 267.249V269.003H231.381V272.511H229.625V274.265H234.016V267.249H229.625Z" fill="#00ACCB"/>
<path d="M229.625 278.651V280.405H231.381V283.913H229.625V285.667H234.016V278.651H229.625Z" fill="#00ACCB"/>
<path d="M206.792 146.214V147.968H208.548V151.477H206.792V153.231H211.183V146.214H206.792Z" fill="#00ACCB"/>
<path d="M206.792 190.945V192.699H208.548V196.207H206.792V197.961H211.183V190.945H206.792Z" fill="#00ACCB"/>
<path d="M206.792 202.346V204.101H208.548V207.609H206.792V209.363H211.183V202.346H206.792Z" fill="#00ACCB"/>
<path d="M206.792 225.15V226.904H208.548V230.412H206.792V232.166H211.183V225.15H206.792Z" fill="#00ACCB"/>
<path d="M206.792 257.601V259.355H208.548V262.863H206.792V264.617H211.183V257.601H206.792Z" fill="#00ACCB"/>
<path d="M206.792 267.249V269.003H208.548V272.511H206.792V274.265H211.183V267.249H206.792Z" fill="#00ACCB"/>
<path d="M256.849 92.7134H252.458V99.7299H256.849V92.7134Z" fill="#00ACCB"/>
<path d="M256.849 104.115H252.458V111.132H256.849V104.115Z" fill="#00ACCB"/>
<path d="M256.849 116.394H250.702V117.271H256.849V116.394Z" fill="#00ACCB"/>
<path d="M256.849 172.526H250.702V173.403H256.849V172.526Z" fill="#00ACCB"/>
<path d="M256.849 182.174H250.702V183.051H256.849V182.174Z" fill="#00ACCB"/>
<path d="M252.458 124.288V126.042H254.215V129.55H252.458V131.304H256.849V124.288H252.458Z" fill="#00ACCB"/>
<path d="M252.458 146.214V147.968H254.215V151.477H252.458V153.231H256.849V146.214H252.458Z" fill="#00ACCB"/>
<path d="M252.458 190.945V192.699H254.215V196.207H252.458V197.961H256.849V190.945H252.458Z" fill="#00ACCB"/>
<path d="M306.907 169.018H302.516V176.035H306.907V169.018Z" fill="#00ACCB"/>
<path d="M306.907 180.419H302.516V187.436H306.907V180.419Z" fill="#00ACCB"/>
<path d="M306.907 192.699H300.759V193.576H306.907V192.699Z" fill="#00ACCB"/>
<path d="M306.907 248.831H300.759V249.708H306.907V248.831Z" fill="#00ACCB"/>
<path d="M306.907 258.478H300.759V259.355H306.907V258.478Z" fill="#00ACCB"/>
<path d="M302.516 200.592V202.346H304.272V205.855H302.516V207.609H306.907V200.592H302.516Z" fill="#00ACCB"/>
<path d="M302.516 222.519V224.273H304.272V227.781H302.516V229.535H306.907V222.519H302.516Z" fill="#00ACCB"/>
<path d="M302.516 267.249V269.003H304.272V272.511H302.516V274.265H306.907V267.249H302.516Z" fill="#00ACCB"/>
<path d="M320.958 92.7134H316.567V99.7299H320.958V92.7134Z" fill="#00ACCB"/>
<path d="M335.888 90.9595H331.497V97.976H335.888V90.9595Z" fill="#00ACCB"/>
<path d="M343.791 90.9595H339.4V97.976H343.791V90.9595Z" fill="#00ACCB"/>
<path d="M343.791 112.009H339.4V119.025H343.791V112.009Z" fill="#00ACCB"/>
<path d="M352.573 101.484H348.182V108.501H352.573V101.484Z" fill="#00ACCB"/>
<path d="M352.573 112.886H348.182V119.903H352.573V112.886Z" fill="#00ACCB"/>
<path d="M343.791 134.812H339.4V141.829H343.791V134.812Z" fill="#00ACCB"/>
<path d="M352.573 146.214H348.182V153.231H352.573V146.214Z" fill="#00ACCB"/>
<path d="M343.791 189.19H339.4V196.207H343.791V189.19Z" fill="#00ACCB"/>
<path d="M335.888 146.214H331.497V153.231H335.888V146.214Z" fill="#00ACCB"/>
<path d="M320.958 104.115H316.567V111.132H320.958V104.115Z" fill="#00ACCB"/>
<path d="M320.958 213.748H316.567V220.765H320.958V213.748Z" fill="#00ACCB"/>
<path d="M320.958 236.552H316.567V243.568H320.958V236.552Z" fill="#00ACCB"/>
<path d="M320.958 247.953H316.567V254.97H320.958V247.953Z" fill="#00ACCB"/>
<path d="M320.958 116.394H314.811V117.271H320.958V116.394Z" fill="#00ACCB"/>
<path d="M344.67 126.919H338.522V127.796H344.67V126.919Z" fill="#00ACCB"/>
<path d="M320.958 172.526H314.811V173.403H320.958V172.526Z" fill="#00ACCB"/>
<path d="M320.958 182.174H314.811V183.051H320.958V182.174Z" fill="#00ACCB"/>
<path d="M344.67 238.306H338.522V239.183H344.67V238.306Z" fill="#00ACCB"/>
<path d="M337.644 259.355H331.497V260.232H337.644V259.355Z" fill="#00ACCB"/>
<path d="M316.567 124.288V126.042H318.324V129.55H316.567V131.304H320.958V124.288H316.567Z" fill="#00ACCB"/>
<path d="M331.497 112.009V113.763H333.253V117.271H331.497V119.025H335.888V112.009H331.497Z" fill="#00ACCB"/>
<path d="M348.182 123.411V125.165H349.939V128.673H348.182V130.427H352.573V123.411H348.182Z" fill="#00ACCB"/>
<path d="M348.182 157.616V159.37H349.939V162.878H348.182V164.632H352.573V157.616H348.182Z" fill="#00ACCB"/>
<path d="M348.182 169.018V170.772H349.939V174.28H348.182V176.034H352.573V169.018H348.182Z" fill="#00ACCB"/>
<path d="M348.182 133.936V135.689H349.939V139.198H348.182V140.952H352.573V133.936H348.182Z" fill="#00ACCB"/>
<path d="M339.4 101.484V103.239H341.157V106.747H339.4V108.501H343.791V101.484H339.4Z" fill="#00ACCB"/>
<path d="M343.791 157.616H339.4V164.633H343.791V157.616Z" fill="#00ACCB"/>
<path d="M343.791 178.666H339.4V185.682H343.791V178.666Z" fill="#00ACCB"/>
<path d="M339.4 168.141V169.895H341.157V173.403H339.4V175.157H343.791V168.141H339.4Z" fill="#00ACCB"/>
<path d="M331.497 123.411V125.165H333.253V128.673H331.497V130.427H335.888V123.411H331.497Z" fill="#00ACCB"/>
<path d="M331.497 134.812V136.567H333.253V140.075H331.497V141.829H335.888V134.812H331.497Z" fill="#00ACCB"/>
<path d="M335.888 169.018H331.497V176.035H335.888V169.018Z" fill="#00ACCB"/>
<path d="M331.497 157.616V159.37H333.253V162.878H331.497V164.632H335.888V157.616H331.497Z" fill="#00ACCB"/>
<path d="M335.888 191.821H331.497V198.838H335.888V191.821Z" fill="#00ACCB"/>
<path d="M331.497 180.419V182.173H333.253V185.682H331.497V187.436H335.888V180.419H331.497Z" fill="#00ACCB"/>
<path d="M335.888 214.625H331.497V221.641H335.888V214.625Z" fill="#00ACCB"/>
<path d="M343.791 212.871H339.4V219.888H343.791V212.871Z" fill="#00ACCB"/>
<path d="M331.497 203.223V204.978H333.253V208.486H331.497V210.24H335.888V203.223H331.497Z" fill="#00ACCB"/>
<path d="M348.182 203.223V204.978H349.939V208.486H348.182V210.24H352.573V203.223H348.182Z" fill="#00ACCB"/>
<path d="M397.362 101.484H392.971V108.501H397.362V101.484Z" fill="#00ACCB"/>
<path d="M397.362 112.886H392.971V119.903H397.362V112.886Z" fill="#00ACCB"/>
<path d="M397.362 146.214H392.971V153.231H397.362V146.214Z" fill="#00ACCB"/>
<path d="M392.971 123.411V125.165H394.727V128.673H392.971V130.427H397.362V123.411H392.971Z" fill="#00ACCB"/>
<path d="M392.971 157.616V159.37H394.727V162.878H392.971V164.632H397.362V157.616H392.971Z" fill="#00ACCB"/>
<path d="M392.971 169.018V170.772H394.727V174.28H392.971V176.034H397.362V169.018H392.971Z" fill="#00ACCB"/>
<path d="M392.971 133.936V135.689H394.727V139.198H392.971V140.952H397.362V133.936H392.971Z" fill="#00ACCB"/>
<path d="M392.971 203.223V204.978H394.727V208.486H392.971V210.24H397.362V203.223H392.971Z" fill="#00ACCB"/>
<path d="M335.888 237.429H331.497V244.445H335.888V237.429Z" fill="#00ACCB"/>
<path d="M343.791 224.272H339.4V231.289H343.791V224.272Z" fill="#00ACCB"/>
<path d="M335.888 267.249H331.497V274.265H335.888V267.249Z" fill="#00ACCB"/>
<path d="M343.791 246.199H339.4V253.216H343.791V246.199Z" fill="#00ACCB"/>
<path d="M331.497 226.027V227.781H333.253V231.289H331.497V233.044H335.888V226.027H331.497Z" fill="#00ACCB"/>
<path d="M331.497 279.528V281.281H333.253V284.79H331.497V286.544H335.888V279.528H331.497Z" fill="#00ACCB"/>
<path d="M384.189 90.9595H379.798V97.976H384.189V90.9595Z" fill="#00ACCB"/>
<path d="M384.189 146.214H379.798V153.231H384.189V146.214Z" fill="#00ACCB"/>
<path d="M385.945 259.355H379.798V260.232H385.945V259.355Z" fill="#00ACCB"/>
<path d="M379.798 112.009V113.763H381.554V117.271H379.798V119.025H384.189V112.009H379.798Z" fill="#00ACCB"/>
<path d="M379.798 123.411V125.165H381.554V128.673H379.798V130.427H384.189V123.411H379.798Z" fill="#00ACCB"/>
<path d="M379.798 134.812V136.567H381.554V140.075H379.798V141.829H384.189V134.812H379.798Z" fill="#00ACCB"/>
<path d="M384.189 169.018H379.798V176.035H384.189V169.018Z" fill="#00ACCB"/>
<path d="M379.798 157.616V159.37H381.554V162.878H379.798V164.632H384.189V157.616H379.798Z" fill="#00ACCB"/>
<path d="M384.189 191.821H379.798V198.838H384.189V191.821Z" fill="#00ACCB"/>
<path d="M379.798 180.419V182.173H381.554V185.682H379.798V187.436H384.189V180.419H379.798Z" fill="#00ACCB"/>
<path d="M384.189 214.625H379.798V221.641H384.189V214.625Z" fill="#00ACCB"/>
<path d="M379.798 203.223V204.978H381.554V208.486H379.798V210.24H384.189V203.223H379.798Z" fill="#00ACCB"/>
<path d="M384.189 237.429H379.798V244.445H384.189V237.429Z" fill="#00ACCB"/>
<path d="M384.189 267.249H379.798V274.265H384.189V267.249Z" fill="#00ACCB"/>
<path d="M379.798 226.027V227.781H381.554V231.289H379.798V233.044H384.189V226.027H379.798Z" fill="#00ACCB"/>
<path d="M379.798 279.528V281.281H381.554V284.79H379.798V286.544H384.189V279.528H379.798Z" fill="#00ACCB"/>
<path d="M405.266 90.9595H400.875V97.976H405.266V90.9595Z" fill="#00ACCB"/>
<path d="M405.266 146.214H400.875V153.231H405.266V146.214Z" fill="#00ACCB"/>
<path d="M407.022 259.355H400.875V260.232H407.022V259.355Z" fill="#00ACCB"/>
<path d="M400.875 112.009V113.763H402.631V117.271H400.875V119.025H405.266V112.009H400.875Z" fill="#00ACCB"/>
<path d="M400.875 123.411V125.165H402.631V128.673H400.875V130.427H405.266V123.411H400.875Z" fill="#00ACCB"/>
<path d="M400.875 134.812V136.567H402.631V140.075H400.875V141.829H405.266V134.812H400.875Z" fill="#00ACCB"/>
<path d="M405.266 169.018H400.875V176.035H405.266V169.018Z" fill="#00ACCB"/>
<path d="M400.875 157.616V159.37H402.631V162.878H400.875V164.632H405.266V157.616H400.875Z" fill="#00ACCB"/>
<path d="M405.266 191.821H400.875V198.838H405.266V191.821Z" fill="#00ACCB"/>
<path d="M400.875 180.419V182.173H402.631V185.682H400.875V187.436H405.266V180.419H400.875Z" fill="#00ACCB"/>
<path d="M405.266 214.625H400.875V221.641H405.266V214.625Z" fill="#00ACCB"/>
<path d="M400.875 203.223V204.978H402.631V208.486H400.875V210.24H405.266V203.223H400.875Z" fill="#00ACCB"/>
<path d="M405.266 237.429H400.875V244.445H405.266V237.429Z" fill="#00ACCB"/>
<path d="M405.266 267.249H400.875V274.265H405.266V267.249Z" fill="#00ACCB"/>
<path d="M400.875 226.027V227.781H402.631V231.289H400.875V233.044H405.266V226.027H400.875Z" fill="#00ACCB"/>
<path d="M400.875 279.528V281.281H402.631V284.79H400.875V286.544H405.266V279.528H400.875Z" fill="#00ACCB"/>
<path d="M339.4 267.249V269.003H341.157V272.511H339.4V274.265H343.791V267.249H339.4Z" fill="#00ACCB"/>
<path d="M339.4 278.651V280.405H341.157V283.913H339.4V285.667H343.791V278.651H339.4Z" fill="#00ACCB"/>
<path d="M316.567 146.214V147.968H318.324V151.477H316.567V153.231H320.958V146.214H316.567Z" fill="#00ACCB"/>
<path d="M316.567 190.945V192.699H318.324V196.207H316.567V197.961H320.958V190.945H316.567Z" fill="#00ACCB"/>
<path d="M316.567 202.346V204.101H318.324V207.609H316.567V209.363H320.958V202.346H316.567Z" fill="#00ACCB"/>
<path d="M316.567 225.15V226.904H318.324V230.412H316.567V232.166H320.958V225.15H316.567Z" fill="#00ACCB"/>
<path d="M316.567 257.601V259.355H318.324V262.863H316.567V264.617H320.958V257.601H316.567Z" fill="#00ACCB"/>
<path d="M316.567 267.249V269.003H318.324V272.511H316.567V274.265H320.958V267.249H316.567Z" fill="#00ACCB"/>
<path d="M366.625 92.7134H362.234V99.7299H366.625V92.7134Z" fill="#00ACCB"/>
<path d="M366.625 104.115H362.234V111.132H366.625V104.115Z" fill="#00ACCB"/>
<path d="M366.625 116.394H360.477V117.271H366.625V116.394Z" fill="#00ACCB"/>
<path d="M366.625 172.526H360.477V173.403H366.625V172.526Z" fill="#00ACCB"/>
<path d="M366.625 182.174H360.477V183.051H366.625V182.174Z" fill="#00ACCB"/>
<path d="M362.233 124.288V126.042H363.99V129.55H362.233V131.304H366.624V124.288H362.233Z" fill="#00ACCB"/>
<path d="M362.233 146.214V147.968H363.99V151.477H362.233V153.231H366.624V146.214H362.233Z" fill="#00ACCB"/>
<path d="M362.233 190.945V192.699H363.99V196.207H362.233V197.961H366.624V190.945H362.233Z" fill="#00ACCB"/>
<path d="M416.683 169.018H412.292V176.035H416.683V169.018Z" fill="#00ACCB"/>
<path d="M416.683 180.419H412.292V187.436H416.683V180.419Z" fill="#00ACCB"/>
<path d="M416.682 192.699H410.535V193.576H416.682V192.699Z" fill="#00ACCB"/>
<path d="M416.682 248.831H410.535V249.708H416.682V248.831Z" fill="#00ACCB"/>
<path d="M416.682 258.478H410.535V259.355H416.682V258.478Z" fill="#00ACCB"/>
<path d="M412.291 200.592V202.346H414.048V205.855H412.291V207.609H416.682V200.592H412.291Z" fill="#00ACCB"/>
<path d="M412.291 222.519V224.273H414.048V227.781H412.291V229.535H416.682V222.519H412.291Z" fill="#00ACCB"/>
<path d="M412.291 267.249V269.003H414.048V272.511H412.291V274.265H416.682V267.249H412.291Z" fill="#00ACCB"/>
<path d="M226.379 284.8V314.354L230.363 332.54C230.363 332.54 229.793 343.907 230.363 347.317C230.932 350.727 229.793 356.411 226.379 356.411C222.965 356.411 221.257 364.936 221.257 364.936C221.257 364.936 220.119 368.346 217.274 368.914C214.428 369.482 214.428 368.914 214.428 368.914L212.152 374.597L164.919 405.856L174.024 428.589C174.024 428.589 188.251 423.474 189.389 421.769C190.527 420.064 200.201 424.042 200.201 420.064C200.201 416.086 201.909 405.856 205.323 405.287C208.738 404.719 237.191 391.647 237.191 391.647C237.191 391.647 251.987 375.166 253.126 368.914C254.264 362.662 259.385 345.044 259.385 345.044L273.612 368.914V416.654L271.336 442.229L296.375 438.819C296.375 438.819 294.099 422.906 296.375 420.632C298.652 418.359 302.066 391.079 299.79 387.669C297.514 384.259 300.928 368.914 299.79 366.641C298.652 364.367 299.221 347.885 296.375 343.339C293.53 338.792 276.458 292.189 276.458 292.189L226.379 284.8Z" fill="#57556A"/>
<path d="M274.751 441.093C274.751 441.093 266.214 455.301 271.905 457.006C277.596 458.711 288.408 457.006 289.547 457.006C290.685 457.006 311.171 457.574 311.171 457.574C311.171 457.574 324.829 454.733 324.829 450.754C324.829 446.776 316.293 446.776 313.448 446.208C310.602 445.639 292.961 438.819 292.961 438.819L274.751 441.093Z" fill="#8E8D9D"/>
<path d="M167.532 406.497C167.532 406.497 151.084 404.322 151.78 410.214C152.475 416.107 158.339 425.338 158.792 426.381C159.098 427.088 162.692 436.031 164.98 441.73C166.634 445.907 169.119 449.707 172.285 452.899C174.522 455.132 176.96 456.922 178.56 456.23C182.215 454.649 178.822 446.826 178.213 443.993C177.605 441.159 176.859 422.282 176.859 422.282L167.532 406.497Z" fill="#8E8D9D"/>
<path d="M281.864 190.741L300.074 148.684C300.074 148.684 298.367 144.706 294.384 145.274C294.384 145.274 288.977 131.35 278.734 131.35C278.734 131.35 263.369 122.825 258.816 131.35C258.816 131.35 249.142 139.875 249.711 147.832C250.28 155.788 250.849 161.472 250.849 161.472C250.849 161.472 241.744 162.608 243.451 167.155C245.159 171.702 245.728 171.702 243.451 173.407L241.175 175.112C241.175 175.112 193.942 217.737 220.119 280.254L222.395 289.915V299.009C222.395 299.009 279.872 299.577 279.872 299.009C279.872 298.44 278.734 295.03 281.01 292.757C283.287 290.484 283.287 287.074 283.287 287.074C283.287 287.074 281.01 275.707 282.148 272.297C283.287 268.887 283.856 254.11 281.579 250.7C279.303 247.29 280.441 220.01 280.441 220.01L285.563 210.349L283.856 204.665L282.148 198.982L281.864 190.741Z" fill="#252525"/>
<path opacity="0.1" d="M277.027 304.692C277.027 304.692 270.198 285.937 270.767 282.527C271.336 279.117 269.629 272.297 269.629 272.297L267.353 226.262C267.353 226.262 277.027 185.342 255.402 178.521C255.402 178.521 249.93 180.906 245.447 188.579C241.013 190.552 235.633 195.543 234.346 208.075C232.07 230.24 242.313 287.073 247.435 296.735C252.557 306.397 255.971 313.217 255.971 313.217L261.324 310.841C261.545 311.279 261.662 311.512 261.662 311.512L277.027 304.692Z" fill="black"/>
<path d="M280.157 185.626C281.1 185.626 281.864 184.862 281.864 183.921C281.864 182.979 281.1 182.216 280.157 182.216C279.214 182.216 278.449 182.979 278.449 183.921C278.449 184.862 279.214 185.626 280.157 185.626Z" fill="#F2F2F2"/>
<path d="M280.726 183.921H279.588V210.633H280.726V183.921Z" fill="#3F3D56"/>
<path d="M259.67 306.681L264.223 316.343C264.223 316.343 274.466 312.933 274.466 311.228C274.466 309.523 269.913 302.135 269.913 302.135L259.67 306.681Z" fill="#FFB8B8"/>
<path d="M253.126 178.521C253.126 178.521 240.037 184.205 237.761 206.37C235.484 228.535 245.728 285.368 250.849 295.03C255.971 304.692 259.386 311.512 259.386 311.512L274.751 304.692C274.751 304.692 267.922 285.937 268.491 282.527C269.06 279.117 267.353 272.297 267.353 272.297L265.076 226.262C265.076 226.262 274.751 185.342 253.126 178.521Z" fill="#252525"/>
</g>
<defs>
<clipPath id="clip0_111_2569">
<rect width="512" height="512" fill="white"/>
</clipPath>
</defs>
</svg>
