<svg width="512" height="512" viewBox="0 0 512 512" fill="none" xmlns="http://www.w3.org/2000/svg">
<path d="M128.068 311.082L131.769 324.884C131.889 325.315 131.923 325.766 131.868 326.211C131.813 326.656 131.67 327.085 131.447 327.474C131.224 327.863 130.926 328.204 130.571 328.476C130.215 328.749 129.808 328.948 129.375 329.063C128.471 329.316 127.504 329.215 126.672 328.78C125.84 328.346 125.205 327.61 124.896 326.724L121.196 312.922C120.713 311.122 122.083 309.172 123.912 308.682C124.781 308.453 125.706 308.577 126.485 309.027C127.263 309.476 127.832 310.215 128.068 311.082ZM134.372 329.444C134.495 329.907 134.709 330.342 135.001 330.723C135.293 331.104 135.657 331.423 136.072 331.663C136.488 331.903 136.947 332.058 137.423 332.12C137.898 332.183 138.382 332.15 138.845 332.025L141.221 331.389L143.209 338.66C144.386 343.053 150.96 341.26 149.79 336.898L147.839 329.618L152.272 328.431L154.225 335.714C155.397 340.087 162.022 338.325 160.846 333.941L158.894 326.657L161.299 326.013C161.76 325.888 162.193 325.673 162.571 325.381C162.949 325.089 163.267 324.725 163.504 324.311C163.742 323.896 163.896 323.439 163.956 322.965C164.017 322.491 163.984 322.01 163.859 321.549L158.126 300.164L128.64 308.061L134.372 329.444ZM157.895 298.994L128.197 306.947C127.572 304.453 127.653 301.835 128.431 299.385C129.209 296.935 130.654 294.749 132.604 293.073L129.206 289.474C128.716 288.978 129.465 288.392 129.883 288.808L133.335 292.435C135.132 291 137.207 289.952 139.429 289.357C141.651 288.762 143.972 288.633 146.246 288.978L147.412 284.128C147.425 284.065 147.451 284.005 147.488 283.953C147.524 283.9 147.572 283.855 147.626 283.821C147.681 283.787 147.742 283.765 147.806 283.755C147.869 283.745 147.934 283.749 147.997 283.765C148.059 283.781 148.117 283.809 148.168 283.849C148.219 283.888 148.262 283.937 148.293 283.994C148.324 284.05 148.344 284.112 148.35 284.176C148.357 284.24 148.351 284.305 148.331 284.366L147.185 289.168C149.703 289.659 152.036 290.837 153.926 292.571C155.816 294.305 157.19 296.528 157.895 298.994ZM135.772 297.825C135.683 297.496 135.467 297.215 135.171 297.044C134.875 296.874 134.523 296.828 134.193 296.916C133.863 297.005 133.582 297.221 133.411 297.517C133.24 297.813 133.194 298.164 133.282 298.494C133.371 298.824 133.587 299.106 133.882 299.276C134.178 299.447 134.53 299.494 134.86 299.406C135.19 299.318 135.472 299.102 135.643 298.806C135.814 298.511 135.861 298.159 135.773 297.829L135.772 297.825ZM149.292 294.205C149.204 293.878 148.99 293.6 148.696 293.431C148.403 293.262 148.055 293.216 147.728 293.304C147.401 293.392 147.122 293.606 146.953 293.899C146.784 294.192 146.738 294.54 146.826 294.867C146.913 295.194 147.127 295.473 147.42 295.642C147.713 295.811 148.062 295.857 148.389 295.77C148.716 295.683 148.995 295.469 149.164 295.176C149.334 294.883 149.38 294.535 149.293 294.208L149.292 294.205Z" fill="#29DF90"/>
<path d="M162.487 304.294C161.475 306.046 162.075 308.286 163.828 309.297C165.58 310.308 167.821 309.708 168.833 307.956L176.684 294.365C177.696 292.613 177.096 290.373 175.343 289.362C173.591 288.35 171.35 288.951 170.338 290.702L162.487 304.294Z" fill="#29DF90"/>
<path d="M76.8177 382.763C100.116 397.69 129.222 396.933 157.206 393.435C161.114 392.947 164.991 392.412 168.831 391.854C168.854 391.847 168.885 391.847 168.908 391.84C169.093 391.812 169.278 391.785 169.454 391.765C170.247 391.647 171.04 391.53 171.825 391.412L171.657 391.778L171.132 392.912C171.322 392.531 171.513 392.159 171.703 391.778C171.759 391.664 171.822 391.55 171.878 391.436C178.471 378.394 184.98 364.89 186.04 350.346C187.132 335.251 180.866 318.563 167.258 311.906C165.473 311.036 163.597 310.367 161.664 309.913C160.861 309.716 160.05 309.564 159.231 309.436C150.662 308.168 141.484 310.748 135.108 316.655C126.674 324.483 123.725 337.654 128.009 348.329C116.189 337.462 117.272 318.739 120.295 302.978C123.325 287.216 127.075 269.657 118.447 256.112C113.65 248.573 105.693 244.164 96.9507 242.686C96.6827 242.644 96.415 242.601 96.1469 242.566C86.0003 241.065 74.8992 243.46 66.4722 249.425C50.5195 260.712 43.103 280.879 41.3939 300.335C38.6383 331.644 50.3289 365.789 76.8177 382.763Z" fill="#39A676"/>
<path d="M81.3654 332.566C82.387 339.385 84.3985 346.017 87.3364 352.256C90.0314 357.771 93.5367 362.853 97.736 367.332C106.32 376.583 117.371 383.289 129.208 387.516C138.254 390.66 147.661 392.648 157.206 393.435C161.114 392.947 164.991 392.412 168.831 391.854C168.854 391.847 168.885 391.847 168.908 391.84C169.093 391.812 169.278 391.785 169.454 391.764C170.247 391.647 171.04 391.53 171.825 391.412L171.657 391.778L171.132 392.911C171.322 392.531 171.513 392.159 171.703 391.778C171.759 391.664 171.822 391.55 171.878 391.436C164.392 384.75 158.62 376.369 155.045 366.995C151.47 357.622 150.196 347.529 151.33 337.562C152.546 327.661 156.087 318.187 161.664 309.913C160.861 309.716 160.05 309.564 159.231 309.436C157.116 312.677 155.293 316.098 153.782 319.66C148.355 332.364 147.168 346.476 150.395 359.906C153.377 372.057 159.768 383.105 168.817 391.754C168.065 391.742 167.306 391.722 166.562 391.694C152.475 391.264 138.318 389.007 125.266 383.526C114.242 378.905 104.119 371.792 96.5645 362.482C88.288 352.287 84.2036 339.706 82.9192 326.764C81.55 312.909 82.59 298.679 85.0329 285.001C87.5243 270.98 91.724 257.316 97.5384 244.314C97.6683 244.019 97.6796 243.686 97.5703 243.383C97.4609 243.08 97.2391 242.83 96.9508 242.686C96.7092 242.542 96.4204 242.498 96.147 242.566C96.0137 242.609 95.8919 242.681 95.7907 242.778C95.6894 242.874 95.6112 242.992 95.5621 243.123C94.8449 244.73 94.1427 246.336 93.4713 247.958C87.8803 261.471 83.9914 275.625 81.894 290.095C79.8532 304.056 79.1464 318.582 81.3654 332.566Z" fill="#A7FFD9"/>
<path d="M329.058 183.049H327.532V141.214C327.532 134.792 324.982 128.633 320.445 124.092C315.907 119.551 309.753 117 303.335 117H214.764C208.347 117 202.193 119.551 197.655 124.092C193.118 128.633 190.568 134.792 190.568 141.214V370.729C190.568 377.151 193.118 383.31 197.655 387.851C202.193 392.392 208.347 394.944 214.764 394.944H303.335C309.753 394.943 315.907 392.392 320.444 387.851C324.982 383.31 327.531 377.151 327.531 370.729V212.828H329.057L329.058 183.049Z" fill="#3F3D56"/>
<path d="M304.332 123.644H292.766C293.298 124.945 293.501 126.357 293.358 127.755C293.214 129.153 292.728 130.494 291.942 131.66C291.156 132.826 290.095 133.782 288.852 134.443C287.609 135.103 286.222 135.449 284.814 135.449H234.049C232.64 135.449 231.254 135.103 230.011 134.442C228.768 133.781 227.707 132.826 226.921 131.66C226.135 130.493 225.649 129.152 225.506 127.755C225.362 126.357 225.565 124.945 226.097 123.644H215.294C212.92 123.644 210.569 124.111 208.376 125.017C206.182 125.923 204.189 127.252 202.511 128.927C200.832 130.601 199.5 132.59 198.592 134.778C197.683 136.966 197.216 139.311 197.216 141.68V370.264C197.216 375.047 199.12 379.635 202.511 383.017C205.901 386.399 210.499 388.299 215.294 388.299H304.332C309.127 388.299 313.725 386.399 317.115 383.017C320.505 379.635 322.41 375.047 322.41 370.264V141.679C322.41 136.896 320.505 132.309 317.115 128.926C313.725 125.544 309.127 123.644 304.332 123.644Z" fill="white"/>
<path d="M457.805 388.087C448.738 394.611 436.988 394.939 425.63 394.137C424.044 394.026 422.469 393.895 420.909 393.753C420.9 393.751 420.887 393.751 420.878 393.749C420.803 393.742 420.727 393.735 420.656 393.731C420.334 393.7 420.012 393.67 419.693 393.64L419.768 393.784L420.004 394.229C419.919 394.08 419.835 393.934 419.75 393.785C419.725 393.74 419.696 393.696 419.672 393.651C416.729 388.536 413.811 383.234 413.067 377.394C412.297 371.332 414.46 364.468 419.801 361.489C420.501 361.099 421.243 360.789 422.012 360.563C422.332 360.466 422.655 360.388 422.983 360.318C424.986 359.874 427.071 359.97 429.025 360.598C430.978 361.226 432.729 362.362 434.097 363.889C435.465 365.417 436.401 367.281 436.809 369.29C437.217 371.298 437.081 373.379 436.417 375.319C440.945 370.681 440.101 363.156 438.539 356.868C436.974 350.58 435.079 343.582 438.262 337.934C440.032 334.79 443.143 332.84 446.636 332.054C446.743 332.031 446.85 332.008 446.957 331.988C451.118 331.146 455.443 331.903 459.07 334.108C465.747 338.311 469.176 346.28 470.289 354.087C472.083 366.648 468.114 380.668 457.805 388.087Z" fill="#39A676"/>
<path d="M454.878 367.95C454.615 370.72 453.948 373.438 452.9 376.017C451.934 378.299 450.631 380.424 449.036 382.321C445.719 386.199 441.519 389.224 436.788 391.143C433.21 392.606 429.461 393.613 425.63 394.137C424.044 394.026 422.469 393.894 420.909 393.753C420.9 393.751 420.887 393.751 420.878 393.749C420.803 393.742 420.728 393.735 420.656 393.73C420.334 393.7 420.012 393.67 419.693 393.64L419.768 393.784L420.004 394.229C419.919 394.08 419.835 393.934 419.75 393.785C419.725 393.74 419.696 393.696 419.672 393.651C422.544 390.793 424.688 387.288 425.925 383.432C427.162 379.575 427.455 375.478 426.781 371.485C426.075 367.52 424.441 363.778 422.012 360.563C422.332 360.466 422.655 360.388 422.983 360.318C423.906 361.579 424.716 362.918 425.403 364.321C427.867 369.325 428.653 374.988 427.645 380.473C426.708 385.436 424.372 390.029 420.912 393.712C421.215 393.691 421.521 393.666 421.82 393.639C427.49 393.159 433.148 391.942 438.29 389.448C442.686 387.368 446.502 384.24 449.402 380.341C452.517 376.05 453.889 370.889 454.125 365.644C454.306 359.993 453.713 354.344 452.363 348.854C451.053 343.256 449.062 337.838 446.434 332.723C446.375 332.607 446.364 332.473 446.401 332.348C446.439 332.224 446.522 332.118 446.636 332.054C446.73 331.991 446.845 331.967 446.957 331.988C447.012 332.002 447.062 332.029 447.105 332.066C447.148 332.102 447.182 332.148 447.205 332.2C447.529 332.832 447.847 333.464 448.153 334.104C450.702 339.43 452.578 345.051 453.739 350.839C454.866 356.423 455.468 362.264 454.878 367.95Z" fill="#A7FFD9"/>
<path d="M369.678 388.529L362.763 388.528L359.472 361.882L369.68 361.883L369.678 388.529Z" fill="#FFD7C5"/>
<path d="M357.823 386.555H371.16V394.943H349.425C349.425 393.841 349.642 392.751 350.064 391.733C350.486 390.715 351.105 389.791 351.884 389.012C352.664 388.233 353.59 387.615 354.609 387.193C355.628 386.772 356.72 386.555 357.823 386.555Z" fill="#3E3E3E"/>
<path d="M395.627 388.529L388.711 388.528L385.421 361.882L395.628 361.883L395.627 388.529Z" fill="#FFD7C5"/>
<path d="M383.771 386.555H397.109V394.943H375.374C375.374 393.841 375.591 392.751 376.013 391.733C376.435 390.715 377.053 389.791 377.833 389.012C378.613 388.233 379.539 387.615 380.558 387.193C381.576 386.772 382.668 386.555 383.771 386.555Z" fill="#3E3E3E"/>
<path d="M394.782 309.169C394.037 308.691 393.406 308.054 392.934 307.306C392.461 306.557 392.159 305.714 392.048 304.836C391.937 303.958 392.021 303.066 392.292 302.224C392.563 301.382 393.016 300.609 393.619 299.96L389.065 235.41L402.182 236.68L402.543 299.895C403.566 300.979 404.157 302.4 404.202 303.889C404.246 305.378 403.743 306.832 402.786 307.975C401.83 309.118 400.487 309.871 399.011 310.091C397.536 310.312 396.031 309.983 394.782 309.169Z" fill="#FFD7C5"/>
<path d="M369.351 375.105L361.738 374.742C361.09 374.712 360.477 374.434 360.028 373.966C359.578 373.498 359.325 372.876 359.32 372.228L358.789 295.281C358.787 294.916 358.863 294.554 359.013 294.221C359.164 293.888 359.384 293.592 359.66 293.352C359.936 293.112 360.26 292.934 360.611 292.831C360.961 292.728 361.33 292.701 361.692 292.754L392.15 297.17C392.752 297.254 393.303 297.553 393.703 298.01C394.102 298.468 394.323 299.054 394.324 299.661L398.241 370.96C398.244 371.294 398.18 371.626 398.054 371.936C397.927 372.246 397.741 372.528 397.505 372.765C397.269 373.003 396.988 373.191 396.679 373.32C396.37 373.448 396.038 373.515 395.703 373.515H387.495C386.89 373.517 386.303 373.302 385.843 372.909C385.383 372.516 385.079 371.971 384.988 371.373L379.924 339.217C379.85 338.746 379.608 338.319 379.242 338.012C378.877 337.706 378.413 337.542 377.937 337.551C377.46 337.56 377.003 337.741 376.649 338.06C376.295 338.38 376.069 338.816 376.013 339.289L371.993 372.874C371.917 373.489 371.619 374.055 371.155 374.467C370.691 374.878 370.093 375.106 369.472 375.108C369.432 375.108 369.392 375.107 369.351 375.105Z" fill="#303139"/>
<path d="M374.711 299.664C367.999 295.939 362.754 294.96 360.225 294.708C359.889 294.675 359.563 294.575 359.267 294.413C358.971 294.251 358.711 294.031 358.502 293.765C358.29 293.498 358.133 293.19 358.043 292.861C357.953 292.531 357.93 292.187 357.977 291.848L365.275 237.726C365.695 234.56 366.92 231.554 368.832 228.993C370.744 226.433 373.28 224.404 376.198 223.1C379.024 221.803 382.134 221.249 385.234 221.492C388.334 221.734 391.32 222.765 393.909 224.487C394.159 224.653 394.404 224.822 394.645 224.996C397.626 227.177 399.893 230.191 401.162 233.658C402.43 237.125 402.643 240.889 401.773 244.477C397.298 262.764 395.761 292.745 395.498 298.57C395.477 299.066 395.31 299.546 395.017 299.947C394.724 300.349 394.318 300.655 393.852 300.827C391.098 301.826 388.192 302.343 385.263 302.354C381.573 302.377 377.939 301.45 374.711 299.664Z" fill="#206BA6"/>
<path d="M392.034 257.1C391.727 256.879 391.474 256.592 391.292 256.261C391.111 255.929 391.006 255.561 390.986 255.183L390.025 237.785C389.93 236.062 390.477 234.364 391.561 233.019C392.645 231.675 394.188 230.779 395.895 230.504C397.601 230.229 399.348 230.595 400.801 231.531C402.253 232.467 403.306 233.907 403.759 235.573L407.981 251.127C408.156 251.776 408.067 252.468 407.732 253.052C407.397 253.635 406.844 254.062 406.195 254.238L394.185 257.491C393.82 257.591 393.437 257.607 393.065 257.539C392.693 257.472 392.341 257.321 392.034 257.1Z" fill="#206BA6"/>
<path d="M380.815 215.751C388.467 215.751 394.67 209.555 394.67 201.912C394.67 194.268 388.467 188.072 380.815 188.072C373.164 188.072 366.96 194.268 366.96 201.912C366.96 209.555 373.164 215.751 380.815 215.751Z" fill="#FFD7C5"/>
<path d="M354.751 256.385C353.181 256.389 351.655 255.863 350.42 254.894L326.847 236.318C326.655 236.385 326.46 236.443 326.262 236.49C325.413 236.689 324.531 236.707 323.674 236.542C322.817 236.378 322.004 236.036 321.288 235.537C320.568 235.038 319.962 234.391 319.512 233.64C319.062 232.888 318.778 232.05 318.679 231.179C318.494 229.607 318.918 228.024 319.864 226.754C320.811 225.485 322.207 224.625 323.768 224.351C325.329 224.077 326.936 224.41 328.258 225.281C329.581 226.153 330.52 227.497 330.883 229.038C330.945 229.307 330.988 229.581 331.012 229.856L354.976 243.665L360.94 240.236L367.546 248.875L358.806 255.098C357.621 255.938 356.204 256.388 354.751 256.385Z" fill="#FFD7C5"/>
<path d="M355.841 242.803C355.801 242.427 355.845 242.047 355.972 241.691C356.098 241.335 356.302 241.011 356.571 240.744L368.904 228.422C370.126 227.201 371.757 226.476 373.483 226.385C375.209 226.295 376.907 226.845 378.25 227.932C379.593 229.018 380.487 230.562 380.757 232.267C381.028 233.972 380.657 235.717 379.717 237.165L370.933 250.684C370.566 251.248 369.991 251.643 369.332 251.783C368.674 251.923 367.987 251.796 367.422 251.431L356.984 244.664C356.666 244.459 356.399 244.185 356.201 243.863C356.003 243.541 355.88 243.179 355.841 242.803Z" fill="#206BA6"/>
<path d="M384.709 214.856C384.905 215.082 385.145 215.267 385.414 215.399C385.683 215.531 385.975 215.608 386.275 215.625C386.574 215.643 386.874 215.6 387.156 215.499C387.438 215.399 387.698 215.243 387.918 215.04C391.008 212.542 393.458 209.346 395.067 205.715C396.868 201.427 397.132 196.193 395.082 192.173C393.349 188.775 390.238 186.612 387.133 184.844C385.942 184.095 384.638 183.544 383.27 183.213C382.579 183.056 381.863 183.046 381.168 183.183C380.473 183.319 379.814 183.6 379.234 184.006C378.619 184.473 378.143 185.099 377.857 185.817C377.571 186.534 377.486 187.316 377.611 188.078C376.19 186.209 374.275 184.773 372.082 183.933C370.736 183.354 369.232 183.254 367.82 183.648C365.826 184.313 364.35 186.324 363.528 188.486C362.864 190.141 362.621 191.934 362.82 193.706C362.907 194.552 363.165 195.371 363.579 196.114C363.993 196.857 364.554 197.509 365.228 198.028C366.855 199.15 368.951 199.036 370.843 198.54C372.735 198.043 374.571 197.202 376.496 196.967C378.421 196.733 380.554 197.241 381.701 198.956C382.509 200.164 382.699 201.755 382.864 203.272L383.721 211.16C383.782 212.288 384.025 213.399 384.442 214.45C384.512 214.597 384.602 214.733 384.709 214.856Z" fill="#484853"/>
<path d="M212.931 305.833H226.482V308.482H215.681V316.493H225.436V319.109H215.681V329.244H212.931L212.931 305.833Z" fill="#3F3D56"/>
<path d="M229.755 305.833H232.536V329.241H229.755V305.833Z" fill="#3F3D56"/>
<path d="M238.118 327.998C237.059 326.821 236.53 325.175 236.531 323.06V312.567H239.312V322.638C239.312 324.229 239.672 325.395 240.391 326.136C240.773 326.513 241.229 326.807 241.73 326.998C242.232 327.19 242.768 327.275 243.304 327.248C244.196 327.263 245.07 327 245.806 326.497C246.533 326 247.119 325.325 247.507 324.535C247.908 323.744 248.115 322.87 248.113 321.984V312.567H250.896V329.241H248.244V326.821H248.113C247.592 327.71 246.832 328.435 245.92 328.914C244.943 329.473 243.837 329.766 242.711 329.764C240.708 329.764 239.178 329.175 238.118 327.998Z" fill="#3F3D56"/>
<path d="M259.721 329.432C259.18 329.233 258.684 328.928 258.264 328.533C257.834 328.122 257.499 327.622 257.283 327.068C257.048 326.417 256.937 325.729 256.955 325.037V315.085H254.043V312.567H256.955V307.858H259.736V312.567H263.795V315.085H259.736V324.375C259.68 325.105 259.863 325.832 260.259 326.448C260.484 326.699 260.763 326.896 261.075 327.023C261.387 327.151 261.724 327.206 262.061 327.184C262.712 327.179 263.349 326.986 263.893 326.628V329.341C263.575 329.491 263.24 329.601 262.896 329.668C262.468 329.74 262.035 329.773 261.602 329.766C260.96 329.77 260.322 329.657 259.721 329.432Z" fill="#3F3D56"/>
<path d="M271.535 329.432C270.994 329.233 270.498 328.928 270.078 328.533C269.648 328.122 269.313 327.622 269.097 327.068C268.862 326.417 268.751 325.729 268.769 325.037V315.085H265.857V312.567H268.769V307.858H271.55V312.567H275.609V315.085H271.55V324.375C271.494 325.105 271.677 325.832 272.073 326.448C272.298 326.699 272.577 326.896 272.889 327.023C273.201 327.151 273.538 327.206 273.875 327.184C274.526 327.179 275.163 326.986 275.707 326.628V329.341C275.389 329.491 275.054 329.601 274.71 329.668C274.282 329.74 273.849 329.773 273.416 329.766C272.774 329.77 272.136 329.656 271.535 329.432Z" fill="#3F3D56"/>
<path d="M281.405 328.618C280.145 327.861 279.12 326.769 278.444 325.465C277.721 324.066 277.355 322.51 277.38 320.936C277.363 319.397 277.705 317.875 278.377 316.49C279.01 315.175 279.989 314.056 281.209 313.254C282.475 312.435 283.957 312.014 285.464 312.044C286.957 312.007 288.43 312.386 289.719 313.139C290.912 313.861 291.872 314.911 292.485 316.163C293.149 317.539 293.48 319.051 293.451 320.579C293.456 320.865 293.423 321.15 293.353 321.428H280.163C280.188 322.557 280.504 323.661 281.08 324.633C281.581 325.464 282.299 326.142 283.158 326.595C283.969 327.024 284.873 327.249 285.792 327.249C287.931 327.249 289.578 326.246 290.735 324.242L293.09 325.387C292.412 326.694 291.402 327.8 290.16 328.592C288.83 329.359 287.322 329.765 285.786 329.769C284.25 329.774 282.74 329.377 281.405 328.618ZM290.503 319.137C290.45 318.406 290.249 317.694 289.913 317.044C289.534 316.316 288.962 315.705 288.261 315.278C287.405 314.772 286.422 314.522 285.428 314.56C284.199 314.529 283.006 314.981 282.106 315.819C281.174 316.707 280.549 317.87 280.323 319.137H290.503Z" fill="#3F3D56"/>
<path d="M296.688 312.567H299.34V315.247H299.471C299.829 314.293 300.498 313.486 301.371 312.958C302.241 312.369 303.266 312.05 304.317 312.042C304.989 312.025 305.658 312.148 306.28 312.402V315.378C305.547 315.023 304.74 314.844 303.925 314.856C303.13 314.852 302.353 315.092 301.698 315.543C301.011 316.015 300.454 316.651 300.077 317.394C299.673 318.168 299.465 319.029 299.471 319.902V329.241H296.691V312.567H296.688Z" fill="#3F3D56"/>
<path d="M267.923 252.096L304.684 288.638L269.963 288.239L257.043 275.456L267.923 252.096Z" fill="#01579B"/>
<path d="M282.525 266.687L257.043 275.35L272.634 256.525L282.525 266.687Z" fill="url(#paint0_linear_120_3470)"/>
<path d="M304.684 176.796L232.042 249.881L214.943 232.683L270.5 176.796H304.684Z" fill="#54C5F8"/>
<path d="M240.425 258.655L270.359 228.842H304.684L257.587 275.35L240.425 258.655Z" fill="#54C5F8"/>
<path d="M257.546 241.022L274.77 258.154L257.709 275.35L240.425 258.55L257.546 241.022Z" fill="#29B6F6"/>
<defs>
<linearGradient id="paint0_linear_120_3470" x1="261.377" y1="278.04" x2="274.278" y2="265.321" gradientUnits="userSpaceOnUse">
<stop stop-color="#1A237E" stop-opacity="0.4"/>
<stop offset="1" stop-color="#1A237E" stop-opacity="0"/>
</linearGradient>
</defs>
</svg>
