<svg xmlns="http://www.w3.org/2000/svg" width="233.618" height="195.494" viewBox="0 0 233.618 195.494">
  <g id="COMT" transform="translate(0 0)">
    <path id="Path_663" data-name="Path 663" d="M377.59,161.431h-1.072V132.055a17,17,0,0,0-17-17H297.279a17,17,0,0,0-17,17h0V293.213a17,17,0,0,0,17,17h62.237a17,17,0,0,0,17-17h0V182.341h1.072Z" transform="translate(-256.772 -115.053)" fill="#3f3d56"/>
    <path id="Path_664" data-name="Path 664" d="M371.588,130.21h-8.124c.115.207-46.747.207-46.824,0h-7.588a12.7,12.7,0,0,0-12.7,12.7V303.829a12.7,12.7,0,0,0,12.7,12.7h62.536a12.7,12.7,0,0,0,12.7-12.7h0V142.907a12.7,12.7,0,0,0-12.7-12.7Z" transform="translate(-268.016 -125.787)" fill="#fff"/>
    <path id="Path_667" data-name="Path 667" d="M389.434,446.533H313.578a1.406,1.406,0,0,1-1.4-1.4V410.3a1.406,1.406,0,0,1,1.4-1.4h75.856a1.406,1.406,0,0,1,1.4,1.4v34.831a1.406,1.406,0,0,1-1.4,1.4Zm-75.856-37.078a.844.844,0,0,0-.843.843v34.831a.844.844,0,0,0,.843.843h75.856a.844.844,0,0,0,.843-.843V410.3a.844.844,0,0,0-.843-.843Z" transform="translate(-279.36 -323.142)" fill="#7f7f7f"/>
    <path id="Path_668" data-name="Path 668" d="M489.773,330.4H456.06a1.406,1.406,0,0,1-1.4-1.4V310.175a1.406,1.406,0,0,1,1.4-1.4h33.713a1.406,1.406,0,0,1,1.4,1.4v18.817A1.406,1.406,0,0,1,489.773,330.4Zm-33.714-21.064a.844.844,0,0,0-.843.843v18.817a.844.844,0,0,0,.843.843h33.714a.844.844,0,0,0,.843-.843V310.175a.844.844,0,0,0-.843-.843Z" transform="translate(-380.262 -252.238)" fill="#7f7f7f"/>
    <path id="Path_669" data-name="Path 669" d="M347.292,601.811H313.578a1.406,1.406,0,0,1-1.4-1.4V565.295a1.406,1.406,0,0,1,1.4-1.4h33.714a1.406,1.406,0,0,1,1.4,1.4v35.112a1.406,1.406,0,0,1-1.4,1.4Zm-33.714-37.359a.844.844,0,0,0-.843.843v35.112a.844.844,0,0,0,.843.843h33.714a.844.844,0,0,0,.843-.843V565.295a.844.844,0,0,0-.843-.843Z" transform="translate(-279.36 -432.906)" fill="#7f7f7f"/>
    <path id="Path_670" data-name="Path 670" d="M489.773,601.811H456.06a1.406,1.406,0,0,1-1.4-1.4V565.295a1.406,1.406,0,0,1,1.4-1.4h33.713a1.406,1.406,0,0,1,1.4,1.4v35.111a1.406,1.406,0,0,1-1.4,1.4ZM456.06,564.452a.844.844,0,0,0-.843.843v35.112a.844.844,0,0,0,.843.843h33.713a.844.844,0,0,0,.843-.843V565.295a.844.844,0,0,0-.843-.843Z" transform="translate(-380.262 -432.906)" fill="#7f7f7f"/>
    <g id="Group_37" data-name="Group 37" transform="translate(119.597 125.104)">
      <path id="Path_703" data-name="Path 703" d="M662.2,611.686,610.917,560.4c-1.18-1.18-1.691-2.58-1.144-3.13l13.306-13.305c.55-.547,1.95-.035,3.13,1.143L677.5,596.394c1.179,1.18,1.691,2.58,1.144,3.13l-13.305,13.305C664.785,613.377,663.385,612.865,662.2,611.686Z" transform="translate(-609.554 -543.744)" fill="#fff"/>
      <circle id="Ellipse_88" data-name="Ellipse 88" cx="6.003" cy="6.003" r="6.003" transform="translate(10.449 10.449)" fill="#29df90" opacity="0.997"/>
      <path id="Path_703-2" data-name="Path 703" d="M662.2,611.686,610.917,560.4c-1.18-1.18-1.691-2.58-1.144-3.13l13.306-13.305c.55-.547,1.95-.035,3.13,1.143L677.5,596.394c1.179,1.18,1.691,2.58,1.144,3.13l-13.305,13.305C664.785,613.377,663.385,612.865,662.2,611.686ZM625.812,545.5c-.708-.708-1.549-1.014-1.878-.686l-13.305,13.305c-.329.329-.021,1.17.686,1.878L662.6,611.289c.708.708,1.548,1.014,1.878.686l13.305-13.305c.329-.329.021-1.17-.686-1.878Z" transform="translate(-609.554 -543.744)" fill="#e6e6e6"/>
      <path id="Path_705" data-name="Path 705" d="M699.313,618.288a.954.954,0,0,0-1.349,1.349l32.216,32.216a.954.954,0,0,0,1.349-1.349Z" transform="translate(-671.966 -596.336)" fill="#29df90"/>
      <path id="Path_706" data-name="Path 706" d="M685.448,632.153A.954.954,0,0,0,684.1,633.5l32.216,32.216a.954.954,0,0,0,1.349-1.349Z" transform="translate(-662.147 -606.155)" fill="#29df90"/>
    </g>
    <path id="Path_677" data-name="Path 677" d="M355.664,339.936H324.038l7.442-12.892a1.52,1.52,0,0,1,2.633,0l3.179,5.507,5.407-9.364a1.9,1.9,0,0,1,3.3,0Zm-30.653-.562H354.69l-9.183-15.9a1.341,1.341,0,0,0-2.322,0l-5.892,10.206-3.666-6.35a.958.958,0,0,0-1.659,0Z" transform="translate(-287.763 -261.773)" fill="#7f7f7f"/>
    <path id="Path_678" data-name="Path 678" d="M494.3,339.936H462.669l7.442-12.892a1.52,1.52,0,0,1,2.633,0l3.179,5.507,5.407-9.364a1.9,1.9,0,0,1,3.3,0Zm-30.653-.562h29.679l-9.183-15.9a1.341,1.341,0,0,0-2.322,0l-5.893,10.206-3.666-6.35a.958.958,0,0,0-1.659,0Z" transform="translate(-385.937 -261.773)" fill="#7f7f7f"/>
    <path id="Path_679" data-name="Path 679" d="M347.292,330.4H313.578a1.406,1.406,0,0,1-1.4-1.4V310.175a1.406,1.406,0,0,1,1.4-1.4h33.714a1.406,1.406,0,0,1,1.4,1.4v18.817a1.406,1.406,0,0,1-1.4,1.4Zm-33.714-21.064a.844.844,0,0,0-.843.843v18.817a.844.844,0,0,0,.843.843h33.714a.844.844,0,0,0,.843-.843V310.175a.844.844,0,0,0-.843-.843Z" transform="translate(-279.36 -252.238)" fill="#7f7f7f"/>
    <path id="Path_680" data-name="Path 680" d="M339.29,588.7a.954.954,0,0,0,0,1.907h19.346a.954.954,0,0,0,0-1.907Z" transform="translate(-297.888 -450.478)" fill="#7f7f7f"/>
    <path id="Path_681" data-name="Path 681" d="M339.29,607.956a.954.954,0,0,0,0,1.907h19.346a.954.954,0,0,0,0-1.907Z" transform="translate(-297.888 -464.113)" fill="#7f7f7f"/>
    <path id="Path_682" data-name="Path 682" d="M360.184,639.886a6,6,0,1,1,6-6h0a6.01,6.01,0,0,1-6,6Zm0-11.444a5.441,5.441,0,1,0,5.441,5.441h0a5.448,5.448,0,0,0-5.441-5.44Z" transform="translate(-309.109 -478.222)" fill="#7f7f7f"/>
    <path id="Path_683" data-name="Path 683" d="M501.116,664.393a.954.954,0,0,0,0-1.907H481.768a.954.954,0,1,0,0,1.907Z" transform="translate(-398.787 -502.729)" fill="#7f7f7f"/>
    <path id="Path_684" data-name="Path 684" d="M501.116,645.137a.954.954,0,0,0,0-1.907H481.768a.954.954,0,1,0,0,1.907Z" transform="translate(-398.787 -489.093)" fill="#7f7f7f"/>
    <g id="Group_40" data-name="Group 40" transform="translate(131.891 49.455)">
      <path id="Path_686" data-name="Path 686" d="M863.353,724.684h-4.724l-2.247-18.22h6.972Z" transform="translate(-796.644 -584.644)" fill="#a0616a"/>
      <path id="Path_687" data-name="Path 687" d="M837.21,764.272h10.5v5.736H832.865v-1.391a4.344,4.344,0,0,1,4.344-4.345Z" transform="translate(-779.99 -625.582)" fill="#2f2e41"/>
      <path id="Path_688" data-name="Path 688" d="M928.048,724.684h-4.724l-2.247-18.22h6.972Z" transform="translate(-842.459 -584.644)" fill="#ffd7c5"/>
      <path id="Path_689" data-name="Path 689" d="M901.9,764.272h10.5v5.736H897.56v-1.391a4.345,4.345,0,0,1,4.345-4.345Z" transform="translate(-825.805 -625.582)" fill="#2f2e41"/>
      <path id="Path_906" data-name="Path 906" d="M4.473,13.388v8.988a2.126,2.126,0,0,1-2.134,2.15A2.319,2.319,0,0,1,0,22.376V13.388a2.315,2.315,0,0,1,2.339-2.134A2.142,2.142,0,0,1,4.473,13.388ZM5.312,25.57a2.291,2.291,0,0,0,2.3,2.3H9.152l.023,4.741a2.142,2.142,0,0,0,4.283,0v-4.74h2.886v4.741a2.155,2.155,0,0,0,4.309,0V27.867h1.567a2.289,2.289,0,0,0,2.281-2.3V11.646H5.312ZM24.554,10.9H5.224a8.715,8.715,0,0,1,4.935-7.712L8.681.445c-.217-.38.334-.616.52-.294l1.506,2.763a10.483,10.483,0,0,1,8.4,0L20.607.16a.3.3,0,1,1,.52.294L19.649,3.185A8.745,8.745,0,0,1,24.554,10.9ZM11.309,6.588a.8.8,0,1,0-.815.814.815.815,0,0,0,.815-.814Zm8.8,0a.8.8,0,1,0-.792.815.8.8,0,0,0,.792-.815Z" transform="translate(0 34.379)" fill="#29df90"/>
      <path id="Path_690" data-name="Path 690" d="M6.135,15.952a3.613,3.613,0,0,0-.311-5.531l2.024-8L3.283,0,.584,11.344a3.632,3.632,0,0,0,5.551,4.608Z" transform="translate(43.017 44.293) rotate(45)" fill="#ffd7c5"/>
      <path id="Path_691" data-name="Path 691" d="M881.53,541.008l-.385,26.971-.385,35.448-8.477-.771-4.239-48.933-5.394,48.933H853.9l-.881-49.319,3.083-10.788Z" transform="translate(-794.262 -467.473)" fill="#2f2e41"/>
      <path id="Path_692" data-name="Path 692" d="M860.381,421.626l-.124-.056,4.831-33.043-2.456-9.987a2.186,2.186,0,0,1,1.355-2.568l4.419-1.657,1.561-4.293,12.317,1.327.3,3.356c1.335.428,12.326,4.089,11.568,8.259-.749,4.117-5.168,17.069-5.392,17.725l-.773,18.575-.1.048c-.115.058-8.6,4.231-17.828,4.231A23.472,23.472,0,0,1,860.381,421.626Z" transform="translate(-799.388 -346.386)" fill="#ccc"/>
      <path id="Path_693" data-name="Path 693" d="M-.915,37.253,1.432,18.364C1.441,18.251,2.3,6.991,2.6,3.456,2.91-.194,5.771,0,5.8,0l1.577.13L9.908,8.585,7.653,24.935,5.443,38.457Z" transform="translate(64.749 24.8) rotate(45)" fill="#ccc"/>
      <path id="Path_694" data-name="Path 694" d="M918.8,525.859a3.613,3.613,0,0,1,4.411-3.352l4.778-6.733,4.8,1.905-6.881,9.414a3.632,3.632,0,0,1-7.108-1.235Z" transform="translate(-840.841 -449.603)" fill="#ffd7c5"/>
      <path id="Path_695" data-name="Path 695" d="M936.771,442.922l8.5-14.287-3.461-9.229,4.714-12.57.175.075c.114.049,2.792,1.244,3.189,5.524l5.417,17.024-14.457,18.755Z" transform="translate(-853.573 -372.456)" fill="#ccc"/>
      <circle id="Ellipse_109" data-name="Ellipse 109" cx="8.868" cy="8.868" r="8.868" transform="translate(67.386 3.776)" fill="#ffd7c5"/>
      <path id="Path_696" data-name="Path 696" d="M883.067,297.353a5.6,5.6,0,0,0,3.9,1.518,36.778,36.778,0,0,0,9.987-.815c.2,1.968-.35,4.089.808,5.708a26.5,26.5,0,0,0,.941-6.007,5.752,5.752,0,0,0-.333-2.573,2.366,2.366,0,0,0-2.016-1.486,5.052,5.052,0,0,1,2.253-.963l-2.816-1.415.723-.742-5.1-.312,1.477-.938a32.021,32.021,0,0,0-6.71-.211,5.755,5.755,0,0,0-2.967.825,2.142,2.142,0,0,0-.806,2.682,3.894,3.894,0,0,0-2.968,2.355,6.288,6.288,0,0,0-.225,3.022,21.433,21.433,0,0,0,1.123,4.751" transform="translate(-812.764 -289.029)" fill="#484853"/>
    </g>
    <path id="Path_138" data-name="Path 138" d="M726.814,688.892h-67.07c-.686,0-1.241-1.138-1.242-2.541V652.309c0-1.4.557-2.539,1.242-2.541h67.07c.686,0,1.241,1.138,1.242,2.541v34.041C728.055,687.753,727.5,688.89,726.814,688.892Z" transform="translate(-524.621 -493.723)" fill="#fff"/>
    <path id="Path_685" data-name="Path 685" d="M502.665,588.7a6,6,0,1,1-6,6h0A6.01,6.01,0,0,1,502.665,588.7Zm0,11.444a5.441,5.441,0,1,0-5.442-5.441h0a5.447,5.447,0,0,0,5.441,5.441Z" transform="translate(-410.01 -450.478)" fill="#7f7f7f"/>
    <g id="Group_38" data-name="Group 38" transform="translate(146.206 163.534)">
      <circle id="Ellipse_7" data-name="Ellipse 7" cx="5.865" cy="5.865" r="5.865" transform="translate(4.622 0.124)" fill="#3f3d56"/>
      <path id="Path_63" data-name="Path 63" d="M729.614,699.491H700.843a.6.6,0,0,1-.107-.009l13.608-23.57a.953.953,0,0,1,1.658,0l9.132,15.817.438.757Z" transform="translate(-700.735 -675.429)" fill="#29df90"/>
      <path id="Path_65" data-name="Path 65" d="M794.2,716.348H769.311l4.822-7,.347-.5,6.284-9.128a1.272,1.272,0,0,1,1.889-.113,1.163,1.163,0,0,1,.091.113Z" transform="translate(-749.299 -692.286)" fill="#29df90"/>
    </g>
    <path id="Path_138-2" data-name="Path 138" d="M726.814,688.892h-67.07c-.686,0-1.241-1.138-1.242-2.541V652.309c0-1.4.557-2.539,1.242-2.541h67.07c.686,0,1.241,1.138,1.242,2.541v34.041C728.055,687.753,727.5,688.89,726.814,688.892Zm-67.07-38.108c-.411,0-.745.683-.745,1.525v34.041c0,.842.334,1.524.745,1.525h67.07c.412,0,.745-.683.745-1.525V652.309c0-.842-.334-1.524-.745-1.525Z" transform="translate(-524.621 -493.723)" fill="#e6e6e6"/>
    <rect id="Rectangle_110" data-name="Rectangle 110" width="228.21" height="0.584" transform="translate(0 194.911)" fill="#e6e6e6"/>
    <circle id="Ellipse_75" data-name="Ellipse 75" cx="3" cy="3" r="3" transform="translate(69.305 6.522)" fill="#3f3d56"/>
    <rect id="Rectangle_476" data-name="Rectangle 476" width="4.607" height="14.479" rx="2.303" transform="translate(156.131 98.206) rotate(-45)" fill="#29df90"/>
    <rect id="Rectangle_505" data-name="Rectangle 505" width="77" height="25" rx="1" transform="translate(33.305 23.522)" fill="#fff"/>
    <path id="Rectangle_505_-_Outline" data-name="Rectangle 505 - Outline" d="M1-.25H76A1.251,1.251,0,0,1,77.25,1V24A1.251,1.251,0,0,1,76,25.25H1A1.251,1.251,0,0,1-.25,24V1A1.251,1.251,0,0,1,1-.25Zm75,25a.751.751,0,0,0,.75-.75V1A.751.751,0,0,0,76,.25H1A.751.751,0,0,0,.25,1V24a.751.751,0,0,0,.75.75Z" transform="translate(33.305 23.522)" fill="#707070"/>
  </g>
</svg>
