<svg xmlns="http://www.w3.org/2000/svg" width="243.001" height="162.793" viewBox="0 0 243.001 162.793">
  <g id="DAVA" transform="translate(0 0)">
    <path id="Path_562" data-name="Path 562" d="M879.567,377.379l.721-5.782a7.808,7.808,0,0,1,15.5,1.933l-.721,5.782a1.05,1.05,0,0,1-1.171.911l-13.414-1.674A1.05,1.05,0,0,1,879.567,377.379Z" transform="translate(-685.985 -305.336)" fill="#82604c"/>
    <circle id="Ellipse_31" data-name="Ellipse 31" cx="5.724" cy="5.724" r="5.724" transform="translate(194.283 62.319)" fill="#ffb8b8"/>
    <path id="Path_563" data-name="Path 563" d="M875.013,376.622a6.183,6.183,0,0,1,6.893-5.364l1.156.144a6.183,6.183,0,0,1,5.364,6.893l-.015.116-2.444-.3-.542-2.438-.458,2.313-1.263-.158-.274-1.23-.231,1.167-8.2-1.023Z" transform="translate(-682.6 -310.127)" fill="#82604c"/>
    <path id="Path_564" data-name="Path 564" d="M795.061,466.271a2.637,2.637,0,0,0,3.941.906l5.2,3.046,2.621-2.708-7.4-4.2a2.651,2.651,0,0,0-4.359,2.954Z" transform="translate(-623.051 -377.808)" fill="#ffb8b8"/>
    <path id="Path_565" data-name="Path 565" d="M830.129,459.131c-3.835,0-10.584-1.717-10.957-1.813l-.118-.03,1.062-5.378,10.308,2.036,5.6-7.886,6.429-.654-.179.236c-.084.11-8.371,11.02-9.661,12.85C832.287,458.955,831.357,459.131,830.129,459.131Z" transform="translate(-641.078 -365.195)" fill="#3f3d56"/>
    <path id="Path_566" data-name="Path 566" d="M850.55,474.327l-.154-.073a12.537,12.537,0,0,1-4.979-4.694c-1.68-3.079,6.183-16.142,6.733-17.049l.008-4.148,2.828-7.637,3.607-2.039-3.1,7.226Z" transform="translate(-660.471 -360.207)" fill="#3f3d56"/>
    <path id="Path_567" data-name="Path 567" d="M708.611,577.309h-3.447l-1.64-13.3h5.088Z" transform="translate(-522.146 -418.602)" fill="#ffb8b8"/>
    <path id="Path_568" data-name="Path 568" d="M823.392,749.972H812.276v-.141A4.327,4.327,0,0,1,816.6,745.5h6.79Z" transform="translate(-636.048 -587.923)" fill="#2f2e41"/>
    <path id="Path_569" data-name="Path 569" d="M841.052,567.494l-3.276,1.073-5.7-12.126,4.835-1.584Z" transform="translate(-617.557 -411.808)" fill="#ffb8b8"/>
    <path id="Path_570" data-name="Path 570" d="M971.735,737.187l-10.564,3.461-.044-.134a4.327,4.327,0,0,1,2.764-5.459h0l6.452-2.114Z" transform="translate(-746.364 -578.599)" fill="#2f2e41"/>
    <path id="Path_571" data-name="Path 571" d="M857.578,552.214l-9.828-16.408-8.3-17.529-7.466,15.484-2.966,20.055-10.4.145.041-.163,15.917-63.244,12.466,1.862-.568,8.228.338.481c2.816,4,5.728,8.136,4.058,12.6l4.734,14.057,10.479,23.406Z" transform="translate(-640.757 -398.702)" fill="#2f2e41"/>
    <path id="Path_572" data-name="Path 572" d="M873.826,458.647c-1.806,0-3.867-2.062-2.8-5.584l-.069-.05,2.568-11.346c-2.241-3.205.714-5.85.991-6.086l1.41-2.539,6.223-3.947,3.149,26.161-.047.045C882.979,457.478,875.341,458.647,873.826,458.647Z" transform="translate(-679.435 -353.089)" fill="#ffcc4c"/>
    <path id="Path_573" data-name="Path 573" d="M915.258,460.931a3.063,3.063,0,0,1-.735-.078c-.242-.061-.634-.369-1.239-2.34-2.407-7.837-5.249-31.417-3.184-33.725l.047-.053,3.39.565a5.009,5.009,0,0,1,3.125-1.061,2.07,2.07,0,0,1,1.417.838l.023.031,1.08,15.364,3.956,18.081-.095.043C922.813,458.7,917.873,460.931,915.258,460.931Z" transform="translate(-708.122 -349.469)" fill="#3f3d56"/>
    <path id="Path_574" data-name="Path 574" d="M915.38,514.177a2.637,2.637,0,0,0,2.491-3.185l4.962-3.418-1.341-3.522-6.94,4.925a2.651,2.651,0,0,0,.828,5.2Z" transform="translate(-710.524 -408.72)" fill="#ffb8b8"/>
    <path id="Path_575" data-name="Path 575" d="M933.151,452.829l-4.42-3.242,6.214-8.473-4.768-8.415,2.133-6.1.138.263c.064.122,6.432,12.253,7.543,14.2,1.156,2.022-6.438,11.282-6.761,11.675Z" transform="translate(-722.479 -351.236)" fill="#3f3d56"/>
    <path id="Path_576" data-name="Path 576" d="M424,617.4l-3.762-1.584-2.581-18.859H383.285l-2.8,18.782-3.366,1.683a.8.8,0,0,0,.357,1.514h46.206A.8.8,0,0,0,424,617.4Z" transform="translate(-312.754 -477.675)" fill="#e6e6e6"/>
    <path id="Path_577" data-name="Path 577" d="M301.485,528.53H132.661a3.345,3.345,0,0,1-3.337-3.345V501.379h175.5v23.806a3.345,3.345,0,0,1-3.337,3.345Z" transform="translate(-129.17 -406.736)" fill="#ccc"/>
    <path id="Path_578" data-name="Path 578" d="M304.555,240.175H128.726V138.312a4.037,4.037,0,0,1,4.032-4.032H300.522a4.037,4.037,0,0,1,4.032,4.032Z" transform="translate(-128.726 -134.28)" fill="#3f3d56"/>
    <path id="Path_579" data-name="Path 579" d="M315.336,254.064H160.511a3.112,3.112,0,0,1-3.108-3.108V166.065a3.112,3.112,0,0,1,3.108-3.109H315.336a3.112,3.112,0,0,1,3.108,3.109v84.891A3.112,3.112,0,0,1,315.336,254.064Z" transform="translate(-150.009 -155.563)" fill="#fff"/>
    <path id="Path_580" data-name="Path 580" d="M386.517,680.709h-87a.4.4,0,0,1-.4-.292.394.394,0,0,1,.381-.495h86.982a.417.417,0,0,1,.417.308.394.394,0,0,1-.384.479Z" transform="translate(-255.182 -539.248)" fill="#ccc"/>
    <rect id="Rectangle_353" data-name="Rectangle 353" width="37.382" height="28.559" transform="translate(126.292 21.117)" fill="#f2f2f2"/>
    <rect id="Rectangle_354" data-name="Rectangle 354" width="33.667" height="25.721" transform="translate(128.15 22.536)" fill="#fff"/>
    <path id="Path_581" data-name="Path 581" d="M692.792,244.118h.013a8.976,8.976,0,0,0,.2-17.915.2.2,0,0,0-.155.054.2.2,0,0,0-.066.148l-.2,17.506A.205.205,0,0,0,692.792,244.118Z" transform="translate(-547.218 -202.504)" fill="#3f3d56"/>
    <path id="Path_582" data-name="Path 582" d="M659.015,237.433a.265.265,0,0,1,.186.079l6.027,6.163a.262.262,0,0,1,.075.187l-.094,8.377a.26.26,0,0,1-.085.191.264.264,0,0,1-.2.069,9.035,9.035,0,0,1-6.11-14.976.265.265,0,0,1,.191-.089Z" transform="translate(-520.48 -210.839)" fill="#e6e6e6"/>
    <path id="Path_583" data-name="Path 583" d="M673.7,225.927a.265.265,0,0,1,.18.074.26.26,0,0,1,.081.193l-.085,7.558a.263.263,0,0,1-.451.181l-5.259-5.378a.264.264,0,0,1,.014-.382,9.054,9.054,0,0,1,5.5-2.245Z" transform="translate(-529.033 -202.3)" fill="#ffcc4c"/>
    <path id="Path_584" data-name="Path 584" d="M670.051,305.082a1.612,1.612,0,1,1-1.594-1.63A1.612,1.612,0,0,1,670.051,305.082Z" transform="translate(-528.098 -259.837)" fill="#ffcc4c"/>
    <path id="Path_585" data-name="Path 585" d="M687.917,305.282a1.612,1.612,0,1,1-1.594-1.63A1.612,1.612,0,0,1,687.917,305.282Z" transform="translate(-541.358 -259.986)" fill="#3f3d56"/>
    <path id="Path_586" data-name="Path 586" d="M705.783,305.483a1.612,1.612,0,1,1-1.594-1.63A1.612,1.612,0,0,1,705.783,305.483Z" transform="translate(-554.617 -260.135)" fill="#e6e6e6"/>
    <rect id="Rectangle_355" data-name="Rectangle 355" width="37.382" height="28.559" transform="translate(125.899 54.171)" fill="#f2f2f2"/>
    <rect id="Rectangle_356" data-name="Rectangle 356" width="33.667" height="25.721" transform="translate(127.756 55.59)" fill="#fff"/>
    <circle id="Ellipse_32" data-name="Ellipse 32" cx="1.398" cy="1.398" r="1.398" transform="translate(132.07 61.248)" fill="#3f3d56"/>
    <path id="Path_587" data-name="Path 587" d="M687.818,372.381a.948.948,0,0,1,0,1.9h-14.7a.948.948,0,0,1,0-1.9h14.7m0-.232h-14.7a1.18,1.18,0,0,0,0,2.36h14.7a1.18,1.18,0,0,0,0-2.36Z" transform="translate(-531.889 -310.823)" fill="#3f3d56"/>
    <path id="Path_588" data-name="Path 588" d="M675.779,374.509H664.712a1.18,1.18,0,0,1,0-2.36h11.067a1.18,1.18,0,0,1,0,2.36Z" transform="translate(-525.652 -310.823)" fill="#ff4c89"/>
    <circle id="Ellipse_33" data-name="Ellipse 33" cx="1.398" cy="1.398" r="1.398" transform="translate(132.07 67.052)" fill="#3f3d56"/>
    <path id="Path_589" data-name="Path 589" d="M687.818,394.9a.948.948,0,0,1,0,1.9h-14.7a.948.948,0,1,1,0-1.9h14.7m0-.232h-14.7a1.18,1.18,0,1,0,0,2.36h14.7a1.18,1.18,0,0,0,0-2.36Z" transform="translate(-531.889 -327.534)" fill="#3f3d56"/>
    <path id="Path_590" data-name="Path 590" d="M679.959,397.024H664.712a1.18,1.18,0,0,1,0-2.36h15.247a1.18,1.18,0,1,1,0,2.36Z" transform="translate(-525.652 -327.533)" fill="#ffcc4c"/>
    <circle id="Ellipse_34" data-name="Ellipse 34" cx="1.398" cy="1.398" r="1.398" transform="translate(132.07 72.857)" fill="#3f3d56"/>
    <path id="Path_591" data-name="Path 591" d="M689.835,417.411a.955.955,0,1,1,0,1.9H673.266a.955.955,0,1,1,0-1.9h16.569m0-.232H673.266a1.189,1.189,0,1,0,0,2.36h16.569a1.189,1.189,0,1,0,0-2.36Z" transform="translate(-534.056 -344.244)" fill="#3f3d56"/>
    <path id="Path_592" data-name="Path 592" d="M671.1,419.539h-6.353a1.181,1.181,0,1,1,0-2.36H671.1a1.181,1.181,0,1,1,0,2.36Z" transform="translate(-525.876 -344.244)" fill="#85f378"/>
    <rect id="Rectangle_357" data-name="Rectangle 357" width="104.438" height="53.525" transform="translate(13.197 26.17)" fill="#f2f2f2"/>
    <rect id="Rectangle_358" data-name="Rectangle 358" width="97.476" height="48.205" transform="translate(16.678 28.83)" fill="#fff"/>
    <path id="Path_593" data-name="Path 593" d="M319.414,305.231H248.356a.222.222,0,0,1-.222-.222V270.951a.222.222,0,0,1,.445,0v33.836h70.835a.222.222,0,0,1,0,.445Z" transform="translate(-217.349 -235.55)" fill="#3f3d56"/>
    <path id="Path_594" data-name="Path 594" d="M287.378,365.621h-6.463a.661.661,0,0,1-.66-.66v-8.909a.661.661,0,0,1,.66-.66h6.463a.661.661,0,0,1,.66.66v8.909A.661.661,0,0,1,287.378,365.621Z" transform="translate(-241.189 -298.386)" fill="#ffcc4c"/>
    <path id="Path_595" data-name="Path 595" d="M333.093,341.294H326.63a.661.661,0,0,1-.66-.66v-17.36a.661.661,0,0,1,.66-.66h6.463a.661.661,0,0,1,.66.66v17.36A.661.661,0,0,1,333.093,341.294Z" transform="translate(-275.118 -274.059)" fill="#ffcc4c"/>
    <path id="Path_596" data-name="Path 596" d="M378.809,365.621h-6.463a.661.661,0,0,1-.66-.66v-8.909a.661.661,0,0,1,.66-.66h6.463a.661.661,0,0,1,.66.66v8.909A.661.661,0,0,1,378.809,365.621Z" transform="translate(-309.048 -298.386)" fill="#ffcc4c"/>
    <path id="Path_597" data-name="Path 597" d="M424.525,331.691h-6.463a.646.646,0,0,1-.66-.63V310.305a.646.646,0,0,1,.66-.63h6.463a.646.646,0,0,1,.66.63v20.755A.646.646,0,0,1,424.525,331.691Z" transform="translate(-342.977 -264.456)" fill="#ffcc4c"/>
    <path id="Path_598" data-name="Path 598" d="M470.24,314.406h-6.463a.661.661,0,0,1-.66-.66v-26.7a.661.661,0,0,1,.66-.66h6.463a.661.661,0,0,1,.66.66v26.7A.661.661,0,0,1,470.24,314.406Z" transform="translate(-376.907 -247.172)" fill="#ffcc4c"/>
    <circle id="Ellipse_35" data-name="Ellipse 35" cx="1.334" cy="1.334" r="1.334" transform="translate(41.623 51.668)" fill="#3f3d56"/>
    <circle id="Ellipse_36" data-name="Ellipse 36" cx="1.334" cy="1.334" r="1.334" transform="translate(53.409 42.995)" fill="#3f3d56"/>
    <circle id="Ellipse_37" data-name="Ellipse 37" cx="1.334" cy="1.334" r="1.334" transform="translate(65.195 51.668)" fill="#3f3d56"/>
    <circle id="Ellipse_38" data-name="Ellipse 38" cx="1.334" cy="1.334" r="1.334" transform="translate(76.981 38.77)" fill="#3f3d56"/>
    <circle id="Ellipse_39" data-name="Ellipse 39" cx="1.334" cy="1.334" r="1.334" transform="translate(88.768 33.878)" fill="#3f3d56"/>
    <path id="Path_599" data-name="Path 599" d="M189.839,154.489l-11.814-8.849-11.653,8.728-.267-.356,11.919-8.928,11.758,8.807L201.468,141.1l.047-.019,11.786-4.749.166.413-11.739,4.73Z" transform="translate(-123.282 -101.188)" fill="#3f3d56"/>
    <path id="Path_600" data-name="Path 600" d="M786.758,764.235H688.531a.258.258,0,1,1,0-.516h98.227a.258.258,0,1,1,0,.516Z" transform="translate(-544.015 -601.442)" fill="#ccc"/>
  </g>
</svg>
