<svg xmlns="http://www.w3.org/2000/svg" width="644.093" height="467" viewBox="0 0 644.093 467">
  <g id="home-lightmode-icon" transform="translate(-1201.381 -147.5)">
    <path id="Path_1047" data-name="Path 1047" d="M233,0C361.682,0,466,104.542,466,233.5S361.682,467,233,467,0,362.458,0,233.5,104.318,0,233,0Z" transform="translate(1281.45 147.5)" fill="rgba(0,0,0,0.2)"/>
    <g id="Group_1" data-name="Group 1" transform="translate(1201.381 147.818)">
      <path id="Path_3" data-name="Path 3" d="M916.5,558.263a125.762,125.762,0,0,1-5.446,39.351c-.136.463-.3.926-.463,1.389H830.422a71.957,71.957,0,0,1,5.419-16.339c6.672-14.161,17.565-26.279,28.321-38.316,14.814-16.584,29.275-33.033,31.562-54.6a123.862,123.862,0,0,1,13.943,28.784,33.831,33.831,0,0,0-11.192,6.862c-.9.844-1.852,2.07-1.389,3.241.436.98,1.634,1.307,2.7,1.525,2.56.49,5.12.98,7.679,1.443,2.015.408,4.058.79,6.1,1.171A133.7,133.7,0,0,1,916.5,558.263Z" transform="translate(-339.754 -249.805)" fill="#00713c"/>
      <path id="Path_4" data-name="Path 4" d="M996.1,570.884c-12.854,7.816-21.023,19.907-27.7,33.441a34.206,34.206,0,0,0-15.55,8.17c-.926.844-1.879,2.07-1.389,3.241.408.981,1.634,1.307,2.7,1.525,2.533.49,5.12.981,7.652,1.443-.245.572-.49,1.171-.735,1.743H876.12a120.164,120.164,0,0,1,12.772-14.6c1.008-1.008,2.042-1.961,3.1-2.941a127.074,127.074,0,0,1,36.763-23.2A129.331,129.331,0,0,1,996.1,570.884Z" transform="translate(-352.011 -271.249)" fill="#048e57"/>
      <path id="Path_5" data-name="Path 5" d="M867.639,597.715h-75.65a122.894,122.894,0,0,1,.109-18.191,130.086,130.086,0,0,1,54.056-94.578c-3.921,13.97-1.906,27.859,2.179,41.8-.572.19-1.144.354-1.661.572a33.833,33.833,0,0,0-11.192,6.862c-.9.844-1.852,2.07-1.389,3.241.408.98,1.634,1.307,2.7,1.525,2.56.49,5.12.98,7.652,1.443,2.043.408,4.085.79,6.127,1.2.953.163,1.906.354,2.859.544.136.327.218.626.354.926,4.793,13.208,10.021,26.524,12.472,40.059a93.527,93.527,0,0,1,1.253,10.266C867.585,594.829,867.639,596.272,867.639,597.715Z" transform="translate(-329.37 -248.518)" fill="#f2f2f2"/>
      <path id="Path_6" data-name="Path 6" d="M300.5,558.263a125.765,125.765,0,0,1-5.446,39.351c-.136.463-.3.926-.463,1.389H214.422a71.952,71.952,0,0,1,5.419-16.339c6.672-14.161,17.565-26.279,28.321-38.316,14.814-16.584,29.275-33.033,31.562-54.6a123.86,123.86,0,0,1,13.943,28.784,33.834,33.834,0,0,0-11.192,6.862c-.9.844-1.852,2.07-1.389,3.241.436.98,1.634,1.307,2.7,1.525,2.56.49,5.12.98,7.68,1.443,2.015.408,4.058.79,6.1,1.171A133.722,133.722,0,0,1,300.5,558.263Z" transform="translate(-174.538 -249.805)" fill="#00713c"/>
      <path id="Path_7" data-name="Path 7" d="M380.1,570.884c-12.854,7.816-21.023,19.907-27.7,33.441a34.206,34.206,0,0,0-15.55,8.17c-.926.844-1.879,2.07-1.389,3.241.409.981,1.634,1.307,2.7,1.525,2.533.49,5.12.981,7.652,1.443-.245.572-.49,1.171-.735,1.743H260.12a120.147,120.147,0,0,1,12.772-14.6c1.008-1.008,2.042-1.961,3.1-2.941a127.07,127.07,0,0,1,36.763-23.2A129.331,129.331,0,0,1,380.1,570.884Z" transform="translate(-186.794 -271.249)" fill="#f2f2f2"/>
      <path id="Path_8" data-name="Path 8" d="M251.639,597.715h-75.65a122.892,122.892,0,0,1,.109-18.191,130.085,130.085,0,0,1,54.056-94.578c-3.921,13.97-1.906,27.859,2.178,41.8-.572.19-1.144.354-1.661.572a33.833,33.833,0,0,0-11.192,6.862c-.9.844-1.852,2.07-1.389,3.241.408.98,1.634,1.307,2.7,1.525,2.56.49,5.12.98,7.652,1.443,2.042.408,4.085.79,6.127,1.2.953.163,1.906.354,2.859.544.136.327.218.626.354.926,4.793,13.208,10.021,26.524,12.472,40.059a93.512,93.512,0,0,1,1.253,10.266C251.585,594.829,251.639,596.272,251.639,597.715Z" transform="translate(-164.153 -248.518)" fill="#048e57"/>
      <path id="Path_9" data-name="Path 9" d="M664.33,483.136l67.6,6,.724.066V200.774l-.724-.5a210.993,210.993,0,0,0-45.378-24.105l-3.454,47.64-.315,4.362-3.417,47.244-1.054,14.533-13.853,191.51Z" transform="translate(-295.207 -165.699)" fill="#e2dfd4"/>
      <path id="Path_10" data-name="Path 10" d="M435.369,194.553c-.483.307-.966.615-1.449.937V488.352l1.449-.132,66.864-5.935-.124-1.683-13.853-191.51L487.2,274.559l-3.417-47.244-.315-4.361-3.622-49.959a210.531,210.531,0,0,0-44.478,21.558Z" transform="translate(-233.409 -164.849)" fill="#e2dfd4"/>
      <path id="Path_11" data-name="Path 11" d="M432.855,203.391c-.973.629-1.947,1.273-2.905,1.925V500.249c0,7.369,4.369,13.545,10.208,15.119a11.161,11.161,0,0,0,2.927.388h217.2a11.074,11.074,0,0,0,2.92-.388,12.485,12.485,0,0,0,5.693-3.41,16.772,16.772,0,0,0,4.522-11.709v-289.8c-1.2-.885-2.408-1.764-3.63-2.62l-.724-.5V500.249a11.786,11.786,0,0,1-.337,2.817c-1.032,4.354-4.435,7.545-8.445,7.545h-217.2c-4.844,0-8.782-4.647-8.782-10.362V202.454C433.821,202.761,433.338,203.069,432.855,203.391Z" transform="translate(-232.344 -172.751)" fill="#92775c"/>
      <rect id="Rectangle_16" data-name="Rectangle 16" width="239.114" height="4.361" transform="translate(199.781 58.107)" fill="#92775c"/>
      <path id="Path_12" data-name="Path 12" d="M658,164.884c-1.449-.359-2.9-.7-4.362-1.01V282.285H658Z" transform="translate(-292.34 -162.403)" fill="#92775c"/>
      <path id="Path_13" data-name="Path 13" d="M537.361,161.864c-1.456.271-2.912.549-4.361.849V281.746h4.361Z" transform="translate(-259.983 -161.864)" fill="#92775c"/>
      <path id="Path_14" data-name="Path 14" d="M368.86,612.963a19.547,19.547,0,0,0,1.412,7.3,18.7,18.7,0,0,0,1.281,2.605,19.831,19.831,0,0,0,2.21,3.059,19.583,19.583,0,0,0,14.724,6.667H674.844a19.627,19.627,0,1,0,0-39.253H388.487A19.646,19.646,0,0,0,368.86,612.963Z" transform="translate(-215.959 -277.591)" fill="#e6e6e6"/>
      <rect id="Rectangle_17" data-name="Rectangle 17" width="237.661" height="14.536" transform="translate(437.442 124.245) rotate(180)" fill="#92775c"/>
      <path id="Path_15" data-name="Path 15" d="M0,0H20.35a8,8,0,0,1-7.995,7.995H7.995A8,8,0,0,1,0,0H0Z" transform="translate(328.786 113.343) rotate(180)" fill="#e6e6e6"/>
      <path id="Path_16" data-name="Path 16" d="M159.92,635.474A211.481,211.481,0,0,0,180.5,656.659H770.746a211.478,211.478,0,0,0,20.578-21.185Z" transform="translate(-159.92 -288.89)" fill="#3f3d56"/>
      <path id="Path_17" data-name="Path 17" d="M556.61,537.736v75.052h52.579V537.736a2.523,2.523,0,0,0-1.778-2.415,2.326,2.326,0,0,0-.754-.117H559.149a2.535,2.535,0,0,0-2.539,2.532Zm20.519,25.788a5.613,5.613,0,0,1,11.226,0v8.708a5.613,5.613,0,1,1-11.226,0Z" transform="translate(-266.316 -261.997)" fill="#2f2e41"/>
      <path id="Path_18" data-name="Path 18" d="M556.39,637.944v7.237a1.424,1.424,0,0,0,1.412,1.42h50.076a1.419,1.419,0,0,0,1.412-1.42v-7.237Z" transform="translate(-266.257 -289.553)" fill="#3f3d56"/>
      <path id="Path_19" data-name="Path 19" d="M443.58,381.733V518.768a6.591,6.591,0,0,0,6.586,6.586H653.238a6.591,6.591,0,0,0,6.586-6.586V381.733a6.594,6.594,0,0,0-6.586-6.579H450.166A6.6,6.6,0,0,0,443.58,381.733Z" transform="translate(-236 -219.07)" fill="#3f3d56"/>
      <path id="Path_20" data-name="Path 20" d="M450.09,385.181v133.64a3.526,3.526,0,0,0,3.52,3.52H653.294a3.526,3.526,0,0,0,3.52-3.52V385.181a3.528,3.528,0,0,0-3.52-3.527H453.61A3.528,3.528,0,0,0,450.09,385.181Z" transform="translate(-237.746 -220.814)" fill="#001031"/>
      <path id="Path_21" data-name="Path 21" d="M505.55,647.59a2.158,2.158,0,0,0,1.7.812h118.8a2.186,2.186,0,0,0,2.137-2.634l-1.844-8.76a2.19,2.19,0,0,0-1.361-1.588,2.117,2.117,0,0,0-.776-.146H509.084a2.117,2.117,0,0,0-.776.146,2.19,2.19,0,0,0-1.361,1.588l-1.844,8.76A2.184,2.184,0,0,0,505.55,647.59Z" transform="translate(-252.489 -288.837)" fill="#2f2e41"/>
      <rect id="Rectangle_18" data-name="Rectangle 18" width="3.659" height="2.195" rx="0.488" transform="translate(370.869 350.21) rotate(180)" fill="#3f3d56"/>
      <rect id="Rectangle_19" data-name="Rectangle 19" width="3.659" height="2.195" rx="0.488" transform="translate(363.552 350.21) rotate(180)" fill="#3f3d56"/>
      <rect id="Rectangle_20" data-name="Rectangle 20" width="3.659" height="2.195" rx="0.488" transform="translate(356.234 350.21) rotate(180)" fill="#3f3d56"/>
      <rect id="Rectangle_21" data-name="Rectangle 21" width="3.659" height="2.195" rx="0.488" transform="translate(348.916 350.21) rotate(180)" fill="#3f3d56"/>
      <rect id="Rectangle_22" data-name="Rectangle 22" width="3.659" height="2.195" rx="0.488" transform="translate(341.598 350.21) rotate(180)" fill="#3f3d56"/>
      <rect id="Rectangle_23" data-name="Rectangle 23" width="3.659" height="2.195" rx="0.488" transform="translate(334.28 350.21) rotate(180)" fill="#3f3d56"/>
      <rect id="Rectangle_24" data-name="Rectangle 24" width="3.659" height="2.195" rx="0.488" transform="translate(326.962 350.21) rotate(180)" fill="#3f3d56"/>
      <rect id="Rectangle_25" data-name="Rectangle 25" width="3.659" height="2.195" rx="0.488" transform="translate(319.644 350.21) rotate(180)" fill="#3f3d56"/>
      <rect id="Rectangle_26" data-name="Rectangle 26" width="3.659" height="2.195" rx="0.488" transform="translate(312.326 350.21) rotate(180)" fill="#3f3d56"/>
      <rect id="Rectangle_27" data-name="Rectangle 27" width="3.659" height="2.195" rx="0.488" transform="translate(305.008 350.21) rotate(180)" fill="#3f3d56"/>
      <rect id="Rectangle_28" data-name="Rectangle 28" width="3.659" height="2.195" rx="0.488" transform="translate(297.69 350.21) rotate(180)" fill="#3f3d56"/>
      <rect id="Rectangle_29" data-name="Rectangle 29" width="3.659" height="2.195" rx="0.488" transform="translate(290.372 350.21) rotate(180)" fill="#3f3d56"/>
      <rect id="Rectangle_30" data-name="Rectangle 30" width="3.659" height="2.195" rx="0.488" transform="translate(283.054 350.21) rotate(180)" fill="#3f3d56"/>
      <rect id="Rectangle_31" data-name="Rectangle 31" width="3.659" height="2.195" rx="0.488" transform="translate(275.737 350.21) rotate(180)" fill="#3f3d56"/>
      <rect id="Rectangle_32" data-name="Rectangle 32" width="3.659" height="2.195" rx="0.488" transform="translate(268.419 350.21) rotate(180)" fill="#3f3d56"/>
      <rect id="Rectangle_33" data-name="Rectangle 33" width="3.659" height="2.195" rx="0.488" transform="translate(261.101 350.21) rotate(180)" fill="#3f3d56"/>
      <rect id="Rectangle_34" data-name="Rectangle 34" width="3.659" height="2.195" rx="0.488" transform="translate(370.956 353.869) rotate(180)" fill="#3f3d56"/>
      <rect id="Rectangle_35" data-name="Rectangle 35" width="3.659" height="2.195" rx="0.488" transform="translate(363.638 353.869) rotate(180)" fill="#3f3d56"/>
      <rect id="Rectangle_36" data-name="Rectangle 36" width="3.659" height="2.195" rx="0.488" transform="translate(356.32 353.869) rotate(180)" fill="#3f3d56"/>
      <rect id="Rectangle_37" data-name="Rectangle 37" width="3.659" height="2.195" rx="0.488" transform="translate(349.002 353.869) rotate(180)" fill="#3f3d56"/>
      <rect id="Rectangle_38" data-name="Rectangle 38" width="3.659" height="2.195" rx="0.488" transform="translate(341.684 353.869) rotate(180)" fill="#3f3d56"/>
      <rect id="Rectangle_39" data-name="Rectangle 39" width="3.659" height="2.195" rx="0.488" transform="translate(334.366 353.869) rotate(180)" fill="#3f3d56"/>
      <rect id="Rectangle_40" data-name="Rectangle 40" width="3.659" height="2.195" rx="0.488" transform="translate(327.049 353.869) rotate(180)" fill="#3f3d56"/>
      <rect id="Rectangle_41" data-name="Rectangle 41" width="3.659" height="2.195" rx="0.488" transform="translate(319.731 353.869) rotate(180)" fill="#3f3d56"/>
      <rect id="Rectangle_42" data-name="Rectangle 42" width="3.659" height="2.195" rx="0.488" transform="translate(312.413 353.869) rotate(180)" fill="#3f3d56"/>
      <rect id="Rectangle_43" data-name="Rectangle 43" width="3.659" height="2.195" rx="0.488" transform="translate(305.095 353.869) rotate(180)" fill="#3f3d56"/>
      <rect id="Rectangle_44" data-name="Rectangle 44" width="3.659" height="2.195" rx="0.488" transform="translate(297.777 353.869) rotate(180)" fill="#3f3d56"/>
      <rect id="Rectangle_45" data-name="Rectangle 45" width="3.659" height="2.195" rx="0.488" transform="translate(290.459 353.869) rotate(180)" fill="#3f3d56"/>
      <rect id="Rectangle_46" data-name="Rectangle 46" width="3.659" height="2.195" rx="0.488" transform="translate(283.141 353.869) rotate(180)" fill="#3f3d56"/>
      <rect id="Rectangle_47" data-name="Rectangle 47" width="3.659" height="2.195" rx="0.488" transform="translate(275.823 353.869) rotate(180)" fill="#3f3d56"/>
      <rect id="Rectangle_48" data-name="Rectangle 48" width="3.659" height="2.195" rx="0.488" transform="translate(268.505 353.869) rotate(180)" fill="#3f3d56"/>
      <rect id="Rectangle_49" data-name="Rectangle 49" width="3.659" height="2.195" rx="0.488" transform="translate(261.187 353.869) rotate(180)" fill="#3f3d56"/>
      <rect id="Rectangle_50" data-name="Rectangle 50" width="29.272" height="2.195" rx="0.488" transform="translate(335.83 358.26) rotate(180)" fill="#3f3d56"/>
      <path id="Path_22" data-name="Path 22" d="M468.34,406.266H655.183a.743.743,0,1,0,0-1.486H468.34a.743.743,0,1,0,0,1.486Z" transform="translate(-242.442 -227.016)" fill="#3f3d56"/>
      <ellipse id="Ellipse_3" data-name="Ellipse 3" cx="4.354" cy="4.452" rx="4.354" ry="4.452" transform="translate(247.354 165.067)" fill="#4eca48"/>
      <ellipse id="Ellipse_4" data-name="Ellipse 4" cx="4.354" cy="4.452" rx="4.354" ry="4.452" transform="translate(232.311 165.067)" fill="#f6bd38"/>
      <ellipse id="Ellipse_5" data-name="Ellipse 5" cx="4.354" cy="4.452" rx="4.354" ry="4.452" transform="translate(217.268 165.067)" fill="#f06059"/>
      <rect id="Rectangle_51" data-name="Rectangle 51" width="8.054" height="4.215" rx="2.108" transform="translate(231.514 196.517)" fill="#af5ae6"/>
      <rect id="Rectangle_52" data-name="Rectangle 52" width="8.054" height="4.215" rx="2.108" transform="translate(275.421 196.517)" fill="#f18686"/>
      <rect id="Rectangle_53" data-name="Rectangle 53" width="8.054" height="4.215" rx="2.108" transform="translate(287.862 196.517)" fill="#33b9b0"/>
      <rect id="Rectangle_54" data-name="Rectangle 54" width="28.076" height="4.215" rx="2.108" transform="translate(243.457 196.166)" fill="#116be1"/>
      <rect id="Rectangle_55" data-name="Rectangle 55" width="28.076" height="4.215" rx="2.108" transform="translate(302 196.166)" fill="#33b9b0"/>
      <rect id="Rectangle_56" data-name="Rectangle 56" width="8.054" height="4.215" rx="2.108" transform="translate(243.222 206.031)" fill="#33b9b0"/>
      <rect id="Rectangle_57" data-name="Rectangle 57" width="8.054" height="4.215" rx="2.108" transform="translate(287.13 206.031)" fill="#f18686"/>
      <rect id="Rectangle_58" data-name="Rectangle 58" width="8.054" height="4.215" rx="2.108" transform="translate(299.57 206.031)" fill="#af5ae6"/>
      <rect id="Rectangle_59" data-name="Rectangle 59" width="28.076" height="4.215" rx="2.108" transform="translate(255.165 205.679)" fill="#33b9b0"/>
      <rect id="Rectangle_60" data-name="Rectangle 60" width="28.076" height="4.215" rx="2.108" transform="translate(313.708 205.679)" fill="#116be1"/>
      <rect id="Rectangle_61" data-name="Rectangle 61" width="8.054" height="4.215" rx="2.108" transform="translate(254.931 215.544)" fill="#f18686"/>
      <rect id="Rectangle_62" data-name="Rectangle 62" width="8.054" height="4.215" rx="2.108" transform="translate(298.839 215.544)" fill="#33b9b0"/>
      <rect id="Rectangle_63" data-name="Rectangle 63" width="8.054" height="4.215" rx="2.108" transform="translate(311.279 215.544)" fill="#33b9b0"/>
      <rect id="Rectangle_64" data-name="Rectangle 64" width="28.076" height="4.215" rx="2.108" transform="translate(266.874 215.193)" fill="#116be1"/>
      <rect id="Rectangle_65" data-name="Rectangle 65" width="28.076" height="4.215" rx="2.108" transform="translate(325.417 215.193)" fill="#f18686"/>
      <rect id="Rectangle_66" data-name="Rectangle 66" width="8.054" height="4.215" rx="2.108" transform="translate(266.64 225.057)" fill="#af5ae6"/>
      <rect id="Rectangle_67" data-name="Rectangle 67" width="8.054" height="4.215" rx="2.108" transform="translate(310.547 225.057)" fill="#f18686"/>
      <rect id="Rectangle_68" data-name="Rectangle 68" width="8.054" height="4.215" rx="2.108" transform="translate(322.988 225.057)" fill="#af5ae6"/>
      <rect id="Rectangle_69" data-name="Rectangle 69" width="28.076" height="4.215" rx="2.108" transform="translate(278.583 224.706)" fill="#f18686"/>
      <rect id="Rectangle_70" data-name="Rectangle 70" width="8.054" height="4.215" rx="2.108" transform="translate(275.421 262.886)" fill="#e2a7a7"/>
      <rect id="Rectangle_71" data-name="Rectangle 71" width="8.054" height="4.215" rx="2.108" transform="translate(287.862 262.886)" fill="#e6e6e6"/>
      <rect id="Rectangle_72" data-name="Rectangle 72" width="28.076" height="4.215" rx="2.108" transform="translate(302 263.238)" fill="#116be1"/>
      <rect id="Rectangle_73" data-name="Rectangle 73" width="8.054" height="4.215" rx="2.108" transform="translate(231.514 262.886)" fill="#33b9b0"/>
      <rect id="Rectangle_74" data-name="Rectangle 74" width="28.076" height="4.215" rx="2.108" transform="translate(243.457 263.238)" fill="#33b9b0"/>
      <rect id="Rectangle_75" data-name="Rectangle 75" width="8.054" height="4.215" rx="2.108" transform="translate(243.222 253.373)" fill="#116be1"/>
      <rect id="Rectangle_76" data-name="Rectangle 76" width="8.054" height="4.215" rx="2.108" transform="translate(287.13 253.373)" fill="#af5ae6"/>
      <rect id="Rectangle_77" data-name="Rectangle 77" width="8.054" height="4.215" rx="2.108" transform="translate(299.57 253.373)" fill="#e6e6e6"/>
      <rect id="Rectangle_78" data-name="Rectangle 78" width="28.076" height="4.215" rx="2.108" transform="translate(255.165 253.724)" fill="#116be1"/>
      <rect id="Rectangle_79" data-name="Rectangle 79" width="8.054" height="4.215" rx="2.108" transform="translate(254.931 243.86)" fill="#af5ae6"/>
      <rect id="Rectangle_80" data-name="Rectangle 80" width="8.054" height="4.215" rx="2.108" transform="translate(298.839 243.86)" fill="#af5ae6"/>
      <rect id="Rectangle_81" data-name="Rectangle 81" width="8.054" height="4.215" rx="2.108" transform="translate(311.279 243.86)" fill="#f18686"/>
      <rect id="Rectangle_82" data-name="Rectangle 82" width="28.076" height="4.215" rx="2.108" transform="translate(266.874 244.211)" fill="#e2a7a7"/>
      <rect id="Rectangle_83" data-name="Rectangle 83" width="8.054" height="4.215" rx="2.108" transform="translate(266.64 234.346)" fill="#af5ae6"/>
      <rect id="Rectangle_84" data-name="Rectangle 84" width="8.054" height="4.215" rx="2.108" transform="translate(310.547 234.346)" fill="#116be1"/>
      <rect id="Rectangle_85" data-name="Rectangle 85" width="8.054" height="4.215" rx="2.108" transform="translate(322.988 234.346)" fill="#33b9b0"/>
      <rect id="Rectangle_86" data-name="Rectangle 86" width="28.076" height="4.215" rx="2.108" transform="translate(278.583 234.698)" fill="#f18686"/>
      <path id="Path_26" data-name="Path 26" d="M441.221,656.427c-.161.081-.322.161-.483.234q-1.526.757-3.074,1.493-4.632,2.206-9.382,4.193a208.913,208.913,0,0,1-25.591,8.8c-1.464-9.125-2.883-30.647-4.244-46.476-.256-2.979-.512-5.752-.768-8.2A71.087,71.087,0,0,0,396.3,606.9a3.194,3.194,0,0,0-.285-.71c.139,1.266.286,5.042.424,10.282.073,2.452.139,5.225.212,8.2.344,15.236.7,35.968,1.061,47.771-1.017.249-2.042.5-3.066.732-.644.154-1.3.3-1.947.439-.79.176-1.581.351-2.371.512q-1.24.263-2.481.505a212.283,212.283,0,0,1-41.024,3.981c-.915,0-1.822-.007-2.737-.015-.278,0-.556-.007-.842-.015-.8-.015-1.639-.029-2.488-.051a211.179,211.179,0,0,1-48.181-6.945l.637-46.915.11-8.2.044-3.11a11.11,11.11,0,0,0-.644,3.11c-.256,2-.52,4.83-.783,8.2-1,13-2.034,33.962-3.1,45.891-12.653-3.6-21.9-6.886-33.465-12.667-.446-.22-.9-.446-1.347-.673.081-.563.168-1.127.249-1.705,1.31-9.1-.234-20.951,1.215-30.845,1.105-7.633,2.247-14.965,3.4-21.185,1.39-7.486,2.8-13.37,4.2-16.231,1.61-3.3,3.22-6.55,4.779-9.66l1.983-3.945c.351-.7.7-1.383,1.046-2.056,1.566-3.066,3.044-5.9,4.4-8.408.951-1.764,1.829-3.359,2.634-4.757.944-1.647,1.778-3.008,2.466-4.039a40.473,40.473,0,0,1,21.427-16.253l.22-.058.212.088.241.11,13.948-5.1,6.228-14.994,31.987-1.969,5.166,3.93,2.642,2.012,2.817,2.144,5.181,3.944,1.471.454,2.188.673,14.965,4.6.154-.066.22.059a40.371,40.371,0,0,1,20.022,14.27c.5.644.959,1.31,1.405,1.983,1.215,1.8,2.854,4.647,4.786,8.218.8,1.471,1.639,3.066,2.525,4.757.534,1.017,5.144,15.4,9.63,30.1,4.193,13.758,8.277,27.786,8.811,31.387.1.666.2,1.339.293,2,.607,4.164,1.207,8.357,1.786,12.448.856,6.067,1.69,11.921,2.488,17.153C441.207,656.332,441.214,656.376,441.221,656.427Z" transform="translate(-185.159 -256.904)" fill="#768daf"/>
      <path id="Path_27" data-name="Path 27" d="M299.3,464.771l-6.218-24-5.491,20.707Z" transform="translate(-77.134 -118.22)" opacity="0.2"/>
      <path id="Path_28" data-name="Path 28" d="M173.762,618.565a4.7,4.7,0,0,0,4.525,3.169l19.386-.5a4.631,4.631,0,0,0,4.377-3.408l2.743-29.336a7.167,7.167,0,0,0,3.1.637,7.07,7.07,0,1,0-.355-14.136,5.982,5.982,0,0,0-1.271.132,4.792,4.792,0,0,0-3.567-1.539l-29.821.77a4.287,4.287,0,0,0-.736.091,4.658,4.658,0,0,0-3.566,6.048ZM205.356,586.5l1.952-6.991a4.761,4.761,0,0,0,.015-2.469c.095,0,.178-.045.273-.045a5.057,5.057,0,0,1,.237,10.111,4.761,4.761,0,0,1-2.476-.606Z" transform="translate(-162.179 -272.292)" fill="#2f2e41"/>
      <path id="Path_29" data-name="Path 29" d="M173.541,574.447c.635,3.633,7.778,6.186,16.367,5.743,7.9-.364,14.356-3.137,15.539-6.424a4.409,4.409,0,0,0-1.35-.18l-29.821.77a4.28,4.28,0,0,0-.736.091Z" transform="translate(-163.573 -272.291)" fill="#3f3d56"/>
      <path id="Path_30" data-name="Path 30" d="M197.83,610.7a.36.36,0,0,0,.11-.049l4.21-2.756a.365.365,0,0,0,0-.612l-4.376-2.866a.366.366,0,0,0-.4.612l3.908,2.56-3.742,2.45a.366.366,0,0,0,.29.661Z" transform="translate(-169.921 -280.544)" fill="#969cd8"/>
      <path id="Path_31" data-name="Path 31" d="M187.2,611.115a.366.366,0,0,0,.092-.672l-3.881-2.225,3.751-2.786a.366.366,0,0,0-.436-.587l-4.2,3.119a.365.365,0,0,0,.036.611l4.365,2.5a.366.366,0,0,0,.272.037Z" transform="translate(-165.945 -280.656)" fill="#969cd8"/>
      <path id="Path_32" data-name="Path 32" d="M195.131,612.461a.354.354,0,0,0,.1-.042.366.366,0,0,0,.123-.5l-5.968-9.812a.366.366,0,1,0-.625.381l5.968,9.813a.366.366,0,0,0,.4.164Z" transform="translate(-167.641 -279.893)" fill="#969cd8"/>
      <path id="Path_33" data-name="Path 33" d="M876.458,657.223c-.446.227-.9.454-1.347.673-11.562,5.781-20.812,9.067-33.465,12.667-1.068-11.928-2.1-32.894-3.1-45.891-.263-3.374-.527-6.206-.783-8.2a11.11,11.11,0,0,0-.644-3.11l.044,3.11.11,8.2.637,46.915a211.178,211.178,0,0,1-48.181,6.945c-.849.022-1.683.037-2.488.051-.285.007-.563.015-.842.015-.915.007-1.822.015-2.737.015a211.663,211.663,0,0,1-50.889-6.169c.359-11.8.717-32.535,1.061-47.771.073-2.978.139-5.752.212-8.2.139-5.24.285-9.016.424-10.282a3.184,3.184,0,0,0-.285.71,71.09,71.09,0,0,0-1.383,9.572c-.256,2.452-.512,5.225-.768,8.2-1.361,15.829-2.781,37.351-4.244,46.476a208.9,208.9,0,0,1-25.591-8.8q-6.586-2.744-12.938-5.92c.805-5.269,1.646-11.174,2.51-17.3.673-4.749,1.368-9.63,2.078-14.453,1.1-7.45,38.39-87.9,47.179-90.713l.22-.059.154.066,14.965-4.6,2.188-.673,1.471-.454L765.2,524.3l2.817-2.144,2.642-2.012,5.167-3.93,31.987,1.969,6.228,14.994,13.948,5.1.242-.11.212-.088.22.059a40.473,40.473,0,0,1,21.427,16.253c.688,1.032,1.522,2.393,2.466,4.039.805,1.4,1.683,2.993,2.635,4.757,1.354,2.51,2.832,5.342,4.4,8.408.344.673.7,1.361,1.047,2.056q.977,1.932,1.983,3.944c1.559,3.11,3.169,6.359,4.779,9.66,1.4,2.861,2.81,8.745,4.2,16.231,1.149,6.22,2.29,13.553,3.4,21.185,1.449,9.894-.1,21.741,1.215,30.845C876.29,656.1,876.378,656.659,876.458,657.223Z" transform="translate(-301.893 -256.904)" fill="#3d5656"/>
      <circle id="Ellipse_6" data-name="Ellipse 6" cx="37.202" cy="37.202" r="37.202" transform="translate(443.551 179.524)" fill="#ffb6b6"/>
      <path id="Path_34" data-name="Path 34" d="M575.659,464.771l6.218-24,5.491,20.707Z" transform="translate(-154.397 -118.22)" opacity="0.2"/>
      <path id="Path_35" data-name="Path 35" d="M884.761,612.062c-2.225,30.647.081,44.142-12.2,69.41a209.42,209.42,0,0,1-34.775,13.333q-1.866.527-3.74,1.025a211.186,211.186,0,0,1-48.181,6.945c-.849.022-1.683.037-2.488.051-.285.007-.563.015-.841.015-.915.007-1.822.015-2.737.015a211.679,211.679,0,0,1-50.889-6.169q-2.5-.615-4.984-1.3a208.9,208.9,0,0,1-25.591-8.8q-6.586-2.744-12.938-5.92c-.959-.483-1.917-.966-2.861-1.464-4.852-8.533-7.611-18.91-7.669-31.379C678.228,626.339,877.341,593.533,884.761,612.062Z" transform="translate(-298.034 -281.146)" fill="#2f2e41"/>
      <path id="Path_36" data-name="Path 36" d="M884.9,617.072c.114-1.9.241-3.857.389-5.9-7.42-18.529-206.533,14.277-209.892,35.763.009,1.97.093,3.881.235,5.748C683.761,631.478,872.922,600.3,884.9,617.072Z" transform="translate(-298.174 -280.908)" opacity="0.2"/>
      <path id="Path_37" data-name="Path 37" d="M657.6,588.607l16.344-8.172-13.619-36.772-3.589-18.545a14.022,14.022,0,0,0-22.892-7.982h0a14.022,14.022,0,0,0-1.824,19.406L645.343,553.2Z" transform="translate(-285.717 -256.246)" fill="#ffb6b6"/>
      <path id="Path_38" data-name="Path 38" d="M682.449,579.907l-21.791,10.9L677.2,642.62a22.669,22.669,0,0,0,16.345,15.16h0a22.668,22.668,0,0,0,24.689-10.389l43.853-75.165a23.14,23.14,0,0,0-7.461-31.454h0a23.139,23.139,0,0,0-33.147,9.341l-26.766,57.033Z" transform="translate(-294.222 -262.527)" fill="#3d5656"/>
      <ellipse id="Ellipse_7" data-name="Ellipse 7" cx="40.933" cy="40.933" rx="40.933" ry="40.933" transform="translate(112.383 169.495)" fill="#a0616a"/>
      <path id="Path_39" data-name="Path 39" d="M312.13,401.873c3.328-4.486,8.112-7.675,11.771-11.9,2.008-2.316,3.675-4.939,5.932-7.012,4.193-3.852,10.058-5.43,15.748-5.626a39.74,39.74,0,0,1,32.441,15.4l8.923-5.232,3.525,9.279a5.408,5.408,0,0,1,8.243,6.768c.708-2.187,3.951-2.651,5.739-1.206s2.267,4.016,1.975,6.3a12.675,12.675,0,0,1-9.561,10.484c-3.881.865-8.4-.044-11.506,2.439-2.491,1.99-3.243,5.614-5.784,7.538-3.132,2.371-7.559,1.275-11.452,1.8a13.76,13.76,0,0,0-11.386,14.708,17.052,17.052,0,0,0-2.663-6.118c-1.4-1.749-3.755-2.932-5.9-2.289-3.546,1.063-4.126,5.9-3.267,9.5,2.279,9.55,10.918,24.986,10.918,24.986-11.217,4.425-24.58.241-33.234-8.155s-13.162-20.284-15.125-32.181C305.8,421.259,306.038,410.085,312.13,401.873Z" transform="translate(-199.256 -219.653)" fill="#2f2e41"/>
      <path id="Path_40" data-name="Path 40" d="M847.56,460.478c7.787-17.854,3.376-34.284-6.118-43v-.007c-3.732-8.364-8.694-14.819-14.372-16.334-2.744-1.764-5.408-3.835-8.364-4.888a10.894,10.894,0,0,0-8.547.388l-1.508-.4c-1.281-3.271-2.781-3.337-4.449-1.186-6.425-2.993-12.214-4.332-17.365-4.332-16.8,0-26.74,14.226-29.374,31.423l14.043,3.739,4.881-7.779-2.254,8.482,7.75,2.056c11.8,15.36-2.32,50.794-20.212,70.508q6.389-1.767,12.726-2.986l15.353-22.51-9.513,20.49c4.94-.724,11.24-.029,18.127,1.368,2.32-3.03,3.542-7.069,2.342-10.669a40.8,40.8,0,0,1,4.01,12.1c14.533,3.549,34.357,5.371,45.042,6.718C858.388,500.835,858.411,469.01,847.56,460.478Z" transform="translate(-320.186 -223.244)" fill="#db5843"/>
      <path id="Path_41" data-name="Path 41" d="M874.867,397.054c5.7,12.772-5.806,18.266-16.349,18.11-9.527-.14-17.624-6.833-18.11-16.349A17.252,17.252,0,0,1,856.756,380.7C866.272,380.219,870.981,388.355,874.867,397.054Z" transform="translate(-342.427 -220.553)" fill="#db5843"/>
      <path id="Path_42" data-name="Path 42" d="M522.458,666.111l-9.4-15.672,31.241-23.7,12.989-13.714a14.022,14.022,0,0,1,23.6,5.564h0A14.022,14.022,0,0,1,572,635.935l-20.185,6.891Z" transform="translate(-254.636 -281.694)" fill="#a0616a"/>
      <path id="Path_43" data-name="Path 43" d="M506.24,652.5l-14.629,12.192-3.944,3.286-.461.38q-1.526.757-3.074,1.493-4.632,2.206-9.382,4.193a208.9,208.9,0,0,1-25.591,8.8q-2.481.681-4.984,1.3c-1.017.249-2.042.5-3.066.732-.644.154-1.3.3-1.947.439-.79.176-1.581.351-2.371.512q-1.24.263-2.481.505a22.66,22.66,0,0,1-7.04-16.422c0-.2,0-.4.007-.607l2.349-60.248,1.039-26.7a23.138,23.138,0,0,1,23.19-22.525c.7,0,1.4.037,2.086.1.5.644.959,1.31,1.405,1.983,1.215,1.8,2.854,4.647,4.786,8.218.8,1.471,1.639,3.066,2.525,4.757.534,1.017,5.145,15.4,9.63,30.1l-1.976,15.346-3.571,27.662,14.65-9.616,10.318-6.776,1.222,2.042,3.183,5.313,6.147,10.245Z" transform="translate(-231.626 -268.601)" fill="#768daf"/>
      <path id="Path_44" data-name="Path 44" d="M447.294,647.827c-.007,1.244-.037,2.466-.1,3.673a71.16,71.16,0,0,1-1.156,9.923,57.921,57.921,0,0,1-5.349,15.814c-.337.666-.7,1.325-1.061,1.969-.944.5-1.9.981-2.861,1.464-.161.08-.322.161-.483.234q-6.114,3.041-12.455,5.686a208.913,208.913,0,0,1-25.591,8.8q-2.481.681-4.984,1.3-4.885,1.208-9.865,2.188a212.285,212.285,0,0,1-41.024,3.981c-.915,0-1.822-.007-2.737-.015-.278,0-.556-.007-.842-.015-.8-.015-1.639-.029-2.488-.051a211.186,211.186,0,0,1-48.181-6.945q-1.877-.494-3.74-1.025A209.4,209.4,0,0,1,249.6,681.474c-12.279-25.269-9.974-38.763-12.2-69.41,4.566-11.409,81.822-3.352,141.3,9.535a419.771,419.771,0,0,1,42.685,11.277c12.1,4.047,20.878,8.159,24.317,12.023A5.809,5.809,0,0,1,447.294,647.827Z" transform="translate(-180.701 -281.147)" fill="#2f2e41"/>
      <path id="Path_45" data-name="Path 45" d="M237.265,617.072c-.114-1.9-.241-3.857-.389-5.9,7.42-18.529,206.533,14.277,209.892,35.763-.009,1.97-.094,3.881-.235,5.748C438.4,631.478,249.239,600.3,237.265,617.072Z" transform="translate(-180.56 -280.908)" opacity="0.2"/>
    </g>
  </g>
</svg>
