<svg xmlns="http://www.w3.org/2000/svg" xmlns:xlink="http://www.w3.org/1999/xlink" width="467" height="467" viewBox="0 0 467 467">
  <defs>
    <clipPath id="clip-path">
      <rect id="Rectangle_519" data-name="Rectangle 519" width="467" height="467" transform="translate(0.089 0.089)"/>
    </clipPath>
    <clipPath id="clip-path-2">
      <circle id="Ellipse_2" data-name="Ellipse 2" cx="233.5" cy="233.5" r="233.5" transform="translate(0.001)" fill="#212226"/>
    </clipPath>
    <filter id="base_bottom" x="80.114" y="350.997" width="339.363" height="24.404" filterUnits="userSpaceOnUse">
      <feOffset dx="5" dy="8" input="SourceAlpha"/>
      <feGaussianBlur stdDeviation="3" result="blur"/>
      <feFlood flood-opacity="0.161"/>
      <feComposite operator="in" in2="blur"/>
      <feComposite in="SourceGraphic"/>
    </filter>
  </defs>
  <g id="ITSIG_Grey_Logo_Circle_no_text_" data-name="ITSIG Grey Logo Circle (no text) " transform="translate(-0.089 -0.089)" clip-path="url(#clip-path)">
    <rect id="Rectangle_518" data-name="Rectangle 518" width="467" height="467" transform="translate(0.089 0.089)" fill="rgba(236,236,236,0)"/>
    <g id="Mask_Group_1" data-name="Mask Group 1" transform="translate(0.088 0.089)" clip-path="url(#clip-path-2)">
      <rect id="Rectangle_11" data-name="Rectangle 11" width="467" height="467" transform="translate(0.001)" fill="#212226"/>
    </g>
    <g id="Eveything" transform="translate(55.093 110.481)">
      <g id="Group_7" data-name="Group 7">
        <g id="laptop" transform="translate(29.109 54.487)">
          <g id="Group_14" data-name="Group 14" transform="translate(0 185.953)">
            <path id="base_top" data-name="base top" d="M.582,0h320.2a.582.582,0,0,1,.582.582V1.747H0V.582A.582.582,0,0,1,.582,0Z" transform="translate(0 0)" fill="#ececec"/>
            <g transform="matrix(1, 0, 0, 1, -84.11, -350.83)" filter="url(#base_bottom)">
              <path id="base_bottom-2" data-name="base bottom" d="M0,0H321.363V4.129A2.275,2.275,0,0,1,319.087,6.4H2.275A2.275,2.275,0,0,1,0,4.129Z" transform="translate(84.11 352)" fill="#ececec"/>
            </g>
          </g>
          <path id="screen" d="M9.971,0H299.618a9.971,9.971,0,0,1,9.971,9.971V171.495a9.971,9.971,0,0,1-9.971,9.971H9.971A9.971,9.971,0,0,1,0,171.495V9.971A9.971,9.971,0,0,1,9.971,0Z" transform="translate(5.615 0)" fill="#001b36"/>
          <path id="screen_-_Outline" data-name="screen - Outline" d="M9.971,4.256A5.721,5.721,0,0,0,4.256,9.971V171.495a5.721,5.721,0,0,0,5.714,5.714H299.617a5.721,5.721,0,0,0,5.714-5.714V9.971a5.72,5.72,0,0,0-5.714-5.714H9.971M9.971,0H299.617a9.971,9.971,0,0,1,9.971,9.971V171.495a9.971,9.971,0,0,1-9.971,9.971H9.971A9.971,9.971,0,0,1,0,171.495V9.971A9.971,9.971,0,0,1,9.971,0Z" transform="translate(5.615 0)"/>
          <path id="Path_3" data-name="Path 3" d="M-108.362-54.508v6.467q6.28,3,15.934,3T-77.9-48.088a9.624,9.624,0,0,0,4.874-8.623A8.989,8.989,0,0,0-77.62-65q-4.593-2.718-14.622-4.642t-15.043-5.108Q-112.3-77.94-112.3-84.783-112.3-99.5-90.46-99.5q11.623,0,19.215,4.218a2.373,2.373,0,0,1,1.406,1.968v7.686a1.908,1.908,0,0,1-.75,1.547,2.737,2.737,0,0,1-1.781.609,2.737,2.737,0,0,1-1.781-.609,1.908,1.908,0,0,1-.75-1.547v-6.467a36.145,36.145,0,0,0-15.325-3q-8.858,0-12.935,2.531a8.519,8.519,0,0,0-4.077,7.78q0,4.968,5.249,7.4a40.562,40.562,0,0,0,9.608,3.046q6.046,1.266,8.576,1.921A49.234,49.234,0,0,1-77.9-70.4a17.744,17.744,0,0,1,5.249,3.046A15.126,15.126,0,0,1-69.371-62.9a13.766,13.766,0,0,1,1.406,6.326A13.5,13.5,0,0,1-74.1-44.949q-6.139,4.311-17.575,4.312a60.294,60.294,0,0,1-11.341-1.172,27.078,27.078,0,0,1-9.185-3.14,2.181,2.181,0,0,1-1.218-1.875v-7.685a1.908,1.908,0,0,1,.75-1.547,2.737,2.737,0,0,1,1.781-.609,2.737,2.737,0,0,1,1.781.609A1.909,1.909,0,0,1-108.362-54.508Zm56.05,8.529V-94.156h-5.53a2.093,2.093,0,0,1-1.547-.609A2.094,2.094,0,0,1-60-96.313a2.257,2.257,0,0,1,.61-1.594,2.019,2.019,0,0,1,1.547-.656h16.121a2.019,2.019,0,0,1,1.547.656,2.258,2.258,0,0,1,.609,1.593,2.094,2.094,0,0,1-.609,1.547,2.094,2.094,0,0,1-1.547.609H-47.25v48.179h5.53a2.084,2.084,0,0,1,1.547.609,2.085,2.085,0,0,1,.609,1.547,2.257,2.257,0,0,1-.609,1.593,2.018,2.018,0,0,1-1.547.656H-57.842a2.019,2.019,0,0,1-1.547-.656A2.257,2.257,0,0,1-60-43.823a2.084,2.084,0,0,1,.61-1.547,2.084,2.084,0,0,1,1.547-.609ZM12.55-42.793v-3.748A25.582,25.582,0,0,1-4.134-40.636q-12.185,0-19.777-8.483T-31.5-70.489q0-12.888,7.828-20.949A25.69,25.69,0,0,1-4.51-99.5q11.341,0,19.5,4.593a2.238,2.238,0,0,1,1.5,1.968v8.061a1.908,1.908,0,0,1-.75,1.547,2.737,2.737,0,0,1-1.781.609,2.737,2.737,0,0,1-1.781-.609,1.908,1.908,0,0,1-.75-1.547v-6.84A34.843,34.843,0,0,0-3.852-95.092q-10.123,0-16.356,6.889t-6.235,17.949q0,11.059,6.28,18.137A20.367,20.367,0,0,0-4.228-45.041,25,25,0,0,0,12.55-51.133v-14.06H-1.51A2.093,2.093,0,0,1-3.057-65.8a2.094,2.094,0,0,1-.609-1.547,2.257,2.257,0,0,1,.609-1.593A2.019,2.019,0,0,1-1.51-69.6H15.174q2.437,0,2.437,2.156v24.651a1.908,1.908,0,0,1-.75,1.547,2.907,2.907,0,0,1-3.562,0,1.908,1.908,0,0,1-.75-1.547Z" transform="translate(205.162 158.829)" fill="#fff"/>
          <g id="the_thing_to_life_the_screen" data-name="the thing to life the screen" transform="translate(119.347 185.145)">
            <path id="Rectangle_6" data-name="Rectangle 6" d="M0,0H79.176a2.423,2.423,0,0,1-2.423,2.423H2.423A2.423,2.423,0,0,1,0,0Z" transform="translate(0 0)" fill="#212226"/>
          </g>
          <rect id="Rectangle_10" data-name="Rectangle 10" width="15.137" height="4.075" rx="2.038" transform="translate(150.202 7.224)"/>
        </g>
        <g id="Code_Lines" data-name="Code Lines" transform="translate(46.601 76.531)">
          <g id="Code_Lines_9" data-name="Code Lines 9" transform="translate(41.335 18.973)">
            <g id="Colour_3" data-name="Colour 3">
              <path id="Line_14" data-name="Line 14" d="M17.85-.225H-1.362A1.138,1.138,0,0,1-2.5-1.362,1.138,1.138,0,0,1-1.362-2.5H17.85a1.138,1.138,0,0,1,1.138,1.138A1.138,1.138,0,0,1,17.85-.225Z" transform="translate(2.5 2.5)" fill="#33b9b0"/>
            </g>
            <g id="Colour_4" data-name="Colour 4" transform="translate(9.897 6.986)">
              <path id="Line_13" data-name="Line 13" d="M42.884-.225H-1.362A1.138,1.138,0,0,1-2.5-1.362,1.138,1.138,0,0,1-1.362-2.5H42.884a1.138,1.138,0,0,1,1.138,1.138A1.138,1.138,0,0,1,42.884-.225Z" transform="translate(2.5 2.5)" fill="#f18686"/>
            </g>
            <g id="Colour_2" data-name="Colour 2" transform="translate(26.78)">
              <path id="Line_15" data-name="Line 15" d="M3.877-.225H-1.362A1.138,1.138,0,0,1-2.5-1.362,1.138,1.138,0,0,1-1.362-2.5H3.877A1.138,1.138,0,0,1,5.015-1.362,1.138,1.138,0,0,1,3.877-.225Z" transform="translate(2.5 2.5)" fill="#af5ae6"/>
            </g>
          </g>
          <g id="Code_Lines_8" data-name="Code Lines 8" transform="translate(67.498)">
            <g id="Colour_4-2" data-name="Colour 4" transform="translate(40.381 8.973)">
              <path id="Line_13-2" data-name="Line 13" d="M49.488-.225H-1.362A1.138,1.138,0,0,1-2.5-1.362,1.138,1.138,0,0,1-1.362-2.5h50.85a1.138,1.138,0,0,1,1.138,1.138A1.138,1.138,0,0,1,49.488-.225Z" transform="translate(2.5 2.5)" fill="#f18686"/>
            </g>
            <g id="Colour_3-2" data-name="Colour 3" transform="translate(47.859)">
              <path id="Line_14-2" data-name="Line 14" d="M18.081-.225H-1.362A1.138,1.138,0,0,1-2.5-1.362,1.138,1.138,0,0,1-1.362-2.5H18.081a1.138,1.138,0,0,1,1.138,1.138A1.138,1.138,0,0,1,18.081-.225Z" transform="translate(2.5 2.5)" fill="#33b9b0"/>
            </g>
            <g id="Colour_2-2" data-name="Colour 2" transform="translate(96.216 8.973)">
              <path id="Line_15-2" data-name="Line 15" d="M4.122-.225H-1.362A1.138,1.138,0,0,1-2.5-1.362,1.138,1.138,0,0,1-1.362-2.5H4.122A1.138,1.138,0,0,1,5.259-1.362,1.138,1.138,0,0,1,4.122-.225Z" transform="translate(2.5 2.5)" fill="#af5ae6"/>
            </g>
            <g id="Colour_1" data-name="Colour 1">
              <path id="Line_13-3" data-name="Line 13" d="M39.019-.225H-1.362A1.138,1.138,0,0,1-2.5-1.362,1.138,1.138,0,0,1-1.362-2.5H39.019a1.138,1.138,0,0,1,1.138,1.138A1.138,1.138,0,0,1,39.019-.225Z" transform="translate(2.5 2.5)" fill="#116be1"/>
            </g>
          </g>
          <g id="Code_Lines_7" data-name="Code Lines 7" transform="translate(202.016 14.316)">
            <g id="Colour_4-3" data-name="Colour 4" transform="translate(7.568 8.733)">
              <path id="Line_13-4" data-name="Line 13" d="M49.287-.225H-1.362A1.138,1.138,0,0,1-2.5-1.362,1.138,1.138,0,0,1-1.362-2.5H49.287a1.138,1.138,0,0,1,1.138,1.138A1.138,1.138,0,0,1,49.287-.225Z" transform="translate(2.5 2.5)" fill="#f18686"/>
            </g>
            <g id="Colour_2-3" data-name="Colour 2" transform="translate(65.786 8.733)">
              <path id="Line_15-3" data-name="Line 15" d="M3.877-.225H-1.362A1.138,1.138,0,0,1-2.5-1.362,1.138,1.138,0,0,1-1.362-2.5H3.877A1.138,1.138,0,0,1,5.015-1.362,1.138,1.138,0,0,1,3.877-.225Z" transform="translate(2.5 2.5)" fill="#af5ae6"/>
            </g>
            <g id="Colour_1-2" data-name="Colour 1">
              <path id="Line_13-5" data-name="Line 13" d="M39.39-.225H-1.362A1.138,1.138,0,0,1-2.5-1.362,1.138,1.138,0,0,1-1.362-2.5H39.39a1.138,1.138,0,0,1,1.138,1.138A1.138,1.138,0,0,1,39.39-.225Z" transform="translate(2.5 2.5)" fill="#116be1"/>
            </g>
          </g>
          <g id="Code_Lines_6" data-name="Code Lines 6" transform="translate(227.632 51.575)">
            <g id="Colour_3-3" data-name="Colour 3">
              <path id="Line_14-3" data-name="Line 14" d="M17.85-.225H-1.362A1.138,1.138,0,0,1-2.5-1.362,1.138,1.138,0,0,1-1.362-2.5H17.85a1.138,1.138,0,0,1,1.138,1.138A1.138,1.138,0,0,1,17.85-.225Z" transform="translate(2.5 2.5)" fill="#33b9b0"/>
            </g>
            <g id="Colour_4-4" data-name="Colour 4" transform="translate(7.568 8.151)">
              <path id="Line_13-6" data-name="Line 13" d="M42.3-.225H-1.362A1.138,1.138,0,0,1-2.5-1.362,1.138,1.138,0,0,1-1.362-2.5H42.3a1.138,1.138,0,0,1,1.138,1.138A1.138,1.138,0,0,1,42.3-.225Z" transform="translate(2.5 2.5)" fill="#f18686"/>
            </g>
            <g id="Colour_2-4" data-name="Colour 2" transform="translate(29.691 15.719)">
              <path id="Line_15-4" data-name="Line 15" d="M3.877-.225H-1.362A1.138,1.138,0,0,1-2.5-1.362,1.138,1.138,0,0,1-1.362-2.5H3.877A1.138,1.138,0,0,1,5.015-1.362,1.138,1.138,0,0,1,3.877-.225Z" transform="translate(2.5 2.5)" fill="#af5ae6"/>
            </g>
            <g id="Colour_1-3" data-name="Colour 1" transform="translate(8.151 15.719)">
              <path id="Line_13-7" data-name="Line 13" d="M12.61-.225H-1.362A1.138,1.138,0,0,1-2.5-1.362,1.138,1.138,0,0,1-1.362-2.5H12.61a1.138,1.138,0,0,1,1.138,1.138A1.138,1.138,0,0,1,12.61-.225Z" transform="translate(2.5 2.5)" fill="#116be1"/>
            </g>
          </g>
          <g id="Code_Lines_5" data-name="Code Lines 5" transform="translate(193.283 109.793)">
            <g id="Colour_4-5" data-name="Colour 4" transform="translate(13.39 7.568)">
              <path id="Line_13-8" data-name="Line 13" d="M38.808-.225H-1.362A1.138,1.138,0,0,1-2.5-1.362,1.138,1.138,0,0,1-1.362-2.5h40.17a1.138,1.138,0,0,1,1.138,1.138A1.138,1.138,0,0,1,38.808-.225Z" transform="translate(2.5 2.5)" fill="#f18686"/>
            </g>
            <g id="Colour_3-4" data-name="Colour 3" transform="translate(33.766)">
              <path id="Line_14-4" data-name="Line 14" d="M38.808-.225H-1.362A1.138,1.138,0,0,1-2.5-1.362,1.138,1.138,0,0,1-1.362-2.5h40.17a1.138,1.138,0,0,1,1.138,1.138A1.138,1.138,0,0,1,38.808-.225Z" transform="translate(2.5 2.5)" fill="#33b9b0"/>
            </g>
            <g id="Colour_1-4" data-name="Colour 1">
              <path id="Line_13-9" data-name="Line 13" d="M24.836-.225h-26.2A1.138,1.138,0,0,1-2.5-1.362,1.138,1.138,0,0,1-1.362-2.5h26.2a1.138,1.138,0,0,1,1.138,1.138A1.138,1.138,0,0,1,24.836-.225Z" transform="translate(2.5 2.5)" fill="#116be1"/>
            </g>
            <g id="Colour_2-5" data-name="Colour 2" transform="translate(61.129 7.568)">
              <path id="Line_15-5" data-name="Line 15" d="M3.877-.225H-1.362A1.138,1.138,0,0,1-2.5-1.362,1.138,1.138,0,0,1-1.362-2.5H3.877A1.138,1.138,0,0,1,5.015-1.362,1.138,1.138,0,0,1,3.877-.225Z" transform="translate(2.5 2.5)" fill="#af5ae6"/>
            </g>
          </g>
          <g id="Code_Lines_4" data-name="Code Lines 4" transform="translate(175.818 135.991)">
            <g id="Colour_3-5" data-name="Colour 3">
              <path id="Line_14-5" data-name="Line 14" d="M17.85-.225H-1.362A1.138,1.138,0,0,1-2.5-1.362,1.138,1.138,0,0,1-1.362-2.5H17.85a1.138,1.138,0,0,1,1.138,1.138A1.138,1.138,0,0,1,17.85-.225Z" transform="translate(2.5 2.5)" fill="#33b9b0"/>
            </g>
            <g id="Colour_2-6" data-name="Colour 2" transform="translate(27.944)">
              <path id="Line_15-6" data-name="Line 15" d="M3.877-.225H-1.362A1.138,1.138,0,0,1-2.5-1.362,1.138,1.138,0,0,1-1.362-2.5H3.877A1.138,1.138,0,0,1,5.015-1.362,1.138,1.138,0,0,1,3.877-.225Z" transform="translate(2.5 2.5)" fill="#af5ae6"/>
            </g>
            <g id="Colour_3-6" data-name="Colour 3" transform="translate(5.822 7.568)">
              <path id="Line_14-6" data-name="Line 14" d="M17.85-.225H-1.362A1.138,1.138,0,0,1-2.5-1.362,1.138,1.138,0,0,1-1.362-2.5H17.85a1.138,1.138,0,0,1,1.138,1.138A1.138,1.138,0,0,1,17.85-.225Z" transform="translate(2.5 2.5)" fill="#33b9b0"/>
            </g>
            <g id="Colour_1-5" data-name="Colour 1" transform="translate(30.856 7.568)">
              <path id="Line_13-10" data-name="Line 13" d="M39.39-.225H-1.362A1.138,1.138,0,0,1-2.5-1.362,1.138,1.138,0,0,1-1.362-2.5H39.39a1.138,1.138,0,0,1,1.138,1.138A1.138,1.138,0,0,1,39.39-.225Z" transform="translate(2.5 2.5)" fill="#116be1"/>
            </g>
          </g>
          <g id="Code_Lines_3" data-name="Code Lines 3" transform="translate(86.163 120.272)">
            <g id="Colour_3-7" data-name="Colour 3">
              <path id="Line_14-7" data-name="Line 14" d="M17.85-.225H-1.362A1.138,1.138,0,0,1-2.5-1.362,1.138,1.138,0,0,1-1.362-2.5H17.85a1.138,1.138,0,0,1,1.138,1.138A1.138,1.138,0,0,1,17.85-.225Z" transform="translate(2.5 2.5)" fill="#33b9b0"/>
            </g>
            <g id="Colour_1-6" data-name="Colour 1" transform="translate(6.986 6.986)">
              <path id="Line_13-11" data-name="Line 13" d="M38.808-.225H-1.362A1.138,1.138,0,0,1-2.5-1.362,1.138,1.138,0,0,1-1.362-2.5h40.17a1.138,1.138,0,0,1,1.138,1.138A1.138,1.138,0,0,1,38.808-.225Z" transform="translate(2.5 2.5)" fill="#116be1"/>
            </g>
            <g id="Colour_2-7" data-name="Colour 2" transform="translate(53.561 6.986)">
              <path id="Line_15-7" data-name="Line 15" d="M3.877-.225H-1.362A1.138,1.138,0,0,1-2.5-1.362,1.138,1.138,0,0,1-1.362-2.5H3.877A1.138,1.138,0,0,1,5.015-1.362,1.138,1.138,0,0,1,3.877-.225Z" transform="translate(2.5 2.5)" fill="#af5ae6"/>
            </g>
            <g id="Colour_3-8" data-name="Colour 3" transform="translate(0 14.554)">
              <path id="Line_14-8" data-name="Line 14" d="M17.85-.225H-1.362A1.138,1.138,0,0,1-2.5-1.362,1.138,1.138,0,0,1-1.362-2.5H17.85a1.138,1.138,0,0,1,1.138,1.138A1.138,1.138,0,0,1,17.85-.225Z" transform="translate(2.5 2.5)" fill="#33b9b0"/>
            </g>
            <g id="Colour_4-6" data-name="Colour 4" transform="translate(6.404 23.287)">
              <path id="Line_13-12" data-name="Line 13" d="M19.6-.225H-1.362A1.138,1.138,0,0,1-2.5-1.362,1.138,1.138,0,0,1-1.362-2.5H19.6a1.138,1.138,0,0,1,1.138,1.138A1.138,1.138,0,0,1,19.6-.225Z" transform="translate(2.5 2.5)" fill="#f18686"/>
            </g>
          </g>
          <g id="Code_Lines_2" data-name="Code Lines 2" transform="translate(0 110.957)">
            <g id="Colour_1-7" data-name="Colour 1">
              <path id="Line_13-13" data-name="Line 13" d="M39.39-.225H-1.362A1.138,1.138,0,0,1-2.5-1.362,1.138,1.138,0,0,1-1.362-2.5H39.39a1.138,1.138,0,0,1,1.138,1.138A1.138,1.138,0,0,1,39.39-.225Z" transform="translate(2.5 2.5)" fill="#116be1"/>
            </g>
            <g id="Colour_3-9" data-name="Colour 3" transform="translate(5.822 6.986)">
              <path id="Line_14-9" data-name="Line 14" d="M17.85-.225H-1.362A1.138,1.138,0,0,1-2.5-1.362,1.138,1.138,0,0,1-1.362-2.5H17.85a1.138,1.138,0,0,1,1.138,1.138A1.138,1.138,0,0,1,17.85-.225Z" transform="translate(2.5 2.5)" fill="#33b9b0"/>
            </g>
            <g id="Colour_2-8" data-name="Colour 2" transform="translate(48.321)">
              <path id="Line_15-8" data-name="Line 15" d="M3.877-.225H-1.362A1.138,1.138,0,0,1-2.5-1.362,1.138,1.138,0,0,1-1.362-2.5H3.877A1.138,1.138,0,0,1,5.015-1.362,1.138,1.138,0,0,1,3.877-.225Z" transform="translate(2.5 2.5)" fill="#af5ae6"/>
            </g>
            <g id="Colour_3-10" data-name="Colour 3" transform="translate(20.376 13.972)">
              <path id="Line_14-10" data-name="Line 14" d="M17.85-.225H-1.362A1.138,1.138,0,0,1-2.5-1.362,1.138,1.138,0,0,1-1.362-2.5H17.85a1.138,1.138,0,0,1,1.138,1.138A1.138,1.138,0,0,1,17.85-.225Z" transform="translate(2.5 2.5)" fill="#33b9b0"/>
            </g>
          </g>
          <g id="Code_Lines_1" data-name="Code Lines 1" transform="translate(15.719 61.472)">
            <g id="Colour_1-8" data-name="Colour 1">
              <path id="Line_13-14" data-name="Line 13" d="M39.39-.225H-1.362A1.138,1.138,0,0,1-2.5-1.362,1.138,1.138,0,0,1-1.362-2.5H39.39a1.138,1.138,0,0,1,1.138,1.138A1.138,1.138,0,0,1,39.39-.225Z" transform="translate(2.5 2.5)" fill="#116be1"/>
            </g>
            <g id="Colour_2-9" data-name="Colour 2" transform="translate(8.151 5.822)">
              <path id="Line_15-9" data-name="Line 15" d="M11.446-.225H-1.362A1.138,1.138,0,0,1-2.5-1.362,1.138,1.138,0,0,1-1.362-2.5H11.446a1.138,1.138,0,0,1,1.138,1.138A1.138,1.138,0,0,1,11.446-.225Z" transform="translate(2.5 2.5)" fill="#af5ae6"/>
            </g>
            <g id="Colour_4-7" data-name="Colour 4" transform="translate(15.137 11.644)">
              <path id="Line_13-15" data-name="Line 13" d="M39.972-.225H-1.362A1.138,1.138,0,0,1-2.5-1.362,1.138,1.138,0,0,1-1.362-2.5H39.972A1.138,1.138,0,0,1,41.11-1.362,1.138,1.138,0,0,1,39.972-.225Z" transform="translate(2.5 2.5)" fill="#f18686"/>
            </g>
            <g id="Colour_3-11" data-name="Colour 3" transform="translate(27.944 5.822)">
              <path id="Line_14-11" data-name="Line 14" d="M20.179-.225H-1.362A1.138,1.138,0,0,1-2.5-1.362,1.138,1.138,0,0,1-1.362-2.5H20.179a1.138,1.138,0,0,1,1.138,1.138A1.138,1.138,0,0,1,20.179-.225Z" transform="translate(2.5 2.5)" fill="#33b9b0"/>
            </g>
          </g>
        </g>
        <g id="Fone" transform="translate(0 182.222) rotate(-90)">
          <path id="Screen-2" data-name="Screen" d="M17.749,0H164.474a17.749,17.749,0,0,1,17.749,17.749v59.4A17.749,17.749,0,0,1,164.474,94.9H17.749A17.749,17.749,0,0,1,0,77.147v-59.4A17.749,17.749,0,0,1,17.749,0Z" fill="#003a9f"/>
          <path id="Screen_-_Outline-2" data-name="Screen - Outline" d="M11.35,4.256A7.1,7.1,0,0,0,4.256,11.35V83.545a7.1,7.1,0,0,0,7.094,7.094H170.872a7.1,7.1,0,0,0,7.094-7.094V11.35a7.1,7.1,0,0,0-7.094-7.094H11.35M11.35,0H170.872a11.35,11.35,0,0,1,11.35,11.35V83.545a11.35,11.35,0,0,1-11.35,11.35H11.35A11.35,11.35,0,0,1,0,83.545V11.35A11.35,11.35,0,0,1,11.35,0Z"/>
          <path id="Path_2" data-name="Path 2" d="M4.823,32.987V2.764H1.353A1.307,1.307,0,0,1,0,1.411a1.416,1.416,0,0,1,.382-1A1.267,1.267,0,0,1,1.353,0H11.467a1.267,1.267,0,0,1,.97.41,1.416,1.416,0,0,1,.382,1,1.307,1.307,0,0,1-1.353,1.353H8V32.987h3.469a1.307,1.307,0,0,1,1.353,1.353,1.416,1.416,0,0,1-.382,1,1.267,1.267,0,0,1-.97.41H1.353a1.267,1.267,0,0,1-.97-.41,1.416,1.416,0,0,1-.382-1,1.307,1.307,0,0,1,1.353-1.353Zm25.988,2V2.764H19.17V6.235a1.2,1.2,0,0,1-.471.97,1.824,1.824,0,0,1-2.234,0,1.2,1.2,0,0,1-.47-.97V1.411a1.281,1.281,0,0,1,.47-1A1.566,1.566,0,0,1,17.522,0H47.216a1.641,1.641,0,0,1,1.117.41,1.281,1.281,0,0,1,.471,1V6.235a1.2,1.2,0,0,1-.471.97,1.824,1.824,0,0,1-2.234,0,1.2,1.2,0,0,1-.471-.97V2.764H33.988v32.22a1.2,1.2,0,0,1-.471.97,1.824,1.824,0,0,1-2.235,0A1.2,1.2,0,0,1,30.811,34.987Z" transform="translate(110.27 23.224) rotate(90)" fill="#fff"/>
          <g id="Group_5" data-name="Group 5" transform="translate(176.4 45.41) rotate(90)">
            <circle id="Ellipse_1" data-name="Ellipse 1" cx="2.037" cy="2.037" r="2.037" transform="translate(0 4.075) rotate(-90)"/>
          </g>
        </g>
      </g>
    </g>
  </g>
</svg>
