<svg width="80" height="80" viewBox="0 0 80 80" fill="none" xmlns="http://www.w3.org/2000/svg">
<g clip-path="url(#clip0_88_2774)">
<mask id="mask0_88_2774" style="mask-type:luminance" maskUnits="userSpaceOnUse" x="0" y="0" width="80" height="80">
<path d="M80 0H0V80H80V0Z" fill="white"/>
</mask>
<g mask="url(#mask0_88_2774)">
<path d="M15.0189 60.0259H69.9871C70.0136 60.0259 70.039 60.0364 70.0577 60.0551C70.0764 60.0739 70.087 60.0993 70.087 60.1258V60.3257H14.919V60.1258C14.919 60.0993 14.9295 60.0739 14.9483 60.0551C14.967 60.0364 14.9924 60.0259 15.0189 60.0259Z" fill="#ECECEC"/>
<g filter="url(#filter0_d_88_2774)">
<path d="M14.919 60.2261H70.087V60.9348C70.087 61.0384 70.0458 61.1378 69.9726 61.211C69.8993 61.2843 69.8 61.3254 69.6964 61.3254H15.3096C15.206 61.3254 15.1067 61.2843 15.0334 61.211C14.9602 61.1378 14.919 61.0384 14.919 60.9348V60.2261Z" fill="#ECECEC"/>
</g>
<path d="M17.5946 28.1035H67.3179C67.7719 28.1035 68.2073 28.2838 68.5282 28.6048C68.8492 28.9258 69.0296 29.3612 69.0296 29.8152V57.5438C69.0296 57.9978 68.8492 58.4331 68.5282 58.7541C68.2073 59.0751 67.7719 59.2555 67.3179 59.2555H17.5946C17.1406 59.2555 16.7053 59.0751 16.3843 58.7541C16.0633 58.4331 15.8829 57.9978 15.8829 57.5438V29.8152C15.8829 29.3612 16.0633 28.9258 16.3843 28.6048C16.7053 28.2838 17.1406 28.1035 17.5946 28.1035Z" fill="#001B36"/>
<path d="M17.5946 28.8342C17.3345 28.8345 17.0852 28.9379 16.9013 29.1218C16.7174 29.3057 16.6139 29.5551 16.6136 29.8152V57.5438C16.6139 57.8039 16.7174 58.0532 16.9013 58.2371C17.0852 58.421 17.3345 58.5245 17.5946 58.5248H67.3179C67.5779 58.5245 67.8272 58.421 68.0111 58.2371C68.195 58.0532 68.2985 57.8039 68.2988 57.5438V29.8152C68.2985 29.5551 68.1951 29.3057 68.0112 29.1218C67.8273 28.9379 67.5779 28.8345 67.3179 28.8342H17.5946ZM17.5946 28.1035H67.3179C67.7718 28.1035 68.2072 28.2838 68.5282 28.6048C68.8492 28.9258 69.0295 29.3612 69.0295 29.8152V57.5438C69.0295 57.9978 68.8492 58.4331 68.5282 58.7541C68.2072 59.0751 67.7718 59.2555 67.3179 59.2555H17.5946C17.1406 59.2555 16.7053 59.0751 16.3843 58.7541C16.0633 58.4331 15.8829 57.9978 15.8829 57.5438V29.8152C15.8829 29.3612 16.0633 28.9258 16.3843 28.6048C16.7053 28.2838 17.1406 28.1035 17.5946 28.1035Z" fill="black"/>
<path d="M32.0779 46.3506V47.4609C32.7967 47.8041 33.7085 47.9758 34.8133 47.9758C35.9181 47.9758 36.7495 47.8015 37.3074 47.4528C37.8652 47.1042 38.1441 46.6107 38.1441 45.9725C38.1441 45.3343 37.8812 44.8597 37.3554 44.5488C36.8298 44.2377 35.9931 43.9721 34.8453 43.752C33.6974 43.5318 32.8366 43.2395 32.2628 42.8751C31.6888 42.5105 31.4019 41.9366 31.4019 41.1534C31.4019 39.4692 32.6516 38.6271 35.151 38.6271C36.4812 38.6271 37.5807 38.8685 38.4496 39.3512C38.6105 39.4477 38.691 39.5604 38.691 39.6891V41.0085C38.6918 41.0598 38.6806 41.1105 38.6582 41.1567C38.6358 41.2028 38.603 41.243 38.5622 41.2741C38.4759 41.3441 38.3676 41.3811 38.2565 41.3787C38.1454 41.3811 38.0371 41.3441 37.9508 41.2741C37.91 41.243 37.8772 41.2028 37.8548 41.1567C37.8324 41.1105 37.8212 41.0598 37.822 41.0085V39.8983C37.0819 39.555 36.2049 39.3834 35.1912 39.3834C34.1774 39.3834 33.4373 39.5282 32.9706 39.8178C32.504 40.1074 32.2707 40.5528 32.2707 41.1538C32.2707 41.7223 32.5711 42.146 33.1718 42.4249C33.5794 42.6287 34.1292 42.803 34.8211 42.9479C35.513 43.0927 36.0038 43.2027 36.2934 43.2777C36.6383 43.3715 36.9769 43.4871 37.3071 43.6237C37.6353 43.745 37.9401 43.9219 38.2082 44.1466C38.4413 44.3646 38.6323 44.6237 38.7714 44.9109C38.9371 45.2486 39.0199 45.6209 39.0127 45.9969C39.0127 46.8336 38.6614 47.4987 37.9588 47.9921C37.2562 48.4855 36.2506 48.7323 34.9418 48.7323C34.2879 48.7269 33.636 48.6595 32.9949 48.5311C32.2976 48.397 31.772 48.2173 31.418 47.992C31.3573 47.9623 31.3059 47.9166 31.2691 47.86C31.2322 47.8033 31.2114 47.7378 31.2088 47.6702V46.3506C31.208 46.2994 31.2192 46.2486 31.2416 46.2025C31.264 46.1564 31.2968 46.1161 31.3376 46.085C31.4239 46.0151 31.5322 45.978 31.6433 45.9804C31.7544 45.978 31.8627 46.0151 31.949 46.085C31.9898 46.1161 32.0227 46.1563 32.0451 46.2025C32.0675 46.2486 32.0787 46.2993 32.0779 46.3506ZM41.6999 47.8145V39.5443H40.7506C40.7015 39.5459 40.6526 39.5374 40.6069 39.5194C40.5612 39.5014 40.5197 39.4742 40.4849 39.4395C40.4503 39.4047 40.4231 39.3632 40.4051 39.3175C40.3871 39.2718 40.3787 39.2229 40.3803 39.1738C40.3781 39.0725 40.4157 38.9743 40.4851 38.9004C40.5187 38.8636 40.5598 38.8345 40.6056 38.8151C40.6515 38.7957 40.7009 38.7863 40.7507 38.7877H43.5181C43.5679 38.7863 43.6174 38.7957 43.6632 38.8151C43.709 38.8346 43.7501 38.8636 43.7837 38.9004C43.853 38.9743 43.8905 39.0725 43.8883 39.1738C43.8899 39.2229 43.8815 39.2718 43.8635 39.3175C43.8455 39.3632 43.8183 39.4047 43.7837 39.4395C43.7489 39.4741 43.7074 39.5013 43.6617 39.5193C43.616 39.5373 43.5671 39.5457 43.5181 39.5441H42.5688V47.8145H43.5181C43.5672 47.8127 43.6161 47.8211 43.6618 47.8391C43.7074 47.8571 43.7489 47.8843 43.7836 47.919C43.8183 47.9537 43.8455 47.9952 43.8635 48.0409C43.8815 48.0866 43.8899 48.1355 43.8882 48.1845C43.8905 48.2859 43.8529 48.384 43.7836 48.458C43.75 48.4947 43.7089 48.5238 43.6631 48.5433C43.6172 48.5627 43.5678 48.572 43.518 48.5706H40.7506C40.7008 48.572 40.6513 48.5627 40.6055 48.5433C40.5596 48.5238 40.5185 48.4947 40.4849 48.458C40.4156 48.384 40.3781 48.2859 40.3803 48.1845C40.3787 48.1355 40.3871 48.0866 40.4051 48.041C40.4232 47.9954 40.4504 47.9539 40.4851 47.9192C40.5198 47.8846 40.5613 47.8574 40.607 47.8394C40.6527 47.8215 40.7015 47.8131 40.7506 47.8148L41.6999 47.8145ZM52.8347 48.3613V47.7184C52.031 48.3863 51.0155 48.7457 49.9706 48.7321C48.576 48.7321 47.4443 48.2467 46.5754 47.2759C45.7065 46.3052 45.272 45.0822 45.272 43.6072C45.272 42.1322 45.72 40.9334 46.6158 40.0109C47.5116 39.0884 48.6084 38.6271 49.906 38.627C51.204 38.627 52.3196 38.8898 53.2529 39.4154C53.4248 39.5012 53.5107 39.6139 53.5107 39.7533V41.1371C53.5115 41.1884 53.5003 41.2391 53.478 41.2852C53.4556 41.3314 53.4227 41.3716 53.382 41.4027C53.2956 41.4727 53.1873 41.5097 53.0763 41.5073C52.9652 41.5097 52.8569 41.4727 52.7706 41.4027C52.7298 41.3716 52.6969 41.3314 52.6746 41.2852C52.6522 41.2391 52.641 41.1884 52.6418 41.1371V39.9629C51.8228 39.5734 50.9259 39.3754 50.019 39.3836C48.8605 39.3836 47.9245 39.7778 47.2112 40.5662C46.4979 41.3547 46.1411 42.3818 46.1409 43.6476C46.1409 44.9132 46.5002 45.951 47.219 46.7611C47.9377 47.5711 48.8495 47.9761 49.9544 47.9759C51.0593 47.9759 52.0194 47.6273 52.8346 46.9301V44.516H50.421C50.372 44.5176 50.3231 44.5092 50.2774 44.4912C50.2317 44.4732 50.1902 44.4461 50.1554 44.4114C50.1207 44.3766 50.0936 44.3351 50.0756 44.2894C50.0576 44.2437 50.0492 44.1949 50.0508 44.1458C50.0486 44.0445 50.0861 43.9463 50.1554 43.8723C50.189 43.8356 50.2301 43.8065 50.2759 43.7871C50.3218 43.7676 50.3713 43.7583 50.421 43.7597H53.2852C53.5641 43.7597 53.7035 43.883 53.7035 44.1298V48.362C53.7044 48.4132 53.6931 48.464 53.6708 48.5101C53.6484 48.5562 53.6155 48.5965 53.5748 48.6276C53.4873 48.6954 53.3798 48.7321 53.2691 48.7321C53.1584 48.7321 53.0509 48.6954 52.9634 48.6276C52.9226 48.5965 52.8897 48.5562 52.8674 48.5101C52.845 48.464 52.8338 48.4132 52.8346 48.362L52.8347 48.3613Z" fill="white"/>
<path d="M35.4071 59.8872H48.9992C48.9992 59.9975 48.9554 60.1034 48.8774 60.1814C48.7993 60.2594 48.6935 60.3032 48.5832 60.3032H35.8231C35.7128 60.3032 35.607 60.2594 35.529 60.1814C35.4509 60.1034 35.4071 59.9975 35.4071 59.8872Z" fill="#262B37"/>
<path d="M42.9529 29.3438H41.0539C40.8607 29.3438 40.7041 29.5003 40.7041 29.6935V29.6936C40.7041 29.8868 40.8607 30.0434 41.0539 30.0434H42.9529C43.146 30.0434 43.3026 29.8868 43.3026 29.6936V29.6935C43.3026 29.5003 43.146 29.3438 42.9529 29.3438Z" fill="black"/>
<path d="M28.5111 35.5361H25.213C25.1612 35.5361 25.1115 35.5156 25.0749 35.4789C25.0383 35.4423 25.0177 35.3926 25.0177 35.3408C25.0177 35.289 25.0383 35.2393 25.0749 35.2027C25.1115 35.1661 25.1612 35.1455 25.213 35.1455H28.5111C28.5629 35.1455 28.6126 35.1661 28.6492 35.2027C28.6859 35.2393 28.7065 35.289 28.7065 35.3408C28.7065 35.3926 28.6859 35.4423 28.6492 35.4789C28.6126 35.5156 28.5629 35.5361 28.5111 35.5361Z" fill="#33B9B0"/>
<path d="M34.5076 36.7354H26.912C26.8602 36.7354 26.8105 36.7148 26.7739 36.6781C26.7373 36.6415 26.7167 36.5918 26.7167 36.54C26.7167 36.4882 26.7373 36.4386 26.7739 36.4019C26.8105 36.3653 26.8602 36.3447 26.912 36.3447H34.5076C34.5594 36.3447 34.6091 36.3653 34.6457 36.4019C34.6823 36.4386 34.7029 36.4882 34.7029 36.54C34.7029 36.5918 34.6823 36.6415 34.6457 36.6781C34.6091 36.7148 34.5594 36.7354 34.5076 36.7354Z" fill="#F18686"/>
<path d="M30.7098 35.5361H29.8104C29.7586 35.5361 29.7089 35.5156 29.6723 35.4789C29.6356 35.4423 29.6151 35.3926 29.6151 35.3408C29.6151 35.289 29.6356 35.2393 29.6723 35.2027C29.7089 35.1661 29.7586 35.1455 29.8104 35.1455H30.7098C30.7616 35.1455 30.8113 35.1661 30.8479 35.2027C30.8846 35.2393 30.9051 35.289 30.9051 35.3408C30.9051 35.3926 30.8846 35.4423 30.8479 35.4789C30.8113 35.5156 30.7616 35.5361 30.7098 35.5361Z" fill="#AF5AE6"/>
<path d="M45.366 33.8193H36.6367C36.5849 33.8193 36.5352 33.7988 36.4986 33.7621C36.4619 33.7255 36.4413 33.6758 36.4413 33.624C36.4413 33.5722 36.4619 33.5225 36.4986 33.4859C36.5352 33.4493 36.5849 33.4287 36.6367 33.4287H45.366C45.4178 33.4287 45.4675 33.4493 45.5041 33.4859C45.5408 33.5225 45.5613 33.5722 45.5613 33.624C45.5613 33.6758 45.5408 33.7255 45.5041 33.7621C45.4675 33.7988 45.4178 33.8193 45.366 33.8193Z" fill="#F18686"/>
<path d="M41.2581 32.2788H37.9204C37.8686 32.2788 37.8189 32.2582 37.7823 32.2216C37.7457 32.185 37.7251 32.1353 37.7251 32.0835C37.7251 32.0317 37.7457 31.982 37.7823 31.9454C37.8189 31.9088 37.8686 31.8882 37.9204 31.8882H41.2581C41.3099 31.8882 41.3596 31.9088 41.3963 31.9454C41.4329 31.982 41.4535 32.0317 41.4535 32.0835C41.4535 32.1353 41.4329 32.185 41.3963 32.2216C41.3596 32.2582 41.3099 32.2788 41.2581 32.2788Z" fill="#33B9B0"/>
<path d="M47.1632 33.8193H46.2218C46.17 33.8193 46.1203 33.7988 46.0837 33.7621C46.0471 33.7255 46.0265 33.6758 46.0265 33.624C46.0265 33.5722 46.0471 33.5225 46.0837 33.4859C46.1203 33.4493 46.17 33.4287 46.2218 33.4287H47.1632C47.215 33.4287 47.2647 33.4493 47.3013 33.4859C47.3379 33.5225 47.3585 33.5722 47.3585 33.624C47.3585 33.6758 47.3379 33.7255 47.3013 33.7621C47.2647 33.7988 47.215 33.8193 47.1632 33.8193Z" fill="#AF5AE6"/>
<path d="M36.6367 32.2788H29.7045C29.6527 32.2788 29.603 32.2582 29.5664 32.2216C29.5297 32.185 29.5092 32.1353 29.5092 32.0835C29.5092 32.0317 29.5297 31.982 29.5664 31.9454C29.603 31.9088 29.6527 31.8882 29.7045 31.8882H36.6367C36.6885 31.8882 36.7381 31.9088 36.7748 31.9454C36.8114 31.982 36.832 32.0317 36.832 32.0835C36.832 32.1353 36.8114 32.185 36.7748 32.2216C36.7381 32.2582 36.6885 32.2788 36.6367 32.2788Z" fill="#116BE1"/>
<path d="M62.7911 36.2354H54.0962C54.0444 36.2354 53.9947 36.2148 53.9581 36.1781C53.9215 36.1415 53.9009 36.0918 53.9009 36.04C53.9009 35.9882 53.9215 35.9386 53.9581 35.9019C53.9947 35.8653 54.0444 35.8447 54.0962 35.8447H62.7911C62.8429 35.8447 62.8926 35.8653 62.9292 35.9019C62.9658 35.9386 62.9864 35.9882 62.9864 36.04C62.9864 36.0918 62.9658 36.1415 62.9292 36.1781C62.8926 36.2148 62.8429 36.2354 62.7911 36.2354Z" fill="#F18686"/>
<path d="M64.9899 36.2354H64.0905C64.0387 36.2354 63.989 36.2148 63.9523 36.1781C63.9157 36.1415 63.8951 36.0918 63.8951 36.04C63.8951 35.9882 63.9157 35.9386 63.9523 35.9019C63.989 35.8653 64.0387 35.8447 64.0905 35.8447H64.9899C65.0417 35.8447 65.0914 35.8653 65.128 35.9019C65.1646 35.9386 65.1852 35.9882 65.1852 36.04C65.1852 36.0918 65.1646 36.1415 65.128 36.1781C65.0914 36.2148 65.0417 36.2354 64.9899 36.2354Z" fill="#AF5AE6"/>
<path d="M59.7929 34.7363H52.797C52.7452 34.7363 52.6955 34.7158 52.6589 34.6791C52.6223 34.6425 52.6017 34.5928 52.6017 34.541C52.6017 34.4892 52.6223 34.4395 52.6589 34.4029C52.6955 34.3663 52.7452 34.3457 52.797 34.3457H59.7929C59.8447 34.3457 59.8944 34.3663 59.931 34.4029C59.9677 34.4395 59.9882 34.4892 59.9882 34.541C59.9882 34.5928 59.9677 34.6425 59.931 34.6791C59.8944 34.7158 59.8447 34.7363 59.7929 34.7363Z" fill="#116BE1"/>
<path d="M60.4926 41.1328H57.1945C57.1427 41.1328 57.093 41.1122 57.0564 41.0756C57.0197 41.039 56.9991 40.9893 56.9991 40.9375C56.9991 40.8857 57.0197 40.836 57.0564 40.7994C57.093 40.7628 57.1427 40.7422 57.1945 40.7422H60.4926C60.5444 40.7422 60.5941 40.7628 60.6307 40.7994C60.6673 40.836 60.6879 40.8857 60.6879 40.9375C60.6879 40.9893 60.6673 41.039 60.6307 41.0756C60.5941 41.1122 60.5444 41.1328 60.4926 41.1328Z" fill="#33B9B0"/>
<path d="M65.9893 42.5322H58.4937C58.4419 42.5322 58.3922 42.5116 58.3555 42.475C58.3189 42.4384 58.2983 42.3887 58.2983 42.3369C58.2983 42.2851 58.3189 42.2354 58.3555 42.1988C58.3922 42.1622 58.4419 42.1416 58.4937 42.1416H65.9893C66.0411 42.1416 66.0908 42.1622 66.1274 42.1988C66.164 42.2354 66.1846 42.2851 66.1846 42.3369C66.1846 42.3887 66.164 42.4384 66.1274 42.475C66.0908 42.5116 66.0411 42.5322 65.9893 42.5322Z" fill="#F18686"/>
<path d="M63.191 43.8311H62.2915C62.2397 43.8311 62.19 43.8105 62.1534 43.7738C62.1168 43.7372 62.0962 43.6875 62.0962 43.6357C62.0962 43.5839 62.1168 43.5343 62.1534 43.4976C62.19 43.461 62.2397 43.4404 62.2915 43.4404H63.191C63.2428 43.4404 63.2924 43.461 63.3291 43.4976C63.3657 43.5343 63.3863 43.5839 63.3863 43.6357C63.3863 43.6875 63.3657 43.7372 63.3291 43.7738C63.2924 43.8105 63.2428 43.8311 63.191 43.8311Z" fill="#AF5AE6"/>
<path d="M60.9921 43.8311H58.5937C58.5419 43.8311 58.4922 43.8105 58.4556 43.7738C58.419 43.7372 58.3984 43.6875 58.3984 43.6357C58.3984 43.5839 58.419 43.5343 58.4556 43.4976C58.4922 43.461 58.5419 43.4404 58.5937 43.4404H60.9921C61.0439 43.4404 61.0936 43.461 61.1302 43.4976C61.1669 43.5343 61.1874 43.5839 61.1874 43.6357C61.1874 43.6875 61.1669 43.7372 61.1302 43.7738C61.0936 43.8105 61.0439 43.8311 60.9921 43.8311Z" fill="#116BE1"/>
<path d="M60.4925 52.4263H53.5965C53.5447 52.4263 53.495 52.4057 53.4584 52.3691C53.4218 52.3324 53.4012 52.2828 53.4012 52.231C53.4012 52.1792 53.4218 52.1295 53.4584 52.0929C53.495 52.0562 53.5447 52.0356 53.5965 52.0356H60.4925C60.5443 52.0356 60.594 52.0562 60.6306 52.0929C60.6672 52.1295 60.6878 52.1792 60.6878 52.231C60.6878 52.2828 60.6672 52.3324 60.6306 52.3691C60.594 52.4057 60.5443 52.4263 60.4925 52.4263Z" fill="#F18686"/>
<path d="M63.9905 51.127H57.0945C57.0427 51.127 56.993 51.1064 56.9564 51.0697C56.9197 51.0331 56.8992 50.9834 56.8992 50.9316C56.8992 50.8798 56.9197 50.8302 56.9564 50.7935C56.993 50.7569 57.0427 50.7363 57.0945 50.7363H63.9905C64.0423 50.7363 64.092 50.7569 64.1286 50.7935C64.1652 50.8302 64.1858 50.8798 64.1858 50.9316C64.1858 50.9834 64.1652 51.0331 64.1286 51.0697C64.092 51.1064 64.0423 51.127 63.9905 51.127Z" fill="#33B9B0"/>
<path d="M55.7953 51.127H51.2979C51.2461 51.127 51.1964 51.1064 51.1597 51.0697C51.1231 51.0331 51.1025 50.9834 51.1025 50.9316C51.1025 50.8798 51.1231 50.8302 51.1597 50.7935C51.1964 50.7569 51.2461 50.7363 51.2979 50.7363H55.7953C55.8471 50.7363 55.8968 50.7569 55.9334 50.7935C55.97 50.8302 55.9906 50.8798 55.9906 50.9316C55.9906 50.9834 55.97 51.0331 55.9334 51.0697C55.8968 51.1064 55.8471 51.127 55.7953 51.127Z" fill="#116BE1"/>
<path d="M62.6912 52.4263H61.7917C61.7399 52.4263 61.6903 52.4057 61.6536 52.3691C61.617 52.3324 61.5964 52.2828 61.5964 52.231C61.5964 52.1792 61.617 52.1295 61.6536 52.0929C61.6903 52.0562 61.7399 52.0356 61.7917 52.0356H62.6912C62.743 52.0356 62.7927 52.0562 62.8293 52.0929C62.8659 52.1295 62.8865 52.1792 62.8865 52.231C62.8865 52.2828 62.8659 52.3324 62.8293 52.3691C62.7927 52.4057 62.743 52.4263 62.6912 52.4263Z" fill="#AF5AE6"/>
<path d="M51.5977 55.6245H48.2996C48.2478 55.6245 48.1981 55.6039 48.1615 55.5673C48.1249 55.5307 48.1043 55.481 48.1043 55.4292C48.1043 55.3774 48.1249 55.3277 48.1615 55.2911C48.1981 55.2545 48.2478 55.2339 48.2996 55.2339H51.5977C51.6495 55.2339 51.6992 55.2545 51.7359 55.2911C51.7725 55.3277 51.7931 55.3774 51.7931 55.4292C51.7931 55.481 51.7725 55.5307 51.7359 55.5673C51.6992 55.6039 51.6495 55.6245 51.5977 55.6245Z" fill="#33B9B0"/>
<path d="M53.9963 55.6245H53.0968C53.045 55.6245 52.9953 55.6039 52.9587 55.5673C52.9221 55.5307 52.9015 55.481 52.9015 55.4292C52.9015 55.3774 52.9221 55.3277 52.9587 55.2911C52.9953 55.2545 53.045 55.2339 53.0968 55.2339H53.9963C54.0481 55.2339 54.0977 55.2545 54.1344 55.2911C54.171 55.3277 54.1916 55.3774 54.1916 55.4292C54.1916 55.481 54.171 55.5307 54.1344 55.5673C54.0977 55.6039 54.0481 55.6245 53.9963 55.6245Z" fill="#AF5AE6"/>
<path d="M52.5972 56.9238H49.2991C49.2473 56.9238 49.1976 56.9033 49.161 56.8666C49.1243 56.83 49.1038 56.7803 49.1038 56.7285C49.1038 56.6767 49.1243 56.627 49.161 56.5904C49.1976 56.5538 49.2473 56.5332 49.2991 56.5332H52.5972C52.649 56.5332 52.6987 56.5538 52.7353 56.5904C52.7719 56.627 52.7925 56.6767 52.7925 56.7285C52.7925 56.7803 52.7719 56.83 52.7353 56.8666C52.6987 56.9033 52.649 56.9238 52.5972 56.9238Z" fill="#33B9B0"/>
<path d="M60.5925 56.9238H53.5966C53.5448 56.9238 53.4951 56.9033 53.4585 56.8666C53.4218 56.83 53.4012 56.7803 53.4012 56.7285C53.4012 56.6767 53.4218 56.627 53.4585 56.5904C53.4951 56.5538 53.5448 56.5332 53.5966 56.5332H60.5925C60.6443 56.5332 60.694 56.5538 60.7306 56.5904C60.7672 56.627 60.7878 56.6767 60.7878 56.7285C60.7878 56.7803 60.7672 56.83 60.7306 56.8666C60.694 56.9033 60.6443 56.9238 60.5925 56.9238Z" fill="#116BE1"/>
<path d="M36.2066 52.9258H32.9085C32.8567 52.9258 32.807 52.9052 32.7704 52.8686C32.7338 52.8319 32.7132 52.7823 32.7132 52.7305C32.7132 52.6787 32.7338 52.629 32.7704 52.5924C32.807 52.5557 32.8567 52.5352 32.9085 52.5352H36.2066C36.2584 52.5352 36.3081 52.5557 36.3447 52.5924C36.3814 52.629 36.4019 52.6787 36.4019 52.7305C36.4019 52.7823 36.3814 52.8319 36.3447 52.8686C36.3081 52.9052 36.2584 52.9258 36.2066 52.9258Z" fill="#33B9B0"/>
<path d="M41.0038 54.125H34.1078C34.056 54.125 34.0063 54.1044 33.9697 54.0678C33.9331 54.0312 33.9125 53.9815 33.9125 53.9297C33.9125 53.8779 33.9331 53.8282 33.9697 53.7916C34.0063 53.755 34.056 53.7344 34.1078 53.7344H41.0038C41.0556 53.7344 41.1053 53.755 41.1419 53.7916C41.1785 53.8282 41.1991 53.8779 41.1991 53.9297C41.1991 53.9815 41.1785 54.0312 41.1419 54.0678C41.1053 54.1044 41.0556 54.125 41.0038 54.125Z" fill="#116BE1"/>
<path d="M43.0027 54.125H42.1032C42.0514 54.125 42.0017 54.1044 41.9651 54.0678C41.9285 54.0312 41.9079 53.9815 41.9079 53.9297C41.9079 53.8779 41.9285 53.8282 41.9651 53.7916C42.0017 53.755 42.0514 53.7344 42.1032 53.7344H43.0027C43.0545 53.7344 43.1041 53.755 43.1408 53.7916C43.1774 53.8282 43.198 53.8779 43.198 53.9297C43.198 53.9815 43.1774 54.0312 43.1408 54.0678C43.1041 54.1044 43.0545 54.125 43.0027 54.125Z" fill="#AF5AE6"/>
<path d="M36.2066 55.4243H32.9085C32.8567 55.4243 32.807 55.4037 32.7704 55.3671C32.7338 55.3305 32.7132 55.2808 32.7132 55.229C32.7132 55.1772 32.7338 55.1275 32.7704 55.0909C32.807 55.0543 32.8567 55.0337 32.9085 55.0337H36.2066C36.2584 55.0337 36.3081 55.0543 36.3447 55.0909C36.3814 55.1275 36.4019 55.1772 36.4019 55.229C36.4019 55.2808 36.3814 55.3305 36.3447 55.3671C36.3081 55.4037 36.2584 55.4243 36.2066 55.4243Z" fill="#33B9B0"/>
<path d="M37.6058 56.9233H34.0079C33.9561 56.9233 33.9064 56.9028 33.8698 56.8661C33.8331 56.8295 33.8126 56.7798 33.8126 56.728C33.8126 56.6762 33.8331 56.6265 33.8698 56.5899C33.9064 56.5533 33.9561 56.5327 34.0079 56.5327H37.6058C37.6576 56.5327 37.7072 56.5533 37.7439 56.5899C37.7805 56.6265 37.8011 56.6762 37.8011 56.728C37.8011 56.7798 37.7805 56.8295 37.7439 56.8661C37.7072 56.9028 37.6576 56.9233 37.6058 56.9233Z" fill="#F18686"/>
<path d="M25.1131 51.3267H18.1171C18.0653 51.3267 18.0156 51.3061 17.979 51.2695C17.9424 51.2328 17.9218 51.1831 17.9218 51.1313C17.9218 51.0795 17.9424 51.0299 17.979 50.9932C18.0156 50.9566 18.0653 50.936 18.1171 50.936H25.1131C25.1649 50.936 25.2145 50.9566 25.2512 50.9932C25.2878 51.0299 25.3084 51.0795 25.3084 51.1313C25.3084 51.1831 25.2878 51.2328 25.2512 51.2695C25.2145 51.3061 25.1649 51.3267 25.1131 51.3267Z" fill="#116BE1"/>
<path d="M22.4147 52.5259H19.1166C19.0648 52.5259 19.0151 52.5053 18.9785 52.4687C18.9418 52.432 18.9213 52.3824 18.9213 52.3306C18.9213 52.2788 18.9418 52.2291 18.9785 52.1925C19.0151 52.1558 19.0648 52.1353 19.1166 52.1353H22.4147C22.4665 52.1353 22.5162 52.1558 22.5528 52.1925C22.5894 52.2291 22.61 52.2788 22.61 52.3306C22.61 52.3824 22.5894 52.432 22.5528 52.4687C22.5162 52.5053 22.4665 52.5259 22.4147 52.5259Z" fill="#33B9B0"/>
<path d="M27.3117 51.3267H26.4123C26.3605 51.3267 26.3108 51.3061 26.2742 51.2695C26.2376 51.2328 26.217 51.1831 26.217 51.1313C26.217 51.0795 26.2376 51.0299 26.2742 50.9932C26.3108 50.9566 26.3605 50.936 26.4123 50.936H27.3117C27.3635 50.936 27.4132 50.9566 27.4499 50.9932C27.4865 51.0299 27.5071 51.0795 27.5071 51.1313C27.5071 51.1831 27.4865 51.2328 27.4499 51.2695C27.4132 51.3061 27.3635 51.3267 27.3117 51.3267Z" fill="#AF5AE6"/>
<path d="M24.9132 53.7251H21.6151C21.5633 53.7251 21.5136 53.7045 21.477 53.6679C21.4404 53.6313 21.4198 53.5816 21.4198 53.5298C21.4198 53.478 21.4404 53.4283 21.477 53.3917C21.5136 53.3551 21.5633 53.3345 21.6151 53.3345H24.9132C24.965 53.3345 25.0147 53.3551 25.0513 53.3917C25.088 53.4283 25.1085 53.478 25.1085 53.5298C25.1085 53.5816 25.088 53.6313 25.0513 53.6679C25.0147 53.7045 24.965 53.7251 24.9132 53.7251Z" fill="#33B9B0"/>
<path d="M27.8115 42.8315H20.8156C20.7638 42.8315 20.7141 42.811 20.6774 42.7743C20.6408 42.7377 20.6202 42.688 20.6202 42.6362C20.6202 42.5844 20.6408 42.5348 20.6774 42.4981C20.7141 42.4615 20.7638 42.4409 20.8156 42.4409H27.8115C27.8633 42.4409 27.913 42.4615 27.9496 42.4981C27.9862 42.5348 28.0068 42.5844 28.0068 42.6362C28.0068 42.688 27.9862 42.7377 27.9496 42.7743C27.913 42.811 27.8633 42.8315 27.8115 42.8315Z" fill="#116BE1"/>
<path d="M24.4135 43.8311H22.2148C22.163 43.8311 22.1133 43.8105 22.0767 43.7738C22.04 43.7372 22.0195 43.6875 22.0195 43.6357C22.0195 43.5839 22.04 43.5343 22.0767 43.4976C22.1133 43.461 22.163 43.4404 22.2148 43.4404H24.4135C24.4653 43.4404 24.515 43.461 24.5516 43.4976C24.5883 43.5343 24.6088 43.5839 24.6088 43.6357C24.6088 43.6875 24.5883 43.7372 24.5516 43.7738C24.515 43.8105 24.4653 43.8311 24.4135 43.8311Z" fill="#AF5AE6"/>
<path d="M30.5099 44.8306H23.4141C23.3623 44.8306 23.3126 44.81 23.276 44.7734C23.2393 44.7367 23.2188 44.6871 23.2188 44.6353C23.2188 44.5835 23.2393 44.5338 23.276 44.4971C23.3126 44.4605 23.3623 44.4399 23.4141 44.4399H30.5099C30.5617 44.4399 30.6114 44.4605 30.648 44.4971C30.6847 44.5338 30.7052 44.5835 30.7052 44.6353C30.7052 44.6871 30.6847 44.7367 30.648 44.7734C30.6114 44.81 30.5617 44.8306 30.5099 44.8306Z" fill="#F18686"/>
<path d="M29.3106 43.8311H25.6127C25.5609 43.8311 25.5113 43.8105 25.4746 43.7738C25.438 43.7372 25.4174 43.6875 25.4174 43.6357C25.4174 43.5839 25.438 43.5343 25.4746 43.4976C25.5113 43.461 25.5609 43.4404 25.6127 43.4404H29.3106C29.3624 43.4404 29.4121 43.461 29.4487 43.4976C29.4854 43.5343 29.5059 43.5839 29.5059 43.6357C29.5059 43.6875 29.4854 43.7372 29.4487 43.7738C29.4121 43.8105 29.3624 43.8311 29.3106 43.8311Z" fill="#33B9B0"/>
<path d="M9.92188 46.9849L9.92188 21.7967C9.92188 20.9887 10.2429 20.2137 10.8143 19.6423C11.3857 19.0709 12.1607 18.7499 12.9688 18.7499H23.1655C23.9736 18.7499 24.7486 19.0709 25.32 19.6423C25.8914 20.2137 26.2124 20.9887 26.2124 21.7967V46.9849C26.2124 47.7929 25.8914 48.5679 25.32 49.1393C24.7486 49.7107 23.9736 50.0317 23.1655 50.0317H12.9688C12.1607 50.0317 11.3857 49.7107 10.8143 49.1393C10.2429 48.5679 9.92188 47.7929 9.92188 46.9849Z" fill="#0043B7"/>
<path d="M10.6526 48.0832C10.653 48.4061 10.7814 48.7156 11.0097 48.9439C11.238 49.1722 11.5475 49.3007 11.8704 49.301H24.2639C24.5868 49.3007 24.8963 49.1722 25.1246 48.9439C25.3529 48.7156 25.4813 48.4061 25.4817 48.0832V20.6984C25.4813 20.3755 25.3529 20.066 25.1246 19.8377C24.8963 19.6094 24.5868 19.4809 24.2639 19.4806H11.8704C11.5475 19.4809 11.238 19.6094 11.0097 19.8377C10.7814 20.066 10.653 20.3755 10.6526 20.6984L10.6526 48.0832ZM9.92188 48.0832L9.92188 20.6984C9.92188 20.1816 10.1272 19.686 10.4926 19.3206C10.858 18.9552 11.3536 18.7499 11.8704 18.7499H24.2639C24.7807 18.7499 25.2763 18.9552 25.6417 19.3206C26.0071 19.686 26.2124 20.1816 26.2124 20.6984L26.2124 48.0832C26.2124 48.6 26.0071 49.0956 25.6417 49.461C25.2763 49.8264 24.7807 50.0317 24.2639 50.0317H11.8704C11.3536 50.0317 10.858 49.8264 10.4926 49.461C10.1272 49.0956 9.92188 48.6 9.92188 48.0832Z" fill="black"/>
<path d="M14.737 36.7645V31.5761H14.141C14.1102 31.5772 14.0795 31.5719 14.0509 31.5606C14.0222 31.5493 13.9962 31.5323 13.9744 31.5105C13.9526 31.4887 13.9356 31.4627 13.9243 31.434C13.913 31.4053 13.9077 31.3746 13.9088 31.3438C13.9073 31.2802 13.9309 31.2184 13.9745 31.172C13.9956 31.149 14.0213 31.1308 14.0501 31.1187C14.0788 31.1065 14.1098 31.1007 14.141 31.1017H15.8772C15.9084 31.1007 15.9394 31.1065 15.9681 31.1187C15.9969 31.1308 16.0227 31.149 16.0438 31.172C16.0873 31.2184 16.1109 31.2802 16.1094 31.3438C16.1105 31.3746 16.1052 31.4053 16.0939 31.434C16.0826 31.4626 16.0656 31.4886 16.0438 31.5104C16.022 31.5322 15.996 31.5493 15.9673 31.5606C15.9386 31.5718 15.908 31.5771 15.8772 31.576H15.2816V36.7645H15.8772C15.908 36.7634 15.9386 36.7687 15.9673 36.7799C15.996 36.7912 16.022 36.8083 16.0438 36.8301C16.0656 36.8519 16.0826 36.8779 16.0939 36.9065C16.1052 36.9352 16.1105 36.9659 16.1094 36.9967C16.1109 37.0603 16.0873 37.1221 16.0438 37.1685C16.0227 37.1915 15.9969 37.2097 15.9681 37.2218C15.9394 37.234 15.9084 37.2398 15.8772 37.2388H14.141C14.1098 37.2398 14.0788 37.234 14.0501 37.2218C14.0213 37.2097 13.9956 37.1915 13.9745 37.1685C13.9309 37.1221 13.9073 37.0603 13.9088 36.9967C13.9078 36.9659 13.913 36.9352 13.9243 36.9065C13.9356 36.8779 13.9527 36.8519 13.9744 36.8301C13.9962 36.8083 14.0222 36.7912 14.0509 36.7799C14.0796 36.7687 14.1102 36.7634 14.141 36.7645H14.737ZM19.1979 37.1077V31.5761H17.1995V32.172C17.2 32.2041 17.193 32.2359 17.179 32.2649C17.1649 32.2938 17.1443 32.319 17.1188 32.3385C17.0639 32.3811 16.9964 32.4041 16.927 32.4041C16.8575 32.4041 16.79 32.3811 16.7352 32.3385C16.7096 32.319 16.689 32.2938 16.675 32.2649C16.661 32.2359 16.6539 32.2041 16.6545 32.172V31.3438C16.6542 31.311 16.6613 31.2785 16.6753 31.2487C16.6893 31.219 16.7097 31.1928 16.7352 31.172C16.7847 31.1267 16.8495 31.1016 16.9166 31.1017H22.0142C22.0846 31.1003 22.1529 31.1254 22.2057 31.172C22.2312 31.1928 22.2516 31.219 22.2656 31.2487C22.2796 31.2785 22.2867 31.311 22.2865 31.3438V32.172C22.287 32.2041 22.2799 32.2359 22.2659 32.2649C22.2519 32.2938 22.2313 32.319 22.2057 32.3385C22.1508 32.3811 22.0833 32.4041 22.0139 32.4041C21.9445 32.4041 21.877 32.3811 21.8221 32.3385C21.7966 32.319 21.776 32.2937 21.7621 32.2648C21.7481 32.2359 21.7411 32.2041 21.7416 32.172V31.5761H19.7433V37.1074C19.7438 37.1395 19.7367 37.1713 19.7227 37.2003C19.7087 37.2292 19.6881 37.2544 19.6625 37.2739C19.6076 37.3165 19.5401 37.3395 19.4707 37.3395C19.4013 37.3395 19.3338 37.3165 19.2789 37.2739C19.2534 37.2545 19.2327 37.2293 19.2186 37.2004C19.2046 37.1716 19.1975 37.1398 19.1979 37.1077Z" fill="white"/>
<path d="M18.4169 20.0995C18.4169 19.9063 18.2603 19.7497 18.0671 19.7497C17.8739 19.7497 17.7173 19.9063 17.7173 20.0995C17.7173 20.2926 17.8739 20.4492 18.0671 20.4492C18.2603 20.4492 18.4169 20.2926 18.4169 20.0995Z" fill="black"/>
</g>
</g>
<defs>
<filter id="filter0_d_88_2774" x="13.919" y="60.2261" width="67.168" height="15.0996" filterUnits="userSpaceOnUse" color-interpolation-filters="sRGB">
<feFlood flood-opacity="0" result="BackgroundImageFix"/>
<feColorMatrix in="SourceAlpha" type="matrix" values="0 0 0 0 0 0 0 0 0 0 0 0 0 0 0 0 0 0 127 0" result="hardAlpha"/>
<feOffset dx="5" dy="8"/>
<feGaussianBlur stdDeviation="3"/>
<feColorMatrix type="matrix" values="0 0 0 0 0 0 0 0 0 0 0 0 0 0 0 0 0 0 0.161 0"/>
<feBlend mode="normal" in2="BackgroundImageFix" result="effect1_dropShadow_88_2774"/>
<feBlend mode="normal" in="SourceGraphic" in2="effect1_dropShadow_88_2774" result="shape"/>
</filter>
<clipPath id="clip0_88_2774">
<rect width="80" height="80" rx="40" fill="white"/>
</clipPath>
</defs>
</svg>
