<svg xmlns="http://www.w3.org/2000/svg" xmlns:xlink="http://www.w3.org/1999/xlink" width="467" height="467" viewBox="0 0 467 467">
  <defs>
    <clipPath id="clip-path">
      <rect id="Rectangle_14" data-name="Rectangle 14" width="467" height="467"/>
    </clipPath>
    <clipPath id="clip-path-2">
      <circle id="Ellipse_2" data-name="Ellipse 2" cx="233.5" cy="233.5" r="233.5"/>
    </clipPath>
  </defs>
  <g id="itsig-footer" clip-path="url(#clip-path)">
    <g id="ITSIG_Black_Circle_No_words_" data-name="ITSIG Black Circle (No words)" clip-path="url(#clip-path)">
      <g id="Mask_Group_1" data-name="Mask Group 1" clip-path="url(#clip-path-2)">
        <rect id="Rectangle_11" data-name="Rectangle 11" width="467" height="467"/>
      </g>
      <g id="Group_10" data-name="Group 10" transform="translate(57.463 108.997)">
        <g id="Group_7" data-name="Group 7" transform="translate(0)">
          <g id="laptop" transform="translate(28.665 60.227)">
            <g id="Group_14" data-name="Group 14" transform="translate(0 181.661)">
              <path id="base_top" data-name="base top" d="M.586,0H322.8a.577.577,0,0,1,.586.568V1.7H0V.568A.577.577,0,0,1,.586,0Z" transform="translate(0 0)" fill="#fff"/>
              <path id="base_bottom" data-name="base bottom" d="M0,0H323.343V3.648a2.28,2.28,0,0,1-2.28,2.28H2.28A2.28,2.28,0,0,1,0,3.648Z" transform="translate(0.066 1.19)" fill="#fff"/>
            </g>
            <path id="screen" d="M9.725,0H292.249a9.725,9.725,0,0,1,9.725,9.725V167.277A9.725,9.725,0,0,1,292.249,177H9.725A9.725,9.725,0,0,1,0,167.277V9.725A9.725,9.725,0,0,1,9.725,0Z" transform="translate(5.328)"/>
            <path id="screen_-_Outline" data-name="screen - Outline" d="M9.725,4.561A5.171,5.171,0,0,0,4.561,9.725V167.277a5.171,5.171,0,0,0,5.165,5.165H292.249a5.171,5.171,0,0,0,5.165-5.165V9.725a5.171,5.171,0,0,0-5.165-5.165H9.725M9.725,0H292.249a9.725,9.725,0,0,1,9.725,9.725V167.277A9.725,9.725,0,0,1,292.249,177H9.725A9.725,9.725,0,0,1,0,167.277V9.725A9.725,9.725,0,0,1,9.725,0Z" transform="translate(5.328)" fill="#fff"/>
            <text id="SIG" transform="translate(92.417 113.474)" fill="#fff" font-size="90" font-family="Flamenco-Regular, Flamenco" letter-spacing="0.01em"><tspan x="0" y="0">SIG</tspan></text>
            <g id="the_thing_to_life_the_screen" data-name="the thing to life the screen" transform="translate(121.329 181.661)">
              <path id="Rectangle_6" data-name="Rectangle 6" d="M0,0H76.834a2.065,2.065,0,0,1-2.065,2.065H2.065A2.065,2.065,0,0,1,0,0Z" transform="translate(0 0)"/>
            </g>
            <rect id="Rectangle_10" data-name="Rectangle 10" width="14" height="4" rx="2" transform="translate(152.872 7.777)" fill="#fff"/>
          </g>
          <g id="Fone" transform="translate(0 178.317) rotate(-90)">
            <rect id="Screen-2" data-name="Screen" width="178" height="93" rx="20" transform="translate(0.314 -0.463)"/>
            <path id="Screen_-_Outline-2" data-name="Screen - Outline" d="M9.121,4.561A4.566,4.566,0,0,0,4.561,9.121V83.458a4.566,4.566,0,0,0,4.561,4.561H169.2a4.566,4.566,0,0,0,4.561-4.561V9.121A4.566,4.566,0,0,0,169.2,4.561H9.121M9.121,0H169.2a9.121,9.121,0,0,1,9.121,9.121V83.458a9.121,9.121,0,0,1-9.121,9.121H9.121A9.121,9.121,0,0,1,0,83.458V9.121A9.121,9.121,0,0,1,9.121,0Z" fill="#fff"/>
            <text id="IT" transform="translate(74.574 21.291) rotate(90)" fill="#fff" font-size="55" font-family="Flamenco-Regular, Flamenco" letter-spacing="0.01em"><tspan x="0" y="0">IT</tspan></text>
            <g id="Group_5" data-name="Group 5" transform="translate(171.933 44.693) rotate(90)">
              <circle id="Ellipse_1" data-name="Ellipse 1" cx="2" cy="2" r="2" transform="translate(-0.156 3.619) rotate(-90)" fill="#fff"/>
            </g>
          </g>
        </g>
      </g>
    </g>
  </g>
</svg>
