<svg xmlns="http://www.w3.org/2000/svg" xmlns:xlink="http://www.w3.org/1999/xlink" width="467" height="467" viewBox="0 0 467 467">
  <defs>
    <clipPath id="clip-path">
      <rect id="Rectangle_521" data-name="Rectangle 521" width="467" height="467"/>
    </clipPath>
    <clipPath id="clip-path-2">
      <circle id="Ellipse_2" data-name="Ellipse 2" cx="233.5" cy="233.5" r="233.5" fill="#304465"/>
    </clipPath>
    <filter id="base_bottom" x="83.063" y="350.35" width="340.043" height="24.418" filterUnits="userSpaceOnUse">
      <feOffset dx="5" dy="8" input="SourceAlpha"/>
      <feGaussianBlur stdDeviation="3" result="blur"/>
      <feFlood flood-opacity="0.161"/>
      <feComposite operator="in" in2="blur"/>
      <feComposite in="SourceGraphic"/>
    </filter>
  </defs>
  <g id="itsig-icon" clip-path="url(#clip-path)">
    <g id="ITSIG_Light_Blue_Logo_Circle_no_text_" data-name="ITSIG Light Blue Logo Circle (no text) " clip-path="url(#clip-path)">
      <rect id="Rectangle_520" data-name="Rectangle 520" width="467" height="467" fill="rgba(236,236,236,0)"/>
      <g id="Mask_Group_1" data-name="Mask Group 1" clip-path="url(#clip-path-2)">
        <rect id="Rectangle_11" data-name="Rectangle 11" width="467" height="467" fill="#425d8b"/>
      </g>
      <g id="Eveything" transform="translate(57.893 109.234)">
        <g id="Group_7" data-name="Group 7">
          <g id="laptop" transform="translate(29.171 54.602)">
            <g id="Group_14" data-name="Group 14" transform="translate(0 186.347)">
              <path id="base_top" data-name="base top" d="M.583,0H321.46a.583.583,0,0,1,.583.583V1.75H0V.583A.583.583,0,0,1,.583,0Z" fill="#ececec"/>
              <g transform="matrix(1, 0, 0, 1, -87.06, -350.18)" filter="url(#base_bottom)">
                <path id="base_bottom-2" data-name="base bottom" d="M0,0H322.043V4.137a2.28,2.28,0,0,1-2.28,2.28H2.28A2.28,2.28,0,0,1,0,4.137Z" transform="translate(87.06 351.35)" fill="#ececec"/>
              </g>
            </g>
            <path id="screen" d="M9.992,0h290.26a9.992,9.992,0,0,1,9.992,9.992V171.858a9.992,9.992,0,0,1-9.992,9.992H9.992A9.992,9.992,0,0,1,0,171.858V9.992A9.992,9.992,0,0,1,9.992,0Z" transform="translate(5.627)" fill="#001b36"/>
            <path id="screen_-_Outline" data-name="screen - Outline" d="M9.992,4.265A5.733,5.733,0,0,0,4.265,9.992V171.858a5.733,5.733,0,0,0,5.726,5.726h290.26a5.733,5.733,0,0,0,5.726-5.726V9.992a5.733,5.733,0,0,0-5.726-5.726H9.992M9.992,0h290.26a9.992,9.992,0,0,1,9.992,9.992V171.858a9.992,9.992,0,0,1-9.992,9.992H9.992A9.992,9.992,0,0,1,0,171.858V9.992A9.992,9.992,0,0,1,9.992,0Z" transform="translate(5.627)"/>
            <path id="Path_3" data-name="Path 3" d="M-108.351-54.413v6.481q6.294,3.006,15.968,3.006t14.559-3.053A9.644,9.644,0,0,0-72.94-56.62a9.008,9.008,0,0,0-4.6-8.311q-4.6-2.724-14.653-4.652T-107.272-74.7q-5.025-3.192-5.025-10.051,0-14.747,21.886-14.747,11.647,0,19.256,4.227A2.378,2.378,0,0,1-69.747-93.3v7.7a1.912,1.912,0,0,1-.752,1.551,2.742,2.742,0,0,1-1.785.611,2.742,2.742,0,0,1-1.785-.611A1.912,1.912,0,0,1-74.82-85.6v-6.481a36.221,36.221,0,0,0-15.358-3.006q-8.877,0-12.962,2.536a8.537,8.537,0,0,0-4.086,7.8q0,4.978,5.26,7.42a40.649,40.649,0,0,0,9.628,3.053q6.059,1.268,8.594,1.925a49.37,49.37,0,0,1,5.918,2.019,17.782,17.782,0,0,1,5.26,3.053,15.158,15.158,0,0,1,3.288,4.462,13.8,13.8,0,0,1,1.409,6.339,13.531,13.531,0,0,1-6.152,11.647q-6.152,4.321-17.612,4.321A60.412,60.412,0,0,1-103-41.687a27.132,27.132,0,0,1-9.205-3.147,2.186,2.186,0,0,1-1.221-1.878v-7.7a1.912,1.912,0,0,1,.752-1.551,2.742,2.742,0,0,1,1.785-.611,2.742,2.742,0,0,1,1.785.611A1.912,1.912,0,0,1-108.351-54.413Zm56.169,8.547V-94.145h-5.542a2.1,2.1,0,0,1-1.551-.611,2.1,2.1,0,0,1-.611-1.551,2.262,2.262,0,0,1,.612-1.6,2.023,2.023,0,0,1,1.551-.658h16.155a2.023,2.023,0,0,1,1.55.658,2.262,2.262,0,0,1,.611,1.6,2.1,2.1,0,0,1-.611,1.551,2.1,2.1,0,0,1-1.551.611H-47.11v48.281h5.542a2.089,2.089,0,0,1,1.55.611,2.089,2.089,0,0,1,.611,1.55,2.262,2.262,0,0,1-.611,1.6,2.023,2.023,0,0,1-1.551.658H-57.725a2.023,2.023,0,0,1-1.551-.658,2.262,2.262,0,0,1-.611-1.6,2.089,2.089,0,0,1,.611-1.55,2.089,2.089,0,0,1,1.55-.61Zm65,3.192v-3.756A25.635,25.635,0,0,1-3.9-40.511q-12.211,0-19.819-8.5T-31.33-70.428q0-12.915,7.844-20.993A25.745,25.745,0,0,1-4.279-99.5q11.365,0,19.537,4.6a2.243,2.243,0,0,1,1.5,1.972v8.078a1.912,1.912,0,0,1-.752,1.551,2.742,2.742,0,0,1-1.785.611,2.742,2.742,0,0,1-1.785-.611,1.912,1.912,0,0,1-.752-1.551V-91.7A34.917,34.917,0,0,0-3.62-95.083q-10.144,0-16.391,6.9t-6.248,17.987q0,11.082,6.294,18.175A20.41,20.41,0,0,0-4-44.925a25.048,25.048,0,0,0,16.813-6.105v-14.09H-1.273a2.1,2.1,0,0,1-1.551-.611,2.1,2.1,0,0,1-.611-1.551,2.262,2.262,0,0,1,.611-1.6,2.023,2.023,0,0,1,1.551-.658H15.446q2.442,0,2.442,2.16v24.7a1.912,1.912,0,0,1-.752,1.551,2.914,2.914,0,0,1-3.569,0,1.912,1.912,0,0,1-.752-1.551Z" transform="translate(205.356 158.955)" fill="#fff"/>
            <g id="the_thing_to_life_the_screen" data-name="the thing to life the screen" transform="translate(119.599 185.537)">
              <path id="Rectangle_6" data-name="Rectangle 6" d="M0,0H79.344a2.428,2.428,0,0,1-2.428,2.428H2.428A2.428,2.428,0,0,1,0,0Z" transform="translate(0 0)" fill="#425d8b"/>
            </g>
            <rect id="Rectangle_10" data-name="Rectangle 10" width="15.169" height="4.084" rx="2.042" transform="translate(150.52 7.239)"/>
          </g>
          <g id="Code_Lines" data-name="Code Lines" transform="translate(46.7 76.693)">
            <g id="Code_Lines_9" data-name="Code Lines 9" transform="translate(41.422 19.013)">
              <g id="Colour_3" data-name="Colour 3">
                <path id="Line_14" data-name="Line 14" d="M17.893-.22H-1.36A1.14,1.14,0,0,1-2.5-1.36,1.14,1.14,0,0,1-1.36-2.5H17.893a1.14,1.14,0,0,1,1.14,1.14A1.14,1.14,0,0,1,17.893-.22Z" transform="translate(2.5 2.5)" fill="#33b9b0"/>
              </g>
              <g id="Colour_4" data-name="Colour 4" transform="translate(9.918 7.001)">
                <path id="Line_13" data-name="Line 13" d="M42.98-.22H-1.36A1.14,1.14,0,0,1-2.5-1.36,1.14,1.14,0,0,1-1.36-2.5H42.98a1.14,1.14,0,0,1,1.14,1.14A1.14,1.14,0,0,1,42.98-.22Z" transform="translate(2.5 2.5)" fill="#f18686"/>
              </g>
              <g id="Colour_2" data-name="Colour 2" transform="translate(26.837)">
                <path id="Line_15" data-name="Line 15" d="M3.891-.22H-1.36A1.14,1.14,0,0,1-2.5-1.36,1.14,1.14,0,0,1-1.36-2.5H3.891a1.14,1.14,0,0,1,1.14,1.14A1.14,1.14,0,0,1,3.891-.22Z" transform="translate(2.5 2.5)" fill="#af5ae6"/>
              </g>
            </g>
            <g id="Code_Lines_8" data-name="Code Lines 8" transform="translate(67.641)">
              <g id="Colour_4-2" data-name="Colour 4" transform="translate(40.467 8.992)">
                <path id="Line_13-2" data-name="Line 13" d="M49.6-.22H-1.36A1.14,1.14,0,0,1-2.5-1.36,1.14,1.14,0,0,1-1.36-2.5H49.6a1.14,1.14,0,0,1,1.14,1.14A1.14,1.14,0,0,1,49.6-.22Z" transform="translate(2.5 2.5)" fill="#f18686"/>
              </g>
              <g id="Colour_3-2" data-name="Colour 3" transform="translate(47.961)">
                <path id="Line_14-2" data-name="Line 14" d="M18.124-.22H-1.36A1.14,1.14,0,0,1-2.5-1.36,1.14,1.14,0,0,1-1.36-2.5H18.124a1.14,1.14,0,0,1,1.14,1.14A1.14,1.14,0,0,1,18.124-.22Z" transform="translate(2.5 2.5)" fill="#33b9b0"/>
              </g>
              <g id="Colour_2-2" data-name="Colour 2" transform="translate(96.42 8.992)">
                <path id="Line_15-2" data-name="Line 15" d="M4.136-.22h-5.5A1.14,1.14,0,0,1-2.5-1.36,1.14,1.14,0,0,1-1.36-2.5h5.5a1.14,1.14,0,0,1,1.14,1.14A1.14,1.14,0,0,1,4.136-.22Z" transform="translate(2.5 2.5)" fill="#af5ae6"/>
              </g>
              <g id="Colour_1" data-name="Colour 1">
                <path id="Line_13-3" data-name="Line 13" d="M39.107-.22H-1.36A1.14,1.14,0,0,1-2.5-1.36,1.14,1.14,0,0,1-1.36-2.5H39.107a1.14,1.14,0,0,1,1.14,1.14A1.14,1.14,0,0,1,39.107-.22Z" transform="translate(2.5 2.5)" fill="#116be1"/>
              </g>
            </g>
            <g id="Code_Lines_7" data-name="Code Lines 7" transform="translate(202.444 14.346)">
              <g id="Colour_4-3" data-name="Colour 4" transform="translate(7.584 8.751)">
                <path id="Line_13-4" data-name="Line 13" d="M49.4-.22H-1.36A1.14,1.14,0,0,1-2.5-1.36,1.14,1.14,0,0,1-1.36-2.5H49.4a1.14,1.14,0,0,1,1.14,1.14A1.14,1.14,0,0,1,49.4-.22Z" transform="translate(2.5 2.5)" fill="#f18686"/>
              </g>
              <g id="Colour_2-3" data-name="Colour 2" transform="translate(65.925 8.751)">
                <path id="Line_15-3" data-name="Line 15" d="M3.891-.22H-1.36A1.14,1.14,0,0,1-2.5-1.36,1.14,1.14,0,0,1-1.36-2.5H3.891a1.14,1.14,0,0,1,1.14,1.14A1.14,1.14,0,0,1,3.891-.22Z" transform="translate(2.5 2.5)" fill="#af5ae6"/>
              </g>
              <g id="Colour_1-2" data-name="Colour 1">
                <path id="Line_13-5" data-name="Line 13" d="M39.479-.22H-1.36A1.14,1.14,0,0,1-2.5-1.36,1.14,1.14,0,0,1-1.36-2.5H39.479a1.14,1.14,0,0,1,1.14,1.14A1.14,1.14,0,0,1,39.479-.22Z" transform="translate(2.5 2.5)" fill="#116be1"/>
              </g>
            </g>
            <g id="Code_Lines_6" data-name="Code Lines 6" transform="translate(228.114 51.684)">
              <g id="Colour_3-3" data-name="Colour 3">
                <path id="Line_14-3" data-name="Line 14" d="M17.893-.22H-1.36A1.14,1.14,0,0,1-2.5-1.36,1.14,1.14,0,0,1-1.36-2.5H17.893a1.14,1.14,0,0,1,1.14,1.14A1.14,1.14,0,0,1,17.893-.22Z" transform="translate(2.5 2.5)" fill="#33b9b0"/>
              </g>
              <g id="Colour_4-4" data-name="Colour 4" transform="translate(7.584 8.168)">
                <path id="Line_13-6" data-name="Line 13" d="M42.4-.22H-1.36A1.14,1.14,0,0,1-2.5-1.36,1.14,1.14,0,0,1-1.36-2.5H42.4a1.14,1.14,0,0,1,1.14,1.14A1.14,1.14,0,0,1,42.4-.22Z" transform="translate(2.5 2.5)" fill="#f18686"/>
              </g>
              <g id="Colour_2-4" data-name="Colour 2" transform="translate(29.754 15.752)">
                <path id="Line_15-4" data-name="Line 15" d="M3.891-.22H-1.36A1.14,1.14,0,0,1-2.5-1.36,1.14,1.14,0,0,1-1.36-2.5H3.891a1.14,1.14,0,0,1,1.14,1.14A1.14,1.14,0,0,1,3.891-.22Z" transform="translate(2.5 2.5)" fill="#af5ae6"/>
              </g>
              <g id="Colour_1-3" data-name="Colour 1" transform="translate(8.168 15.752)">
                <path id="Line_13-7" data-name="Line 13" d="M12.642-.22h-14A1.14,1.14,0,0,1-2.5-1.36,1.14,1.14,0,0,1-1.36-2.5h14a1.14,1.14,0,0,1,1.14,1.14A1.14,1.14,0,0,1,12.642-.22Z" transform="translate(2.5 2.5)" fill="#116be1"/>
              </g>
            </g>
            <g id="Code_Lines_5" data-name="Code Lines 5" transform="translate(193.692 110.025)">
              <g id="Colour_4-5" data-name="Colour 4" transform="translate(13.418 7.584)">
                <path id="Line_13-8" data-name="Line 13" d="M38.9-.22H-1.36A1.14,1.14,0,0,1-2.5-1.36,1.14,1.14,0,0,1-1.36-2.5H38.9a1.14,1.14,0,0,1,1.14,1.14A1.14,1.14,0,0,1,38.9-.22Z" transform="translate(2.5 2.5)" fill="#f18686"/>
              </g>
              <g id="Colour_3-4" data-name="Colour 3" transform="translate(33.838)">
                <path id="Line_14-4" data-name="Line 14" d="M38.9-.22H-1.36A1.14,1.14,0,0,1-2.5-1.36,1.14,1.14,0,0,1-1.36-2.5H38.9a1.14,1.14,0,0,1,1.14,1.14A1.14,1.14,0,0,1,38.9-.22Z" transform="translate(2.5 2.5)" fill="#33b9b0"/>
              </g>
              <g id="Colour_1-4" data-name="Colour 1">
                <path id="Line_13-9" data-name="Line 13" d="M24.894-.22H-1.36A1.14,1.14,0,0,1-2.5-1.36,1.14,1.14,0,0,1-1.36-2.5H24.894a1.14,1.14,0,0,1,1.14,1.14A1.14,1.14,0,0,1,24.894-.22Z" transform="translate(2.5 2.5)" fill="#116be1"/>
              </g>
              <g id="Colour_2-5" data-name="Colour 2" transform="translate(61.258 7.584)">
                <path id="Line_15-5" data-name="Line 15" d="M3.891-.22H-1.36A1.14,1.14,0,0,1-2.5-1.36,1.14,1.14,0,0,1-1.36-2.5H3.891a1.14,1.14,0,0,1,1.14,1.14A1.14,1.14,0,0,1,3.891-.22Z" transform="translate(2.5 2.5)" fill="#af5ae6"/>
              </g>
            </g>
            <g id="Code_Lines_4" data-name="Code Lines 4" transform="translate(176.19 136.279)">
              <g id="Colour_3-5" data-name="Colour 3">
                <path id="Line_14-5" data-name="Line 14" d="M17.893-.22H-1.36A1.14,1.14,0,0,1-2.5-1.36,1.14,1.14,0,0,1-1.36-2.5H17.893a1.14,1.14,0,0,1,1.14,1.14A1.14,1.14,0,0,1,17.893-.22Z" transform="translate(2.5 2.5)" fill="#33b9b0"/>
              </g>
              <g id="Colour_2-6" data-name="Colour 2" transform="translate(28.004)">
                <path id="Line_15-6" data-name="Line 15" d="M3.891-.22H-1.36A1.14,1.14,0,0,1-2.5-1.36,1.14,1.14,0,0,1-1.36-2.5H3.891a1.14,1.14,0,0,1,1.14,1.14A1.14,1.14,0,0,1,3.891-.22Z" transform="translate(2.5 2.5)" fill="#af5ae6"/>
              </g>
              <g id="Colour_3-6" data-name="Colour 3" transform="translate(5.834 7.584)">
                <path id="Line_14-6" data-name="Line 14" d="M17.893-.22H-1.36A1.14,1.14,0,0,1-2.5-1.36,1.14,1.14,0,0,1-1.36-2.5H17.893a1.14,1.14,0,0,1,1.14,1.14A1.14,1.14,0,0,1,17.893-.22Z" transform="translate(2.5 2.5)" fill="#33b9b0"/>
              </g>
              <g id="Colour_1-5" data-name="Colour 1" transform="translate(30.921 7.584)">
                <path id="Line_13-10" data-name="Line 13" d="M39.479-.22H-1.36A1.14,1.14,0,0,1-2.5-1.36,1.14,1.14,0,0,1-1.36-2.5H39.479a1.14,1.14,0,0,1,1.14,1.14A1.14,1.14,0,0,1,39.479-.22Z" transform="translate(2.5 2.5)" fill="#116be1"/>
              </g>
            </g>
            <g id="Code_Lines_3" data-name="Code Lines 3" transform="translate(86.345 120.527)">
              <g id="Colour_3-7" data-name="Colour 3">
                <path id="Line_14-7" data-name="Line 14" d="M17.893-.22H-1.36A1.14,1.14,0,0,1-2.5-1.36,1.14,1.14,0,0,1-1.36-2.5H17.893a1.14,1.14,0,0,1,1.14,1.14A1.14,1.14,0,0,1,17.893-.22Z" transform="translate(2.5 2.5)" fill="#33b9b0"/>
              </g>
              <g id="Colour_1-6" data-name="Colour 1" transform="translate(7.001 7.001)">
                <path id="Line_13-11" data-name="Line 13" d="M38.9-.22H-1.36A1.14,1.14,0,0,1-2.5-1.36,1.14,1.14,0,0,1-1.36-2.5H38.9a1.14,1.14,0,0,1,1.14,1.14A1.14,1.14,0,0,1,38.9-.22Z" transform="translate(2.5 2.5)" fill="#116be1"/>
              </g>
              <g id="Colour_2-7" data-name="Colour 2" transform="translate(53.674 7.001)">
                <path id="Line_15-7" data-name="Line 15" d="M3.891-.22H-1.36A1.14,1.14,0,0,1-2.5-1.36,1.14,1.14,0,0,1-1.36-2.5H3.891a1.14,1.14,0,0,1,1.14,1.14A1.14,1.14,0,0,1,3.891-.22Z" transform="translate(2.5 2.5)" fill="#af5ae6"/>
              </g>
              <g id="Colour_3-8" data-name="Colour 3" transform="translate(0 14.585)">
                <path id="Line_14-8" data-name="Line 14" d="M17.893-.22H-1.36A1.14,1.14,0,0,1-2.5-1.36,1.14,1.14,0,0,1-1.36-2.5H17.893a1.14,1.14,0,0,1,1.14,1.14A1.14,1.14,0,0,1,17.893-.22Z" transform="translate(2.5 2.5)" fill="#33b9b0"/>
              </g>
              <g id="Colour_4-6" data-name="Colour 4" transform="translate(6.418 23.336)">
                <path id="Line_13-12" data-name="Line 13" d="M19.643-.22h-21A1.14,1.14,0,0,1-2.5-1.36,1.14,1.14,0,0,1-1.36-2.5h21a1.14,1.14,0,0,1,1.14,1.14A1.14,1.14,0,0,1,19.643-.22Z" transform="translate(2.5 2.5)" fill="#f18686"/>
              </g>
            </g>
            <g id="Code_Lines_2" data-name="Code Lines 2" transform="translate(0 111.192)">
              <g id="Colour_1-7" data-name="Colour 1">
                <path id="Line_13-13" data-name="Line 13" d="M39.479-.22H-1.36A1.14,1.14,0,0,1-2.5-1.36,1.14,1.14,0,0,1-1.36-2.5H39.479a1.14,1.14,0,0,1,1.14,1.14A1.14,1.14,0,0,1,39.479-.22Z" transform="translate(2.5 2.5)" fill="#116be1"/>
              </g>
              <g id="Colour_3-9" data-name="Colour 3" transform="translate(5.834 7.001)">
                <path id="Line_14-9" data-name="Line 14" d="M17.893-.22H-1.36A1.14,1.14,0,0,1-2.5-1.36,1.14,1.14,0,0,1-1.36-2.5H17.893a1.14,1.14,0,0,1,1.14,1.14A1.14,1.14,0,0,1,17.893-.22Z" transform="translate(2.5 2.5)" fill="#33b9b0"/>
              </g>
              <g id="Colour_2-8" data-name="Colour 2" transform="translate(48.423)">
                <path id="Line_15-8" data-name="Line 15" d="M3.891-.22H-1.36A1.14,1.14,0,0,1-2.5-1.36,1.14,1.14,0,0,1-1.36-2.5H3.891a1.14,1.14,0,0,1,1.14,1.14A1.14,1.14,0,0,1,3.891-.22Z" transform="translate(2.5 2.5)" fill="#af5ae6"/>
              </g>
              <g id="Colour_3-10" data-name="Colour 3" transform="translate(20.419 14.002)">
                <path id="Line_14-10" data-name="Line 14" d="M17.893-.22H-1.36A1.14,1.14,0,0,1-2.5-1.36,1.14,1.14,0,0,1-1.36-2.5H17.893a1.14,1.14,0,0,1,1.14,1.14A1.14,1.14,0,0,1,17.893-.22Z" transform="translate(2.5 2.5)" fill="#33b9b0"/>
              </g>
            </g>
            <g id="Code_Lines_1" data-name="Code Lines 1" transform="translate(15.752 61.602)">
              <g id="Colour_1-8" data-name="Colour 1">
                <path id="Line_13-14" data-name="Line 13" d="M39.479-.22H-1.36A1.14,1.14,0,0,1-2.5-1.36,1.14,1.14,0,0,1-1.36-2.5H39.479a1.14,1.14,0,0,1,1.14,1.14A1.14,1.14,0,0,1,39.479-.22Z" transform="translate(2.5 2.5)" fill="#116be1"/>
              </g>
              <g id="Colour_2-9" data-name="Colour 2" transform="translate(8.168 5.834)">
                <path id="Line_15-9" data-name="Line 15" d="M11.475-.22H-1.36A1.14,1.14,0,0,1-2.5-1.36,1.14,1.14,0,0,1-1.36-2.5H11.475a1.14,1.14,0,0,1,1.14,1.14A1.14,1.14,0,0,1,11.475-.22Z" transform="translate(2.5 2.5)" fill="#af5ae6"/>
              </g>
              <g id="Colour_4-7" data-name="Colour 4" transform="translate(15.169 11.668)">
                <path id="Line_13-15" data-name="Line 13" d="M40.062-.22H-1.36A1.14,1.14,0,0,1-2.5-1.36,1.14,1.14,0,0,1-1.36-2.5H40.062A1.14,1.14,0,0,1,41.2-1.36,1.14,1.14,0,0,1,40.062-.22Z" transform="translate(2.5 2.5)" fill="#f18686"/>
              </g>
              <g id="Colour_3-11" data-name="Colour 3" transform="translate(28.004 5.834)">
                <path id="Line_14-11" data-name="Line 14" d="M20.227-.22H-1.36A1.14,1.14,0,0,1-2.5-1.36,1.14,1.14,0,0,1-1.36-2.5H20.227a1.14,1.14,0,0,1,1.14,1.14A1.14,1.14,0,0,1,20.227-.22Z" transform="translate(2.5 2.5)" fill="#33b9b0"/>
              </g>
            </g>
          </g>
          <g id="Fone" transform="translate(0 182.608) rotate(-90)">
            <path id="Screen-2" data-name="Screen" d="M17.786,0H164.822a17.786,17.786,0,0,1,17.786,17.786V77.31A17.786,17.786,0,0,1,164.822,95.1H17.786A17.786,17.786,0,0,1,0,77.31V17.786A17.786,17.786,0,0,1,17.786,0Z" fill="#0043b7"/>
            <path id="Screen_-_Outline-2" data-name="Screen - Outline" d="M11.374,4.265a7.117,7.117,0,0,0-7.109,7.109V83.722a7.117,7.117,0,0,0,7.109,7.109H171.233a7.117,7.117,0,0,0,7.109-7.109V11.374a7.117,7.117,0,0,0-7.109-7.109H11.374m0-4.265H171.233a11.374,11.374,0,0,1,11.374,11.374V83.722A11.374,11.374,0,0,1,171.233,95.1H11.374A11.374,11.374,0,0,1,0,83.722V11.374A11.374,11.374,0,0,1,11.374,0Z"/>
            <path id="Path_2" data-name="Path 2" d="M4.833,33.057V2.77H1.356A1.31,1.31,0,0,1,0,1.414a1.419,1.419,0,0,1,.383-1A1.269,1.269,0,0,1,1.356,0H11.491a1.269,1.269,0,0,1,.972.41,1.419,1.419,0,0,1,.383,1A1.31,1.31,0,0,1,11.491,2.77H8.015V33.057h3.477a1.31,1.31,0,0,1,1.355,1.355,1.419,1.419,0,0,1-.383,1,1.269,1.269,0,0,1-.972.41H1.356a1.269,1.269,0,0,1-.972-.41,1.419,1.419,0,0,1-.383-1,1.31,1.31,0,0,1,1.355-1.355Zm26.043,2V2.77H19.21V6.248a1.2,1.2,0,0,1-.472.972,1.828,1.828,0,0,1-2.239,0,1.2,1.2,0,0,1-.471-.972V1.414a1.284,1.284,0,0,1,.471-1A1.569,1.569,0,0,1,17.559,0H47.316a1.644,1.644,0,0,1,1.12.41,1.284,1.284,0,0,1,.472,1V6.248a1.2,1.2,0,0,1-.472.972,1.828,1.828,0,0,1-2.239,0,1.2,1.2,0,0,1-.472-.972V2.77H34.059V35.059a1.2,1.2,0,0,1-.472.972,1.828,1.828,0,0,1-2.239,0A1.2,1.2,0,0,1,30.876,35.061Z" transform="translate(110.504 23.273) rotate(90)" fill="#fff"/>
            <g id="Group_5" data-name="Group 5" transform="translate(176.773 45.506) rotate(90)">
              <circle id="Ellipse_1" data-name="Ellipse 1" cx="2.042" cy="2.042" r="2.042" transform="translate(0 4.084) rotate(-90)"/>
            </g>
          </g>
        </g>
      </g>
    </g>
  </g>
</svg>
