<svg xmlns="http://www.w3.org/2000/svg" width="173.293" height="195.685" viewBox="0 0 173.293 195.685">
  <g id="LOMA" transform="translate(0 5.031)">
    <path id="Path_670" data-name="Path 670" d="M446.175,711.054c0,7.178-38.793,13-86.647,13s-86.647-5.819-86.647-13c0-5.081,19.445-9.484,47.784-11.619,11.686-.883,24.89-1.378,38.862-1.378,5.744,0,11.356.084,16.784.243C416.134,699.474,446.175,704.737,446.175,711.054Z" transform="translate(-272.882 -533.396)" fill="#747280"/>
    <ellipse id="Ellipse_48" data-name="Ellipse 48" cx="33.261" cy="4.053" rx="33.261" ry="4.053" transform="translate(42.205 172.207)" opacity="0.1"/>
    <ellipse id="Ellipse_49" data-name="Ellipse 49" cx="31.444" cy="33.541" rx="31.444" ry="33.541" transform="translate(43.882 112.113)" fill="#3f3d56"/>
    <rect id="Rectangle_359" data-name="Rectangle 359" width="19.565" height="17.888" transform="translate(65.684 165.499)" fill="#ff9148"/>
    <path id="Path_671" data-name="Path 671" d="M393.618,607.614l-1.118,6.149,7.267,1.118,4.752-2.8-.28-4.472Z" transform="translate(-282.794 -437.783)" fill="#b2b0ac"/>
    <path id="Path_672" data-name="Path 672" d="M532.641,303.138s-.559,6.429-1.957,6.708,3.075,11.46,3.075,11.46h6.708l5.311-1.4-2.516-6.149s-3.354-4.472-.839-8.106S532.641,303.138,532.641,303.138Z" transform="translate(-458.432 -248.743)" fill="#a0616a"/>
    <path id="Path_673" data-name="Path 673" d="M532.641,303.138s-.559,6.429-1.957,6.708,3.075,11.46,3.075,11.46h6.708l5.311-1.4-2.516-6.149s-3.354-4.472-.839-8.106S532.641,303.138,532.641,303.138Z" transform="translate(-458.432 -248.743)" opacity="0.1"/>
    <path id="Path_674" data-name="Path 674" d="M478.876,476.675s-7.267,13.975-1.4,16.77,7.267,2.516,7.267,3.354-1.118.559-.559,1.957-1.118,6.988.559,10.342a9.563,9.563,0,0,1,1.118,5.87,4.516,4.516,0,0,0,.559,1.4c.559,1.118.839,1.957.559,2.516s-1.957,4.193-.279,5.031,10.342,1.4,11.18,0-.839-2.236,0-3.075,1.4-1.118.839-1.677-1.118-7.547-1.118-7.547,1.4-8.106.839-9.224-1.4-2.236-.839-3.075,1.118-.559,1.4-1.677.839-3.634.839-3.634l3.075-.279,7.267,1.4s8.106,8.944,17.05,11.739c0,0,2.516,2.516,3.354,2.516s.839,0,.559.559-1.118.559-.559,1.118,1.4-.279.839.559-1.118.839-.559,1.4-.28,3.634-.28,3.913-2.515,26.553-1.677,27.112,12.578,2.236,13.416,0-.559-5.031-.559-5.031,4.193-33.541,3.075-35.777-5.031-12.3-25.994-18.727c0,0-5.87-1.118-5.87-1.956s-.559-6.149-1.677-6.429-7.547-.559-7.547-.559l-8.106,2.516-11.18-1.957Z" transform="translate(-418.643 -373.086)" fill="#2f2f34"/>
    <path id="Path_675" data-name="Path 675" d="M518.688,645.4l-1.4,5.031s-1.118,8.106.28,10.062a8.791,8.791,0,0,0,6.693,3.749,4.492,4.492,0,0,0,4.69-3.108,1.394,1.394,0,0,0,.077-.362c0-.559-.839-7.267-.839-7.267l-1.4-6.988-.279-1.957Z" transform="translate(-448.672 -494.85)" fill="#29292c"/>
    <path id="Path_676" data-name="Path 676" d="M663.586,726.889s-1.4-1.4-1.677,0-1.4,7.267.559,7.547,20.683,3.074,22.64,1.956,5.59-2.8,3.354-3.633S679.8,729.4,679.8,729.4s-3.634-4.752-4.193-5.031-3.634.279-5.031,1.4S663.586,726.889,663.586,726.889Z" transform="translate(-552.762 -552.306)" fill="#29292c"/>
    <circle id="Ellipse_50" data-name="Ellipse 50" cx="8.665" cy="8.665" r="8.665" transform="translate(72.252 42.936)" fill="#a0616a"/>
    <path id="Path_677" data-name="Path 677" d="M503.663,334.814l-3.354-3.634-3.718-7.267s-2.711-.839-3.27.559-10.621,5.87-10.621,5.87,2.515,23.478,1.4,25.715-3.075,11.18-1.4,12.019,9.5,0,12.019,1.118,9.783,1.118,11.739-.28,2.516-2.516,4.472-1.677c1.666.714,5.56-23.691,6.681-30.964a3.31,3.31,0,0,0-1.372-3.217c-2.508-1.759-7.025-4.791-7.824-4.391C507.3,329.224,503.663,334.814,503.663,334.814Z" transform="translate(-423.585 -263.649)" fill="#77a0a5"/>
    <path id="Path_678" data-name="Path 678" d="M591.2,359.557h0a3.315,3.315,0,0,1,2.491,2.85l2.261,20.349s-5.59,12.019-8.385,3.913S591.2,359.557,591.2,359.557Z" transform="translate(-499.103 -289.509)" fill="#77a0a5"/>
    <path id="Path_679" data-name="Path 679" d="M588.8,445.234l6.149-1.677s1.118,7.826,2.236,7.826-3.913,4.472-6.429,3.913-6.149-2.516-6.429-3.913,2.516-7.267,2.516-7.267Z" transform="translate(-497.265 -350.03)" fill="#77a0a5"/>
    <path id="Path_680" data-name="Path 680" d="M524.383,258.987c.589-1.3.487-2.814.974-4.155a4.955,4.955,0,0,1,7.534-2.342c.627.447,1.255,1.074,2.02.989.824-.092,1.558-1.011,2.315-.674.839.373.613,1.877,1.463,2.225a1.075,1.075,0,0,0,1.235-.507,3.137,3.137,0,0,0,.359-1.391,6.655,6.655,0,0,0-.294-3.534,8.483,8.483,0,0,1-.567-1.143,3.916,3.916,0,0,1-.108-1.128,8.075,8.075,0,0,0-.812-4.074,5.906,5.906,0,0,0-3.738-2.578,14.259,14.259,0,0,0-4.639-.186c-2.561.217-5.232.682-7.25,2.274a2.833,2.833,0,0,0-.7.732,3.778,3.778,0,0,0-.371,1.074,22.209,22.209,0,0,1-1.947,5.109,11.079,11.079,0,0,0-1.005,2.171,2.81,2.81,0,0,0,.248,2.309,8.831,8.831,0,0,0,1.406,1.266c.454.436.666,1.276,1.169,1.606.439.288.965.085,1.412.391C523.665,257.812,523.706,258.673,524.383,258.987Z" transform="translate(-450.007 -203.649)" fill="#2f2e41"/>
    <path id="Path_681" data-name="Path 681" d="M564.382,374.234l.839-1.677s12.3,3.634,14.814,6.988c0,0,6.149-3.913,9.5-3.354l3.354.559-10.342,9.224-13.137-1.118Z" transform="translate(-482.906 -298.875)" fill="#f2f2f2"/>
    <path id="Path_682" data-name="Path 682" d="M532.841,372.557l-11.46,15.932,16.491,8.106a2.835,2.835,0,0,0,2.727,0l10.968-5.031,10.342-14.814-10.342,5.311a2.448,2.448,0,0,0-3.354-1.118Z" transform="translate(-451.925 -298.875)" fill="#ff9148"/>
    <path id="Path_683" data-name="Path 683" d="M621.779,432.632l2.236-5.87s5.031-6.429,2.236-9.5-5.87,8.944-5.87,8.944Z" transform="translate(-523.254 -330.721)" fill="#a0616a"/>
    <path id="Path_684" data-name="Path 684" d="M533.079,438.962l4.879-3.956s7.578-3.037,6.7-7.1S535.1,432.7,535.1,432.7Z" transform="translate(-460.353 -337.987)" fill="#a0616a"/>
    <path id="Path_685" data-name="Path 685" d="M472.658,364.31h-.28s-4.332-5.171-5.171,1.817-3.634,30.187,3.634,31.025a17.671,17.671,0,0,0,12.438-3.494s5.311-8.106,3.354-8.106a52.6,52.6,0,0,0-5.87-.28c-2.505.155-4.756.861-4.612.14C476.432,384.015,480.485,366.266,472.658,364.31Z" transform="translate(-412.006 -291.607)" opacity="0.1"/>
    <path id="Path_686" data-name="Path 686" d="M468.637,348.116l-1.118-.559s-4.472.839-5.311,7.826-3.634,30.187,3.634,31.025,17.05-1.118,17.05-1.118,1.956-10.621,0-10.621-12.019,1.4-11.739,0S476.463,350.072,468.637,348.116Z" transform="translate(-408.403 -280.863)" fill="#77a0a5"/>
    <path id="Path_687" data-name="Path 687" d="M338,340.937l3.082-4.724,1.949,7.8L338,346.248Z" transform="translate(-243.527 -242.24)" fill="#77a0a5"/>
    <circle id="Ellipse_51" data-name="Ellipse 51" cx="7.547" cy="7.547" r="7.547" transform="translate(23.611 17.243)" fill="#eea576"/>
    <path id="Path_770" data-name="Path 770" d="M816.821,205.919a5.23,5.23,0,0,1-.926,3.048,2.524,2.524,0,0,1-2.054,1.147,2.055,2.055,0,0,1-1.7-1.122,6.448,6.448,0,0,1-.73-3.452q0-.515.025-.981t.061-.883l.429-4.035h-2.833a67.606,67.606,0,0,1-1.208,9.106q-.472,1.453-1.6,1.453a1.353,1.353,0,0,1-.907-.38,1.277,1.277,0,0,1-.429-1.006,2.876,2.876,0,0,1,.889-1.576,3.593,3.593,0,0,0,.987-1.846l.736-5.752h-1.19a2.108,2.108,0,0,0-.963.239,1.817,1.817,0,0,0-.693.558l-.527.785h-.429a7.419,7.419,0,0,1,1.478-2.8,2.69,2.69,0,0,1,2.018-.938h9.37v2.159h-3.164q-.147,1.472-.227,2.943t-.08,2.956a2.661,2.661,0,0,0,.466,1.631,1.4,1.4,0,0,0,1.165.626,1.534,1.534,0,0,0,.9-.35,1.268,1.268,0,0,0,.534-.914q.037-.27.055-.423t.018-.19Z" transform="translate(-659.858 -146.74)" fill="none"/>
    <path id="Path_771" data-name="Path 771" d="M820.03,204.373a6.515,6.515,0,0,1-1.153,3.8,3.145,3.145,0,0,1-2.559,1.428,2.56,2.56,0,0,1-2.116-1.4,8.031,8.031,0,0,1-.909-4.3q0-.642.031-1.222t.076-1.1l.535-5.026H810.4q-.916,9.533-1.5,11.343t-1.994,1.81a1.685,1.685,0,0,1-1.13-.474,1.591,1.591,0,0,1-.535-1.253,3.582,3.582,0,0,1,1.108-1.963,4.474,4.474,0,0,0,1.23-2.3l.917-7.165h-1.482a2.626,2.626,0,0,0-1.2.3,2.263,2.263,0,0,0-.863.7l-.657.978h-.535a9.242,9.242,0,0,1,1.841-3.491,3.351,3.351,0,0,1,2.513-1.169h11.672v2.689h-3.942q-.183,1.833-.283,3.666t-.1,3.682a3.315,3.315,0,0,0,.58,2.032,1.748,1.748,0,0,0,1.452.779,1.911,1.911,0,0,0,1.123-.435,1.58,1.58,0,0,0,.665-1.138q.046-.336.069-.527t.023-.237Z" transform="translate(-662.643 -146.245)" fill="#ff9148"/>
    <circle id="Ellipse_95" data-name="Ellipse 95" cx="7.547" cy="7.547" r="7.547" transform="translate(19.064 65.017)" fill="#ff9148"/>
    <circle id="Ellipse_96" data-name="Ellipse 96" cx="7.547" cy="7.547" r="7.547" transform="translate(72.117 -5.031)" fill="#d16f2e"/>
  </g>
</svg>
