<svg xmlns="http://www.w3.org/2000/svg" width="293.904" height="149.532" viewBox="0 0 293.904 149.532">
  <g id="NETY" transform="translate(0 0)">
    <path id="Path_820" data-name="Path 820" d="M148.129,244.863a9.723,9.723,0,0,0-.636-2.433,1.1,1.1,0,0,0-.56-.69,1.154,1.154,0,0,0-.556-.006l-2.853.437a1.094,1.094,0,0,0-.651.253c-.372.391-.006,1.02-.017,1.559a1.465,1.465,0,0,1-1.135,1.261,4.292,4.292,0,0,1-1.8-.022l-3.989-.62a6.577,6.577,0,0,0,3.018-2.014c.525-.622.8-1.783.046-2.077a1.861,1.861,0,0,0-.693-.056c-1.807.014-3.23-1.495-4.921-2.13a5.442,5.442,0,0,0-6.124,1.826l2.125.1a.943.943,0,0,1,.566.151c.466.383-.113,1.118-.048,1.717.085.778,1.119.945,1.9,1.023s1.768.712,1.393,1.4c-3.916,1.349-7.9-2.637-12.013-2.146a24.4,24.4,0,0,0-3.04.79c-6.208,1.571-12.626-2.62-18.967-1.733a24.088,24.088,0,0,0-4.14,1.092,5.581,5.581,0,0,0-2.391,1.247,1.916,1.916,0,0,0-.272,2.468,13.894,13.894,0,0,1-4.869-.463,2.728,2.728,0,0,1,1.4,2.4,28.888,28.888,0,0,0-7.4,2.256,12.464,12.464,0,0,0,1.532,2.04l-3.237,2.079a1.847,1.847,0,0,1,1.023,2.7c1.134-.5,1.837-1.809,3.049-2.074a4.109,4.109,0,0,1,2.356.457,3.681,3.681,0,0,0,2.362.372c.78-.229,1.356-1.241.86-1.885a40.363,40.363,0,0,1,10.253-1.6,1.286,1.286,0,0,1,.776.147c.452.314.333.991.309,1.54s.4,1.272.9,1.024c-.578.5-.084,1.445.471,1.971s1.223,1.254.883,1.94c-.089.179-.239.322-.324.5-.252.533.148,1.154.619,1.508a5.279,5.279,0,0,1,1.376,1.091c.327.49.179,1.348-.407,1.416l-1.664-2.112a4.33,4.33,0,0,0-1.124,2.13,4.469,4.469,0,0,1,.553,6.112,15.274,15.274,0,0,1-2.765,2.117,3.8,3.8,0,0,0-1.8,2.841c0,2.012-.16,3.881.594,5.746a88.5,88.5,0,0,0,4.805,10.025c.475.85,1.09,1.782,2.053,1.928q-1.825-4.444-3.287-9.026a2.07,2.07,0,0,1,1.74.567,3.606,3.606,0,0,1,.338,1.521,4.711,4.711,0,0,0,.6,1.412l5.812,10.352a4.284,4.284,0,0,0,1.955,2.127,11.049,11.049,0,0,1,1.812.5c.425.251.711.7,1.144.932,1.224.668,2.927-.613,4.071.184a11.45,11.45,0,0,1,.837.851c1.057.915,2.79.3,4.01.986A4.738,4.738,0,0,1,125.586,305c1.05,2,2.75,3.954,5,4.113a13.938,13.938,0,0,1,2.12.073c.691.157,1.372.76,1.261,1.461-.19,1.2.4,2.514.244,3.719-.29,2.194-3.4,3.159-3.67,5.356a12.437,12.437,0,0,1-.081,1.449c-.14.577-.574,1.047-.728,1.621-.292,1.087.487,2.169,1.343,2.9a7.832,7.832,0,0,1,2.344,2.386c.494,1.082.252,2.344.412,3.523.351,2.574,2.574,4.482,4.862,5.712a5.079,5.079,0,0,1,1.9,1.388,7.547,7.547,0,0,1,.727,2.982c.482,2.484,2.572,4.53,2.632,7.059.042,1.8-.957,3.428-1.554,5.124a11.951,11.951,0,0,0,.976,9.911,15.871,15.871,0,0,1,1.3,2.282c.564,1.459.381,3.117.9,4.591.687,1.95,2.575,3.56,2.394,5.62.857,1.78,2.75,2.655,4.653,3.185l3.411.949a4.382,4.382,0,0,0,2,.233,1.5,1.5,0,0,0,1.283-1.362,12.464,12.464,0,0,1-4.778-1.8,4.251,4.251,0,0,1-1.8-4.467c.243-.757.759-1.632.268-2.257-.281-.358-.795-.452-1.112-.779a1.7,1.7,0,0,1,.031-1.981,6.688,6.688,0,0,0,1.012-1.86,1.94,1.94,0,0,0-.909-2.019,4.822,4.822,0,0,0,1.688-1.083,1.646,1.646,0,0,0,.3-1.865c1.037.132,2.262.2,2.943-.6a2.636,2.636,0,0,0,.292-2.388,10.2,10.2,0,0,1-.589-2.425,44.2,44.2,0,0,0,7.17-.243,4.649,4.649,0,0,0-2.18-2.73,3.785,3.785,0,0,0,2.4-2.511,6.461,6.461,0,0,0,.043-3.242,1.74,1.74,0,0,1-.032-.849,1.655,1.655,0,0,1,.853-.825l5.349-3.072a3.115,3.115,0,0,0,.855-.632,2.541,2.541,0,0,0,.19-2.467,12.394,12.394,0,0,1-.857-2.44c-.331-2.564,2.414-4.4,3.341-6.818a10.273,10.273,0,0,0,.508-2.989c.076-1.087.081-2.35-.754-3.051-.8-.672-2.05-.522-2.888-1.146-.768-.573-1.033-1.685-1.871-2.148-.762-.42-1.717-.153-2.564-.351-1.491-.348-2.43-2.067-3.953-2.226-.859-.09-1.832.33-2.536-.17-.621-.441-.646-1.327-.764-2.08a5.808,5.808,0,0,0-4.687-4.7,6.558,6.558,0,0,1-2.6-.575c-.763-.493-1.113-1.416-1.713-2.1a7.169,7.169,0,0,0-3.914-1.827l-5.8-1.363c-1.029-.242-2.356-.37-2.909.531a4.167,4.167,0,0,0-.344,1.082,3.351,3.351,0,0,1-3.152,2.372,3.727,3.727,0,0,0-2.2-1.7,13.7,13.7,0,0,1-1.778-.423,2.5,2.5,0,0,1-1.084-3.465,3.109,3.109,0,0,0-.531-3.74,5.047,5.047,0,0,0-3.735-1.011c-.346-.756.233-1.608.857-2.158s1.382-1.089,1.518-1.909c.214-1.29-1.432-2.27-2.682-1.885a4.652,4.652,0,0,0-2.575,2.8,8.227,8.227,0,0,1-1.037,1.988,2.037,2.037,0,0,1-1.973.808c-1.029-.263-1.426-1.486-1.654-2.523a16.409,16.409,0,0,1-.549-4.227,5.527,5.527,0,0,1,1.594-3.849c1.711-1.57,4.335-1.417,6.644-1.166a1.687,1.687,0,0,1,.173-2.229,2.534,2.534,0,0,1,2.3-.564,3.165,3.165,0,0,1,1.779,1.064,16.714,16.714,0,0,1,1.338,2.788c.5.908,1.611,1.682,2.524,1.2a2.126,2.126,0,0,0,.717-2.386,8.969,8.969,0,0,1-.542-2.61c.136-1.7,1.9-2.723,3.452-3.423s3.335-1.641,3.581-3.328a3.035,3.035,0,0,1,.184-.967,1.9,1.9,0,0,1,.7-.655c4.537-3,9.15-6.034,14.336-7.672.27-.085.3.009.576-.057.385-.222.13-.838-.239-1.085s-.862-.438-.956-.872c-.069-.319.119-.633.168-.956a1.194,1.194,0,0,0-1.567-1.209c-.417-.552.408-1.193,1.074-1.376a29.174,29.174,0,0,1,6.129-1,1.1,1.1,0,0,1,.7.119.834.834,0,0,1,.057,1.138,6.7,6.7,0,0,1-.938.851,2.56,2.56,0,0,0-.664,2.575,5.835,5.835,0,0,0,3.457.923c1.2-.194,2.262-1.54,1.7-2.616-.525-1-2.1-1.227-2.371-2.325-.317-1.285,1.5-2.428,1.092-3.686-.179-.551-.729-.876-1.15-1.274a3.456,3.456,0,0,1-.756-3.833,4.36,4.36,0,0,1-3.824-1.2c-.915-.923-1.645-2.379-2.943-2.338-1.192.038-2.219,1.429-3.333,1-.274-.1-.563-.317-.829-.192a.685.685,0,0,0-.309.513c-.283,1.354.2,2.9-.534,4.067-.8,1.273-2.661,1.45-3.635,2.6-.529.623-.733,1.463-1.219,2.12s-1.517,1.075-2.1.5a2.894,2.894,0,0,0-.786-3.52,7.723,7.723,0,0,0-1.737-.845,10.3,10.3,0,0,1-1.94-1.081,1.911,1.911,0,0,1-.712-.762,1.737,1.737,0,0,1,.049-1.205,4.928,4.928,0,0,1,3.922-3.251c.776-.106,1.68-.068,2.193-.66.272-.313.414-.786.809-.913a1.194,1.194,0,0,1,.747.092l2.9,1.02a2.034,2.034,0,0,0,1.032.171.7.7,0,0,0,.605-.735c-.093-.481-.833-.712-.766-1.2a.8.8,0,0,1,.242-.408,10.359,10.359,0,0,1,8.216-3.244c.366.6-.213,1.312-.694,1.825s-.868,1.429-.286,1.824a1.6,1.6,0,0,0,.771.174,6.736,6.736,0,0,1,2.053.623q1.5.654,2.946,1.43a3.735,3.735,0,0,1,.074-1.9,1.285,1.285,0,0,1,1.522-.828c.576.223.871.985,1.484,1.055.818.093,1.141-1.115.8-1.865s-1.018-1.376-1.075-2.2c-.038-.554.173-1.242-.27-1.577a1.206,1.206,0,0,0-.522-.183L153.3,240.131c-.656-.121-1.6-.028-1.634.639-.016.372.316.74.169,1.083-.157.365-.673.332-1.049.461a1.434,1.434,0,0,0-.82,1.508,4.2,4.2,0,0,0,.692,1.7C149.936,245.219,148.847,245.164,148.129,244.863Z" transform="translate(-79.792 -231.145)" fill="#3f3d56"/>
    <path id="Path_821" data-name="Path 821" d="M279.652,228.591a3.579,3.579,0,0,0-3.932,1.177.787.787,0,0,0-.182.829c.218.372.775.225,1.185.092a2.983,2.983,0,0,1,1.872-.045c.385.132.73.366,1.117.493a1.125,1.125,0,0,0,1.147-.168,1.493,1.493,0,0,0,.283-1.071.862.862,0,0,0-.22-.708,1.126,1.126,0,0,0-.508-.15,1.749,1.749,0,0,1-1.024-.6" transform="translate(-220.135 -224.256)" fill="#3f3d56"/>
    <path id="Path_822" data-name="Path 822" d="M301.9,225.124a.911.911,0,0,0-.88,1.282,3.691,3.691,0,0,0,1.471.1,1.258,1.258,0,0,0,1.028-.943,2.368,2.368,0,0,1-1.676-.32" transform="translate(-238.399 -221.898)" fill="#3f3d56"/>
    <path id="Path_823" data-name="Path 823" d="M342.051,215.514a16.923,16.923,0,0,0-3.773,1.282,2.835,2.835,0,0,1,1.811,2.847,1.482,1.482,0,0,0,.017.7c.139.336.54.462.893.548a5.888,5.888,0,0,0,1.959.25,2,2,0,0,0,1.622-.991,7.056,7.056,0,0,1,.337-.8c.846-1.289,3.36.27,4.269-.976.32-.439.291-1.1.708-1.447a1.591,1.591,0,0,1,.728-.278,51.108,51.108,0,0,1,5.528-.787c.879-.077,2.025-.392,2.033-1.275a15.313,15.313,0,0,0-9.768,1.314c-1.089.545-2.529,1.693-3.578.97-.393-.271-.373-1-.914-1.3A2.756,2.756,0,0,0,342.051,215.514Z" transform="translate(-265.176 -214.142)" fill="#3f3d56"/>
    <path id="Path_824" data-name="Path 824" d="M388.527,217.119l1.555.3a2.015,2.015,0,0,0-2.1,2.183c1.456.486,3.043.013,4.577.078s3.318,1.16,3.056,2.673c-.079.457-.343.914-.206,1.358a5.043,5.043,0,0,0,.525.817,1.831,1.831,0,0,1-.342,1.893c-.407.542-.954.975-1.311,1.551-.889,1.433-.384,3.285.146,4.886a4.309,4.309,0,0,0,.828,1.654,4.358,4.358,0,0,0,3.207.923,2.833,2.833,0,0,0,2.314-.674c.688-.843.207-2.157.66-3.146a3.506,3.506,0,0,1,2.408-1.557A36.04,36.04,0,0,0,409,228.374c2.042-.939,3.949-2.4,6.193-2.523a8.5,8.5,0,0,0,1.881-.132,1.43,1.43,0,0,0,1.137-1.325c-.039-.537-.494-.932-.849-1.337s-.634-1.028-.308-1.456l5.882-1.1c-.417-1.136-.742-2.632.216-3.372.346-.267.808-.374,1.1-.7a1.427,1.427,0,0,0-.33-1.964,3.778,3.778,0,0,0-2.1-.638,56.442,56.442,0,0,0-7.756.069l-15.153.831a11.072,11.072,0,0,0-3.123.317,14.415,14.415,0,0,1-2.254,1.022C391.869,216.42,390.035,216.184,388.527,217.119Z" transform="translate(-300.82 -213.722)" fill="#3f3d56"/>
    <path id="Path_825" data-name="Path 825" d="M486.794,266.31a.625.625,0,0,0-.453.1.571.571,0,0,0-.147.349,2.3,2.3,0,0,0,.335,1.649,1.615,1.615,0,0,0,1.479.709c.7-.089,1.216-.686,1.86-.978.992-.449,5.2-1.148,2.29-2.723-1-.543-1.653-.064-2.445.294A5.563,5.563,0,0,1,486.794,266.31Z" transform="translate(-371.236 -250.623)" fill="#3f3d56"/>
    <path id="Path_826" data-name="Path 826" d="M576.392,220.062a1.664,1.664,0,0,0-.81.7.711.711,0,0,0,.267.943,1.061,1.061,0,0,0,.4.063l1.383.041c.588.018,1.322.143,1.48.709.117.421-.145.961.172,1.262a.892.892,0,0,0,.471.184,3.206,3.206,0,0,0,1.394.045c1.007-.27.478-.884.795-1.431.485-.837.4-.33,1.256-.81.631-.354,1.447-1,.92-1.9C583.2,218.3,577.744,219.388,576.392,220.062Z" transform="translate(-435.31 -217.553)" fill="#3f3d56"/>
    <path id="Path_827" data-name="Path 827" d="M659.535,219.414l-.8.107a32.359,32.359,0,0,0-5.378,1.03,8.951,8.951,0,0,0,2.355.578,7.232,7.232,0,0,1,1.319.188c.771.229,1.547.822,2.292.518.462-.188.612-.669.995-.924.264-.176,1.266-.461,1.378-.638C662.6,218.838,660.231,219.322,659.535,219.414Z" transform="translate(-491.146 -217.695)" fill="#3f3d56"/>
    <path id="Path_828" data-name="Path 828" d="M678.314,230.823a15.069,15.069,0,0,0-2.965,2.171,1.8,1.8,0,0,0-.729,1.313c.046.687.777,1.086,1.411,1.354l2.568,1.087c.312-.439.026-1.045-.3-1.477s-.7-.931-.562-1.45c.162-.593.885-.795,1.491-.9.987-.166,3.65-.153,3.33-1.744C682.186,229.307,679.305,230.269,678.314,230.823Z" transform="translate(-506.397 -225.452)" fill="#3f3d56"/>
    <path id="Path_829" data-name="Path 829" d="M685.416,580.608a2.45,2.45,0,0,0,.155,2.16,2.188,2.188,0,0,0,2.246.776A4.045,4.045,0,0,0,689.9,582.2a7.18,7.18,0,0,0,1.2-1.839,14.36,14.36,0,0,0,.889-3.253l.8-4.187c.178-.936.171-3.8-1.549-2.87-.47.255-1.558,2.271-2.05,2.843a9.194,9.194,0,0,0-1.472,3.278C687.133,577.739,685.957,579.042,685.416,580.608Z" transform="translate(-514.015 -469.148)" fill="#3f3d56"/>
    <path id="Path_830" data-name="Path 830" d="M1000.795,681.624a12.507,12.507,0,0,1-1.634-.778,13.777,13.777,0,0,0-.828,4.515l3.851-2.179c.579-.328,1.236-.783,1.223-1.449a.458.458,0,0,0-.213-.417.519.519,0,0,0-.27-.032,6.519,6.519,0,0,0-1.63.524,1.99,1.99,0,0,1-1.663.009" transform="translate(-738.562 -548.74)" fill="#3f3d56"/>
    <path id="Path_831" data-name="Path 831" d="M1063.052,684.758a8.359,8.359,0,0,0-1.235.443,17.678,17.678,0,0,0-2.28,1.9,9.045,9.045,0,0,1-2.576,1.18.617.617,0,0,0,.144.91,1.783,1.783,0,0,0,1.017.229,5.37,5.37,0,0,0,2.737-.422,8.624,8.624,0,0,0,1.288-1.023,13.654,13.654,0,0,1,3.243-1.834,3.723,3.723,0,0,0,1.13-.676c.715-.7.765-1.79-.266-2.03C1065.422,683.238,1063.844,684.5,1063.052,684.758Z" transform="translate(-780.505 -550.58)" fill="#3f3d56"/>
    <path id="Path_832" data-name="Path 832" d="M1101.966,660.766a3.212,3.212,0,0,0-.983-2.632,5.008,5.008,0,0,1-.585,2.8c-.389.571-1,.957-1.423,1.5a1.462,1.462,0,0,0-.115,1.884,1.871,1.871,0,0,0,1.109.382,3.343,3.343,0,0,0,2.841-.536c.38-.392.566-.972,1.029-1.26a1.251,1.251,0,0,0,.452-.323c.191-.3-.113-.706-.455-.815s-.72-.058-1.065-.162-.66-.491-.484-.8" transform="translate(-810.446 -532.451)" fill="#3f3d56"/>
    <path id="Path_833" data-name="Path 833" d="M1014.683,533.29a4.467,4.467,0,0,1-1.594.094,5.773,5.773,0,0,1-2.287-1.376,10.092,10.092,0,0,0-5.9-2.06c-1.941-.037-3.9.489-5.806.122a2.291,2.291,0,0,0,1.35,1.521c.632.309,1.33.464,1.966.767a4.694,4.694,0,0,1,2.274,2.365,6.673,6.673,0,0,0,.643,1.415,3.264,3.264,0,0,0,2.895.97c1.382-.091,2.825-.488,4.111.027a10.556,10.556,0,0,1,2.509,1.924,2.821,2.821,0,0,0,2.921.683,4.829,4.829,0,0,1-3.341-4.646c.925.085,3.589.052,3.445-1.519C1017.752,532.244,1015.478,533.147,1014.683,533.29Z" transform="translate(-739.113 -440.516)" fill="#3f3d56"/>
    <path id="Path_834" data-name="Path 834" d="M941.37,568.529c.164-.9,1.062-1.7.783-2.568a1.581,1.581,0,0,0-1.526-.915c-.633-.015-1.255.174-1.888.192a9.189,9.189,0,0,0-1.236.017c-1.256.207-2.031,1.523-3.215,1.992a19.543,19.543,0,0,1-2.277.427c-1.7.447-2.775,2.053-3.963,3.348a14.142,14.142,0,0,1-7.179,4.186,6.557,6.557,0,0,0-2.773.995c-1.017.831-1.268,2.256-1.494,3.55a58.628,58.628,0,0,1-2.854,10.478l4.036.515a5.484,5.484,0,0,0,2.3-.034,6.679,6.679,0,0,0,1.514-.806,15.114,15.114,0,0,1,5.9-2.131,6.268,6.268,0,0,1,3.157.221,2.935,2.935,0,0,1,1.926,2.347,2.479,2.479,0,0,1,2.478.6,4.307,4.307,0,0,1,1.183,2.362c.106.552.213,1.214.725,1.445.418.189.9-.015,1.355-.051,1.552-.124,2.839,1.685,4.364,1.374,1.636-.334,2.037-2.784,3.633-3.274.916-.282,2.2.061,2.641-.792.387-.751-.385-1.618-.305-2.46.1-1.036,1.32-1.476,2.262-1.918a7.055,7.055,0,0,0,3.215-9.119c-.933-1.91-2.767-3.414-3.106-5.512-.261-1.615.376-3.5-.654-4.768-.524-.646-1.41-1-1.722-1.775a8.771,8.771,0,0,1-.223-1.549c-.106-.513-.553-1.049-1.06-.916-1.47.386-1.939,4.928-2.727,6.031A1.826,1.826,0,0,1,941.37,568.529Z" transform="translate(-677.899 -464.918)" fill="#3f3d56"/>
    <path id="Path_835" data-name="Path 835" d="M910.022,547.383a2.367,2.367,0,0,0-1.532-.078c-.481.2-.763.908-.376,1.259a51.87,51.87,0,0,1,9.061.176c3.453.473,6.871,1.644,10.339,1.3a52.623,52.623,0,0,0-6.031-1.4l-3.4-.649a26.244,26.244,0,0,0-2.757-.426C913.393,547.405,911.927,547.917,910.022,547.383Z" transform="translate(-673.728 -452.893)" fill="#3f3d56"/>
    <path id="Path_836" data-name="Path 836" d="M918.681,501.372c-.251-.021-.562-.039-.691.177s.018.478-.049.71c-.091.316-.5.4-.831.353a1.591,1.591,0,0,0-.967.011.82.82,0,0,0-.317.931,2.4,2.4,0,0,0,.559.891,9.092,9.092,0,0,0,1.45,1.455c1.039.767,2.446,1.136,3.1,2.25a1.493,1.493,0,0,0,.414.557,1.151,1.151,0,0,0,1.062-.107l1.185-.542a1.345,1.345,0,0,0,.554-.377,1.219,1.219,0,0,0-.123-1.286,2.211,2.211,0,0,1-.47-1.26c.087-.809,1.128-1.119,1.555-1.811s.151-1.6.2-2.416c.058-.958.66-2.2-.308-2.919-.823-.608-1.609-.046-2.2.625C921.56,500.03,920.971,501.564,918.681,501.372Z" transform="translate(-679.36 -417.41)" fill="#3f3d56"/>
    <path id="Path_837" data-name="Path 837" d="M950.913,452.937c.4.775,1.249,1.237,1.69,1.992.478.818.424,1.875.943,2.668.532.813,1.6,1.245,1.9,2.171.326,1.01-.414,2.238.176,3.121a1.31,1.31,0,0,0,1.922.177,1.409,1.409,0,0,0-.058-1.967c-.349-.318-.85-.456-1.142-.828a1.736,1.736,0,0,1-.3-.72,4.716,4.716,0,0,1,.074-2.259,1,1,0,0,0,.057-.591c-.131-.381-.648-.409-1.01-.585-.823-.4-.8-1.564-.659-2.469-.1.6-2.242-.422-2.466-.763-.446-.678-.2-1.985-.292-2.734A2.129,2.129,0,0,0,950.913,452.937Z" transform="translate(-704.396 -383.285)" fill="#3f3d56"/>
    <path id="Path_838" data-name="Path 838" d="M870.084,500.349c-.4-.443-.992-.907-1.524-.64a.965.965,0,0,0-.358,1.189,2.618,2.618,0,0,0,.864,1.03,30.163,30.163,0,0,1,3.263,2.8c1.727,1.9,2.643,4.46,4.521,6.209a2.537,2.537,0,0,0,1.424.771,1.106,1.106,0,0,0,1.225-.846,1.613,1.613,0,0,0-.568-1.186c-.73-.794-1.529-1.524-2.218-2.354a1.978,1.978,0,0,1-.567-1.184c0-.447.4-.914.836-.8-.526-.135-.917-1.011-1.689-1.176-.646-.138-.8.262-1.57-.068C872.26,503.46,871.11,501.5,870.084,500.349Z" transform="translate(-645.185 -418.773)" fill="#3f3d56"/>
    <path id="Path_839" data-name="Path 839" d="M977.083,348.217a12.127,12.127,0,0,1-1.238-.442c-1.088-.327-2.527.473-2.382,1.6.1.749.793,1.253,1.177,1.9a4.227,4.227,0,0,1,.119,3.262,2.55,2.55,0,0,1-.412.928,3.143,3.143,0,0,1-.975.7,13.039,13.039,0,0,0-3.815,3.241.934.934,0,0,0-.23.434c-.052.38.33.657.547.975.48.7.133,1.653.181,2.5a.708.708,0,0,0,.3.621c.289.147.632-.1.789-.387.521-.943.128-2.457,1.1-2.912.185-.086.409-.122.532-.285.2-.257.007-.639.106-.946.149-.462.781-.483,1.266-.462a7.18,7.18,0,0,0,2.467-.328,1.642,1.642,0,0,0,.817-.473,1.777,1.777,0,0,0,.208-1.346,18.243,18.243,0,0,0-2.155-6.575,3.918,3.918,0,0,0,2.531-.243c.415-.25.911-1,.706-1.508C978.4,347.673,977.812,348.352,977.083,348.217Z" transform="translate(-717.757 -309.811)" fill="#3f3d56"/>
    <path id="Path_840" data-name="Path 840" d="M518.523,379.128a3.3,3.3,0,0,1,.023,1.66,1.136,1.136,0,0,1-1.284.811c-.416-.126-.656-.544-.952-.863-1.643-1.773-5.349-.747-6.363-2.94-.414-.9-.133-1.968-.415-2.913a2.593,2.593,0,0,0-2.626-1.784,5.4,5.4,0,0,0-1.511.451,38.1,38.1,0,0,1-10.012,2.5,8.227,8.227,0,0,0-1.924.35,6.092,6.092,0,0,0-3.06,3.154,24.4,24.4,0,0,1-2.112,3.965,17.608,17.608,0,0,1-3.584,3.062,3.656,3.656,0,0,0-1.182,1.239,3.875,3.875,0,0,0-.237,1.841l.258,7.592a6.857,6.857,0,0,0,.512,2.862c.546,1.091,1.624,1.806,2.372,2.77a5.425,5.425,0,0,1,1.125,3.465c-.016.5-.066,1.1.326,1.413a1.431,1.431,0,0,0,.8.23l10.269.841c1.806.148,3.808.391,4.988,1.767.556.65,1,1.584,1.856,1.653a6.889,6.889,0,0,0,1.087-.149,2.67,2.67,0,0,1,2.245,1.4,6.206,6.206,0,0,1,1,3.982c-.084.88-.357,1.736-.415,2.618-.224,3.356,2.621,6.272,2.676,9.636a12.013,12.013,0,0,1-1.822,5.581c1.478,2.239.268,5.22.856,7.837.558,2.483,2.628,4.427,3.144,6.919.236,1.141.25,2.545,1.256,3.132a2.863,2.863,0,0,0,1.421.285,18.735,18.735,0,0,0,8.531-1.942c1.244-.617,2.533-1.539,2.75-2.91.175-1.106-.386-2.343.185-3.307.673-1.136,2.4-1.046,3.386-1.919,1.606-1.416.354-4.118,1-6.158.585-1.834,2.6-2.808,3.6-4.454a7.912,7.912,0,0,0,.836-2.265,32.289,32.289,0,0,0,.85-5.777,34.649,34.649,0,0,1,.261-3.538c1.076-6.685,7.685-11.161,9.831-17.583.2-.613.3-1.43-.245-1.777a1.563,1.563,0,0,0-1.039-.109l-4.734.6a3.259,3.259,0,0,1-1.751-.1,1.124,1.124,0,0,1-.641-1.446c.8-1.456-.85-3.3-1.585-4.789a70.688,70.688,0,0,0-7.037-11.413,1.16,1.16,0,0,1-.309-.67l1.344.045c-.454-1.627-1.2-3.408-2.783-4a6.927,6.927,0,0,0-2.828-.168A41.328,41.328,0,0,1,518.523,379.128Z" transform="translate(-369.166 -328.022)" fill="#3f3d56"/>
    <path id="Path_841" data-name="Path 841" d="M548.979,236.8a4.589,4.589,0,0,0,2.542,1.691c1.821.233,3.13-1.65,3.963-3.285a1.605,1.605,0,0,0,1.675,1.485,3.305,3.305,0,0,0,1.26-.493,24.821,24.821,0,0,1,11.759-3.04,1.27,1.27,0,0,1,.97-1.4c.836-.166,1.589.557,1.992,1.308a7.2,7.2,0,0,0,1.3,2.183c.641.562,1.881.537,2.134-.276.243-.781-.571-1.447-1.247-1.908s-1.389-1.313-.933-1.993a60.736,60.736,0,0,1,10.464-1.684,4.382,4.382,0,0,0,1.761-.3,1.369,1.369,0,0,0,.822-1.448,3.989,3.989,0,0,1-4.162-1.57c4.9-.4,10.12-.75,14.466,1.558.522,1.12-2.137,2.051-1.425,3.061a1.287,1.287,0,0,0,1.075.367,53.315,53.315,0,0,0,9.044-.345,12.109,12.109,0,0,1,3.289-.267c1.825.225,3.386,1.443,5.181,1.84a2.772,2.772,0,0,0,2.166-.258,1.374,1.374,0,0,0,.376-1.945c1.69-1.657,4.5-1.246,6.726-.453s4.343,2.072,6.7,2.249c1.693.127,3.409-.329,5.081-.039a31.651,31.651,0,0,1,3.056.937,23.364,23.364,0,0,0,6.015.455,42.145,42.145,0,0,1,15.019,2.984,4.466,4.466,0,0,1,1.67.986,1.637,1.637,0,0,1,.373,1.8l-4.941-.722c.465.917,1.67,1.073,2.648,1.389s1.992,1.4,1.4,2.24c-1.06-.337-2.02.722-2.556,1.7s-1.188,2.143-2.3,2.2c-.995.053-2.2-.794-2.846-.038a19.41,19.41,0,0,1,2.287,3.656c.64,1.334,1.1,3.016.231,4.216a1.092,1.092,0,0,1-.584.453c-.707.179-1.166-.686-1.673-1.21a6.073,6.073,0,0,0-2.47-1.158c-.865-.31-1.777-.919-1.844-1.836a3.667,3.667,0,0,1,.481-1.627,6.269,6.269,0,0,0,.476-2.812,3.194,3.194,0,0,0-.821-2.119,1.645,1.645,0,0,0-2.111-.217c-.278.231-.5.6-.863.614-.638.024-1.129-1.089-1.643-.709a1.745,1.745,0,0,1-.237,1.167c-1.533,1.333-3.888.769-5.864,1.24a11.008,11.008,0,0,0-2.676,1.168,1.721,1.721,0,0,0-.765.642,1.184,1.184,0,0,0,.46,1.412,3.655,3.655,0,0,0,1.517.518,14.923,14.923,0,0,1,6.756,2.71,6.632,6.632,0,0,1,2.548,6.483l-4.751-4.54q.271,2.859.307,5.735a2.576,2.576,0,0,1-.151,1.1c-.339.748-1.257,1-2.061,1.165a1.614,1.614,0,0,0-1.239,2.069,6.744,6.744,0,0,0,1.651,2.382,4.573,4.573,0,0,1,1.38,2.517c.085.971-.647,2.065-1.619,2a2.136,2.136,0,0,1-1.6-1.379,8.768,8.768,0,0,0-.974-1.981c-1.43-1.719-4.641-.983-5.921-2.816a2.9,2.9,0,0,0-.6,2.756,1.518,1.518,0,0,1,1.859.516,12.708,12.708,0,0,1,1.01,1.845c.474.821,1.229,1.549,1.3,2.5a8.16,8.16,0,0,0,.018,1.073,4.342,4.342,0,0,0,.938,1.464,4.2,4.2,0,0,1,.239,3.912,12.064,12.064,0,0,1-2.306,3.347,40.37,40.37,0,0,1-5.021,5.056,5.273,5.273,0,0,0-1.425,1.434,1.556,1.556,0,0,0,.16,1.877c-.363.018-1.013.2-1.376.215a31.992,31.992,0,0,1-.083-4.377c-1.432-.687-2.973,1.154-2.789,2.731s1.326,2.843,2.138,4.208a4.972,4.972,0,0,1,.837,3.306,2.431,2.431,0,0,1-2.377,2.1c-1.841-.16-2.61-2.8-4.433-3.105a.745.745,0,0,0-.48.048c-.27.148-.318.51-.333.819a10.162,10.162,0,0,0,.451,4.48c.864,2.04,3.1,3.754,2.628,5.92-2.522-1.172-3.833-4-4.429-6.717s-.695-5.569-1.762-8.137c-.81,1.039-2.514.18-3.254-.91-.7-1.033-1.134-2.228-1.815-3.275a4.026,4.026,0,0,0-2.972-2.042c-1.308-.06-2.443.837-3.44,1.686a8.019,8.019,0,0,0-2.142,2.386c-.7,1.4-.515,3.057-.549,4.624a7.061,7.061,0,0,1-1.55,4.72c-1.154,1.24-3.285,1.672-4.558.554a5.137,5.137,0,0,1-1.273-2.292,112.159,112.159,0,0,1-3.447-12.305c-.214.95-1.048,2.175-1.846,1.615a1.652,1.652,0,0,1-.425-.548c-1.487-2.52-4.241-4.032-7.023-4.939s-5.71-1.329-8.462-2.325a21.43,21.43,0,0,1-4.39-2.187,3.452,3.452,0,0,0-.211,3.531,2.813,2.813,0,0,0,3.174,1.328c.611-.2,1.127-.619,1.733-.829a1.352,1.352,0,0,1,1.685.477c.254.559-.13,1.235.061,1.819.29.889,1.631.958,2.1,1.767a1.627,1.627,0,0,1-.436,1.887,7.9,7.9,0,0,1-1.771,1.09c-1.973,1.1-3.376,2.97-5.1,4.427s-4.157,2.521-6.212,1.586c.49-2.48-2.465-4.3-3.008-6.77-.179-.813-.086-1.676-.341-2.468a8.047,8.047,0,0,0-2.222-2.8,11,11,0,0,1-3.018-8.006,11.23,11.23,0,0,0,0-3.052,2.287,2.287,0,0,0-2.076-1.912c-2.331.1-5.267.276-6.49-1.71a1.835,1.835,0,0,1,0-2.291,2.216,2.216,0,0,1,1.687-.29l5.251.517a5.8,5.8,0,0,0,3.61-.422c1.054-.642,1.511-2.346.535-3.1-.713-.552-1.991-.522-2.2-1.4-.173-.731.636-1.56.2-2.171-.313-.438-1.018-.316-1.444.012a9.258,9.258,0,0,1-1.214,1.057c-.838.436-1.839.021-2.741-.261s-2.11-.306-2.548.531c-.489.936.434,2.163-.052,3.1-.642,1.241-2.815.534-3.716,1.6-1.034,1.225.7,3.05.355,4.615a2.873,2.873,0,0,1-2.83-.159,2.749,2.749,0,0,1-1.188-2.56c.086-.7.453-1.422.207-2.087a2.448,2.448,0,0,0-1.24-1.135l-5.1-2.82c-.474.879.125,1.969.874,2.629a9.07,9.07,0,0,1,2.18,2.026,2.659,2.659,0,0,1-1,3.506.614.614,0,0,1-.506.088.705.705,0,0,1-.328-.441,10.867,10.867,0,0,0-4.414-5.78c-2.161-1.2-5.267-.956-6.684,1.071-.337.482-.562,1.031-.856,1.54-1.558,2.705-4.9,3.986-8.018,3.9a1.592,1.592,0,0,1-.875-.205c-.5-.348-.482-1.087-.4-1.7l.327-2.58a2.051,2.051,0,0,1,.571-1.414c.578-.456,1.412-.168,2.148-.179a2.722,2.722,0,0,0,2.471-1.907,3.068,3.068,0,0,0-.854-3.051c-.337-.317-.79-.715-.612-1.142a.944.944,0,0,1,.662-.446c1.323-.384,2.72-.485,4.02-.938A4.175,4.175,0,0,0,525.759,252c.094-.411.137-.91.507-1.114a1.52,1.52,0,0,1,.586-.12A2.85,2.85,0,0,0,529.3,247.8a1.86,1.86,0,0,1,2.1.348,5.91,5.91,0,0,0,1.869,1.275c1.367.372,2.688-.838,4.105-.844a5.289,5.289,0,0,0,1.773.006c.568-.2.908-.77,1.344-1.188s1.2-.673,1.6-.223l-.343-2.54a4.993,4.993,0,0,0,4.064-.735l-4.432-1.5a.964.964,0,0,1-.414-.222c-.322-.347,0-.888.26-1.282.627-.944.732-2.5-.3-2.968a2.533,2.533,0,0,0-2.187.441l-3.235,1.8c-.1.615.649.963,1.115,1.378a1.87,1.87,0,0,1-1.219,3.267,2.33,2.33,0,0,1,.416,1.975l-2.177.157a.943.943,0,0,1-.706-.138c-.233-.207-.2-.569-.255-.876a1.9,1.9,0,0,0-1.594-1.392,5.608,5.608,0,0,0-2.229.206,1.33,1.33,0,0,1-.958-.022.956.956,0,0,1-.379-.478,2.458,2.458,0,0,1,.495-2.359,13.091,13.091,0,0,1,1.856-1.707,10.816,10.816,0,0,0,3.216-4.988c1.2-.5,2.439-1.184,3.637-1.686a11.128,11.128,0,0,1,5.982-1.159l4.058.077a9.731,9.731,0,0,1,3.546.51,3.307,3.307,0,0,1,2.164,2.648.813.813,0,0,1-.26.743.958.958,0,0,1-.513.116C550.578,236.483,550.1,236.762,548.979,236.8Z" transform="translate(-391.284 -222.369)" fill="#3f3d56"/>
    <path id="Path_842" data-name="Path 842" d="M514.449,306.317a1.188,1.188,0,0,0,.324-1.194,2.221,2.221,0,0,0-2.3.434,3.876,3.876,0,0,0-.616.815,3.631,3.631,0,0,0-.7,2.881.818.818,0,0,0,.375.512.986.986,0,0,0,.437.068,14.644,14.644,0,0,0,1.757-.108c.358-.044.774-.145.912-.478.182-.438-.258-.934-.13-1.39a1.515,1.515,0,0,1,.375-.537.71.71,0,0,0,.221-.6c-.052-.214-.38-.336-.5-.15" transform="translate(-389.096 -279.167)" fill="#3f3d56"/>
    <path id="Path_843" data-name="Path 843" d="M528.2,295.443a4.916,4.916,0,0,0-1.592-.1.7.7,0,0,0-.339.077.566.566,0,0,0-.209.3,1.5,1.5,0,0,0,.876,1.844,1.881,1.881,0,0,1,.543.218c.45.349.163,1.064.248,1.627.1.633.708,1.164.6,1.794-.088.5-.619.89-.533,1.387.089.521.75.677,1.277.719a1.6,1.6,0,0,0,.9-.1,1.4,1.4,0,0,0,.571-.826,5.3,5.3,0,0,0,.267-1.994,1.891,1.891,0,0,0-.225-.88,4.922,4.922,0,0,0-.526-.6C529.052,297.732,530.114,295.981,528.2,295.443Z" transform="translate(-399.805 -272.242)" fill="#3f3d56"/>
    <path id="Path_844" data-name="Path 844" d="M445.042,408.558a461.545,461.545,0,0,0-42.7-21.08,246.532,246.532,0,0,0-36.275-12.695c-13.018-3.249-23.383-3.946-30.807-2.07l-.068.017-.07.008c-.176.019-17.8,1.938-36.181,5.866a172.821,172.821,0,0,0-26.491,7.514c-8.336,3.287-13.451,6.766-15.2,10.341l-1.093,2.233-.758-2.368c-.056-.175-5.673-17.694-12.213-35.267-3.835-10.306-7.232-18.611-10.095-24.684-4.713-10-6.881-11.55-7.594-11.754l.549-1.923c1.246.356,2.588,1.689,4.222,4.195a74.984,74.984,0,0,1,4.632,8.632c2.887,6.124,6.306,14.482,10.161,24.842,5.253,14.116,9.911,28.193,11.583,33.321a20.386,20.386,0,0,1,4.876-4.334,55.181,55.181,0,0,1,10.2-5.1,174.837,174.837,0,0,1,26.816-7.61c17.892-3.822,35.062-5.751,36.3-5.888a46.138,46.138,0,0,1,14.553-.879,105.528,105.528,0,0,1,17.169,2.966,248.577,248.577,0,0,1,36.585,12.8,463.694,463.694,0,0,1,42.895,21.177Z" transform="translate(-184.486 -292.567)" fill="#00accb" opacity="0.8"/>
    <path id="Path_845" data-name="Path 845" d="M444.74,407.108c-21.268-28.2-55.842-46.749-89.466-58.833l-.239.26c-10.529,11.45-19.147,22.526-19.233,22.637l-.594.766-.784-.57c-.137-.1-10.572-7.666-25.338-16.73a262.069,262.069,0,0,0-26.466,15.081c-13.932,9.221-22.456,17.79-25.335,25.467l-1.873-.7c1.6-4.257,4.8-8.768,9.527-13.41a112.336,112.336,0,0,1,16.584-13.026,260.475,260.475,0,0,1,25.556-14.635c-4.238-2.571-8.792-5.237-13.535-7.87a246.876,246.876,0,0,0-35.689-16.685,115.3,115.3,0,0,0-14.013-4.119c-11.187-1.029-18.023-1.263-18.105-1.265l-.1-1.991a50.629,50.629,0,0,1,15.458.666q1.5.268,3.069.612c2.38.22,4.954.475,7.7.771,9.285,1,18.686,2.271,27.94,3.772,11.569,1.876,22.942,4.12,33.8,6.671q11.668,2.74,22.584,5.952c12.029-5.13,23.132-9.406,31.04-12.335,7.554-2.8,13.39-4.817,16.343-5.819a16.876,16.876,0,0,1,2.2-.734l.557,1.92c-.023.007-.751.247-2.075.7-6.362,2.615-15.765,10.482-27.465,22.992a286.609,286.609,0,0,1,29.793,12.6,203.033,203.033,0,0,1,33.065,20.237,151.719,151.719,0,0,1,14.336,12.385A127.423,127.423,0,0,1,446.337,405.9ZM311.193,353.585c4.853,3,9.1,5.737,12.423,7.937,5.586,3.694,9.592,6.517,11.2,7.666,2.107-2.669,9.559-11.985,18.41-21.641-5.705-2.009-11.377-3.833-16.94-5.488-3.234,1.384-6.533,2.829-9.85,4.325Q318.39,350.014,311.193,353.585Zm-55.585-27.622q1.448.484,2.931,1.015A248.921,248.921,0,0,1,294.532,343.8c5.2,2.886,10.156,5.8,14.652,8.548q7.722-3.862,16.445-7.8c2.568-1.158,5.124-2.285,7.648-3.378-6.932-2-13.673-3.739-20.093-5.248A516.273,516.273,0,0,0,255.608,325.963Zm83.589,14.86q7.99,2.421,15.54,5.09a195.618,195.618,0,0,1,15.669-15.307q2.438-2.083,4.661-3.742c-2.148.77-4.551,1.643-7.158,2.609C360.516,332.211,350.323,336.13,339.2,340.823Z" transform="translate(-184.486 -291.383)" fill="#00accb" opacity="0.8"/>
    <circle id="Ellipse_65" data-name="Ellipse 65" cx="3.385" cy="3.385" r="3.385" transform="translate(37.899 27.706)" fill="#00accb"/>
    <circle id="Ellipse_66" data-name="Ellipse 66" cx="3.385" cy="3.385" r="3.385" transform="translate(68.478 100.067)" fill="#00accb"/>
    <circle id="Ellipse_67" data-name="Ellipse 67" cx="3.385" cy="3.385" r="3.385" transform="translate(198.145 27.239)" fill="#00accb"/>
    <circle id="Ellipse_68" data-name="Ellipse 68" cx="3.385" cy="3.385" r="3.385" transform="translate(257.668 111.739)" fill="#00accb"/>
    <circle id="Ellipse_69" data-name="Ellipse 69" cx="3.385" cy="3.385" r="3.385" transform="translate(147.142 75.791)" fill="#00accb"/>
  </g>
</svg>
