<svg id="Others" xmlns="http://www.w3.org/2000/svg" width="224.714" height="202.548" viewBox="0 0 224.714 202.548">
  <path id="Path_991" data-name="Path 991" d="M474.15,261.739a43.491,43.491,0,1,1,43.491-43.491A43.491,43.491,0,0,1,474.15,261.739Zm0-86.3a42.806,42.806,0,1,0,42.806,42.806A42.806,42.806,0,0,0,474.15,175.443Z" transform="translate(-388.331 -168.147)" fill="#f2f2f2"/>
  <path id="Path_992" data-name="Path 992" d="M566.693,328.232H594.58a.342.342,0,0,0,0-.685H566.693a.342.342,0,1,0,0,.685Z" transform="translate(-486.324 -268.614)" fill="#3f3d56"/>
  <path id="Path_993" data-name="Path 993" d="M652.215,326.547a8.79,8.79,0,0,0-8.779,8.78v37.233a8.789,8.789,0,0,0,8.779,8.779h57.779a8.789,8.789,0,0,0,8.779-8.779V335.327a8.79,8.79,0,0,0-8.779-8.78Z" transform="translate(-537.011 -267.957)" fill="#fff"/>
  <path id="Path_994" data-name="Path 994" d="M709.336,381.023H651.557a9.132,9.132,0,0,1-9.122-9.122V334.669a9.132,9.132,0,0,1,9.122-9.122h57.779a9.132,9.132,0,0,1,9.122,9.122V371.9a9.132,9.132,0,0,1-9.122,9.122Zm-57.779-54.791a8.447,8.447,0,0,0-8.437,8.437V371.9a8.447,8.447,0,0,0,8.437,8.437h57.779a8.446,8.446,0,0,0,8.437-8.437V334.669a8.446,8.446,0,0,0-8.437-8.437Z" transform="translate(-536.353 -267.299)" fill="#3f3d56"/>
  <path id="Path_995" data-name="Path 995" d="M526.337,320.082a3.366,3.366,0,0,0-2.754,3.8,3.216,3.216,0,0,0,.128.518l-17.227,15.183,6.381,4.47,15.225-17.735a3.357,3.357,0,0,0,2-3.574,3.212,3.212,0,0,0-3.67-2.677Z" transform="translate(-446.958 -263.67)" fill="#e5b29b"/>
  <path id="Path_996" data-name="Path 996" d="M459.274,359.244s-3.887,4.476-8.619,9.544c-.329.349-.658.7-1,1.058-2.877,3.048-5.976,6.212-8.664,8.667-2.866,2.627-5.267,4.455-6.431,4.5a.845.845,0,0,1-.288-.031c-3.483-1.048-.613.2-2.1,2.325s-1.311-.664-4.664-2.325-1.565-.01-2.9,2.613c-.414.822-4.051.654-8.845.038-.541-4.572-1.329-8.517-1.329-8.517a38.911,38.911,0,0,1,.836-8.161c8.352-.151,15.259-.236,15.612-.127.911.277,2.87-.425,5.034-1.647.308-.175.89-.579,1.661-1.147.681-.5,1.5-1.123,2.418-1.822,1.027-.794,2.777-1.229,3.346-2.613,1.651-3.993,1.086-1.014,1.527-1.2a16.142,16.142,0,0,0,1.914-.6.688.688,0,0,0,.4-.757,1.4,1.4,0,0,0-.13-.373c-.473-.949.247-1.041.925-1.14a1.761,1.761,0,0,0,.8-.236c2.722-2.171,4.784-3.839,4.784-3.839l.74.753,0,0,4.376,4.431Z" transform="translate(-386.43 -285.651)" fill="#de7f7f"/>
  <path id="Path_997" data-name="Path 997" d="M444.921,638.731H401.644c-1.852,0-3.36-1.9-3.36-4.241V588.5c0-2.338,1.507-4.241,3.36-4.241h43.278c1.853,0,3.36,1.9,3.36,4.241V634.49C448.281,636.828,446.774,638.731,444.921,638.731Z" transform="translate(-375.81 -437.418)" fill="#ec5b5b"/>
  <path id="Path_998" data-name="Path 998" d="M332.66,742.057a.469.469,0,0,0,.408.515H515.348a.528.528,0,0,0,0-1.029H333.068A.469.469,0,0,0,332.66,742.057Z" transform="translate(-332.657 -540.839)" fill="#ccc"/>
  <path id="Path_999" data-name="Path 999" d="M289.563,536.926h4.363L296,520.1h-6.44Z" transform="translate(-190.4 -341.991)" fill="#e5b29b"/>
  <path id="Path_1000" data-name="Path 1000" d="M621.781,724.063H635.2v-.17a5.223,5.223,0,0,0-5.223-5.223h0l-2.451-1.859-4.573,1.86h-1.171Z" transform="translate(-522.771 -524.576)" fill="#2f2e41"/>
  <path id="Path_1001" data-name="Path 1001" d="M210.422,532.276l4.2,1.182,6.56-15.638-6.2-1.745Z" transform="translate(-138.361 -339.347)" fill="#e5b29b"/>
  <path id="Path_1002" data-name="Path 1002" d="M539.052,721.1l12.916,3.636.046-.163a5.223,5.223,0,0,0-3.612-6.443h0l-1.855-2.454-4.906.551-1.128-.318Z" transform="translate(-468.373 -523.827)" fill="#2f2e41"/>
  <path id="Path_1003" data-name="Path 1003" d="M451.1,488.445s-1.4-.139,2.185,1.1c3.876,1.346,9.76,1.171,15.393,3.192,1.74.623,3.5,1.26,5.253,1.9.353.127.705.257,1.058.383,2.277.832,4.517,1.664,6.633,2.459l.884.336c.007,0,.014,0,.017.007,6.9,2.623,12.328,4.87,13.225,5.767.959.959,1.356,7.438,1.466,15.444.2,14.838-.586,34.926-.586,34.926l-8.071-.031s-.051-.178-.151-.51c-.178-.613-.51-1.753-.952-3.243-1.836-6.222-5.53-18.554-7.571-24.2a13.025,13.025,0,0,0-1.257-2.9c-1.37-1.4,0-2.024,1.37-2.914s0-1.164-1.007-2.329.377-3.787.377-3.787L477,513.983c-2.144-.055-5.479-.137-8.818-.219,0,0,0,0,0,0-1.257-.031-2.514-.062-3.705-.089-.925-.024-1.812-.044-2.633-.065-2.462-.055-4.325-.092-4.791-.092-1.52,0-.339,0-1.257-1.2a5.368,5.368,0,0,0-.455-.51,5.922,5.922,0,0,0-.753-.705c-.192-.089.069.462-.075,1.178a2.162,2.162,0,0,1-.531,1.038c-1.359,1.51-5.531-.12-5.531-.12-6.863,3.431-12.492,3.185-16.828,1.579a21.575,21.575,0,0,1-8.161-5.568,20.374,20.374,0,0,1-2.39-3.048l-.565-.106s-.76-25.473.116-27.195c1.366-2.685,21.574-.685,21.574-.685Z" transform="translate(-390.223 -367.188)" fill="#2f2e41"/>
  <path id="Path_1004" data-name="Path 1004" d="M619.694,207.232H647.58a.342.342,0,0,0,0-.685H619.694a.342.342,0,1,0,0,.685Z" transform="translate(-506.528 -189.05)" fill="#3f3d56"/>
  <path id="Path_1005" data-name="Path 1005" d="M11.788,45.224C4.5,35.532.29,24.694.152,12.339a2.666,2.666,0,0,1,1.622-3.4L26.61.152a2.666,2.666,0,0,1,3.4,1.622L41.644,34.66a2.666,2.666,0,0,1-1.622,3.4L15.187,46.846A2.666,2.666,0,0,1,11.788,45.224Z" transform="matrix(0.921, 0.391, -0.391, 0.921, 186.239, 6.611)" fill="#e6e6e6"/>
  <path id="Path_1006" data-name="Path 1006" d="M7.623,32.019C3.241,27.589,1.365,19.686.143,10.878A2.5,2.5,0,0,1,1.662,7.695L23.006.143a2.5,2.5,0,0,1,3.183,1.519L36.543,30.925a2.5,2.5,0,0,1-1.519,3.183L21.8,38.787A11.122,11.122,0,0,1,7.623,32.019Z" transform="matrix(0.921, 0.391, -0.391, 0.921, 187.577, 10.001)" fill="#fff"/>
  <path id="Path_1007" data-name="Path 1007" d="M18.042,2.057,1.416,7.992A1.059,1.059,0,1,1,.7,6L17.33.062a1.059,1.059,0,0,1,.712,2Z" transform="matrix(0.921, 0.391, -0.391, 0.921, 187.807, 26.795)" fill="#56537b"/>
  <path id="Path_1008" data-name="Path 1008" d="M5.073,2.057,1.416,3.363a1.059,1.059,0,0,1-.712-2L4.361.062a1.059,1.059,0,0,1,.712,2Z" transform="matrix(0.921, 0.391, -0.391, 0.921, 184.674, 24.551)" fill="#59a57d"/>
  <path id="Path_1009" data-name="Path 1009" d="M18.042,2.057,1.416,7.992A1.059,1.059,0,1,1,.7,6L17.33.062a1.059,1.059,0,1,1,.712,2Z" transform="matrix(0.921, 0.391, -0.391, 0.921, 187.658, 36.261)" fill="#c4a26f"/>
  <path id="Path_1010" data-name="Path 1010" d="M18.042,2.057,1.416,7.992A1.059,1.059,0,0,1,.7,6L17.33.062a1.059,1.059,0,1,1,.712,2Z" transform="matrix(0.921, 0.391, -0.391, 0.921, 187.733, 31.528)" fill="#f88"/>
  <circle id="Ellipse_89" data-name="Ellipse 89" cx="3.424" cy="3.424" r="3.424" transform="translate(140.939 15.785)" fill="#f88"/>
  <path id="Path_1011" data-name="Path 1011" d="M472.316,188.232H444.429a.342.342,0,1,1,0-.685h27.886a.342.342,0,0,1,0,.685Z" transform="translate(-400.433 -176.557)" fill="#3f3d56"/>
  <path id="Path_1012" data-name="Path 1012" d="M339.165,179.276a42.374,42.374,0,0,1,14.491-22.863,2.069,2.069,0,0,1,2.852-.639l17.267,10.944a2.069,2.069,0,0,1,.639,2.852l-14.491,22.863a2.069,2.069,0,0,1-2.852.639L339.8,182.127A2.069,2.069,0,0,1,339.165,179.276Z" transform="translate(-336.726 -155.453)" fill="#e6e6e6"/>
  <path id="Path_1013" data-name="Path 1013" d="M353.862,177.356c.6-4.8,4.527-9.731,9.316-14.7a1.937,1.937,0,0,1,2.671-.6l14.839,9.405a1.937,1.937,0,0,1,.6,2.671l-12.9,20.345a1.938,1.938,0,0,1-2.671.6l-9.193-5.826A8.63,8.63,0,0,1,353.862,177.356Z" transform="translate(-345.722 -159.6)" fill="#fff"/>
  <path id="Path_1014" data-name="Path 1014" d="M385.828,203.539l-11.591-7.3a.822.822,0,1,1,.876-1.391l11.591,7.3a.822.822,0,1,1-.876,1.391Z" transform="translate(-359.746 -181.273)" fill="#f88"/>
  <path id="Path_1015" data-name="Path 1015" d="M383.8,186.707l-2.55-1.606a.822.822,0,1,1,.876-1.391l2.55,1.606a.822.822,0,1,1-.876,1.391Z" transform="translate(-364.359 -173.95)" fill="#c8d4ce"/>
  <path id="Path_1016" data-name="Path 1016" d="M374.579,221.4l-11.591-7.3a.822.822,0,1,1,.876-1.391l11.591,7.3a.822.822,0,1,1-.876,1.391Z" transform="translate(-352.349 -193.015)" fill="#6c63ff"/>
  <path id="Path_1017" data-name="Path 1017" d="M380.2,212.468l-11.591-7.3a.822.822,0,0,1,.876-1.391l11.591,7.3a.822.822,0,0,1-.876,1.391Z" transform="translate(-356.047 -187.144)" fill="#46436a"/>
  <circle id="Ellipse_90" data-name="Ellipse 90" cx="3.424" cy="3.424" r="3.424" transform="translate(37.189 9.278)" fill="#f88"/>
  <circle id="Ellipse_91" data-name="Ellipse 91" cx="3.424" cy="3.424" r="3.424" transform="translate(106.767 57.221)" fill="#f88"/>
  <path id="Path_1018" data-name="Path 1018" d="M552.909,549.506c-1.428,7.78-7.479,26.016-11.136,36.69-1.668,4.876-1.8,3.041-1.8,3.041l-1.9-.6-3.205-1.014-1.171-.37-1.418-.448s-.7-12.4-.918-21.708a27.48,27.48,0,0,0-.421-5.568c-.89-1.746.6-1.931,2.171-2.373s.346-1.106-.267-2.524c-.414-.945.4-2.2.979-2.921a7.073,7.073,0,0,1,.51-.579s-4.007-1.363-8.537-2.9c0,0,0,0,0,0-.456-.154-.914-.308-1.373-.466a13.034,13.034,0,0,0,2.9-1.257c1.4-1.37,2.024,0,2.914,1.37s1.164,0,2.329-1.007,3.787.377,3.787.377.024-.911.062-2.363c.055-2.144.137-5.479.219-8.818,0,0,0,0,0,0,.031-1.257.062-2.514.089-3.705,2.414,1.849,4.756,3.664,6.88,5.342,0,0,.01.007.01.014,5.106,4.034,8.938,7.273,9.475,8.3C553.32,546.482,553.238,547.719,552.909,549.506Z" transform="translate(-458.748 -403.29)" fill="#2f2e41"/>
  <path id="Path_1019" data-name="Path 1019" d="M445.845,407.16l-1.26.818-3.226,2.1-4.377,2.839-23.327,15.136s-2.883-5.876-.243-10.986a11.3,11.3,0,0,0,.825-2.024c1.068-3.664-.986-5.253-.986-5.253s-3.424-3.332-.14-6.4a5.9,5.9,0,0,0,1.223-3.579,48.472,48.472,0,0,0-.377-9.811c-.541-4.572-1.329-8.517-1.329-8.517a38.91,38.91,0,0,1,.836-8.16,23.707,23.707,0,0,1,3.123-7.917,15.06,15.06,0,0,1,1.88-2.356,12.175,12.175,0,0,1,3.407-2.455c1.9-.918,5.168-.366,8.044.034.579.079,1.14.154,1.671.209a14.961,14.961,0,0,0,1.586.1l1.192,4.349.452,1.647.226.825.514,1.877.212.767,3.418,12.479,2.791,10.177,1.541,5.623,2.3,8.407Z" transform="translate(-384.623 -290.011)" fill="#de7f7f"/>
  <circle id="Ellipse_92" data-name="Ellipse 92" cx="10.395" cy="10.395" r="10.395" transform="translate(31.735 47.134)" fill="#e5b29b"/>
  <path id="Path_1020" data-name="Path 1020" d="M429.921,301.2l-.847,2.708a23.38,23.38,0,0,1-5.344-3.263,7.88,7.88,0,0,1-2.847-5.407,24.786,24.786,0,0,0,.044-3.237,31.92,31.92,0,0,0-1.287-3.423,5.46,5.46,0,0,1,2.946-6.3c1.723-.757,3.693-.545,5.567-.728s3.963-1.03,4.49-2.837c.2-.676.175-1.472.778-1.914a1.477,1.477,0,0,1,1.955.283c.882,1,.665,2.321.434,3.52a8.794,8.794,0,0,0,6.079-3.7,3.407,3.407,0,0,1,.135,4.84,2.627,2.627,0,0,0,2.556-2.016,8.444,8.444,0,0,1,1.684,3.226,2.886,2.886,0,0,1-1.3,3.154,4.221,4.221,0,0,1-1.77.29l-4.619.088a5.29,5.29,0,0,0-5.189,5.22h0a7.805,7.805,0,0,0-4,.311,3.069,3.069,0,0,0-1.426,1.225c-.84,1.443-.007,2.942.732,4.254.631,1.122,1.23,2.472.706,3.648" transform="translate(-389.739 -235.076)" fill="#514035"/>
  <path id="Path_1021" data-name="Path 1021" d="M548.917,586.949l-19.272-6.819a2.069,2.069,0,0,1-1.259-2.637l9.029-25.518a2.069,2.069,0,0,1,2.638-1.259l19.272,6.819a2.069,2.069,0,0,1,1.259,2.637,42.374,42.374,0,0,1-9.029,25.518A2.069,2.069,0,0,1,548.917,586.949Z" transform="translate(-461.282 -415.282)" fill="#e6e6e6"/>
  <path id="Path_1022" data-name="Path 1022" d="M545.609,586.581l-10.26-3.63a1.937,1.937,0,0,1-1.179-2.47l8.035-22.708a1.937,1.937,0,0,1,2.47-1.179l16.563,5.86a1.938,1.938,0,0,1,1.179,2.47c-.949,6.835-2.4,12.967-5.8,16.406A8.63,8.63,0,0,1,545.609,586.581Z" transform="translate(-465.09 -419.152)" fill="#fff"/>
  <path id="Path_1023" data-name="Path 1023" d="M555.652,591.856a.823.823,0,0,1,1.051-.5l12.9,4.605a.822.822,0,0,1-.553,1.548l-12.9-4.605A.823.823,0,0,1,555.652,591.856Z" transform="translate(-479.257 -442.053)" fill="#6c63ff"/>
  <path id="Path_1024" data-name="Path 1024" d="M589.464,589.949a.823.823,0,0,1,1.05-.5l2.838,1.013a.822.822,0,0,1-.553,1.548L589.962,591A.823.823,0,0,1,589.464,589.949Z" transform="translate(-501.49 -440.799)" fill="#d6af2d"/>
  <path id="Path_1025" data-name="Path 1025" d="M548.557,611.732a.823.823,0,0,1,1.05-.5l12.9,4.605a.822.822,0,0,1-.553,1.548l-12.9-4.605A.823.823,0,0,1,548.557,611.732Z" transform="translate(-474.592 -455.123)" fill="#6c63ff"/>
  <path id="Path_1026" data-name="Path 1026" d="M552.1,601.794a.823.823,0,0,1,1.05-.5l12.9,4.605a.822.822,0,1,1-.553,1.548l-12.9-4.605A.823.823,0,0,1,552.1,601.794Z" transform="translate(-476.924 -448.588)" fill="#6c63ff"/>
  <path id="Path_1027" data-name="Path 1027" d="M522.846,518.387a3.366,3.366,0,0,0-4.088-2.307,3.23,3.23,0,0,0-.5.186l-17.034-15.4-3.719,6.846,19.344,13.121a3.356,3.356,0,0,0,3.778,1.587,3.212,3.212,0,0,0,2.245-3.949C522.863,518.443,522.855,518.415,522.846,518.387Z" transform="translate(-441.053 -382.582)" fill="#e5b29b"/>
  <path id="Path_1028" data-name="Path 1028" d="M464.78,414.933l-.664.822-3.911,4.852-.527.658s-5.585-3.835-11.623-8.352c-7.246-5.428-15.143-11.842-14.79-13.8.647-3.579-.267-.589-2.551-1.829s.514-1.377,1.784-4.894-.164-1.558-2.921-2.585c-1.839-.685-.877-16.4-.038-26.766a12.174,12.174,0,0,1,3.407-2.455c2.284-1.1,6.534-.086,9.715.243,1.8,13.277,4.4,32.7,4.284,33.31-.178.935.747,2.8,2.205,4.815.685.952,4.216,4.572,7.746,8.126C460.835,411.046,464.78,414.933,464.78,414.933Z" transform="translate(-395.696 -290.011)" fill="#de7f7f"/>
  <path id="Path_1029" data-name="Path 1029" d="M708.455,374.516H672.2a.782.782,0,1,1,0-1.564h36.257a.782.782,0,1,1,0,1.564Z" transform="translate(-555.409 -298.471)" fill="#6c63ff"/>
  <path id="Path_1030" data-name="Path 1030" d="M726.809,395.39H672.2a.782.782,0,1,1,0-1.564h54.611a.782.782,0,1,1,0,1.564Z" transform="translate(-555.409 -312.197)" fill="#3a6b1e"/>
  <path id="Path_1031" data-name="Path 1031" d="M726.806,414.7H672.193a.782.782,0,0,0,0,1.565h54.613a.782.782,0,0,0,0-1.565Z" transform="translate(-555.406 -325.921)" fill="#ab9472"/>
  <path id="Path_1032" data-name="Path 1032" d="M726.809,437.139H672.2a.782.782,0,1,1,0-1.564h54.611a.782.782,0,1,1,0,1.564Z" transform="translate(-555.409 -339.649)" fill="#b2c8e9"/>
  <path id="Path_1033" data-name="Path 1033" d="M.32,23.823A42.374,42.374,0,0,1,14.811.96,2.069,2.069,0,0,1,17.663.32L34.93,11.264a2.069,2.069,0,0,1,.639,2.852L21.078,36.979a2.069,2.069,0,0,1-2.852.639L.96,26.674A2.069,2.069,0,0,1,.32,23.823Z" transform="matrix(0.438, -0.899, 0.899, 0.438, 173.245, 185.917)" fill="#e6e6e6"/>
  <path id="Path_1034" data-name="Path 1034" d="M1.337,15.6c.6-4.8,4.527-9.731,9.316-14.7A1.937,1.937,0,0,1,13.324.3L28.163,9.706a1.937,1.937,0,0,1,.6,2.671l-12.9,20.345a1.938,1.938,0,0,1-2.671.6L4,27.493A8.63,8.63,0,0,1,1.337,15.6Z" transform="matrix(0.438, -0.899, 0.899, 0.438, 177.239, 182.653)" fill="#fff"/>
  <path id="Path_1035" data-name="Path 1035" d="M11.975,8.819.384,1.518A.822.822,0,1,1,1.26.127l11.591,7.3a.822.822,0,1,1-.876,1.391Z" transform="matrix(0.438, -0.899, 0.899, 0.438, 190.586, 181.037)" fill="#63bbff"/>
  <path id="Path_1036" data-name="Path 1036" d="M2.934,3.124.384,1.518A.822.822,0,0,1,1.26.127L3.81,1.733a.822.822,0,1,1-.876,1.391Z" transform="matrix(0.438, -0.899, 0.899, 0.438, 188.211, 177.206)" fill="#f88"/>
  <path id="Path_1037" data-name="Path 1037" d="M11.975,8.819.384,1.518A.822.822,0,1,1,1.26.127l11.591,7.3a.822.822,0,0,1-.876,1.391Z" transform="matrix(0.438, -0.899, 0.899, 0.438, 194.393, 187.179)" fill="#c18861"/>
  <path id="Path_1038" data-name="Path 1038" d="M11.975,8.819.384,1.518A.822.822,0,0,1,1.26.127l11.591,7.3a.822.822,0,0,1-.876,1.391Z" transform="matrix(0.438, -0.899, 0.899, 0.438, 192.49, 184.108)" fill="#6378ff"/>
</svg>
