<svg xmlns="http://www.w3.org/2000/svg" width="250.103" height="178.966" viewBox="0 0 250.103 178.966">
  <g id="UXID" transform="translate(0.75)">
    <path id="Path_235" data-name="Path 235" d="M444.88,157.128v116.8a5.248,5.248,0,0,1-5.248,5.246H392.214a5.239,5.239,0,0,1-5.248-5.246v-116.8a5.248,5.248,0,0,1,5.248-5.248h7.1v.911a4.321,4.321,0,0,0,4.321,4.321h24.115a4.321,4.321,0,0,0,4.321-4.321v-.911h7.563A5.246,5.246,0,0,1,444.88,157.128Z" transform="translate(-291.506 -100.956)" fill="#cd94ff"/>
    <path id="Path_235_-_Outline" data-name="Path 235 - Outline" d="M392.214,151.13h7.847v1.661a3.575,3.575,0,0,0,3.571,3.571h24.115a3.575,3.575,0,0,0,3.571-3.571V151.13h8.314a6,6,0,0,1,6,6v116.8a6.006,6.006,0,0,1-6,6H392.206a5.95,5.95,0,0,1-4.234-1.753,6.03,6.03,0,0,1-1.755-4.244v-116.8A6,6,0,0,1,392.214,151.13Zm47.417,127.291a4.5,4.5,0,0,0,4.5-4.5v-116.8a4.5,4.5,0,0,0-4.5-4.5v0h-6.813v.161a5.077,5.077,0,0,1-5.071,5.071H403.633a5.077,5.077,0,0,1-5.071-5.071v-.161h-6.347a4.5,4.5,0,0,0-4.5,4.5v116.8a4.52,4.52,0,0,0,1.315,3.182,4.46,4.46,0,0,0,3.174,1.314Z" transform="translate(-291.506 -100.956)" fill="#434343"/>
    <rect id="Rectangle_91" data-name="Rectangle 91" width="53.754" height="26.182" transform="translate(97.543 70.445)" fill="#3f3d56"/>
    <path id="Path_236" data-name="Path 236" d="M466.594,254.359c1.407,5.2,6.227,8.423,6.227,8.423s2.538-5.212,1.131-10.414-6.227-8.423-6.227-8.423S465.186,249.158,466.594,254.359Z" transform="translate(-347.407 -165.936)" fill="#c383d2"/>
    <path id="Path_237" data-name="Path 237" d="M451.49,265.767c3.861,3.759,4.333,9.537,4.333,9.537s-5.789-.316-9.65-4.075-4.333-9.537-4.333-9.537S447.629,262.008,451.49,265.767Z" transform="translate(-330.236 -178.462)" fill="#8eb291"/>
    <path id="Path_238" data-name="Path 238" d="M492.453,254.359c-1.407,5.2-6.227,8.423-6.227,8.423s-2.538-5.212-1.131-10.414,6.227-8.423,6.227-8.423S493.861,249.158,492.453,254.359Z" transform="translate(-360.466 -165.936)" fill="#c383d2"/>
    <path id="Path_239" data-name="Path 239" d="M493.7,265.767c-3.861,3.759-4.333,9.537-4.333,9.537s5.789-.316,9.65-4.075,4.333-9.537,4.333-9.537S497.563,262.008,493.7,265.767Z" transform="translate(-363.783 -178.462)" fill="#8eb291"/>
    <rect id="Rectangle_92" data-name="Rectangle 92" width="44.139" height="2.423" transform="translate(102.351 111.289)" fill="#f0f0f0"/>
    <rect id="Rectangle_93" data-name="Rectangle 93" width="44.139" height="2.423" transform="translate(102.351 115.193)" fill="#f0f0f0"/>
    <rect id="Rectangle_94" data-name="Rectangle 94" width="44.139" height="2.423" transform="translate(102.351 119.096)" fill="#f0f0f0"/>
    <rect id="Rectangle_95" data-name="Rectangle 95" width="44.139" height="2.423" transform="translate(102.351 123)" fill="#f0f0f0"/>
    <rect id="Rectangle_96" data-name="Rectangle 96" width="12.048" height="12.048" transform="matrix(0.815, 0.579, -0.579, 0.815, 122.992, 136.905)" fill="#f0f0f0"/>
    <path id="Path_240" data-name="Path 240" d="M483.266,496.51a2.78,2.78,0,1,1,2.781-2.78A2.78,2.78,0,0,1,483.266,496.51Zm0-5.1a2.317,2.317,0,1,0,2.317,2.317,2.317,2.317,0,0,0-2.317-2.317Z" transform="translate(-357.512 -340.273)" fill="#3f3d56"/>
    <path id="Path_241" data-name="Path 241" d="M120.4,72.07v116.8a5.248,5.248,0,0,1-5.248,5.246H67.733a5.239,5.239,0,0,1-5.248-5.246V72.07a5.248,5.248,0,0,1,5.248-5.248h7.1v.911a4.321,4.321,0,0,0,4.321,4.321h24.115a4.321,4.321,0,0,0,4.321-4.321v-.911h7.563A5.246,5.246,0,0,1,120.4,72.07Z" transform="translate(-62.485 -40.921)" fill="#fff"/>
    <path id="Path_241_-_Outline" data-name="Path 241 - Outline" d="M67.733,66.072H75.58v1.661A3.575,3.575,0,0,0,79.151,71.3h24.115a3.571,3.571,0,0,0,3.571-3.571V66.072h8.314a6,6,0,0,1,6,6v116.8a6.006,6.006,0,0,1-6,6H67.724a5.989,5.989,0,0,1-5.989-6V72.07A6,6,0,0,1,67.733,66.072ZM115.15,193.363a4.5,4.5,0,0,0,4.5-4.5V72.07a4.5,4.5,0,0,0-4.5-4.5v0h-6.813v.161a5.071,5.071,0,0,1-5.071,5.071H79.151a5.077,5.077,0,0,1-5.071-5.071v-.161H67.733a4.5,4.5,0,0,0-4.5,4.5v116.8a4.489,4.489,0,0,0,4.489,4.5Z" transform="translate(-62.485 -40.921)" fill="#434343"/>
    <path id="Path_242" data-name="Path 242" d="M127.719,184.1H81.379V142.627h46.34Zm-45.877-.463h45.413V143.09H81.842Z" transform="translate(-75.82 -94.425)" fill="#3f3d56"/>
    <rect id="Rectangle_97" data-name="Rectangle 97" width="0.463" height="61.535" transform="translate(5.636 48.606) rotate(-48.206)" fill="#3f3d56"/>
    <rect id="Rectangle_98" data-name="Rectangle 98" width="61.535" height="0.463" transform="translate(5.635 89.272) rotate(-41.794)" fill="#3f3d56"/>
    <rect id="Rectangle_99" data-name="Rectangle 99" width="45.877" height="0.463" transform="translate(5.79 101.725)" fill="#3f3d56"/>
    <rect id="Rectangle_100" data-name="Rectangle 100" width="45.877" height="0.463" transform="translate(5.79 105.895)" fill="#3f3d56"/>
    <rect id="Rectangle_101" data-name="Rectangle 101" width="45.877" height="0.463" transform="translate(5.79 110.066)" fill="#3f3d56"/>
    <rect id="Rectangle_102" data-name="Rectangle 102" width="22.938" height="0.463" transform="translate(5.79 114.237)" fill="#3f3d56"/>
    <rect id="Rectangle_103" data-name="Rectangle 103" width="22.938" height="0.463" transform="translate(5.79 118.407)" fill="#3f3d56"/>
    <path id="Path_243" data-name="Path 243" d="M768.574,72.07v116.8a5.248,5.248,0,0,1-5.248,5.246H715.908a5.239,5.239,0,0,1-5.248-5.246V72.07a5.248,5.248,0,0,1,5.248-5.248h7.1v.911a4.321,4.321,0,0,0,4.321,4.321h24.115a4.321,4.321,0,0,0,4.321-4.321v-.911h7.563A5.246,5.246,0,0,1,768.574,72.07Z" transform="translate(-519.971 -40.921)" fill="#fff"/>
    <path id="Path_243_-_Outline" data-name="Path 243 - Outline" d="M715.908,66.072h7.847v1.661a3.575,3.575,0,0,0,3.571,3.571h24.115a3.575,3.575,0,0,0,3.571-3.571V66.072h8.314a6,6,0,0,1,6,6v116.8a6.006,6.006,0,0,1-6,6H715.9a5.95,5.95,0,0,1-4.234-1.753,6.029,6.029,0,0,1-1.755-4.244V72.07A6,6,0,0,1,715.908,66.072Zm47.418,127.291a4.5,4.5,0,0,0,4.5-4.5V72.07a4.5,4.5,0,0,0-4.5-4.5v0h-6.813v.161a5.077,5.077,0,0,1-5.071,5.071H727.327a5.077,5.077,0,0,1-5.071-5.071v-.161h-6.347a4.5,4.5,0,0,0-4.5,4.5v116.8a4.52,4.52,0,0,0,1.315,3.182,4.46,4.46,0,0,0,3.174,1.314Z" transform="translate(-519.971 -40.921)" fill="#434343"/>
    <rect id="Rectangle_104" data-name="Rectangle 104" width="45.877" height="0.463" transform="translate(196.943 85.737)" fill="#3f3d56"/>
    <rect id="Rectangle_105" data-name="Rectangle 105" width="45.877" height="0.463" transform="translate(196.943 97.786)" fill="#3f3d56"/>
    <rect id="Rectangle_106" data-name="Rectangle 106" width="45.877" height="0.463" transform="translate(196.943 109.834)" fill="#3f3d56"/>
    <circle id="Ellipse_9" data-name="Ellipse 9" cx="7.532" cy="7.532" r="7.532" transform="translate(211.125 53.083)" fill="#d96bd3"/>
    <rect id="Rectangle_107" data-name="Rectangle 107" width="3.244" height="7.414" transform="translate(231.234 83.652)" fill="#470137"/>
    <rect id="Rectangle_108" data-name="Rectangle 108" width="3.244" height="7.414" transform="translate(202.735 95.469)" fill="#470137"/>
    <rect id="Rectangle_109" data-name="Rectangle 109" width="3.244" height="7.414" transform="translate(221.735 107.286)" fill="#470137"/>
    <path id="Path_244" data-name="Path 244" d="M786.853,169.038a9.268,9.268,0,1,1,9.268-9.268A9.268,9.268,0,0,1,786.853,169.038Zm0-18.073a8.8,8.8,0,1,0,8.8,8.8,8.8,8.8,0,0,0-8.8-8.8Z" transform="translate(-567.207 -99.983)" fill="#3f3d56"/>
    <rect id="Rectangle_110" data-name="Rectangle 110" width="0.588" height="29.201" transform="translate(63.72 87.547) rotate(-39.546)" fill="#3f3d56"/>
    <path id="Path_245" data-name="Path 245" d="M337.871,348a17.781,17.781,0,0,0-5.36-2.1l2.8-1,1.513-2.562A17.759,17.759,0,0,0,337.871,348Z" transform="translate(-253.071 -235.381)" fill="#3f3d56"/>
    <rect id="Rectangle_111" data-name="Rectangle 111" width="29.201" height="0.589" transform="translate(165.614 109.692) rotate(-50.466)" fill="#3f3d56"/>
    <path id="Path_246" data-name="Path 246" d="M618.506,347.995a17.782,17.782,0,0,0,1.044-5.66l1.513,2.562,2.8,1A17.763,17.763,0,0,0,618.506,347.995Z" transform="translate(-454.928 -235.38)" fill="#3f3d56"/>
    <g id="Layer_2_1_" transform="translate(107.015 0)">
      <g id="Surfaces" transform="translate(0 0)">
        <g id="UI_UX_Surface">
          <g id="Outline_no_shadow">
            <path id="Path_247" data-name="Path 247" d="M6.088,0h22.2a6.083,6.083,0,0,1,6.088,6.088V27.431a6.083,6.083,0,0,1-6.088,6.088H6.088A6.083,6.083,0,0,1,0,27.431V6.088A6.083,6.083,0,0,1,6.088,0Z" transform="translate(0 0)" fill="#470137"/>
          </g>
        </g>
      </g>
      <g id="Outlined_Mnemonics_Logos" transform="translate(5.008 7.346)">
        <g id="Xd">
          <path id="Path_248" data-name="Path 248" d="M48.03,60.215l-4.3,7.091,4.584,7.52a.247.247,0,0,1,.029.172c-.014.057-.072.014-.158.029h-3.28c-.229,0-.387-.014-.487-.158-.3-.6-.616-1.189-.917-1.791s-.63-1.189-.974-1.8-.688-1.232-1.031-1.862H41.47c-.3.616-.63,1.232-.96,1.848s-.659,1.232-.974,1.834-.659,1.218-.988,1.8c-.057.143-.172.158-.329.158H35.067c-.057,0-.1.029-.1-.043A.2.2,0,0,1,35,74.854l4.455-7.305L35.11,60.2c-.043-.057-.057-.115-.029-.143A.166.166,0,0,1,35.224,60h3.252a.845.845,0,0,1,.2.029.406.406,0,0,1,.143.129c.272.616.587,1.232.917,1.848s.673,1.218,1.031,1.819.659,1.2.96,1.819h.029c.3-.63.616-1.246.931-1.848s.645-1.2.974-1.8.645-1.218.96-1.8a.244.244,0,0,1,.086-.143.273.273,0,0,1,.186-.029h3.022a.132.132,0,0,1,.158.1c.014.014-.014.072-.043.1Z" transform="translate(-34.961 -58.752)" fill="#ff61f6"/>
          <path id="Path_249" data-name="Path 249" d="M136.327,67.86a7.122,7.122,0,0,1-3.08-.645,4.994,4.994,0,0,1-2.163-1.948A6.2,6.2,0,0,1,130.3,62a5.883,5.883,0,0,1,.788-3.022,5.948,5.948,0,0,1,2.278-2.22,7.327,7.327,0,0,1,3.624-.831,2.556,2.556,0,0,1,.3.014c.129.014.272.014.444.029V51.444c0-.1.043-.158.143-.158h2.908a.128.128,0,0,1,.143.1V65.052c0,.258.014.544.029.859s.043.587.057.831a.233.233,0,0,1-.143.229,10.939,10.939,0,0,1-2.335.688A12.635,12.635,0,0,1,136.327,67.86Zm1.4-2.865v-6.3a3.665,3.665,0,0,0-.387-.072c-.158-.014-.315-.029-.473-.029a3.531,3.531,0,0,0-1.619.372,3.211,3.211,0,0,0-1.218,1.06,3.175,3.175,0,0,0-.473,1.819,3.991,3.991,0,0,0,.244,1.475,2.8,2.8,0,0,0,.645,1.017,2.475,2.475,0,0,0,.974.573,3.75,3.75,0,0,0,1.189.186c.215,0,.415-.014.6-.029A1.253,1.253,0,0,0,137.731,64.995Z" transform="translate(-116.64 -51.284)" fill="#ff61f6"/>
        </g>
      </g>
    </g>
  </g>
</svg>
