<svg width="512" height="512" viewBox="0 0 512 512" fill="none" xmlns="http://www.w3.org/2000/svg">
<path d="M406.333 298.213H101.694C99.614 298.21 97.6203 297.382 96.1498 295.91C94.6793 294.438 93.8522 292.443 93.8498 290.361V102.322C93.8515 100.797 94.4575 99.335 95.5348 98.2566C96.612 97.1782 98.0726 96.5716 99.5961 96.5698H408.331C409.881 96.5716 411.367 97.1887 412.463 98.2857C413.559 99.3828 414.175 100.87 414.177 102.422V290.361C414.175 292.443 413.348 294.438 411.877 295.91C410.407 297.382 408.413 298.21 406.333 298.213Z" fill="#2E2E2E"/>
<path d="M395.22 287.093H111.304C107.142 287.093 103.756 283.919 103.756 280.018V116.271C103.756 113.378 106.265 111.024 109.349 111.024H397.082C400.218 111.024 402.768 113.417 402.768 116.358V280.018C402.768 283.919 399.382 287.093 395.22 287.093Z" fill="#EAEAEA"/>
<path d="M414.068 101.873H93.7397V97.8754C93.7428 95.7868 94.5733 93.7847 96.0491 92.3083C97.5249 90.8319 99.5255 90.0017 101.612 90H406.196C408.282 90.0017 410.283 90.8318 411.759 92.3083C413.234 93.7847 414.065 95.7868 414.068 97.8754V101.873Z" fill="#3675A8"/>
<path d="M108.046 97.9868C109.171 97.9868 110.083 97.0742 110.083 95.9485C110.083 94.8227 109.171 93.9102 108.046 93.9102C106.922 93.9102 106.01 94.8227 106.01 95.9485C106.01 97.0742 106.922 97.9868 108.046 97.9868Z" fill="#D80000"/>
<path d="M115.775 97.9868C116.9 97.9868 117.812 97.0742 117.812 95.9485C117.812 94.8227 116.9 93.9102 115.775 93.9102C114.651 93.9102 113.739 94.8227 113.739 95.9485C113.739 97.0742 114.651 97.9868 115.775 97.9868Z" fill="#E8B500"/>
<path d="M123.505 97.9868C124.629 97.9868 125.541 97.0742 125.541 95.9485C125.541 94.8227 124.629 93.9102 123.505 93.9102C122.38 93.9102 121.468 94.8227 121.468 95.9485C121.468 97.0742 122.38 97.9868 123.505 97.9868Z" fill="#30B103"/>
<path d="M363.97 259.63H143.947C141.741 259.628 139.627 258.749 138.067 257.188C136.508 255.627 135.63 253.51 135.628 251.303V145.112C135.63 143.461 136.286 141.878 137.452 140.71C138.619 139.543 140.2 138.886 141.85 138.884H365.968C367.644 138.886 369.25 139.553 370.435 140.739C371.62 141.926 372.287 143.534 372.289 145.212V251.303C372.286 253.51 371.409 255.627 369.85 257.188C368.29 258.749 366.175 259.628 363.97 259.63ZM141.85 139.836C140.452 139.837 139.112 140.394 138.124 141.383C137.136 142.372 136.58 143.713 136.579 145.112V251.303C136.581 253.258 137.358 255.133 138.739 256.516C140.121 257.898 141.994 258.676 143.947 258.678H363.97C365.923 258.676 367.796 257.898 369.178 256.516C370.559 255.133 371.336 253.258 371.338 251.303V145.212C371.337 143.786 370.77 142.42 369.763 141.412C368.757 140.404 367.392 139.837 365.968 139.836H141.85Z" fill="#CCCCCC"/>
<path d="M151.553 251.302H356.364C358.381 251.302 360.316 250.5 361.742 249.072C363.168 247.644 363.97 245.708 363.97 243.689V154.918C363.97 152.898 363.168 150.962 361.742 149.534C360.316 148.106 358.381 147.304 356.364 147.304H151.553C149.536 147.304 147.601 148.106 146.175 149.534C144.748 150.962 143.947 152.898 143.947 154.918V243.689C143.947 245.708 144.748 247.644 146.175 249.072C147.601 250.5 149.536 251.302 151.553 251.302Z" fill="#F2F2F2"/>
<path d="M174.808 173.131C177.171 173.131 179.087 171.213 179.087 168.848C179.087 166.483 177.171 164.565 174.808 164.565C172.445 164.565 170.53 166.483 170.53 168.848C170.53 171.213 172.445 173.131 174.808 173.131Z" fill="#4F4F4F"/>
<path d="M174.808 189.31C177.171 189.31 179.087 187.393 179.087 185.027C179.087 182.662 177.171 180.745 174.808 180.745C172.445 180.745 170.53 182.662 170.53 185.027C170.53 187.393 172.445 189.31 174.808 189.31Z" fill="#4F4F4F"/>
<path d="M174.808 205.489C177.171 205.489 179.087 203.572 179.087 201.207C179.087 198.841 177.171 196.924 174.808 196.924C172.445 196.924 170.53 198.841 170.53 201.207C170.53 203.572 172.445 205.489 174.808 205.489Z" fill="#4F4F4F"/>
<path d="M174.808 221.669C177.171 221.669 179.087 219.751 179.087 217.386C179.087 215.02 177.171 213.103 174.808 213.103C172.445 213.103 170.53 215.02 170.53 217.386C170.53 219.751 172.445 221.669 174.808 221.669Z" fill="#4F4F4F"/>
<path d="M336.912 169.324H196.2C196.074 169.324 195.953 169.274 195.864 169.184C195.775 169.095 195.725 168.974 195.725 168.848C195.725 168.722 195.775 168.601 195.864 168.511C195.953 168.422 196.074 168.372 196.2 168.372H336.912C337.038 168.372 337.159 168.422 337.248 168.511C337.337 168.601 337.387 168.722 337.387 168.848C337.387 168.974 337.337 169.095 337.248 169.184C337.159 169.274 337.038 169.324 336.912 169.324Z" fill="#CCCCCC"/>
<path d="M336.912 185.503H196.2C196.074 185.503 195.953 185.453 195.864 185.364C195.775 185.275 195.725 185.154 195.725 185.028C195.725 184.901 195.775 184.78 195.864 184.691C195.953 184.602 196.074 184.552 196.2 184.552H336.912C337.038 184.552 337.159 184.602 337.248 184.691C337.337 184.78 337.387 184.901 337.387 185.028C337.387 185.154 337.337 185.275 337.248 185.364C337.159 185.453 337.038 185.503 336.912 185.503Z" fill="#CCCCCC"/>
<path d="M336.912 201.683H196.2C196.074 201.683 195.953 201.633 195.864 201.543C195.775 201.454 195.725 201.333 195.725 201.207C195.725 201.081 195.775 200.96 195.864 200.87C195.953 200.781 196.074 200.731 196.2 200.731H336.912C337.038 200.731 337.159 200.781 337.248 200.87C337.337 200.96 337.387 201.081 337.387 201.207C337.387 201.333 337.337 201.454 337.248 201.543C337.159 201.633 337.038 201.683 336.912 201.683Z" fill="#CCCCCC"/>
<path d="M336.912 217.862H196.2C196.074 217.862 195.953 217.812 195.864 217.723C195.775 217.633 195.725 217.512 195.725 217.386C195.725 217.26 195.775 217.139 195.864 217.05C195.953 216.96 196.074 216.91 196.2 216.91H336.912C337.038 216.91 337.159 216.96 337.248 217.05C337.337 217.139 337.387 217.26 337.387 217.386C337.387 217.512 337.337 217.633 337.248 217.723C337.159 217.812 337.038 217.862 336.912 217.862Z" fill="#CCCCCC"/>
<path d="M222.821 234.041H209.035C208.405 234.04 207.801 233.789 207.355 233.343C206.91 232.897 206.659 232.292 206.658 231.662V218.813C206.659 218.183 206.91 217.578 207.355 217.132C207.801 216.686 208.405 216.435 209.035 216.434H222.821C223.451 216.435 224.056 216.686 224.501 217.132C224.947 217.578 225.197 218.183 225.198 218.813V231.662C225.197 232.292 224.947 232.897 224.501 233.343C224.056 233.789 223.451 234.04 222.821 234.041Z" fill="#FFCC4C"/>
<path d="M253.721 234.041H239.935C239.305 234.04 238.7 233.789 238.255 233.343C237.809 232.897 237.559 232.293 237.558 231.662V202.634C237.559 202.003 237.809 201.399 238.255 200.953C238.7 200.507 239.305 200.256 239.935 200.255H253.721C254.351 200.256 254.955 200.507 255.401 200.953C255.846 201.399 256.097 202.003 256.098 202.634V231.662C256.097 232.293 255.846 232.897 255.401 233.343C254.955 233.789 254.351 234.04 253.721 234.041Z" fill="#246091"/>
<path d="M285.096 234.041H271.31C270.68 234.04 270.075 233.79 269.63 233.344C269.184 232.897 268.934 232.293 268.933 231.662V186.455C268.934 185.824 269.184 185.219 269.63 184.773C270.075 184.327 270.68 184.076 271.31 184.076H285.096C285.726 184.076 286.33 184.327 286.776 184.773C287.221 185.219 287.472 185.824 287.472 186.455V231.662C287.472 232.293 287.221 232.897 286.776 233.344C286.33 233.79 285.726 234.04 285.096 234.041Z" fill="#FFCC4C"/>
<path d="M317.421 234.041H303.635C303.005 234.04 302.401 233.789 301.955 233.343C301.51 232.897 301.259 232.293 301.258 231.662V170.751C301.259 170.121 301.51 169.516 301.955 169.07C302.401 168.624 303.005 168.373 303.635 168.372H317.421C318.051 168.373 318.656 168.624 319.101 169.07C319.547 169.516 319.797 170.121 319.798 170.751V231.662C319.797 232.293 319.547 232.897 319.101 233.343C318.656 233.789 318.051 234.04 317.421 234.041Z" fill="#246091"/>
<path d="M336.912 234.041H196.2C196.074 234.041 195.953 233.991 195.864 233.902C195.775 233.812 195.725 233.691 195.725 233.565C195.725 233.439 195.775 233.318 195.864 233.229C195.953 233.139 196.074 233.089 196.2 233.089H336.912C337.038 233.089 337.159 233.139 337.248 233.229C337.337 233.318 337.387 233.439 337.387 233.565C337.387 233.691 337.337 233.812 337.248 233.902C337.159 233.991 337.038 234.041 336.912 234.041Z" fill="#3F3D56"/>
<path d="M398.733 322.812C399.119 322.228 399.627 321.736 400.223 321.37C400.818 321.005 401.487 320.774 402.181 320.695C402.876 320.616 403.579 320.69 404.242 320.913C404.904 321.135 405.51 321.5 406.016 321.982L421.112 314.184L420.173 322.97L405.982 329.029C405.117 329.827 403.989 330.279 402.812 330.3C401.636 330.321 400.493 329.91 399.599 329.143C398.706 328.377 398.124 327.309 397.964 326.142C397.805 324.975 398.078 323.79 398.733 322.812Z" fill="#FFB8B8"/>
<path d="M411.722 326.089C411.379 325.82 411.127 325.453 410.998 325.037L409.797 321.154C409.668 320.734 409.671 320.283 409.806 319.864C409.941 319.446 410.201 319.078 410.551 318.812L422.787 309.561L436.038 284.954C436.593 284.238 437.283 283.639 438.069 283.19C438.856 282.742 439.723 282.453 440.621 282.34C441.519 282.227 442.43 282.292 443.303 282.531C444.176 282.771 444.993 283.18 445.708 283.735C446.422 284.291 447.021 284.982 447.469 285.769C447.917 286.556 448.206 287.424 448.318 288.323C448.431 289.222 448.366 290.134 448.127 291.008C447.888 291.882 447.479 292.7 446.924 293.415L439.385 309.342C437.098 314.177 433.134 318.015 428.231 320.143L413.893 326.368C413.617 326.488 413.319 326.548 413.019 326.545C412.718 326.542 412.422 326.475 412.148 326.35C411.997 326.28 411.853 326.193 411.722 326.089Z" fill="#716F8B"/>
<path d="M447.257 274.683C453.705 274.683 458.933 269.45 458.933 262.995C458.933 256.54 453.705 251.308 447.257 251.308C440.809 251.308 435.581 256.54 435.581 262.995C435.581 269.45 440.809 274.683 447.257 274.683Z" fill="#FFB8B8"/>
<path d="M442.521 416.317L436.693 416.316L433.921 393.813L442.523 393.814L442.521 416.317Z" fill="#FFB8B8"/>
<path d="M432.53 414.649H443.77V421.733H425.453C425.453 420.803 425.636 419.882 425.992 419.022C426.347 418.163 426.869 417.382 427.526 416.724C428.183 416.066 428.963 415.544 429.822 415.188C430.68 414.832 431.6 414.649 432.53 414.649Z" fill="#2F2E41"/>
<path d="M461.536 416.317L455.708 416.317L452.936 393.813L461.538 393.814L461.536 416.317Z" fill="#FFB8B8"/>
<path d="M451.545 414.649H462.785V421.734H444.468C444.468 420.803 444.651 419.882 445.007 419.023C445.362 418.163 445.884 417.382 446.541 416.724C447.198 416.066 447.978 415.545 448.837 415.189C449.695 414.833 450.616 414.649 451.545 414.649Z" fill="#2F2E41"/>
<path d="M461.962 410.607L455.132 410.607C454.662 410.606 454.205 410.451 453.832 410.165C453.458 409.878 453.19 409.477 453.067 409.023L443.236 372.524C443.221 372.467 443.185 372.417 443.135 372.386C443.086 372.354 443.026 372.341 442.968 372.351C442.91 372.36 442.858 372.391 442.821 372.437C442.784 372.483 442.766 372.541 442.769 372.6L444.755 407.215C444.773 407.521 444.724 407.827 444.614 408.113C444.503 408.399 444.332 408.658 444.112 408.871C443.893 409.085 443.63 409.25 443.342 409.353C443.054 409.457 442.747 409.497 442.442 409.472L434.765 408.831C434.274 408.789 433.811 408.578 433.457 408.234C433.102 407.891 432.876 407.435 432.818 406.945L425.825 334.259L428.531 335.884L453.882 331.576L464.082 408.183C464.123 408.485 464.098 408.793 464.01 409.085C463.921 409.377 463.772 409.647 463.571 409.876C463.37 410.106 463.123 410.29 462.845 410.416C462.568 410.542 462.266 410.607 461.962 410.607Z" fill="#D35188"/>
<path d="M434.304 341.931C431.507 341.908 428.767 341.136 426.369 339.695C425.999 339.476 425.705 339.15 425.524 338.76C425.342 338.371 425.283 337.935 425.353 337.511C426.245 332.045 430.908 304.007 435.15 288.721C436.878 282.496 440.698 279.143 446.505 278.755C454.999 278.198 462.549 284.85 463.335 293.602C464.722 309.043 459.089 330.981 456.602 339.697C456.506 340.033 456.328 340.341 456.085 340.593C455.842 340.845 455.542 341.033 455.209 341.142C454.876 341.25 454.522 341.275 454.178 341.215C453.833 341.154 453.509 341.01 453.233 340.794L448.165 336.848C447.853 336.609 447.467 336.488 447.075 336.504C446.683 336.52 446.309 336.674 446.018 336.937C441.746 340.751 437.688 341.931 434.304 341.931Z" fill="#716F8B"/>
<path opacity="0.2" d="M451.066 301.158L455.344 319.241L449.163 334.469L453.442 319.717L451.066 301.158Z" fill="black"/>
<path d="M453.919 272.607C454.958 272.626 455.99 272.439 456.956 272.057C457.381 271.893 457.822 271.758 458.247 271.594C461.993 270.145 464.462 266.151 464.55 262.131C464.639 258.111 462.559 254.21 459.472 251.638C456.384 249.067 452.384 247.747 448.379 247.441C444.065 247.112 439.207 248.207 436.796 251.803C436.154 252.761 435.705 253.922 436.086 255.078C436.199 255.427 436.403 255.74 436.675 255.985C437.752 256.944 438.825 256.223 439.923 256.159C441.431 256.072 442.786 257.294 443.273 258.726C443.76 260.158 443.545 261.734 443.152 263.195C442.853 264.074 442.664 264.986 442.59 265.912C442.558 266.376 442.645 266.841 442.843 267.262C443.041 267.683 443.343 268.046 443.72 268.317C444.663 268.888 445.901 268.558 446.844 267.988C447.787 267.419 448.602 266.627 449.621 266.208C450.64 265.789 452.009 265.882 452.602 266.812C452.79 267.15 452.918 267.518 452.978 267.901C453.51 270.325 453.388 270.182 453.919 272.607Z" fill="#5C5550"/>
<path d="M435.822 399.992L362.711 374.504C361.457 374.065 360.427 373.146 359.849 371.948C359.271 370.75 359.19 369.372 359.626 368.115L378.625 313.506C378.946 312.586 379.619 311.831 380.495 311.407C381.372 310.983 382.381 310.924 383.301 311.243L458.883 337.593C459.818 337.92 460.585 338.605 461.016 339.497C461.447 340.39 461.507 341.417 461.182 342.354L442.205 396.903C441.766 398.159 440.848 399.189 439.651 399.768C438.455 400.347 437.078 400.428 435.822 399.992Z" fill="#E6E6E6"/>
<path d="M368.95 371.366L432.881 393.653C434.098 394.077 435.434 394 436.595 393.439C437.755 392.877 438.645 391.877 439.069 390.658L454.411 346.562C454.835 345.343 454.758 344.006 454.197 342.844C453.636 341.682 452.637 340.791 451.419 340.366L387.489 318.079C386.271 317.655 384.935 317.732 383.775 318.294C382.614 318.855 381.724 319.855 381.3 321.074L365.958 365.171C365.748 365.774 365.659 366.413 365.696 367.051C365.733 367.689 365.895 368.313 366.172 368.888C366.45 369.464 366.839 369.979 367.315 370.404C367.792 370.829 368.347 371.156 368.95 371.366Z" fill="white"/>
<path d="M383.483 344.608L380.317 343.504C380.145 343.444 380.004 343.318 379.925 343.154C379.846 342.99 379.835 342.802 379.895 342.63L380.998 339.461C381.058 339.289 381.183 339.148 381.347 339.069C381.51 338.989 381.699 338.978 381.871 339.038L385.037 340.142C385.208 340.202 385.349 340.328 385.428 340.491C385.508 340.655 385.518 340.844 385.459 341.016L384.356 344.185C384.296 344.357 384.171 344.498 384.007 344.577C383.843 344.656 383.655 344.667 383.483 344.608Z" fill="#FFCC4C"/>
<path d="M380.626 352.82L377.46 351.716C377.288 351.656 377.148 351.53 377.068 351.366C376.989 351.202 376.978 351.014 377.038 350.842L378.141 347.672C378.201 347.501 378.326 347.36 378.49 347.28C378.654 347.201 378.842 347.19 379.014 347.25L382.18 348.354C382.352 348.414 382.492 348.539 382.571 348.703C382.651 348.867 382.662 349.056 382.602 349.228L381.499 352.397C381.439 352.569 381.314 352.71 381.15 352.789C380.986 352.868 380.798 352.879 380.626 352.82Z" fill="#BB515E"/>
<path d="M404.758 350.247L389.503 344.929C389.418 344.9 389.339 344.854 389.272 344.794C389.204 344.734 389.149 344.661 389.11 344.58C389.07 344.499 389.047 344.41 389.042 344.32C389.037 344.23 389.05 344.14 389.079 344.054C389.109 343.969 389.155 343.891 389.215 343.823C389.275 343.756 389.348 343.701 389.429 343.662C389.51 343.623 389.599 343.6 389.689 343.595C389.779 343.59 389.869 343.603 389.954 343.633L405.209 348.951C405.294 348.98 405.373 349.026 405.44 349.086C405.508 349.146 405.563 349.219 405.602 349.3C405.642 349.381 405.665 349.469 405.67 349.56C405.675 349.65 405.663 349.74 405.633 349.825C405.603 349.911 405.557 349.989 405.497 350.057C405.437 350.124 405.364 350.179 405.283 350.218C405.202 350.257 405.113 350.28 405.023 350.285C404.933 350.29 404.843 350.277 404.758 350.247Z" fill="#CCCCCC"/>
<path d="M401.901 358.46L386.646 353.141C386.475 353.082 386.334 352.956 386.254 352.792C386.175 352.628 386.164 352.439 386.224 352.267C386.284 352.095 386.41 351.954 386.573 351.875C386.737 351.796 386.926 351.785 387.097 351.845L402.352 357.163C402.438 357.192 402.516 357.239 402.584 357.298C402.651 357.358 402.706 357.431 402.745 357.512C402.785 357.594 402.808 357.682 402.813 357.772C402.818 357.862 402.806 357.952 402.776 358.037C402.746 358.123 402.7 358.201 402.64 358.269C402.58 358.336 402.507 358.391 402.426 358.43C402.345 358.469 402.257 358.492 402.167 358.497C402.077 358.502 401.986 358.489 401.901 358.46Z" fill="#CCCCCC"/>
<path d="M441.162 366.896C441.273 366.629 441.378 366.358 441.474 366.082C442.728 362.478 442.5 358.523 440.841 355.087C439.182 351.651 436.227 349.015 432.627 347.76L427.612 362.173L441.162 366.896Z" fill="#FFCC4C"/>
<path d="M426.154 363.05L431.168 348.637C428.518 347.713 425.656 347.586 422.935 348.271C420.214 348.956 417.752 350.423 415.854 352.491C413.956 354.56 412.704 357.139 412.253 359.911C411.801 362.684 412.17 365.528 413.314 368.092C414.458 370.657 416.327 372.831 418.69 374.345C421.054 375.859 423.808 376.648 426.614 376.614C429.42 376.58 432.154 375.725 434.48 374.154C436.806 372.583 438.622 370.365 439.704 367.773L426.154 363.05Z" fill="#BB515E"/>
<path d="M444.105 342.375C444.048 341.678 444.145 340.977 444.388 340.321C444.632 339.665 445.016 339.071 445.513 338.579C446.011 338.088 446.61 337.712 447.268 337.478C447.927 337.244 448.629 337.157 449.324 337.223L456.395 321.761L461.073 329.255L453.642 342.789C453.452 343.952 452.844 345.004 451.931 345.747C451.018 346.491 449.865 346.873 448.69 346.822C447.514 346.771 446.398 346.29 445.553 345.471C444.708 344.651 444.193 343.55 444.105 342.375Z" fill="#FFB8B8"/>
<path d="M456.346 336.93C455.91 336.93 455.485 336.797 455.127 336.549L451.789 334.235C451.428 333.984 451.153 333.628 451.001 333.215C450.849 332.802 450.827 332.352 450.938 331.927L454.863 317.089L450.119 289.54C450.114 288.633 450.287 287.735 450.628 286.895C450.97 286.056 451.474 285.292 452.111 284.647C452.748 284.003 453.505 283.49 454.34 283.139C455.175 282.788 456.071 282.605 456.977 282.6C457.883 282.596 458.78 282.77 459.618 283.113C460.457 283.456 461.219 283.962 461.862 284.6C462.506 285.238 463.017 285.997 463.366 286.833C463.716 287.67 463.898 288.567 463.901 289.473L467.789 306.663C468.969 311.88 468.216 317.349 465.67 322.052L458.226 335.808C458.082 336.073 457.885 336.304 457.647 336.487C457.408 336.67 457.134 336.801 456.842 336.871C456.679 336.91 456.513 336.93 456.346 336.93Z" fill="#716F8B"/>
<path d="M253.192 416.079L259.02 416.079L261.792 393.577H253.191L253.192 416.079Z" fill="#A0616A"/>
<path d="M251.705 414.175L263.183 414.174C264.143 414.174 265.095 414.364 265.982 414.732C266.87 415.1 267.676 415.639 268.355 416.319C269.035 416.999 269.573 417.806 269.941 418.694C270.308 419.582 270.498 420.535 270.498 421.496V421.734L251.706 421.735L251.705 414.175Z" fill="#4D424F"/>
<path d="M229.898 416.079L235.726 416.079L238.499 393.577H229.897L229.898 416.079Z" fill="#A0616A"/>
<path d="M228.412 414.175L239.889 414.174C240.85 414.174 241.801 414.364 242.689 414.732C243.576 415.1 244.383 415.639 245.062 416.319C245.741 416.999 246.28 417.806 246.647 418.694C247.015 419.582 247.204 420.535 247.204 421.496V421.734L228.412 421.735L228.412 414.175Z" fill="#4D424F"/>
<path d="M254.355 260.291C260.804 260.291 266.031 255.058 266.031 248.603C266.031 242.148 260.804 236.916 254.355 236.916C247.907 236.916 242.679 242.148 242.679 248.603C242.679 255.058 247.907 260.291 254.355 260.291Z" fill="#A0616A"/>
<path d="M262.207 411.223H251.392C251.108 411.223 250.828 411.166 250.567 411.057C250.306 410.948 250.069 410.788 249.87 410.586C249.671 410.385 249.514 410.146 249.408 409.883C249.302 409.62 249.249 409.339 249.253 409.055L249.881 357.647C249.883 357.465 249.816 357.288 249.692 357.154C249.568 357.02 249.398 356.938 249.216 356.926C249.034 356.914 248.854 356.972 248.713 357.089C248.573 357.205 248.482 357.371 248.46 357.552L242.166 409.34C242.102 409.859 241.851 410.337 241.46 410.684C241.069 411.031 240.565 411.222 240.042 411.223H229.123C228.828 411.223 228.536 411.162 228.266 411.043C227.996 410.925 227.753 410.752 227.553 410.535C227.352 410.319 227.199 410.063 227.102 409.784C227.006 409.505 226.968 409.209 226.991 408.915L234.201 316.562L234.397 316.54L268.923 312.808L264.344 409.183C264.318 409.733 264.082 410.252 263.684 410.632C263.286 411.012 262.757 411.223 262.207 411.223Z" fill="#302D64"/>
<path d="M234.621 322.231C234.066 322.23 233.534 322.013 233.136 321.626C232.738 321.239 232.507 320.712 232.49 320.157C232.301 314.317 231.978 294.112 235.733 279.278C236.757 275.226 239.057 271.611 242.293 268.968C245.528 266.325 249.527 264.795 253.698 264.603C257.804 264.378 261.876 265.454 265.337 267.677C268.798 269.9 271.472 273.157 272.979 276.986C279.29 293.025 285.252 312.793 277.819 315.894C268.076 319.957 242.392 321.769 234.752 322.227C234.708 322.23 234.665 322.231 234.621 322.231Z" fill="#305E4A"/>
<path d="M279.245 236.79C279.429 236.979 279.627 237.153 279.838 237.311L278.612 260.878L273.514 263.491L276.447 271.708L285.922 267.961C286.687 267.658 287.333 267.115 287.764 266.413C288.195 265.711 288.387 264.888 288.311 264.068L285.829 237.334C286.641 236.728 287.249 235.888 287.573 234.927C287.897 233.966 287.921 232.928 287.641 231.953C287.362 230.978 286.792 230.112 286.009 229.468C285.225 228.825 284.265 228.436 283.255 228.352C282.245 228.269 281.234 228.495 280.355 229.001C279.477 229.507 278.774 230.269 278.338 231.185C277.903 232.101 277.757 233.128 277.919 234.129C278.081 235.131 278.543 236.059 279.245 236.79Z" fill="#A0616A"/>
<path d="M278.709 261.756L282.295 271.958C282.397 272.248 282.435 272.557 282.407 272.863C282.379 273.17 282.286 273.467 282.133 273.734C281.98 274 281.771 274.231 281.521 274.41C281.271 274.589 280.986 274.712 280.684 274.771L270.109 276.821C268.622 277.335 266.993 277.238 265.577 276.552C264.162 275.865 263.076 274.644 262.558 273.158C262.041 271.671 262.133 270.039 262.815 268.62C263.497 267.202 264.714 266.112 266.198 265.59L275.693 260.573C275.965 260.429 276.264 260.346 276.571 260.329C276.878 260.311 277.185 260.361 277.471 260.473C277.758 260.585 278.016 260.758 278.23 260.979C278.443 261.201 278.607 261.465 278.709 261.756Z" fill="#305E4A"/>
<path d="M228.672 236.79C228.488 236.979 228.29 237.153 228.079 237.311L229.305 260.878L234.403 263.491L231.469 271.708L221.995 267.961C221.23 267.658 220.583 267.115 220.153 266.413C219.722 265.711 219.53 264.888 219.606 264.068L222.088 237.334C221.276 236.728 220.668 235.888 220.344 234.927C220.02 233.966 219.996 232.928 220.276 231.953C220.555 230.978 221.124 230.112 221.908 229.468C222.691 228.825 223.652 228.436 224.662 228.352C225.672 228.269 226.683 228.495 227.561 229.001C228.44 229.507 229.143 230.269 229.579 231.185C230.014 232.101 230.16 233.128 229.998 234.129C229.836 235.131 229.373 236.059 228.672 236.79Z" fill="#A0616A"/>
<path d="M230.446 260.473C230.732 260.36 231.039 260.311 231.346 260.328C231.653 260.345 231.952 260.429 232.224 260.572L241.719 265.589C243.203 266.111 244.419 267.201 245.102 268.62C245.784 270.039 245.876 271.671 245.358 273.157C244.841 274.644 243.755 275.865 242.34 276.551C240.924 277.238 239.294 277.335 237.808 276.82L227.233 274.771C226.931 274.712 226.645 274.589 226.395 274.41C226.145 274.231 225.937 274 225.784 273.733C225.631 273.466 225.537 273.169 225.509 272.863C225.481 272.557 225.52 272.248 225.622 271.957L229.208 261.755C229.31 261.465 229.473 261.2 229.687 260.979C229.9 260.757 230.159 260.585 230.446 260.473Z" fill="#305E4A"/>
<path d="M258.89 250.596C258.829 249.105 259.202 247.628 259.966 246.346C260.729 245.065 261.848 244.033 263.188 243.378C266.737 241.544 268.966 237.632 267.989 234.059C266.739 229.487 260.522 226.521 255.484 228.095C254.121 228.579 252.806 229.191 251.557 229.922L248.266 231.688C246.86 232.392 245.505 233.193 244.209 234.085C242.269 235.516 240.748 237.443 239.806 239.664C238.863 241.884 238.534 244.318 238.852 246.709C239.5 251.358 242.541 255.621 246.704 258.54C248.296 259.731 250.135 260.549 252.085 260.934C254.08 261.263 256.301 260.889 257.76 259.647C260.04 257.706 259.805 254.455 259.067 251.74C258.97 251.365 258.91 250.982 258.89 250.596Z" fill="#241C13"/>
<path d="M151.161 335.19L76.6329 365.796C75.3529 366.32 73.9176 366.314 72.6419 365.78C71.3661 365.246 70.354 364.227 69.8278 362.947L47.0135 307.279C46.63 306.341 46.6342 305.288 47.025 304.352C47.4159 303.417 48.1615 302.675 49.0983 302.289L126.146 270.648C127.1 270.257 128.17 270.262 129.12 270.66C130.071 271.058 130.826 271.817 131.218 272.771L154.007 328.378C154.53 329.659 154.525 331.096 153.991 332.373C153.458 333.65 152.44 334.663 151.161 335.19Z" fill="#E6E6E6"/>
<path d="M79.3325 359.044L144.502 332.281C145.743 331.771 146.731 330.789 147.249 329.55C147.766 328.311 147.771 326.917 147.262 325.675L128.839 280.724C128.587 280.109 128.217 279.549 127.749 279.078C127.281 278.606 126.724 278.231 126.112 277.975C125.499 277.718 124.842 277.585 124.177 277.583C123.513 277.58 122.855 277.709 122.241 277.961L57.0708 304.724C56.4564 304.977 55.8975 305.348 55.4263 305.816C54.9551 306.285 54.5806 306.842 54.3244 307.455C54.0681 308.068 53.9351 308.726 53.9328 309.391C53.9306 310.056 54.0591 310.715 54.3112 311.33L72.7336 356.281C72.9857 356.896 73.3563 357.456 73.8244 357.928C74.2924 358.399 74.8487 358.774 75.4615 359.031C76.0743 359.287 76.7315 359.42 77.3957 359.423C78.0599 359.425 78.718 359.296 79.3325 359.044Z" fill="white"/>
<path d="M128.479 292.983L127.521 293.376L127.587 293.536L128.545 293.143L128.479 292.983Z" fill="#E6E6E6"/>
<path d="M125.651 294.331L123.716 295.126L123.65 294.966L125.586 294.171L125.651 294.331ZM121.78 295.921L119.844 296.716L119.779 296.556L121.714 295.761L121.78 295.921ZM117.909 297.511L115.973 298.306L115.908 298.146L117.843 297.351L117.909 297.511ZM114.037 299.101L112.102 299.895L112.036 299.736L113.972 298.941L114.037 299.101ZM110.166 300.69L108.231 301.485L108.165 301.325L110.101 300.531L110.166 300.69ZM106.295 302.28L104.359 303.075L104.294 302.915L106.229 302.12L106.295 302.28ZM102.424 303.87L100.488 304.665L100.423 304.505L102.358 303.71L102.424 303.87ZM98.5525 305.46L96.6169 306.255L96.5514 306.095L98.487 305.3L98.5525 305.46ZM94.6812 307.05L92.7456 307.844L92.6801 307.685L94.6157 306.89L94.6812 307.05ZM90.81 308.639L88.8744 309.434L88.8089 309.274L90.7445 308.479L90.81 308.639ZM86.9388 310.229L85.0032 311.024L84.9377 310.864L86.8733 310.069L86.9388 310.229ZM83.0675 311.819L81.1319 312.614L81.0664 312.454L83.002 311.659L83.0675 311.819ZM79.1963 313.409L77.2607 314.204L77.1952 314.044L79.1308 313.249L79.1963 313.409ZM75.3251 314.998L73.3894 315.793L73.3239 315.634L75.2596 314.839L75.3251 314.998ZM71.4538 316.588L69.5182 317.383L69.4527 317.223L71.3883 316.428L71.4538 316.588ZM67.5826 318.178L65.6469 318.973L65.5814 318.813L67.5171 318.018L67.5826 318.178Z" fill="#E6E6E6"/>
<path d="M63.6458 319.608L62.6877 320.001L62.7532 320.161L63.7114 319.767L63.6458 319.608Z" fill="#E6E6E6"/>
<path d="M103.113 320.768L102.155 321.162L102.221 321.321L103.179 320.928L103.113 320.768Z" fill="#E6E6E6"/>
<path d="M100.314 322.104L98.4069 322.887L98.3414 322.727L100.248 321.944L100.314 322.104ZM96.5001 323.67L94.5932 324.453L94.5277 324.294L96.4346 323.51L96.5001 323.67ZM92.6863 325.237L90.7795 326.02L90.714 325.86L92.6208 325.077L92.6863 325.237ZM88.8726 326.803L86.9657 327.586L86.9002 327.426L88.8071 326.643L88.8726 326.803ZM85.0589 328.369L83.152 329.152L83.0865 328.992L84.9934 328.209L85.0589 328.369ZM81.2451 329.935L79.3382 330.718L79.2727 330.558L81.1796 329.775L81.2451 329.935ZM77.4314 331.501L75.5245 332.284L75.459 332.124L77.3659 331.341L77.4314 331.501ZM73.6176 333.067L71.7108 333.851L71.6453 333.691L73.5521 332.908L73.6176 333.067Z" fill="#E6E6E6"/>
<path d="M69.7384 334.474L68.7803 334.867L68.8458 335.027L69.804 334.634L69.7384 334.474Z" fill="#E6E6E6"/>
<path d="M87.3123 335.474L86.3542 335.868L86.4197 336.028L87.3778 335.634L87.3123 335.474Z" fill="#E6E6E6"/>
<path d="M84.4578 336.833L82.4959 337.639L82.4304 337.479L84.3923 336.673L84.4578 336.833ZM80.534 338.445L78.5721 339.25L78.5066 339.09L80.4685 338.285L80.534 338.445ZM76.6103 340.056L74.6484 340.862L74.5829 340.702L76.5447 339.896L76.6103 340.056Z" fill="#E6E6E6"/>
<path d="M72.621 341.507L71.6628 341.901L71.7283 342.061L72.6865 341.667L72.621 341.507Z" fill="#E6E6E6"/>
<path d="M92.2314 347.477L91.2733 347.871L91.3388 348.03L92.2969 347.637L92.2314 347.477Z" fill="#E6E6E6"/>
<path d="M89.3769 348.836L87.415 349.642L87.3495 349.482L89.3114 348.676L89.3769 348.836ZM85.4531 350.447L83.4912 351.253L83.4257 351.093L85.3876 350.288L85.4531 350.447ZM81.5294 352.059L79.5675 352.865L79.502 352.705L81.4638 351.899L81.5294 352.059Z" fill="#E6E6E6"/>
<path d="M77.5401 353.51L76.5819 353.904L76.6474 354.064L77.6056 353.67L77.5401 353.51Z" fill="#E6E6E6"/>
<path d="M82.0996 351.968L137.327 329.288C138.663 328.737 139.727 327.678 140.285 326.343C140.842 325.009 140.848 323.507 140.301 322.168L129.143 294.941L129.035 294.989L115.482 327.427L105.431 323.22C105.245 323.142 105.044 323.108 104.843 323.121C104.642 323.133 104.447 323.192 104.273 323.293C104.011 323.45 103.808 323.69 103.697 323.975L96.5938 340.973L89.2446 337.898C89.086 337.831 88.9159 337.797 88.744 337.796C88.5721 337.796 88.4017 337.829 88.2427 337.894C88.0836 337.96 87.939 338.056 87.8171 338.177C87.6951 338.298 87.5982 338.442 87.5319 338.601C87.4849 338.717 82.9534 349.846 82.0996 351.968Z" fill="#FFCC4C"/>
<path d="M81.9296 352.224L81.7704 352.158L87.4533 338.554C87.6038 338.195 87.8904 337.911 88.2503 337.763C88.6101 337.615 89.0139 337.616 89.3729 337.766L96.577 340.782L103.639 323.877C103.79 323.518 104.076 323.233 104.436 323.085C104.796 322.938 105.2 322.939 105.559 323.089L115.465 327.236L129.088 294.628L129.247 294.695L115.558 327.462L105.492 323.248C105.335 323.182 105.167 323.148 104.997 323.148C104.827 323.147 104.659 323.18 104.501 323.245C104.344 323.309 104.201 323.404 104.081 323.524C103.96 323.644 103.864 323.787 103.798 323.944L96.6696 341.008L89.3063 337.925C88.9895 337.793 88.6333 337.792 88.3158 337.923C87.9983 338.053 87.7454 338.304 87.6126 338.621L81.9296 352.224Z" fill="#3F3D56"/>
<path d="M87.3451 336.764C88.0123 336.764 88.5533 336.222 88.5533 335.554C88.5533 334.886 88.0123 334.345 87.3451 334.345C86.6778 334.345 86.1368 334.886 86.1368 335.554C86.1368 336.222 86.6778 336.764 87.3451 336.764Z" fill="#3F3D56"/>
<path d="M103.146 322.058C103.813 322.058 104.354 321.516 104.354 320.848C104.354 320.18 103.813 319.639 103.146 319.639C102.479 319.639 101.938 320.18 101.938 320.848C101.938 321.516 102.479 322.058 103.146 322.058Z" fill="#3F3D56"/>
<path d="M127.75 294.229C128.417 294.229 128.958 293.688 128.958 293.02C128.958 292.352 128.417 291.811 127.75 291.811C127.083 291.811 126.542 292.352 126.542 293.02C126.542 293.688 127.083 294.229 127.75 294.229Z" fill="#3F3D56"/>
<path d="M60.1223 334.182C60.7504 333.869 61.3024 333.422 61.7392 332.872C62.1761 332.323 62.4873 331.684 62.6509 331.001C62.8145 330.318 62.8266 329.608 62.6862 328.92C62.5458 328.232 62.2564 327.583 61.8384 327.019L65.4268 291.898H57.6719L54.8201 326.191C53.9201 326.957 53.3319 328.027 53.1671 329.198C53.0023 330.368 53.2723 331.559 53.9259 332.544C54.5794 333.529 55.5712 334.24 56.7133 334.541C57.8553 334.843 59.0683 334.715 60.1223 334.182Z" fill="#FFB8B8"/>
<path d="M67.2428 272.516C73.3023 272.516 78.2145 267.598 78.2145 261.533C78.2145 255.467 73.3023 250.55 67.2428 250.55C61.1833 250.55 56.271 255.467 56.271 261.533C56.271 267.598 61.1833 272.516 67.2428 272.516Z" fill="#FFB8B8"/>
<path d="M69.3083 312.351C68.8691 312.351 68.4421 312.207 68.0928 311.94C67.7435 311.674 67.4911 311.3 67.3745 310.876C66.4954 307.679 64.2084 302.274 60.5771 294.81C59.7578 293.122 59.304 291.281 59.2457 289.405C59.1874 287.53 59.5258 285.664 60.2387 283.929C60.9516 282.194 62.023 280.629 63.3824 279.338C64.7419 278.046 66.3588 277.057 68.127 276.435C69.8026 275.843 71.5799 275.593 73.3537 275.701C75.1275 275.808 76.8618 276.27 78.4539 277.06C80.0461 277.851 81.4637 278.952 82.623 280.3C83.7823 281.649 84.6598 283.216 85.2034 284.909C88.018 293.743 87.8821 303.205 87.693 306.863C87.6695 307.303 87.5024 307.724 87.2173 308.06C86.9322 308.397 86.5448 308.63 86.1144 308.725L69.7394 312.305C69.5978 312.336 69.4533 312.351 69.3083 312.351Z" fill="#FF6584"/>
<path d="M85.1656 416.643H90.642L93.2475 395.498L85.1647 395.498L85.1656 416.643Z" fill="#FFB8B8"/>
<path d="M101.204 421.734L83.9921 421.735L83.9918 415.078L94.5539 415.077C95.4272 415.077 96.2919 415.249 97.0988 415.584C97.9056 415.918 98.6388 416.409 99.2563 417.027C99.8739 417.645 100.364 418.379 100.698 419.186C101.032 419.994 101.204 420.86 101.204 421.734Z" fill="#BCBCBC"/>
<path d="M30.4022 409.539L35.2016 412.18L47.6622 394.907L40.5795 391.009L30.4022 409.539Z" fill="#FFB8B8"/>
<path d="M42.0071 421.734L26.9241 413.434L30.1279 407.6L39.3834 412.694C40.9289 413.544 42.0736 414.975 42.5657 416.67C43.0577 418.366 42.8568 420.187 42.0071 421.734Z" fill="#BCBCBC"/>
<path d="M84.9097 404.907C84.4217 404.907 83.9505 404.728 83.584 404.406C83.2176 404.083 82.9809 403.638 82.9181 403.154L76.069 350.321C76.0387 350.088 75.9355 349.87 75.7739 349.698C75.6124 349.527 75.4009 349.411 75.1697 349.367C74.9384 349.323 74.6991 349.353 74.4861 349.454C74.2731 349.554 74.0972 349.719 73.9835 349.925L45.4392 401.766C45.2036 402.189 44.8242 402.514 44.3698 402.681C43.9154 402.848 43.4163 402.846 42.9632 402.675L36.7413 400.303C36.4911 400.207 36.2624 400.063 36.0687 399.877C35.875 399.692 35.7203 399.47 35.6135 399.225C35.5067 398.979 35.4501 398.714 35.4469 398.446C35.4438 398.178 35.4942 397.912 35.5951 397.664L55.3685 349.04C55.4186 348.916 55.4525 348.787 55.4695 348.655C58.1477 327.904 64.9619 317.352 66.9865 314.612C67.1344 314.411 67.2317 314.177 67.2703 313.93C67.3088 313.683 67.2875 313.431 67.2081 313.194L66.9297 312.358C66.8186 312.026 66.7958 311.671 66.8636 311.328C66.9315 310.985 67.0876 310.665 67.3166 310.401C74.612 302.083 87.3276 306.622 87.4552 306.668L87.5189 306.692L87.5588 306.746C101.817 326.32 96.5451 389.895 95.3436 402.441C95.2987 402.912 95.0888 403.352 94.7508 403.684C94.4128 404.015 93.9687 404.216 93.4969 404.252L85.0658 404.901C85.0134 404.905 84.9614 404.907 84.9097 404.907Z" fill="#282734"/>
<path d="M109.897 274.291C109.842 274.532 109.806 274.777 109.79 275.024L90.6002 286.106L85.9359 283.418L80.9634 289.934L88.7587 295.496C89.3885 295.945 90.1468 296.178 90.92 296.159C91.6931 296.14 92.4392 295.871 93.0464 295.391L112.834 279.765C113.727 280.095 114.7 280.146 115.622 279.91C116.545 279.675 117.374 279.163 117.999 278.444C118.624 277.725 119.016 276.833 119.122 275.885C119.228 274.938 119.044 273.981 118.593 273.141C118.142 272.301 117.447 271.619 116.599 271.184C115.752 270.75 114.792 270.584 113.848 270.709C112.904 270.834 112.02 271.243 111.315 271.883C110.609 272.523 110.114 273.363 109.897 274.291Z" fill="#FFB8B8"/>
<path d="M89.9586 286.631L83.7566 294.677C83.5801 294.906 83.3565 295.094 83.1008 295.229C82.8451 295.363 82.5635 295.441 82.275 295.457C81.9866 295.473 81.6981 295.426 81.4293 295.32C81.1605 295.215 80.9176 295.052 80.7172 294.844L73.6961 287.545C72.5311 286.635 71.7743 285.299 71.5916 283.831C71.4089 282.363 71.8152 280.882 72.7215 279.713C73.6278 278.545 74.9601 277.783 76.4262 277.597C77.8923 277.41 79.3727 277.812 80.5427 278.716L89.3487 283.645C89.6008 283.787 89.8195 283.981 89.99 284.214C90.1605 284.447 90.2787 284.715 90.3365 284.998C90.3944 285.282 90.3906 285.574 90.3254 285.856C90.2602 286.137 90.1351 286.402 89.9586 286.631Z" fill="#FF6584"/>
<path d="M65.9204 300.61L55.9293 298.804C55.645 298.753 55.3751 298.641 55.138 298.476C54.901 298.31 54.7022 298.096 54.5554 297.847C54.4085 297.598 54.317 297.32 54.2871 297.033C54.2572 296.745 54.2895 296.454 54.3819 296.18L57.6209 286.581C57.8916 285.126 58.7276 283.839 59.9454 283C61.1632 282.162 62.6635 281.841 64.1172 282.108C65.571 282.375 66.8596 283.209 67.7004 284.425C68.5413 285.642 68.8658 287.143 68.6028 288.599L68.2868 298.694C68.2776 298.983 68.2064 299.266 68.0778 299.525C67.9493 299.784 67.7665 300.012 67.542 300.194C67.3174 300.376 67.0563 300.507 66.7765 300.579C66.4966 300.651 66.2047 300.662 65.9204 300.61Z" fill="#FF6584"/>
<path d="M68.9793 259.007C71.7993 260.939 75.502 262.925 78.3822 260.867C79.2831 260.18 79.9376 259.22 80.2476 258.13C80.5577 257.04 80.5067 255.878 80.1023 254.819C78.7232 250.871 74.9341 249.133 71.3107 247.801C66.6004 246.069 61.4716 244.691 56.6089 245.932C51.7463 247.172 47.4488 251.885 48.3266 256.831C49.0325 260.808 52.7803 264.117 52.2483 268.121C51.7128 272.151 47.1853 274.273 43.1883 274.993C39.1912 275.713 34.7184 275.944 31.8459 278.818C28.1815 282.485 29.0965 289.038 32.5446 292.909C35.9927 296.779 41.196 298.534 46.2381 299.727C52.9184 301.307 60.1438 302.138 66.4885 299.515C72.8332 296.892 77.7705 289.832 75.9326 283.211C75.1562 280.415 73.3274 278.051 71.5599 275.75C69.7924 273.45 68.0027 271.044 67.3285 268.221C66.7666 265.868 67.1825 263.137 68.7409 261.372C69.0243 261.063 69.2027 260.673 69.2504 260.256C69.2981 259.839 69.2127 259.418 69.0064 259.053L68.9793 259.007Z" fill="#313132"/>
</svg>
