<svg width="512" height="512" viewBox="0 0 512 512" fill="none" xmlns="http://www.w3.org/2000/svg">
<g clip-path="url(#clip0_2_11)">
<path d="M146.171 332.651H235.885C251.083 332.651 263.404 344.97 263.404 360.167V432.12C263.404 447.317 251.084 459.636 235.885 459.636H146.171C130.973 459.636 118.652 447.317 118.652 432.12V360.167C118.652 344.97 130.973 332.651 146.171 332.651Z" fill="white"/>
<path d="M118 432.12V360.167C118 344.636 130.638 332 146.171 332H235.885C251.418 332 264.056 344.636 264.056 360.167V432.12C264.056 447.651 251.418 460.287 235.885 460.287H146.171C130.638 460.287 118 447.651 118 432.12ZM146.171 333.303C131.356 333.303 119.303 345.354 119.303 360.167V432.12C119.303 446.933 131.356 458.984 146.171 458.984H235.885C250.7 458.984 262.753 446.933 262.753 432.12V360.167C262.753 345.354 250.7 333.303 235.885 333.303H146.171Z" fill="#3F3D56"/>
<path d="M316.191 220.756C315.54 220.105 310.327 206.422 310.327 206.422L297.945 205.771L292.28 219.125L316.191 220.756Z" fill="#FFB6B6"/>
<path d="M298.625 212.074C307.83 212.074 315.291 204.614 315.291 195.41C315.291 186.207 307.83 178.747 298.625 178.747C289.42 178.747 281.958 186.207 281.958 195.41C281.958 204.614 289.42 212.074 298.625 212.074Z" fill="#FFB6B6"/>
<path d="M330.202 310.997L336.067 330.544L320.427 443.915H309.839L304.135 358.561L297.619 387.881L330.854 430.233L322.382 440.006L274.485 393.42L275.462 321.422L279.372 310.346L330.202 310.997Z" fill="#2F2E41"/>
<path d="M312.598 209.099L311.296 209.164C311.296 209.164 310.132 198.783 309.449 198.165C308.766 197.546 307.529 198.912 307.529 198.912C307.529 198.912 302.162 195.914 302.001 192.66C301.841 189.407 301.713 186.803 299.76 186.9C297.807 186.996 286.871 190.144 284.267 190.272C281.664 190.4 277.534 186.037 281.898 181.908C286.262 177.779 290.103 176.285 290.721 175.603C291.34 174.92 295.414 172.11 298.974 174.544C302.533 176.978 307.089 176.753 307.089 176.753C307.089 176.753 315.647 178.289 314.538 182.258C313.428 186.226 317.718 193.843 315.958 197.844C314.198 201.845 312.598 209.099 312.598 209.099Z" fill="#2F2E41"/>
<path d="M309.349 441.961L321.079 443.264L322.382 464.766C322.382 464.766 321.73 475.19 310.652 473.887C299.574 472.584 302.832 462.159 302.832 462.159L309.349 441.961Z" fill="#2F2E41"/>
<path d="M324.663 426.649C324.663 426.649 333.135 422.74 334.438 427.301L337.045 436.423C337.045 436.423 337.045 445.544 337.696 446.196C338.348 446.848 350.729 463.788 339.651 472.91C339.651 472.91 333.786 473.562 330.528 464.44C327.27 455.318 317.495 446.196 317.495 446.196C317.495 446.196 315.601 441.635 318.829 441.961C322.056 442.287 326.618 434.468 325.315 431.862C324.011 429.255 324.663 426.649 324.663 426.649Z" fill="#2F2E41"/>
<path d="M217.072 341.526C214.04 340.249 213.21 335.353 215.217 330.588C215.992 328.673 217.215 326.973 218.783 325.628L221.125 320.257L221.042 320.2L227.775 293.367C229.341 287.128 233.652 281.865 239.572 279.347C243.094 277.85 246.436 277.579 247.408 281.167C249.02 287.121 238.517 306.299 232.185 317.089L227.251 329.194C227.385 331.256 227.022 333.319 226.194 335.213C224.188 339.976 220.104 342.802 217.072 341.526Z" fill="#FFB6B6"/>
<path d="M292.732 216.847L314.236 217.499L335.09 226.621L331.831 280.7C331.831 280.7 335.741 293.08 333.786 295.034C331.831 296.989 333.786 305.752 332.483 305.931C331.18 306.111 332.483 315.535 332.483 315.535C332.483 315.535 314.236 309.369 298.597 313.278C282.957 317.187 277.743 310.672 277.743 310.672C277.743 310.672 273.833 295.034 273.833 291.776V225.158L292.732 216.847Z" fill="#C57600"/>
<path d="M277.418 224.991C277.418 224.991 268.294 222.385 263.733 228.901C259.171 235.416 256.565 235.416 256.565 243.887C256.565 243.887 229.846 281.677 231.15 285.586L224.959 295.686L240.599 304.156C240.599 304.156 246.138 298.618 246.138 293.405C246.138 288.193 261.778 273.858 261.778 273.858C261.778 273.858 275.463 256.266 276.114 249.751C276.766 243.235 277.418 224.991 277.418 224.991Z" fill="#C57600"/>
<path d="M348.177 356.27C351.462 356.098 353.906 351.774 353.635 346.611C353.555 344.547 352.982 342.532 351.964 340.735L351.584 334.888L351.682 334.863L354.456 307.338C355.101 300.938 352.833 294.524 348.118 290.147C345.314 287.543 342.262 286.155 340.13 289.2C336.593 294.253 339.962 315.857 342.256 328.156L342.788 341.216C341.963 343.11 341.603 345.174 341.739 347.236C342.009 352.397 344.892 356.442 348.177 356.27Z" fill="#FFB6B6"/>
<path d="M330.97 226.175C330.97 226.175 340.437 226.819 342.516 234.496C344.595 242.173 347.047 243.057 344.172 251.025C344.172 251.025 356.477 295.639 353.924 298.874L356.319 310.474L338.732 313.135C338.732 313.135 335.402 306.045 337.171 301.142C338.94 296.239 329.094 277.448 329.094 277.448C329.094 277.448 322.193 256.257 323.792 249.907C325.391 243.557 330.97 226.175 330.97 226.175Z" fill="#C57600"/>
<path d="M468.127 106C467.906 106 467.694 105.916 467.532 105.766C467.371 105.616 467.273 105.41 467.257 105.191C466.537 95.433 462.149 86.3059 454.97 79.6363C447.791 72.9667 438.351 69.2466 428.54 69.2202C427.364 69.2202 426.13 69.2797 424.874 69.3971C424.707 69.4124 424.539 69.3796 424.391 69.3028C424.242 69.2259 424.119 69.1081 424.035 68.9634C419.533 61.1038 412.808 54.7406 404.702 50.6679C396.596 46.5953 387.466 44.9935 378.453 46.0626C369.439 47.1317 360.941 50.8242 354.019 56.6794C347.096 62.5346 342.056 70.2931 339.528 78.9867C339.473 79.1705 339.36 79.3314 339.205 79.4448C339.05 79.5581 338.862 79.6177 338.67 79.6143L338.378 79.6056C338.226 79.6005 338.073 79.5952 337.918 79.5952C330.468 79.6184 323.25 82.1813 317.461 86.8585C311.672 91.5358 307.661 98.0462 306.093 105.31C306.052 105.505 305.945 105.68 305.789 105.806C305.634 105.931 305.44 106 305.24 106H231.872C231.641 106 231.419 105.908 231.255 105.745C231.092 105.582 231 105.361 231 105.13C231 104.899 231.092 104.678 231.255 104.515C231.419 104.352 231.641 104.26 231.872 104.26H304.54C306.323 96.7608 310.585 90.078 316.639 85.2882C322.694 80.4983 330.19 77.8802 337.918 77.8554C337.961 77.8554 338.003 77.8558 338.045 77.8562C341.006 68.2837 346.883 59.8683 354.86 53.7789C363.194 47.4058 373.411 43.967 383.914 44.0002C392.27 44.0161 400.478 46.2022 407.729 50.3432C414.981 54.4842 421.026 60.4373 425.268 67.6163C426.387 67.526 427.485 67.4804 428.54 67.4804C438.792 67.5081 448.657 71.3957 456.158 78.3653C463.66 85.3348 468.246 94.8723 468.998 105.069C469.006 105.183 468.991 105.298 468.955 105.406C468.919 105.514 468.861 105.614 468.786 105.701C468.711 105.787 468.62 105.858 468.517 105.909C468.415 105.96 468.303 105.99 468.189 105.998C468.168 105.999 468.147 106 468.127 106Z" fill="#2F2E41"/>
<path d="M426.132 120H275.868C275.637 119.999 275.417 119.894 275.254 119.706C275.091 119.519 275 119.265 275 119C275 118.735 275.091 118.481 275.254 118.294C275.417 118.106 275.637 118.001 275.868 118H426.132C426.362 118.001 426.583 118.106 426.746 118.294C426.909 118.481 427 118.735 427 119C427 119.265 426.909 119.519 426.746 119.706C426.583 119.894 426.362 119.999 426.132 120Z" fill="#2F2E41"/>
<path d="M319.127 135H258.873C258.641 135 258.419 134.947 258.256 134.854C258.092 134.76 258 134.633 258 134.5C258 134.367 258.092 134.24 258.256 134.146C258.419 134.053 258.641 134 258.873 134H319.127C319.359 134 319.581 134.053 319.744 134.146C319.908 134.24 320 134.367 320 134.5C320 134.633 319.908 134.76 319.744 134.854C319.581 134.947 319.359 135 319.127 135Z" fill="#2F2E41"/>
<path d="M92.4256 207C92.5332 207 92.6367 206.958 92.7153 206.883C92.7939 206.808 92.8418 206.705 92.8493 206.596C93.2002 201.716 95.3392 197.153 98.8382 193.818C102.337 190.483 106.938 188.623 111.72 188.61C112.293 188.61 112.894 188.64 113.507 188.699C113.588 188.706 113.67 188.69 113.742 188.651C113.815 188.613 113.875 188.554 113.916 188.482C116.11 184.552 119.387 181.37 123.339 179.334C127.29 177.298 131.739 176.497 136.132 177.031C140.526 177.566 144.667 179.412 148.041 182.34C151.415 185.267 153.872 189.147 155.104 193.493C155.131 193.585 155.186 193.666 155.261 193.722C155.337 193.779 155.428 193.809 155.522 193.807L155.664 193.803C155.739 193.8 155.813 193.798 155.889 193.798C159.52 193.809 163.038 195.091 165.859 197.429C168.681 199.768 170.636 203.023 171.4 206.655C171.42 206.752 171.472 206.84 171.548 206.903C171.624 206.966 171.718 207 171.816 207H207.575C207.688 207 207.796 206.954 207.875 206.873C207.955 206.791 208 206.68 208 206.565C208 206.45 207.955 206.339 207.875 206.257C207.796 206.176 207.688 206.13 207.575 206.13H172.157C171.288 202.38 169.211 199.039 166.26 196.644C163.309 194.249 159.655 192.94 155.889 192.928C155.868 192.928 155.847 192.928 155.827 192.928C154.384 188.142 151.519 183.934 147.631 180.889C143.569 177.703 138.59 175.983 133.471 176C129.398 176.008 125.397 177.101 121.863 179.172C118.329 181.242 115.383 184.219 113.315 187.808C112.77 187.763 112.234 187.74 111.72 187.74C106.723 187.754 101.915 189.698 98.259 193.183C94.6028 196.667 92.3677 201.436 92.0011 206.535C91.9971 206.592 92.0042 206.649 92.0219 206.703C92.0396 206.757 92.0676 206.807 92.1042 206.85C92.1408 206.893 92.1854 206.929 92.2354 206.954C92.2854 206.98 92.3398 206.995 92.3955 206.999C92.4056 207 92.4156 207 92.4256 207Z" fill="#2F2E41"/>
<path d="M112.428 213H186.572C186.685 213 186.794 212.947 186.875 212.853C186.955 212.759 187 212.632 187 212.5C187 212.368 186.955 212.241 186.875 212.147C186.794 212.053 186.685 212 186.572 212H112.428C112.315 212 112.206 212.053 112.125 212.147C112.045 212.241 112 212.368 112 212.5C112 212.632 112.045 212.759 112.125 212.853C112.206 212.947 112.315 213 112.428 213Z" fill="#2F2E41"/>
<path d="M165.422 221H194.578C194.69 221 194.797 220.947 194.876 220.854C194.955 220.76 195 220.633 195 220.5C195 220.367 194.955 220.24 194.876 220.146C194.797 220.053 194.69 220 194.578 220H165.422C165.31 220 165.203 220.053 165.124 220.146C165.044 220.24 165 220.367 165 220.5C165 220.633 165.044 220.76 165.124 220.854C165.203 220.947 165.31 221 165.422 221Z" fill="#2F2E41"/>
<g clip-path="url(#clip1_2_11)">
<mask id="mask0_2_11" style="mask-type:luminance" maskUnits="userSpaceOnUse" x="141" y="347" width="99" height="94">
<path d="M240 347H141V441H240V347Z" fill="white"/>
</mask>
<g mask="url(#mask0_2_11)">
<path fill-rule="evenodd" clip-rule="evenodd" d="M190.5 348.16C178.746 348.16 167.376 352.132 158.425 359.364C149.473 366.596 143.523 376.617 141.64 387.633C139.758 398.649 142.064 409.941 148.148 419.49C154.232 429.039 163.695 436.221 174.846 439.751C177.321 440.162 178.249 438.752 178.249 437.518C178.249 436.402 178.187 432.701 178.187 428.765C165.75 430.938 162.533 425.886 161.543 423.242C160.986 421.891 158.573 417.72 156.469 416.603C154.736 415.722 152.261 413.548 156.407 413.49C160.305 413.431 163.089 416.897 164.018 418.307C168.473 425.416 175.588 423.418 178.434 422.185C178.868 419.13 180.167 417.073 181.59 415.898C170.576 414.723 159.068 410.67 159.068 392.692C158.998 388.021 160.813 383.502 164.141 380.061C163.646 378.886 161.914 374.068 164.636 367.606C164.636 367.606 168.782 366.372 178.249 372.423C186.349 370.308 194.899 370.308 202.999 372.423C212.466 366.313 216.611 367.606 216.611 367.606C219.334 374.068 217.601 378.886 217.106 380.061C220.444 383.496 222.261 388.019 222.18 392.692C222.18 410.728 210.609 414.723 199.596 415.898C201.39 417.367 202.937 420.187 202.937 424.593C202.937 430.88 202.875 435.932 202.875 437.518C202.875 438.752 203.803 440.221 206.278 439.751C217.409 436.192 226.845 428.994 232.903 419.44C238.961 409.886 241.246 398.599 239.35 387.594C237.455 376.588 231.501 366.581 222.553 359.358C213.605 352.134 202.245 348.166 190.5 348.16Z" fill="#1B1F23"/>
</g>
</g>
</g>
<defs>
<clipPath id="clip0_2_11">
<rect width="438" height="436" fill="white" transform="translate(37 38)"/>
</clipPath>
<clipPath id="clip1_2_11">
<rect width="99" height="94" fill="white" transform="translate(141 347)"/>
</clipPath>
</defs>
</svg>
