<svg xmlns="http://www.w3.org/2000/svg" xmlns:xlink="http://www.w3.org/1999/xlink" width="512" height="512" viewBox="0 0 512 512">
  <defs>
    <clipPath id="clip-path">
      <rect id="Rectangle_517" data-name="Rectangle 517" width="512" height="512" transform="translate(735 661)" fill="none" stroke="#707070" stroke-width="1"/>
    </clipPath>
  </defs>
  <g id="LOMA-L" transform="translate(-735 -661)">
    <g id="Mask_Group_6" data-name="Mask Group 6" clip-path="url(#clip-path)">
      <g id="Group_49" data-name="Group 49" transform="translate(794.716 701.052)">
        <path id="Path_670" data-name="Path 670" d="M665.45,727.5c0,16.26-87.878,29.443-196.284,29.443S272.882,743.759,272.882,727.5c0-11.511,44.05-21.484,108.248-26.321,26.473-2,56.384-3.122,88.037-3.122,13.012,0,25.726.19,38.022.551C597.4,701.267,665.45,713.19,665.45,727.5Z" transform="translate(-272.882 -325.045)" fill="#747280"/>
        <ellipse id="Ellipse_48" data-name="Ellipse 48" cx="75.348" cy="9.181" rx="75.348" ry="9.181" transform="translate(95.609 390.108)" opacity="0.1"/>
        <ellipse id="Ellipse_49" data-name="Ellipse 49" cx="71.232" cy="75.981" rx="71.232" ry="75.981" transform="translate(99.409 253.975)" fill="#3f3d56"/>
        <rect id="Rectangle_359" data-name="Rectangle 359" width="44.322" height="40.523" transform="translate(148.796 374.912)" fill="#ff9148"/>
        <path id="Path_671" data-name="Path 671" d="M395.033,607.614l-2.533,13.93,16.463,2.533,10.764-6.332-.633-10.131Z" transform="translate(-143.979 -222.888)" fill="#6f6f74"/>
        <path id="Path_672" data-name="Path 672" d="M535.459,303.344s-1.266,14.563-4.432,15.2,6.965,25.96,6.965,25.96h15.2l12.03-3.166-5.7-13.93s-7.6-10.131-1.9-18.362S535.459,303.344,535.459,303.344Z" transform="translate(-367.351 -180.119)" fill="#a0616a"/>
        <path id="Path_673" data-name="Path 673" d="M535.459,303.344s-1.266,14.563-4.432,15.2,6.965,25.96,6.965,25.96h15.2l12.03-3.166-5.7-13.93s-7.6-10.131-1.9-18.362S535.459,303.344,535.459,303.344Z" transform="translate(-367.351 -180.119)" opacity="0.1"/>
        <path id="Path_674" data-name="Path 674" d="M483.542,478.089s-16.463,31.659-3.166,37.991,16.463,5.7,16.463,7.6-2.533,1.266-1.266,4.432-2.533,15.829,1.266,23.427,2.533,13.3,2.533,13.3A10.229,10.229,0,0,0,500.638,568c1.266,2.533,1.9,4.432,1.266,5.7s-4.432,9.5-.633,11.4,23.427,3.166,25.327,0-1.9-5.065,0-6.965,3.166-2.533,1.9-3.8-2.533-17.1-2.533-17.1,3.166-18.362,1.9-20.895-3.166-5.065-1.9-6.965,2.533-1.266,3.166-3.8,1.9-8.231,1.9-8.231l6.965-.633,16.463,3.166s18.362,20.262,38.624,26.593c0,0,5.7,5.7,7.6,5.7s1.9,0,1.266,1.266-2.533,1.266-1.266,2.533,3.166-.633,1.9,1.266-2.533,1.9-1.266,3.166-.633,8.231-.633,8.864-5.7,60.152-3.8,61.418,28.493,5.065,30.392,0-1.266-11.4-1.266-11.4,9.5-75.981,6.965-81.046-11.4-27.86-58.885-42.423c0,0-13.3-2.533-13.3-4.432s-1.267-13.93-3.8-14.563-17.1-1.266-17.1-1.266l-18.362,5.7-25.327-4.432Z" transform="translate(-347.093 -243.426)" fill="#2f2f34"/>
        <path id="Path_675" data-name="Path 675" d="M520.992,646.456l-3.166,11.4s-2.533,18.362.633,22.794a19.914,19.914,0,0,0,15.161,8.492,10.176,10.176,0,0,0,10.624-7.039,3.165,3.165,0,0,0,.175-.82c0-1.266-1.9-16.462-1.9-16.462l-3.166-15.829-.633-4.432Z" transform="translate(-362.382 -305.419)" fill="#29292c"/>
        <path id="Path_676" data-name="Path 676" d="M666.431,730.162s-3.166-3.166-3.8,0-3.166,16.463,1.266,17.1,46.855,6.965,51.287,4.432,12.664-6.332,7.6-8.231-19.629-7.6-19.629-7.6-8.231-10.764-9.5-11.4-8.231.633-11.4,3.166S666.431,730.162,666.431,730.162Z" transform="translate(-415.377 -334.672)" fill="#29292c"/>
        <circle id="Ellipse_50" data-name="Ellipse 50" cx="19.628" cy="19.628" r="19.628" transform="translate(163.676 97.264)" fill="#a0616a"/>
        <path id="Path_677" data-name="Path 677" d="M531.014,348.923l-7.6-8.231-8.422-16.463s-6.141-1.9-7.407,1.266-24.061,13.3-24.061,13.3,5.7,53.187,3.166,58.252-6.965,25.327-3.166,27.227,21.528,0,27.227,2.533,22.161,2.533,26.593-.633,5.7-5.7,10.131-3.8c3.773,1.617,12.594-53.669,15.134-70.144a7.5,7.5,0,0,0-3.108-7.288c-5.681-3.985-15.913-10.852-17.725-9.947C539.245,336.26,531.014,348.923,531.014,348.923Z" transform="translate(-349.609 -187.708)" fill="#77a0a5"/>
        <path id="Path_678" data-name="Path 678" d="M596.689,359.557h0a7.509,7.509,0,0,1,5.642,6.456l5.122,46.1s-12.664,27.227-19,8.865S596.689,359.557,596.689,359.557Z" transform="translate(-388.058 -200.874)" fill="#77a0a5"/>
        <path id="Path_679" data-name="Path 679" d="M594.487,447.356l13.93-3.8s2.533,17.729,5.065,17.729-8.864,10.131-14.563,8.864-13.93-5.7-14.563-8.864,5.7-16.463,5.7-16.463Z" transform="translate(-387.122 -231.688)" fill="#77a0a5"/>
        <path id="Path_680" data-name="Path 680" d="M531.548,282.521c1.335-2.943,1.1-6.376,2.206-9.413a11.224,11.224,0,0,1,17.066-5.306c1.419,1.012,2.843,2.434,4.575,2.241,1.866-.208,3.53-2.289,5.245-1.527,1.9.845,1.388,4.253,3.314,5.04a2.434,2.434,0,0,0,2.8-1.15,7.106,7.106,0,0,0,.814-3.151c.266-2.7.506-5.559-.665-8.006a19.2,19.2,0,0,1-1.284-2.59,8.865,8.865,0,0,1-.244-2.555c-.011-3.174-.242-6.485-1.84-9.228a13.38,13.38,0,0,0-8.468-5.839,32.305,32.305,0,0,0-10.509-.422c-5.8.491-11.853,1.544-16.424,5.151a6.421,6.421,0,0,0-1.579,1.659,8.562,8.562,0,0,0-.841,2.432A50.313,50.313,0,0,1,521.3,261.43a25.114,25.114,0,0,0-2.277,4.917,6.365,6.365,0,0,0,.563,5.231c.826,1.22,2.147,1.871,3.184,2.869s1.509,2.89,2.648,3.639c.994.654,2.185.192,3.2.885C529.921,279.858,530.015,281.808,531.548,282.521Z" transform="translate(-363.061 -157.161)" fill="#2f2e41"/>
        <path id="Path_681" data-name="Path 681" d="M564.382,376.356l1.9-3.8s27.86,8.231,33.558,15.829c0,0,13.93-8.864,21.528-7.6l7.6,1.266-23.428,20.895-29.759-2.533Z" transform="translate(-379.811 -205.643)" fill="#f2f2f2"/>
        <path id="Path_682" data-name="Path 682" d="M547.342,372.557l-25.96,36.091,37.357,18.362s3.492,1.9,6.179,0l24.847-11.4,23.427-33.558-23.427,12.03s-2.533-5.065-7.6-2.533Z" transform="translate(-364.038 -205.643)" fill="#ff9148"/>
        <path id="Path_683" data-name="Path 683" d="M623.547,452.721l5.065-13.3s11.4-14.563,5.066-21.528-13.3,20.262-13.3,20.262Z" transform="translate(-400.353 -221.857)" fill="#a0616a"/>
        <path id="Path_684" data-name="Path 684" d="M533.079,454.3l11.053-8.961s17.165-6.879,15.183-16.081-21.668,10.856-21.668,10.856Z" transform="translate(-368.329 -225.556)" fill="#a0616a"/>
        <path id="Path_685" data-name="Path 685" d="M481.113,366.64h-.633s-9.814-11.714-11.714,4.116-8.231,68.383,8.231,70.282a40.03,40.03,0,0,0,28.176-7.915s12.03-18.362,7.6-18.362c-2.144,0-7.977-.963-13.3-.633-5.675.352-10.774,1.951-10.447.317C489.661,411.279,498.842,371.072,481.113,366.64Z" transform="translate(-343.714 -201.942)" opacity="0.1"/>
        <path id="Path_686" data-name="Path 686" d="M478.329,348.823l-2.533-1.266s-10.131,1.9-12.03,17.729-8.231,68.383,8.231,70.282,38.624-2.533,38.624-2.533,4.432-24.061,0-24.061-27.227,3.166-26.593,0S496.058,353.255,478.329,348.823Z" transform="translate(-341.88 -196.473)" fill="#77a0a5"/>
        <path id="Path_687" data-name="Path 687" d="M338,346.914l6.982-10.7,4.415,17.666L338,358.945Z" transform="translate(-123.987 -123.331)" fill="#77a0a5"/>
        <circle id="Ellipse_51" data-name="Ellipse 51" cx="17.096" cy="17.096" r="17.096" transform="translate(53.486 36.796)" fill="#eea576"/>
        <rect id="Rectangle_360" data-name="Rectangle 360" width="40.523" height="40.523" transform="translate(50.32 181.16)" fill="#ff9148"/>
        <path id="Path_688" data-name="Path 688" d="M360.116,0l10.257,17.765L380.629,35.53H339.6l10.256-17.765Z" transform="translate(-124.575)" fill="#d16f2e"/>
        <path id="Path_770" data-name="Path 770" d="M833.348,216.6a11.85,11.85,0,0,1-2.1,6.9,5.719,5.719,0,0,1-4.654,2.6q-2.2,0-3.848-2.542t-1.653-7.821q0-1.167.055-2.223t.139-2l.972-9.141h-6.418q-1.667,17.337-2.737,20.629t-3.626,3.292a3.065,3.065,0,0,1-2.056-.861,2.893,2.893,0,0,1-.973-2.278q0-1.278,2.014-3.57a8.139,8.139,0,0,0,2.236-4.181l1.667-13.03h-2.695a4.776,4.776,0,0,0-2.181.542,4.117,4.117,0,0,0-1.57,1.264l-1.195,1.778h-.973a16.81,16.81,0,0,1,3.348-6.348,6.094,6.094,0,0,1,4.57-2.125H832.9v4.89h-7.168q-.333,3.334-.514,6.668t-.181,6.7a6.027,6.027,0,0,0,1.056,3.7,3.179,3.179,0,0,0,2.639,1.417,3.476,3.476,0,0,0,2.042-.792,2.871,2.871,0,0,0,1.209-2.07q.083-.611.125-.959t.042-.431Z" transform="translate(-477.773 -82.535)" fill="#b84a01"/>
        <path id="Path_771" data-name="Path 771" d="M833.348,212.977a11.85,11.85,0,0,1-2.1,6.9,5.719,5.719,0,0,1-4.654,2.6q-2.2,0-3.848-2.542t-1.653-7.821q0-1.167.055-2.223t.139-2l.972-9.141h-6.418q-1.667,17.337-2.737,20.629t-3.626,3.292a3.065,3.065,0,0,1-2.056-.861,2.893,2.893,0,0,1-.973-2.278q0-1.278,2.014-3.57a8.138,8.138,0,0,0,2.236-4.181l1.667-13.03h-2.695a4.777,4.777,0,0,0-2.181.542,4.117,4.117,0,0,0-1.57,1.264l-1.195,1.778h-.973a16.81,16.81,0,0,1,3.348-6.348,6.094,6.094,0,0,1,4.57-2.125H832.9v4.89h-7.168q-.333,3.334-.514,6.668t-.181,6.7a6.027,6.027,0,0,0,1.056,3.7,3.179,3.179,0,0,0,2.639,1.417,3.476,3.476,0,0,0,2.042-.792,2.871,2.871,0,0,0,1.209-2.07q.083-.611.125-.959t.042-.431Z" transform="translate(-476.814 -78.917)" fill="#ff9148"/>
      </g>
    </g>
  </g>
</svg>
