<svg width="512" height="512" viewBox="0 0 512 512" fill="none" xmlns="http://www.w3.org/2000/svg">
<path d="M367.088 116C367.088 116 344.727 128.202 351.164 142.095C357.6 155.988 449 144.621 449 144.621C449 144.621 442.563 125.676 430.978 121.887C419.392 118.098 367.088 116 367.088 116Z" fill="#6C63FF"/>
<path d="M358 119.925C362.478 116.996 367.456 114.924 372.683 113.815C390.115 109.564 408.366 110.137 425.502 115.473L425.188 115.216C432.488 119.094 438.897 124.471 444 131L358 119.925Z" fill="#CCCCCC"/>
<path d="M456.511 179.356C456.202 183.886 455.893 188.411 455.584 192.932C455.16 202.401 454.106 211.833 452.428 221.167C450.857 228.977 448.358 236.724 443.889 243.372C439.42 250.009 432.787 255.497 424.93 257.516C420.106 258.648 415.091 258.756 410.221 257.831C401.038 252.721 394.817 259.257 403.987 265.906C406.068 267.412 408.23 268.806 410.466 270.082L414.626 333L337.347 316.599L352.429 232.901C350.119 230.845 348.006 228.585 346.118 226.151C337.476 214.91 334.5 200.262 335.067 186.207C335.647 172.14 339.472 158.426 343.271 144.863C344.24 141.183 345.41 137.557 346.775 134C348.462 134.681 350.175 135.299 351.914 135.817C363.029 139.122 374.84 139.387 386.458 139.375C407.13 139.362 427.776 138.571 448.397 137.003C453.136 144.645 456.013 153.253 456.808 162.16C457.14 167.891 457.041 173.639 456.511 179.356Z" fill="#CCCCCC"/>
<path d="M456.737 168C454.671 180.421 456.485 193.186 461.926 204.508C463.94 208.673 466.434 213.69 463.982 217.605C463.294 218.583 462.399 219.394 461.362 219.976C460.326 220.559 459.174 220.899 457.991 220.972C455.625 221.099 453.256 220.788 451 220.054" fill="#CCCCCC"/>
<path d="M356 130C358.209 130 360 128.657 360 127C360 125.343 358.209 124 356 124C353.791 124 352 125.343 352 127C352 128.657 353.791 130 356 130Z" fill="#3F3D56"/>
<path d="M370 131C372.209 131 374 129.657 374 128C374 126.343 372.209 125 370 125C367.791 125 366 126.343 366 128C366 129.657 367.791 131 370 131Z" fill="#3F3D56"/>
<path d="M384 138C386.209 138 388 136.433 388 134.5C388 132.567 386.209 131 384 131C381.791 131 380 132.567 380 134.5C380 136.433 381.791 138 384 138Z" fill="#3F3D56"/>
<path d="M401 134C403.209 134 405 132.433 405 130.5C405 128.567 403.209 127 401 127C398.791 127 397 128.567 397 130.5C397 132.433 398.791 134 401 134Z" fill="#3F3D56"/>
<path d="M49.3843 193.847C68.1649 188.739 89.0828 194.213 103.596 206.753C111.426 213.566 117.173 222.375 120.196 232.198C123.901 243.891 124.514 256.226 124.902 268.38C125.331 281.819 125.704 295.26 126.103 308.701C126.484 321.515 126.529 334.39 127.402 347.184C128.134 357.919 129.888 369.063 135.752 378.375C141.188 387.007 149.777 392.835 159.483 396.048C169.322 399.305 179.927 400.063 190.248 399.996C202.258 399.959 214.249 399.029 226.116 397.214C248.656 393.676 270.92 384.652 284.686 366.035C291.025 357.581 294.586 347.437 294.898 336.952C295.188 324.734 291.204 312.9 286.84 301.614C282.594 290.632 277.999 279.812 275.311 268.33C272.815 257.584 271.625 246.587 271.767 235.567C271.998 213.521 277.391 191.821 287.531 172.138C292.663 162.03 299.173 152.651 306.883 144.26C314.833 135.784 324.679 128.786 336.386 126.492C342.1 125.332 348.017 125.565 353.617 127.171C356.006 127.872 357.027 124.216 354.645 123.518C343.047 120.115 330.447 122.702 320.163 128.608C310.053 134.415 302.062 143.126 295.281 152.362C282.252 170.471 273.579 191.235 269.911 213.098C266.244 234.961 267.677 257.353 274.105 278.595C280.987 300.682 295.954 323.673 289.524 347.575C283.896 368.498 264.4 382.716 244.26 389.139C232.041 393.035 219.231 394.684 206.453 395.536C195.655 396.257 184.71 396.715 173.943 395.356C164.053 394.107 153.88 391.145 146.213 384.64C137.808 377.511 133.966 367.266 132.294 356.752C130.402 344.856 130.68 332.589 130.323 320.586L129.105 279.613C128.417 256.473 129.01 230.826 113.644 211.652C107.5 204.18 99.6987 198.18 90.8322 194.108C81.9657 190.035 72.268 187.998 62.4768 188.15C57.7019 188.257 52.959 188.944 48.3564 190.194C47.8777 190.341 47.476 190.664 47.236 191.095C46.9959 191.527 46.9363 192.033 47.0696 192.507C47.2029 192.98 47.5188 193.385 47.9506 193.635C48.3825 193.885 48.8964 193.961 49.3843 193.847Z" fill="#3F3D56"/>
<path d="M375 180C375.01 183.292 374.579 186.571 373.717 189.753V189.766C373.704 189.829 373.678 189.893 373.665 189.956C371.046 199.38 364.798 206 357.5 206C350.241 206 344.018 199.43 341.361 190.083C341.18 189.436 341.024 188.789 340.881 188.117C340.7 187.369 340.557 186.595 340.441 185.796C340.337 185.162 340.259 184.515 340.194 183.856C340.104 182.942 340.039 182.029 340.026 181.078V181.065C340 180.71 340 180.355 340 180V179.683L340.013 179.67C340.015 178.063 340.123 176.457 340.337 174.863C340.428 174.191 340.531 173.544 340.661 172.898C340.817 172.111 340.985 171.338 341.193 170.577C341.361 169.904 341.556 169.258 341.763 168.611C342.048 167.748 342.359 166.911 342.709 166.112C342.93 165.592 343.163 165.085 343.396 164.59C346.585 158.173 351.718 154 357.5 154C365.498 154 372.239 161.978 374.326 172.86C374.352 173.024 374.391 173.189 374.404 173.354V173.367C374.803 175.556 375.002 177.776 375 180Z" fill="#E6E6E6"/>
<path d="M344 164.733C343.992 165.039 343.887 165.332 343.705 165.563C343.523 165.793 343.274 165.948 343 166C343.258 165.317 343.53 164.65 343.803 164C343.929 164.22 343.998 164.474 344 164.733Z" fill="#6C63FF"/>
<path d="M359.024 164H347.976C347.437 164 347 164.448 347 165C347 165.552 347.437 166 347.976 166H359.024C359.563 166 360 165.552 360 165C360 164.448 359.563 164 359.024 164Z" fill="#6C63FF"/>
<path d="M344 168.994C344 169.26 343.894 169.516 343.707 169.705C343.519 169.893 343.265 170 343 170H342C342.167 169.316 342.359 168.658 342.564 168H343C343.263 168 343.516 168.104 343.703 168.29C343.89 168.476 343.997 168.729 344 168.994Z" fill="#6C63FF"/>
<path d="M348.953 168H347.047C346.469 168 346 168.448 346 169C346 169.552 346.469 170 347.047 170H348.953C349.531 170 350 169.552 350 169C350 168.448 349.531 168 348.953 168Z" fill="#6C63FF"/>
<path d="M364.949 168H353.051C352.471 168 352 168.448 352 169C352 169.552 352.471 170 353.051 170H364.949C365.529 170 366 169.552 366 169C366 168.448 365.529 168 364.949 168Z" fill="#6C63FF"/>
<path d="M347.953 173H346.047C345.469 173 345 173.448 345 174C345 174.552 345.469 175 346.047 175H347.953C348.531 175 349 174.552 349 174C349 173.448 348.531 173 347.953 173Z" fill="#6C63FF"/>
<path d="M353.953 173H352.047C351.469 173 351 173.448 351 174C351 174.552 351.469 175 352.047 175H353.953C354.531 175 355 174.552 355 174C355 173.448 354.531 173 353.953 173Z" fill="#6C63FF"/>
<path d="M343 173.994C343 174.26 342.923 174.516 342.786 174.705C342.65 174.893 342.464 175 342.271 175H341C341.065 174.316 341.14 173.658 341.234 173H342.271C342.366 172.999 342.461 173.023 342.549 173.073C342.637 173.122 342.717 173.195 342.785 173.287C342.853 173.38 342.907 173.49 342.944 173.611C342.981 173.732 343 173.862 343 173.994Z" fill="#6C63FF"/>
<path d="M370.024 173H358.976C358.437 173 358 173.448 358 174C358 174.552 358.437 175 358.976 175H370.024C370.563 175 371 174.552 371 174C371 173.448 370.563 173 370.024 173Z" fill="#6C63FF"/>
<path d="M344 180.006C344 180.138 343.97 180.268 343.912 180.389C343.855 180.51 343.771 180.62 343.666 180.713C343.56 180.805 343.435 180.878 343.298 180.927C343.161 180.977 343.014 181.001 342.866 181H340.815C340.524 181.001 340.243 180.904 340.029 180.729V180.716C340 180.355 340 179.994 340 179.632V179.31L340.015 179.297C340.119 179.203 340.243 179.128 340.381 179.077C340.518 179.026 340.666 179 340.815 179H342.866C343.166 179 343.455 179.106 343.667 179.295C343.88 179.484 344 179.74 344 180.006Z" fill="#CCCCCC"/>
<path d="M359.024 179H347.976C347.437 179 347 179.448 347 180C347 180.552 347.437 181 347.976 181H359.024C359.563 181 360 180.552 360 180C360 179.448 359.563 179 359.024 179Z" fill="#CCCCCC"/>
<path d="M344 184.994C344 185.261 343.894 185.516 343.705 185.705C343.517 185.894 343.262 186 342.996 186H341.245C341.142 185.355 341.064 184.697 341 184.027C341.058 184.006 341.119 183.997 341.18 184.001H342.996C343.26 184.001 343.514 184.105 343.702 184.291C343.89 184.477 343.997 184.729 344 184.994Z" fill="#CCCCCC"/>
<path d="M348.953 184H347.047C346.469 184 346 184.448 346 185C346 185.552 346.469 186 347.047 186H348.953C349.531 186 350 185.552 350 185C350 184.448 349.531 184 348.953 184Z" fill="#CCCCCC"/>
<path d="M364.949 183H353.051C352.471 183 352 183.448 352 184C352 184.552 352.471 185 353.051 185H364.949C365.529 185 366 184.552 366 184C366 183.448 365.529 183 364.949 183Z" fill="#CCCCCC"/>
<path d="M347.953 188H346.047C345.469 188 345 188.448 345 189C345 189.552 345.469 190 346.047 190H347.953C348.531 190 349 189.552 349 189C349 188.448 348.531 188 347.953 188Z" fill="#CCCCCC"/>
<path d="M353.953 188H352.047C351.469 188 351 188.448 351 189C351 189.552 351.469 190 352.047 190H353.953C354.531 190 355 189.552 355 189C355 188.448 354.531 188 353.953 188Z" fill="#CCCCCC"/>
<path d="M343 188.994C343 189.26 342.904 189.516 342.734 189.705C342.564 189.893 342.333 190 342.093 190H341.43C341.267 189.342 341.128 188.684 341 188H342.093C342.211 187.999 342.329 188.023 342.439 188.073C342.549 188.122 342.648 188.195 342.733 188.287C342.817 188.38 342.884 188.49 342.93 188.611C342.976 188.732 343 188.862 343 188.994Z" fill="#CCCCCC"/>
<path d="M370.024 188H358.976C358.437 188 358 188.448 358 189C358 189.552 358.437 190 358.976 190H370.024C370.563 190 371 189.552 371 189C371 188.448 370.563 188 370.024 188Z" fill="#CCCCCC"/>
<path d="M485.791 436C485.485 436 485.191 435.884 484.968 435.676C484.745 435.467 484.609 435.182 484.587 434.878C483.798 424.157 478.985 414.13 471.112 406.802C463.239 399.475 452.887 395.388 442.128 395.359C440.84 395.359 439.487 395.424 438.107 395.553C437.876 395.575 437.644 395.53 437.438 395.423C437.232 395.316 437.061 395.153 436.946 394.952C432.004 386.309 424.623 379.311 415.725 374.833C406.827 370.354 396.806 368.593 386.912 369.768C377.018 370.944 367.69 375.004 360.091 381.443C352.493 387.882 346.961 396.413 344.185 405.973C344.112 406.23 343.956 406.454 343.741 406.612C343.526 406.769 343.264 406.851 342.998 406.844L342.676 406.834C342.509 406.829 342.342 406.823 342.174 406.823C334.013 406.848 326.106 409.661 319.765 414.794C313.424 419.927 309.03 427.071 307.312 435.042C307.255 435.313 307.107 435.556 306.891 435.73C306.676 435.905 306.407 436 306.13 436H225.208C224.888 436 224.58 435.873 224.354 435.647C224.127 435.42 224 435.113 224 434.793C224 434.473 224.127 434.166 224.354 433.94C224.58 433.714 224.888 433.586 225.208 433.586H305.164C307.176 425.296 311.911 417.917 318.612 412.629C325.312 407.34 333.593 404.447 342.132 404.409C345.172 394.585 351.003 385.855 358.915 379.278C366.827 372.701 376.481 368.562 386.703 367.362C396.926 366.163 407.277 367.955 416.499 372.521C425.721 377.088 433.417 384.231 438.653 393.084C439.841 392.992 441.007 392.945 442.128 392.945C453.498 392.976 464.438 397.295 472.757 405.039C481.077 412.783 486.163 423.379 486.997 434.709C487.008 434.867 486.988 435.026 486.938 435.176C486.887 435.326 486.808 435.465 486.704 435.585C486.6 435.704 486.473 435.802 486.331 435.873C486.189 435.944 486.035 435.986 485.877 435.997C485.848 435.999 485.819 436 485.791 436Z" fill="#2F2E41"/>
<path d="M470.795 451H273.205C272.885 451 272.579 450.895 272.353 450.707C272.127 450.52 272 450.265 272 450C272 449.735 272.127 449.48 272.353 449.293C272.579 449.105 272.885 449 273.205 449H470.795C471.115 449 471.421 449.105 471.647 449.293C471.873 449.48 472 449.735 472 450C472 450.265 471.873 450.52 471.647 450.707C471.421 450.895 471.115 451 470.795 451Z" fill="#2F2E41"/>
<path d="M321.789 469H255.211C254.889 469 254.582 468.895 254.355 468.707C254.128 468.52 254 468.265 254 468C254 467.735 254.128 467.48 254.355 467.293C254.582 467.105 254.889 467 255.211 467H321.789C322.111 467 322.418 467.105 322.645 467.293C322.872 467.48 323 467.735 323 468C323 468.265 322.872 468.52 322.645 468.707C322.418 468.895 322.111 469 321.789 469Z" fill="#2F2E41"/>
<path d="M271.039 113C270.796 113 270.562 112.908 270.384 112.743C270.207 112.579 270.099 112.353 270.082 112.113C269.289 101.41 264.458 91.4001 256.555 84.085C248.652 76.77 238.261 72.6898 227.46 72.6609C226.165 72.6609 224.807 72.7261 223.424 72.8549C223.241 72.8716 223.056 72.8357 222.892 72.7514C222.729 72.6671 222.593 72.5379 222.501 72.3793C217.544 63.759 210.142 56.78 201.218 52.3132C192.294 47.8464 182.244 46.0897 172.322 47.2622C162.399 48.4347 153.044 52.4846 145.424 58.9064C137.803 65.3282 132.255 73.8376 129.472 83.3726C129.412 83.5741 129.287 83.7506 129.117 83.8749C128.946 83.9993 128.739 84.0646 128.528 84.0609L128.207 84.0513C128.038 84.0457 127.87 84.0399 127.7 84.0399C119.498 84.0654 111.552 86.8763 105.18 92.0061C98.8071 97.136 94.3916 104.276 92.6656 112.243C92.6202 112.457 92.502 112.649 92.3309 112.787C92.1599 112.925 91.9463 113 91.726 113H10.9603C10.7056 113 10.4613 112.899 10.2813 112.721C10.1012 112.542 10 112.299 10 112.046C10 111.793 10.1012 111.55 10.2813 111.371C10.4613 111.192 10.7056 111.092 10.9603 111.092H90.9554C92.9181 102.867 97.6099 95.5372 104.275 90.2838C110.941 85.0304 119.192 82.1589 127.7 82.1317C127.746 82.1317 127.793 82.1322 127.839 82.1326C131.099 71.6337 137.569 62.4039 146.35 55.7252C155.524 48.7354 166.772 44.9638 178.333 45.0003C187.532 45.0177 196.568 47.4153 204.551 51.957C212.533 56.4988 219.188 63.028 223.859 70.9017C225.089 70.8027 226.298 70.7527 227.46 70.7527C238.746 70.7831 249.605 75.0469 257.863 82.6909C266.121 90.335 271.169 100.795 271.998 111.979C272.006 112.104 271.99 112.23 271.95 112.348C271.91 112.467 271.847 112.577 271.765 112.672C271.682 112.766 271.581 112.844 271.468 112.9C271.355 112.956 271.233 112.989 271.107 112.998C271.084 112.999 271.061 113 271.039 113Z" fill="#2F2E41"/>
<path d="M225.041 129H58.9592C58.7046 128.999 58.4606 128.894 58.2808 128.706C58.101 128.519 58 128.265 58 128C58 127.735 58.101 127.481 58.2808 127.294C58.4606 127.106 58.7046 127.001 58.9592 127H225.041C225.295 127.001 225.539 127.106 225.719 127.294C225.899 127.481 226 127.735 226 128C226 128.265 225.899 128.519 225.719 128.706C225.539 128.894 225.295 128.999 225.041 129Z" fill="#2F2E41"/>
<path d="M107.043 146H40.9571C40.7033 146 40.4599 145.895 40.2804 145.707C40.1009 145.52 40 145.265 40 145C40 144.735 40.1009 144.48 40.2804 144.293C40.4599 144.105 40.7033 144 40.9571 144H107.043C107.297 144 107.54 144.105 107.72 144.293C107.899 144.48 108 144.735 108 145C108 145.265 107.899 145.52 107.72 145.707C107.54 145.895 107.297 146 107.043 146Z" fill="#2F2E41"/>
</svg>
