<svg xmlns="http://www.w3.org/2000/svg" xmlns:xlink="http://www.w3.org/1999/xlink" width="512" height="512" viewBox="0 0 512 512">
  <defs>
    <clipPath id="clip-path">
      <rect id="Rectangle_517" data-name="Rectangle 517" width="512" height="512" transform="translate(1413 61)" fill="none" stroke="#707070" stroke-width="1"/>
    </clipPath>
  </defs>
  <g id="NETY-L" transform="translate(-1413 -61)">
    <g id="Mask_Group_4" data-name="Mask Group 4" clip-path="url(#clip-path)">
      <g id="Group_50" data-name="Group 50" transform="translate(1404.021 131.107)">
        <path id="Path_820" data-name="Path 820" d="M193.275,249.387a16.149,16.149,0,0,0-1.056-4.041,1.829,1.829,0,0,0-.93-1.145,1.917,1.917,0,0,0-.923-.01l-4.737.725a1.816,1.816,0,0,0-1.081.42c-.617.649-.009,1.694-.028,2.589a2.434,2.434,0,0,1-1.886,2.094,7.128,7.128,0,0,1-3-.037l-6.624-1.029a10.922,10.922,0,0,0,5.011-3.344c.872-1.033,1.336-2.961.076-3.45a3.093,3.093,0,0,0-1.151-.092c-3,.023-5.363-2.483-8.173-3.538a9.036,9.036,0,0,0-10.17,3.032l3.529.17a1.566,1.566,0,0,1,.94.251c.773.635-.188,1.856-.079,2.851.142,1.293,1.858,1.569,3.152,1.7s2.935,1.182,2.313,2.324c-6.5,2.24-13.12-4.379-19.95-3.564a40.53,40.53,0,0,0-5.048,1.312c-10.309,2.608-20.967-4.351-31.5-2.877a40,40,0,0,0-6.876,1.813,9.269,9.269,0,0,0-3.97,2.071c-1.041,1.091-1.438,2.958-.451,4.1a23.072,23.072,0,0,1-8.085-.769,4.53,4.53,0,0,1,2.329,3.992,47.97,47.97,0,0,0-12.289,3.747,20.7,20.7,0,0,0,2.544,3.388l-5.375,3.453a3.068,3.068,0,0,1,1.7,4.48c1.883-.838,3.05-3,5.063-3.444a6.823,6.823,0,0,1,3.913.759,6.112,6.112,0,0,0,3.922.618c1.3-.38,2.251-2.06,1.428-3.13a67.027,67.027,0,0,1,17.026-2.66,2.135,2.135,0,0,1,1.289.245c.751.521.553,1.646.513,2.558s.671,2.112,1.487,1.7c-.96.832-.139,2.4.781,3.274s2.03,2.083,1.467,3.221c-.147.3-.4.535-.538.835-.418.885.246,1.916,1.028,2.5a8.764,8.764,0,0,1,2.284,1.812c.544.814.3,2.238-.675,2.352l-2.763-3.508a7.192,7.192,0,0,0-1.866,3.536,7.421,7.421,0,0,1,.918,10.151c-1.253,1.472-3.036,2.367-4.591,3.516s-3,2.784-2.991,4.718c.007,3.341-.266,6.444.986,9.541a146.975,146.975,0,0,0,7.979,16.648c.789,1.412,1.81,2.959,3.409,3.2q-3.032-7.38-5.458-14.99c1.054,0,2.271.088,2.889.941a5.988,5.988,0,0,1,.561,2.526,7.824,7.824,0,0,0,1,2.346l9.651,17.191c.8,1.425,1.718,2.955,3.247,3.532.978.369,2.109.3,3.008.831.705.416,1.18,1.156,1.9,1.548,2.033,1.109,4.86-1.018,6.76.306a19.021,19.021,0,0,1,1.389,1.414c1.755,1.52,4.633.5,6.659,1.637,1.306.731,1.982,2.192,2.678,3.516,1.744,3.317,4.566,6.566,8.3,6.83a23.156,23.156,0,0,1,3.521.122c1.148.261,2.278,1.263,2.093,2.425-.316,1.993.669,4.176.4,6.176-.482,3.644-5.651,5.246-6.095,8.895a20.65,20.65,0,0,1-.135,2.406c-.233.958-.953,1.739-1.209,2.691-.485,1.805.809,3.6,2.23,4.817s3.116,2.262,3.893,3.962c.821,1.8.418,3.893.685,5.85.583,4.274,4.275,7.442,8.074,9.485a8.434,8.434,0,0,1,3.149,2.3c.978,1.409.88,3.267,1.207,4.951.8,4.124,4.272,7.522,4.37,11.722.07,2.985-1.589,5.693-2.58,8.51a19.846,19.846,0,0,0,1.621,16.459,26.354,26.354,0,0,1,2.153,3.79c.936,2.422.632,5.176,1.5,7.625,1.141,3.238,4.276,5.912,3.976,9.332,1.423,2.956,4.567,4.408,7.727,5.288l5.665,1.577a7.278,7.278,0,0,0,3.322.388,2.493,2.493,0,0,0,2.13-2.261c-2.778-.626-5.645-1.293-7.935-2.985s-3.859-4.707-2.99-7.419c.4-1.258,1.26-2.71.445-3.749-.467-.6-1.32-.75-1.846-1.293-.821-.847-.539-2.269.051-3.29a11.107,11.107,0,0,0,1.681-3.088,3.222,3.222,0,0,0-1.51-3.352,8.008,8.008,0,0,0,2.8-1.8,2.733,2.733,0,0,0,.5-3.1c1.722.218,3.756.325,4.887-.992a4.377,4.377,0,0,0,.484-3.965,16.933,16.933,0,0,1-.979-4.027,73.4,73.4,0,0,0,11.907-.4,7.721,7.721,0,0,0-3.62-4.534c1.79-.3,3.42-2.445,3.985-4.17a10.729,10.729,0,0,0,.072-5.385,2.889,2.889,0,0,1-.054-1.411,2.749,2.749,0,0,1,1.416-1.369l8.883-5.1a5.175,5.175,0,0,0,1.42-1.049c.931-1.093.793-2.743.316-4.1a20.578,20.578,0,0,1-1.423-4.052c-.549-4.259,4.01-7.314,5.548-11.323a17.06,17.06,0,0,0,.844-4.964c.125-1.805.135-3.9-1.251-5.066-1.329-1.115-3.405-.866-4.8-1.9-1.275-.951-1.715-2.8-3.107-3.567-1.265-.7-2.851-.254-4.257-.582-2.477-.578-4.035-3.432-6.565-3.7-1.427-.149-3.042.549-4.212-.283-1.031-.732-1.072-2.2-1.268-3.453a9.645,9.645,0,0,0-7.784-7.809c-1.471-.236-3.073-.146-4.325-.955-1.268-.819-1.849-2.352-2.844-3.486-1.6-1.828-4.132-2.477-6.5-3.033l-9.63-2.264c-1.71-.4-3.913-.615-4.831.882a6.921,6.921,0,0,0-.571,1.8,5.566,5.566,0,0,1-5.234,3.94,6.19,6.19,0,0,0-3.65-2.824,22.753,22.753,0,0,1-2.953-.7,4.148,4.148,0,0,1-1.8-5.754,5.164,5.164,0,0,0-.882-6.211,8.381,8.381,0,0,0-6.2-1.678c-.575-1.255.387-2.671,1.423-3.583s2.295-1.809,2.52-3.171c.355-2.142-2.378-3.769-4.454-3.131s-3.4,2.655-4.276,4.642a13.663,13.663,0,0,1-1.722,3.3,3.383,3.383,0,0,1-3.276,1.341c-1.709-.437-2.369-2.467-2.747-4.19a27.249,27.249,0,0,1-.912-7.019,9.178,9.178,0,0,1,2.647-6.392c2.841-2.608,7.2-2.352,11.033-1.936a2.8,2.8,0,0,1,.287-3.7,4.208,4.208,0,0,1,3.814-.937,5.256,5.256,0,0,1,2.955,1.766c1.089,1.328,1.4,3.122,2.223,4.629s2.675,2.794,4.191,1.985c1.309-.7,1.517-2.514,1.191-3.961s-1.018-2.855-.9-4.334c.225-2.822,3.151-4.521,5.733-5.684s5.538-2.726,5.947-5.527a5.041,5.041,0,0,1,.306-1.606,3.151,3.151,0,0,1,1.156-1.087c7.535-4.98,15.2-10.02,23.807-12.741.448-.142.5.016.957-.1.639-.369.216-1.391-.4-1.8s-1.432-.727-1.587-1.449c-.114-.53.2-1.051.279-1.588a1.982,1.982,0,0,0-2.6-2.008c-.692-.916.677-1.981,1.784-2.285A48.445,48.445,0,0,1,213.62,276.8a1.833,1.833,0,0,1,1.158.2,1.385,1.385,0,0,1,.095,1.891,11.128,11.128,0,0,1-1.558,1.414,4.251,4.251,0,0,0-1.1,4.276c1.8.914,3.75,1.855,5.74,1.533s3.757-2.558,2.821-4.344c-.871-1.663-3.488-2.038-3.938-3.861-.527-2.134,2.494-4.032,1.814-6.122-.3-.915-1.21-1.454-1.911-2.115a5.74,5.74,0,0,1-1.256-6.364,7.241,7.241,0,0,1-6.351-1.987c-1.519-1.533-2.731-3.951-4.888-3.883-1.979.063-3.684,2.372-5.535,1.668-.455-.173-.935-.526-1.377-.319a1.138,1.138,0,0,0-.514.852c-.47,2.249.339,4.811-.887,6.754-1.334,2.115-4.419,2.408-6.036,4.315-.878,1.035-1.218,2.43-2.025,3.521s-2.519,1.785-3.487.834a4.807,4.807,0,0,0-1.306-5.845,12.827,12.827,0,0,0-2.884-1.4,17.109,17.109,0,0,1-3.222-1.8,3.174,3.174,0,0,1-1.183-1.266,2.884,2.884,0,0,1,.081-2,8.184,8.184,0,0,1,6.513-5.4c1.289-.175,2.789-.114,3.643-1.1.451-.52.688-1.305,1.343-1.517a1.982,1.982,0,0,1,1.24.153l4.812,1.694a3.377,3.377,0,0,0,1.714.283,1.162,1.162,0,0,0,1-1.221c-.154-.8-1.383-1.182-1.271-1.988a1.328,1.328,0,0,1,.4-.677,17.2,17.2,0,0,1,13.644-5.388c.607,1-.353,2.179-1.152,3.03s-1.441,2.373-.475,3.028a2.65,2.65,0,0,0,1.281.289,11.186,11.186,0,0,1,3.41,1.034q2.494,1.085,4.892,2.375A6.2,6.2,0,0,1,217,254.2a2.133,2.133,0,0,1,2.527-1.375c.956.37,1.446,1.636,2.465,1.752,1.359.155,1.895-1.852,1.327-3.1s-1.691-2.286-1.785-3.65c-.063-.92.287-2.062-.448-2.619a2,2,0,0,0-.867-.3l-18.355-3.378c-1.09-.2-2.665-.047-2.713,1.06-.027.618.525,1.23.281,1.8-.261.606-1.118.551-1.743.766a2.382,2.382,0,0,0-1.362,2.5,6.966,6.966,0,0,0,1.15,2.821C196.276,249.978,194.469,249.886,193.275,249.387Z" transform="translate(-58.848 -164.874)" fill="#3f3d56"/>
        <path id="Path_821" data-name="Path 821" d="M282.412,228.711a5.944,5.944,0,0,0-6.529,1.955,1.308,1.308,0,0,0-.3,1.377c.363.618,1.287.374,1.968.153a4.954,4.954,0,0,1,3.109-.074c.64.22,1.212.608,1.855.819a1.868,1.868,0,0,0,1.9-.278,2.479,2.479,0,0,0,.47-1.779,1.431,1.431,0,0,0-.365-1.176,1.869,1.869,0,0,0-.843-.249,2.9,2.9,0,0,1-1.7-.993" transform="translate(-162.63 -159.779)" fill="#3f3d56"/>
        <path id="Path_822" data-name="Path 822" d="M302.537,225.124a1.512,1.512,0,0,0-1.461,2.13,6.128,6.128,0,0,0,2.444.159,2.089,2.089,0,0,0,1.708-1.566,3.932,3.932,0,0,1-2.784-.532" transform="translate(-176.136 -158.035)" fill="#3f3d56"/>
        <path id="Path_823" data-name="Path 823" d="M344.544,216.311a28.106,28.106,0,0,0-6.266,2.129,4.708,4.708,0,0,1,3.007,4.729,2.463,2.463,0,0,0,.029,1.169c.23.558.9.767,1.483.91a9.779,9.779,0,0,0,3.253.415,3.314,3.314,0,0,0,2.693-1.646,11.717,11.717,0,0,1,.56-1.324c1.405-2.14,5.58.448,7.089-1.621.531-.729.483-1.826,1.176-2.4a2.642,2.642,0,0,1,1.209-.461,84.874,84.874,0,0,1,9.181-1.308c1.46-.127,3.364-.651,3.376-2.117a25.43,25.43,0,0,0-16.222,2.182c-1.808.906-4.2,2.811-5.942,1.61-.652-.45-.62-1.66-1.518-2.166A4.576,4.576,0,0,0,344.544,216.311Z" transform="translate(-195.938 -152.3)" fill="#3f3d56"/>
        <path id="Path_824" data-name="Path 824" d="M388.889,219.364l2.582.5a3.346,3.346,0,0,0-3.482,3.626c2.418.808,5.054.022,7.6.129s5.51,1.927,5.075,4.438c-.131.759-.57,1.518-.342,2.255a8.387,8.387,0,0,0,.872,1.357,3.04,3.04,0,0,1-.568,3.143c-.676.9-1.584,1.619-2.178,2.575-1.476,2.38-.637,5.456.242,8.114a7.155,7.155,0,0,0,1.375,2.747c1.3,1.385,3.424,1.5,5.325,1.533,1.383.02,2.968-.048,3.843-1.12,1.142-1.4.343-3.582,1.1-5.225.683-1.491,2.423-2.131,4-2.585a59.838,59.838,0,0,0,8.561-2.794c3.39-1.559,6.559-3.989,10.285-4.19a14.115,14.115,0,0,0,3.124-.219,2.375,2.375,0,0,0,1.887-2.2c-.065-.892-.82-1.547-1.41-2.22s-1.053-1.707-.511-2.418l9.767-1.824c-.692-1.887-1.232-4.372.359-5.6.574-.443,1.343-.62,1.831-1.156a2.369,2.369,0,0,0-.547-3.262,6.274,6.274,0,0,0-3.493-1.059,93.738,93.738,0,0,0-12.881.115L406.138,215.4c-1.689.093-3.638-.049-5.187.527-1.311.488-2.243,1.383-3.743,1.7C394.44,218.2,391.394,217.81,388.889,219.364Z" transform="translate(-222.296 -151.989)" fill="#3f3d56"/>
        <path id="Path_825" data-name="Path 825" d="M487.213,267.06a1.039,1.039,0,0,0-.752.17.949.949,0,0,0-.245.579,3.827,3.827,0,0,0,.556,2.739,2.682,2.682,0,0,0,2.455,1.177c1.163-.148,2.019-1.14,3.088-1.624,1.647-.745,8.643-1.907,3.8-4.521-1.668-.9-2.745-.106-4.06.488A9.237,9.237,0,0,1,487.213,267.06Z" transform="translate(-274.368 -179.277)" fill="#3f3d56"/>
        <path id="Path_826" data-name="Path 826" d="M576.981,220.721a2.763,2.763,0,0,0-1.344,1.17,1.181,1.181,0,0,0,.443,1.566,1.762,1.762,0,0,0,.659.1l2.3.069c.976.029,2.2.237,2.458,1.178.195.7-.241,1.6.285,2.1a1.481,1.481,0,0,0,.782.3,5.324,5.324,0,0,0,2.315.075c1.672-.448.793-1.469,1.32-2.377.806-1.39.666-.549,2.086-1.345,1.048-.588,2.4-1.656,1.528-3.155C588.287,217.8,579.226,219.6,576.981,220.721Z" transform="translate(-321.75 -154.822)" fill="#3f3d56"/>
        <path id="Path_827" data-name="Path 827" d="M663.619,219.515l-1.334.178a53.743,53.743,0,0,0-8.932,1.71,14.866,14.866,0,0,0,3.912.96,12.009,12.009,0,0,1,2.191.311c1.28.381,2.569,1.365,3.806.861.767-.312,1.017-1.111,1.652-1.534.438-.292,2.1-.765,2.288-1.06C668.7,218.558,664.774,219.361,663.619,219.515Z" transform="translate(-363.04 -154.927)" fill="#3f3d56"/>
        <path id="Path_828" data-name="Path 828" d="M680.755,231.315a25.02,25.02,0,0,0-4.923,3.605,2.981,2.981,0,0,0-1.21,2.181c.076,1.141,1.291,1.8,2.344,2.249l4.265,1.806c.517-.729.044-1.736-.491-2.453s-1.17-1.546-.934-2.408c.27-.984,1.469-1.319,2.476-1.489,1.64-.276,6.062-.254,5.53-2.9C687.186,228.8,682.4,230.4,680.755,231.315Z" transform="translate(-374.318 -160.664)" fill="#3f3d56"/>
        <path id="Path_829" data-name="Path 829" d="M685.532,587.7a4.07,4.07,0,0,0,.258,3.587,3.634,3.634,0,0,0,3.73,1.289,6.719,6.719,0,0,0,3.463-2.227,11.923,11.923,0,0,0,1.992-3.054,23.849,23.849,0,0,0,1.476-5.4l1.324-6.953c.3-1.554.284-6.318-2.572-4.766-.78.424-2.587,3.772-3.4,4.721-1.474,1.711-1.669,3.371-2.444,5.444C688.383,582.937,686.43,585.1,685.532,587.7Z" transform="translate(-379.952 -340.874)" fill="#3f3d56"/>
        <path id="Path_830" data-name="Path 830" d="M1002.422,682.138a20.823,20.823,0,0,1-2.714-1.292,22.87,22.87,0,0,0-1.376,7.5l6.394-3.618c.962-.544,2.052-1.3,2.031-2.406a.761.761,0,0,0-.354-.692.863.863,0,0,0-.448-.052,10.825,10.825,0,0,0-2.707.87,3.3,3.3,0,0,1-2.761.014" transform="translate(-546.002 -399.731)" fill="#3f3d56"/>
        <path id="Path_831" data-name="Path 831" d="M1067.172,685.647a13.872,13.872,0,0,0-2.051.736c-1.467.747-2.466,2.165-3.786,3.148a15.023,15.023,0,0,1-4.278,1.96A1.025,1.025,0,0,0,1057.3,693a2.965,2.965,0,0,0,1.689.38,8.918,8.918,0,0,0,4.545-.7,14.317,14.317,0,0,0,2.14-1.7,22.658,22.658,0,0,1,5.386-3.045,6.18,6.18,0,0,0,1.877-1.122c1.187-1.169,1.27-2.973-.441-3.371C1071.108,683.124,1068.488,685.221,1067.172,685.647Z" transform="translate(-577.018 -401.092)" fill="#3f3d56"/>
        <path id="Path_832" data-name="Path 832" d="M1104.215,662.505a5.336,5.336,0,0,0-1.632-4.371,8.318,8.318,0,0,1-.972,4.656c-.645.948-1.657,1.589-2.364,2.492s-1.021,2.336-.191,3.128a3.109,3.109,0,0,0,1.841.634c1.65.194,3.561.3,4.718-.89.632-.651.939-1.614,1.709-2.093a2.078,2.078,0,0,0,.75-.537c.318-.506-.187-1.172-.756-1.354s-1.2-.1-1.768-.27-1.1-.816-.8-1.337" transform="translate(-599.159 -387.686)" fill="#3f3d56"/>
        <path id="Path_833" data-name="Path 833" d="M1024.978,535.5a7.418,7.418,0,0,1-2.647.156c-1.469-.27-2.613-1.378-3.8-2.285a16.757,16.757,0,0,0-9.79-3.421c-3.223-.061-6.476.813-9.641.2a3.8,3.8,0,0,0,2.241,2.526c1.05.513,2.209.771,3.264,1.273a7.794,7.794,0,0,1,3.776,3.928,11.082,11.082,0,0,0,1.069,2.349c1.052,1.416,3.047,1.727,4.807,1.611,2.3-.151,4.692-.811,6.827.044,1.633.654,2.8,2.084,4.166,3.2s3.285,1.937,4.851,1.135a8.019,8.019,0,0,1-5.549-7.716c1.536.141,5.96.087,5.722-2.523C1030.073,533.762,1026.3,535.261,1024.978,535.5Z" transform="translate(-546.41 -319.701)" fill="#3f3d56"/>
        <path id="Path_834" data-name="Path 834" d="M959.619,571.54c.273-1.5,1.764-2.817,1.3-4.264a2.624,2.624,0,0,0-2.533-1.52c-1.051-.025-2.084.289-3.135.318a15.255,15.255,0,0,0-2.052.029c-2.087.343-3.372,2.53-5.339,3.307a32.437,32.437,0,0,1-3.782.709c-2.822.742-4.608,3.409-6.581,5.56a23.487,23.487,0,0,1-11.922,6.952c-1.6.372-3.33.609-4.606,1.652-1.689,1.38-2.1,3.746-2.481,5.9a97.346,97.346,0,0,1-4.74,17.4l6.7.856a9.109,9.109,0,0,0,3.822-.056,11.092,11.092,0,0,0,2.514-1.339,25.1,25.1,0,0,1,9.806-3.54,10.41,10.41,0,0,1,5.242.367,4.874,4.874,0,0,1,3.2,3.9,4.117,4.117,0,0,1,4.115,1,7.152,7.152,0,0,1,1.965,3.922c.177.917.353,2.016,1.2,2.4.694.314,1.49-.024,2.25-.085,2.577-.206,4.715,2.8,7.247,2.281,2.716-.555,3.383-4.623,6.033-5.438,1.522-.468,3.657.1,4.385-1.315.642-1.248-.639-2.688-.507-4.085.163-1.72,2.192-2.451,3.756-3.185a11.715,11.715,0,0,0,5.339-15.143c-1.549-3.172-4.6-5.669-5.158-9.154-.433-2.681.624-5.807-1.085-7.918-.87-1.074-2.342-1.666-2.859-2.947a14.528,14.528,0,0,1-.37-2.573c-.175-.852-.919-1.743-1.76-1.522-2.442.641-3.221,8.183-4.528,10.016A3.032,3.032,0,0,1,959.619,571.54Z" transform="translate(-501.142 -337.746)" fill="#3f3d56"/>
        <path id="Path_835" data-name="Path 835" d="M911.4,547.5a3.93,3.93,0,0,0-2.545-.13c-.8.334-1.266,1.508-.625,2.091a86.136,86.136,0,0,1,15.047.292c5.734.785,11.41,2.731,17.169,2.158a87.413,87.413,0,0,0-10.016-2.324l-5.639-1.077a43.621,43.621,0,0,0-4.579-.707C917,547.538,914.566,548.388,911.4,547.5Z" transform="translate(-498.058 -328.853)" fill="#3f3d56"/>
        <path id="Path_836" data-name="Path 836" d="M920.593,503.779c-.417-.035-.933-.065-1.148.294-.206.342.03.795-.081,1.179-.151.524-.838.658-1.379.587a2.643,2.643,0,0,0-1.606.019,1.361,1.361,0,0,0-.526,1.546,3.984,3.984,0,0,0,.928,1.48,15.106,15.106,0,0,0,2.408,2.416c1.725,1.274,4.062,1.887,5.149,3.736a2.477,2.477,0,0,0,.688.925,1.911,1.911,0,0,0,1.763-.177l1.969-.9a2.237,2.237,0,0,0,.92-.626,2.023,2.023,0,0,0-.2-2.136,3.67,3.67,0,0,1-.78-2.092c.145-1.344,1.873-1.858,2.583-3.008s.25-2.653.333-4.013c.1-1.591,1.1-3.66-.512-4.848-1.367-1.01-2.673-.077-3.654,1.038C925.375,501.55,924.4,504.1,920.593,503.779Z" transform="translate(-502.223 -302.614)" fill="#3f3d56"/>
        <path id="Path_837" data-name="Path 837" d="M951.057,454.779c.672,1.287,2.073,2.055,2.807,3.308.794,1.358.7,3.114,1.566,4.43.884,1.351,2.664,2.068,3.16,3.6.541,1.678-.687,3.716.292,5.182a2.175,2.175,0,0,0,3.191.293,2.341,2.341,0,0,0-.1-3.266c-.58-.529-1.412-.757-1.9-1.374a2.882,2.882,0,0,1-.491-1.2,7.832,7.832,0,0,1,.123-3.752,1.668,1.668,0,0,0,.094-.981c-.218-.633-1.076-.678-1.678-.972-1.367-.667-1.334-2.6-1.1-4.1-.159,1-3.722-.7-4.1-1.268-.741-1.126-.338-3.3-.484-4.541A3.535,3.535,0,0,0,951.057,454.779Z" transform="translate(-520.737 -277.379)" fill="#3f3d56"/>
        <path id="Path_838" data-name="Path 838" d="M871.373,500.824c-.658-.736-1.648-1.507-2.53-1.062a1.6,1.6,0,0,0-.594,1.975,4.347,4.347,0,0,0,1.435,1.71,50.072,50.072,0,0,1,5.419,4.645c2.869,3.153,4.388,7.406,7.508,10.311a4.214,4.214,0,0,0,2.364,1.28,1.837,1.837,0,0,0,2.034-1.4,2.678,2.678,0,0,0-.943-1.969c-1.212-1.318-2.539-2.532-3.683-3.909a3.285,3.285,0,0,1-.941-1.966c-.006-.742.67-1.518,1.389-1.334-.874-.223-1.522-1.679-2.8-1.953-1.072-.229-1.331.435-2.607-.112C874.986,505.99,873.077,502.731,871.373,500.824Z" transform="translate(-476.95 -303.622)" fill="#3f3d56"/>
        <path id="Path_839" data-name="Path 839" d="M982.21,348.558a20.149,20.149,0,0,1-2.056-.734c-1.806-.542-4.2.785-3.956,2.656.16,1.243,1.317,2.081,1.956,3.159.947,1.6.695,3.627.2,5.417a4.235,4.235,0,0,1-.683,1.541,5.223,5.223,0,0,1-1.62,1.164,21.653,21.653,0,0,0-6.335,5.382,1.552,1.552,0,0,0-.383.721c-.086.632.549,1.092.908,1.618.8,1.17.221,2.745.3,4.159a1.175,1.175,0,0,0,.5,1.032c.481.244,1.05-.171,1.311-.642.864-1.566.213-4.08,1.835-4.835.307-.143.679-.2.883-.473.325-.427.012-1.06.176-1.571.247-.767,1.3-.8,2.1-.768a11.924,11.924,0,0,0,4.1-.545,2.726,2.726,0,0,0,1.356-.785,2.95,2.95,0,0,0,.345-2.234A30.292,30.292,0,0,0,979.56,351.9a6.505,6.505,0,0,0,4.2-.4c.688-.416,1.514-1.659,1.172-2.5C984.4,347.655,983.42,348.781,982.21,348.558Z" transform="translate(-530.616 -223.046)" fill="#3f3d56"/>
        <path id="Path_840" data-name="Path 840" d="M541.811,383.114a5.486,5.486,0,0,1,.038,2.757,1.886,1.886,0,0,1-2.132,1.346c-.691-.209-1.09-.9-1.58-1.434-2.728-2.945-8.882-1.24-10.567-4.883-.688-1.487-.22-3.268-.69-4.838a4.306,4.306,0,0,0-4.361-2.962,8.961,8.961,0,0,0-2.509.749,63.271,63.271,0,0,1-16.626,4.158,13.666,13.666,0,0,0-3.195.581c-2.342.849-3.943,3.021-5.082,5.237s-1.98,4.615-3.507,6.584c-1.6,2.069-3.854,3.518-5.952,5.085a6.072,6.072,0,0,0-1.963,2.058,6.436,6.436,0,0,0-.394,3.058l.429,12.607a11.383,11.383,0,0,0,.85,4.752c.906,1.812,2.7,3,3.939,4.6a9.009,9.009,0,0,1,1.869,5.754c-.026.835-.109,1.822.541,2.346a2.376,2.376,0,0,0,1.329.382l17.054,1.4c3,.245,6.324.649,8.283,2.935.924,1.079,1.667,2.63,3.083,2.746a11.44,11.44,0,0,0,1.806-.248c1.532-.121,2.879,1.042,3.728,2.323a10.305,10.305,0,0,1,1.655,6.613c-.139,1.462-.592,2.882-.69,4.347-.372,5.574,4.353,10.416,4.445,16,.054,3.285-1.506,6.355-3.026,9.268,2.454,3.718.445,8.668,1.422,13.014.927,4.123,4.365,7.351,5.221,11.49.392,1.894.415,4.226,2.086,5.2a4.754,4.754,0,0,0,2.36.473,31.112,31.112,0,0,0,14.167-3.225c2.066-1.025,4.207-2.556,4.568-4.833.291-1.837-.641-3.891.307-5.491,1.117-1.886,3.98-1.736,5.623-3.186,2.667-2.352.587-6.838,1.668-10.226.971-3.045,4.315-4.663,5.972-7.4a13.14,13.14,0,0,0,1.388-3.761,53.632,53.632,0,0,0,1.412-9.593,57.506,57.506,0,0,1,.434-5.876c1.787-11.1,12.762-18.535,16.325-29.2.34-1.018.5-2.375-.406-2.951a2.594,2.594,0,0,0-1.726-.181l-7.861.991a5.413,5.413,0,0,1-2.908-.167,1.866,1.866,0,0,1-1.064-2.4c1.335-2.419-1.411-5.475-2.631-7.953a117.373,117.373,0,0,0-11.687-18.953,1.927,1.927,0,0,1-.512-1.112l2.231.074c-.753-2.7-2-5.66-4.622-6.648a11.5,11.5,0,0,0-4.7-.278A68.633,68.633,0,0,1,541.811,383.114Z" transform="translate(-272.837 -236.512)" fill="#3f3d56"/>
        <path id="Path_841" data-name="Path 841" d="M572.014,244.084c1.183,1.256,2.509,2.589,4.221,2.808,3.024.387,5.2-2.74,6.582-5.456A2.666,2.666,0,0,0,585.6,243.9a5.49,5.49,0,0,0,2.092-.818,41.218,41.218,0,0,1,19.527-5.048,2.109,2.109,0,0,1,1.61-2.318c1.388-.275,2.638.925,3.308,2.171s1.087,2.691,2.151,3.625,3.123.892,3.544-.459c.4-1.3-.948-2.4-2.071-3.168s-2.306-2.18-1.55-3.309a100.866,100.866,0,0,1,17.377-2.8,7.277,7.277,0,0,0,2.925-.5,2.274,2.274,0,0,0,1.366-2.4,6.624,6.624,0,0,1-6.912-2.607c8.144-.672,16.806-1.245,24.024,2.587.866,1.859-3.548,3.406-2.367,5.083a2.137,2.137,0,0,0,1.785.61,88.545,88.545,0,0,0,15.019-.573,20.109,20.109,0,0,1,5.462-.443c3.031.374,5.622,2.4,8.6,3.055a4.6,4.6,0,0,0,3.6-.428,2.281,2.281,0,0,0,.624-3.23c2.807-2.751,7.466-2.069,11.169-.752s7.212,3.441,11.131,3.735c2.811.211,5.66-.546,8.438-.065a52.538,52.538,0,0,1,5.075,1.555c3.226.9,6.639.712,9.988.755a69.986,69.986,0,0,1,24.941,4.956,7.416,7.416,0,0,1,2.773,1.638,2.718,2.718,0,0,1,.619,2.983l-8.206-1.2c.773,1.522,2.773,1.781,4.4,2.306s3.309,2.319,2.332,3.719c-1.76-.56-3.355,1.2-4.244,2.818s-1.973,3.558-3.817,3.657c-1.652.088-3.649-1.318-4.726-.062a32.219,32.219,0,0,1,3.8,6.071c1.064,2.216,1.821,5.008.383,7a1.814,1.814,0,0,1-.97.752c-1.174.3-1.937-1.139-2.779-2.01-1.061-1.1-2.666-1.408-4.1-1.922s-2.95-1.527-3.063-3.048a6.086,6.086,0,0,1,.8-2.7,10.411,10.411,0,0,0,.791-4.67,5.3,5.3,0,0,0-1.363-3.518,2.731,2.731,0,0,0-3.506-.36c-.462.384-.833,1-1.433,1.02-1.06.041-1.875-1.808-2.728-1.177a2.9,2.9,0,0,1-.394,1.939c-2.546,2.214-6.457,1.277-9.739,2.06a18.282,18.282,0,0,0-4.443,1.94,2.858,2.858,0,0,0-1.27,1.066,1.966,1.966,0,0,0,.764,2.345,6.067,6.067,0,0,0,2.52.86c4,.758,8.061,1.931,11.219,4.5s5.23,6.818,4.231,10.766l-7.89-7.54q.449,4.749.51,9.523a4.278,4.278,0,0,1-.25,1.832c-.563,1.242-2.087,1.66-3.423,1.935a2.681,2.681,0,0,0-2.058,3.435,11.2,11.2,0,0,0,2.742,3.955,7.593,7.593,0,0,1,2.292,4.18c.142,1.612-1.074,3.429-2.689,3.317a3.547,3.547,0,0,1-2.654-2.291,14.56,14.56,0,0,0-1.617-3.29c-2.374-2.855-7.706-1.632-9.833-4.676a4.81,4.81,0,0,0-.995,4.577,2.521,2.521,0,0,1,3.087.856,21.116,21.116,0,0,1,1.678,3.065c.788,1.364,2.041,2.573,2.151,4.145a13.54,13.54,0,0,0,.03,1.782,7.207,7.207,0,0,0,1.558,2.431,6.98,6.98,0,0,1,.4,6.5,20.039,20.039,0,0,1-3.829,5.559,67.043,67.043,0,0,1-8.338,8.4,8.758,8.758,0,0,0-2.367,2.382,2.583,2.583,0,0,0,.266,3.116c-.6.03-1.683.326-2.286.357a53.143,53.143,0,0,1-.138-7.269c-2.378-1.142-4.938,1.916-4.631,4.535s2.2,4.722,3.55,6.988a8.256,8.256,0,0,1,1.39,5.49c-.329,1.9-2.026,3.654-3.947,3.486-3.056-.267-4.335-4.654-7.361-5.156a1.237,1.237,0,0,0-.8.079c-.449.247-.527.848-.553,1.36-.124,2.512-.231,5.124.75,7.44,1.435,3.388,5.141,6.234,4.363,9.831-4.188-1.947-6.366-6.644-7.355-11.155s-1.153-9.248-2.926-13.513c-1.346,1.725-4.174.3-5.4-1.51-1.166-1.716-1.883-3.7-3.014-5.439s-2.864-3.3-4.935-3.391c-2.172-.1-4.056,1.39-5.713,2.8a13.32,13.32,0,0,0-3.557,3.963c-1.159,2.33-.856,5.077-.912,7.678-.06,2.812-.656,5.78-2.573,7.839s-5.455,2.776-7.569.92a8.531,8.531,0,0,1-2.114-3.806,186.3,186.3,0,0,1-5.724-20.434c-.355,1.578-1.741,3.612-3.065,2.683a2.743,2.743,0,0,1-.706-.91c-2.47-4.186-7.043-6.7-11.664-8.2s-9.482-2.207-14.052-3.862a35.594,35.594,0,0,1-7.289-3.631,5.733,5.733,0,0,0-.35,5.864,4.671,4.671,0,0,0,5.271,2.206c1.015-.324,1.871-1.029,2.878-1.376s2.358-.177,2.8.793c.422.928-.215,2.052.1,3.021.481,1.476,2.708,1.59,3.487,2.934a2.7,2.7,0,0,1-.725,3.134,13.113,13.113,0,0,1-2.941,1.811c-3.276,1.822-5.606,4.932-8.469,7.352s-6.9,4.186-10.316,2.634c.813-4.119-4.093-7.143-5-11.243-.3-1.35-.143-2.783-.567-4.1-.614-1.9-2.3-3.213-3.689-4.656a18.274,18.274,0,0,1-5.013-13.3,18.655,18.655,0,0,0,0-5.068c-.386-1.652-1.753-3.25-3.448-3.176-3.87.171-8.746.459-10.777-2.84-.725-1.178-1.04-2.9.008-3.8a3.68,3.68,0,0,1,2.8-.481l8.721.858c2.039.2,4.244.366,5.994-.7s2.509-3.9.888-5.151c-1.184-.917-3.306-.867-3.65-2.324-.287-1.214,1.057-2.591.331-3.605-.52-.727-1.69-.526-2.4.02a15.371,15.371,0,0,1-2.016,1.755c-1.392.724-3.054.035-4.551-.433s-3.5-.508-4.23.882c-.812,1.555.72,3.593-.086,5.151-1.065,2.06-4.674.887-6.171,2.66-1.717,2.033,1.168,5.066.589,7.663a4.771,4.771,0,0,1-4.7-.264,4.565,4.565,0,0,1-1.973-4.251c.143-1.169.753-2.361.344-3.466a4.066,4.066,0,0,0-2.06-1.885l-8.474-4.683c-.787,1.46.208,3.269,1.452,4.365s2.8,1.922,3.619,3.365a4.416,4.416,0,0,1-1.662,5.823,1.019,1.019,0,0,1-.84.147,1.172,1.172,0,0,1-.545-.733c-1.5-3.826-3.74-7.6-7.329-9.6s-8.746-1.588-11.1,1.779c-.559.8-.934,1.711-1.421,2.557-2.587,4.492-8.134,6.62-13.316,6.481a2.645,2.645,0,0,1-1.453-.341c-.837-.579-.8-1.806-.672-2.816l.544-4.285a3.405,3.405,0,0,1,.949-2.349c.96-.757,2.345-.279,3.568-.3a4.521,4.521,0,0,0,4.1-3.167,5.1,5.1,0,0,0-1.419-5.067c-.56-.526-1.312-1.187-1.016-1.9a1.568,1.568,0,0,1,1.1-.741c2.2-.638,4.517-.8,6.676-1.557s4.254-2.292,4.765-4.521c.157-.683.228-1.51.842-1.849a2.525,2.525,0,0,1,.973-.2,4.733,4.733,0,0,0,4.06-4.934c1.035-.723,2.485-.191,3.486.578s1.885,1.785,3.1,2.117c2.27.618,4.464-1.392,6.817-1.4.989,0,2.014.346,2.944.01s1.507-1.279,2.231-1.974,2-1.117,2.664-.37l-.57-4.218a8.293,8.293,0,0,0,6.749-1.22l-7.36-2.487a1.6,1.6,0,0,1-.688-.368c-.535-.576,0-1.474.432-2.129,1.041-1.567,1.216-4.148-.5-4.928-1.168-.532-2.51.107-3.631.732l-5.372,3c-.171,1.021,1.078,1.6,1.852,2.288a3.1,3.1,0,0,1-2.025,5.425,3.869,3.869,0,0,1,.691,3.28l-3.615.26a1.566,1.566,0,0,1-1.172-.229c-.387-.343-.334-.945-.424-1.454a3.156,3.156,0,0,0-2.648-2.311,9.312,9.312,0,0,0-3.7.342,2.209,2.209,0,0,1-1.591-.037,1.588,1.588,0,0,1-.629-.794,4.081,4.081,0,0,1,.822-3.918,21.734,21.734,0,0,1,3.082-2.834,17.96,17.96,0,0,0,5.34-8.283c1.99-.834,4.05-1.966,6.04-2.8a18.48,18.48,0,0,1,9.934-1.925l6.738.129a16.158,16.158,0,0,1,5.889.848,5.491,5.491,0,0,1,3.593,4.4,1.35,1.35,0,0,1-.432,1.234,1.592,1.592,0,0,1-.852.192C574.668,243.555,573.874,244.018,572.014,244.084Z" transform="translate(-289.193 -158.383)" fill="#3f3d56"/>
        <path id="Path_842" data-name="Path 842" d="M516.686,307.2a1.972,1.972,0,0,0,.538-1.983,3.689,3.689,0,0,0-3.819.721,6.441,6.441,0,0,0-1.023,1.353c-.885,1.445-1.669,3.17-1.156,4.785a1.36,1.36,0,0,0,.622.851,1.636,1.636,0,0,0,.725.114,24.316,24.316,0,0,0,2.918-.18c.595-.073,1.285-.241,1.515-.794.3-.727-.429-1.55-.216-2.308a2.521,2.521,0,0,1,.623-.892,1.179,1.179,0,0,0,.367-.99c-.086-.356-.631-.557-.827-.248" transform="translate(-287.575 -200.385)" fill="#3f3d56"/>
        <path id="Path_843" data-name="Path 843" d="M529.663,295.525a8.165,8.165,0,0,0-2.644-.166,1.154,1.154,0,0,0-.564.128.939.939,0,0,0-.347.5,2.5,2.5,0,0,0,1.454,3.061,3.127,3.127,0,0,1,.9.362c.748.58.271,1.766.413,2.7.159,1.051,1.176,1.933.99,2.98-.147.824-1.028,1.477-.886,2.3.149.864,1.245,1.124,2.12,1.193a2.665,2.665,0,0,0,1.5-.172,2.325,2.325,0,0,0,.948-1.372,8.792,8.792,0,0,0,.443-3.312,3.141,3.141,0,0,0-.373-1.462,8.176,8.176,0,0,0-.873-1C531.072,299.326,532.836,296.419,529.663,295.525Z" transform="translate(-295.494 -195.264)" fill="#3f3d56"/>
        <path id="Path_844" data-name="Path 844" d="M590.232,464.073c-.08-.046-8.159-4.675-20.891-11.279-11.748-6.093-29.973-15.161-50.081-23.758-22.581-9.655-42.884-16.76-60.345-21.118-21.728-5.424-39.05-6.58-51.487-3.439l-.068.017-.07.008c-.073.008-7.437.805-18.483,2.4-10.192,1.471-25.692,3.94-41.658,7.351-17.92,3.828-32.758,8.038-44.1,12.51-14,5.521-22.617,11.409-25.6,17.5l-1.093,2.233-.758-2.368c-.093-.291-9.424-29.394-20.289-58.592-6.376-17.134-12.024-30.943-16.786-41.044a121.963,121.963,0,0,0-7.513-14.013c-2.839-4.353-4.566-5.589-5.514-5.86l.549-1.923c1.882.538,4.054,2.726,6.64,6.691a123.883,123.883,0,0,1,7.648,14.255c4.786,10.153,10.456,24.016,16.852,41.2,9.185,24.681,17.273,49.292,19.629,56.542A31.134,31.134,0,0,1,285.5,433.3a90.988,90.988,0,0,1,16.814-8.4c11.449-4.513,26.4-8.755,44.427-12.606,16.021-3.422,31.569-5.9,41.791-7.374,10.5-1.515,17.69-2.313,18.469-2.4,6.678-1.677,14.753-2.165,24-1.452a174.592,174.592,0,0,1,28.4,4.909c17.566,4.386,37.974,11.527,60.656,21.225,20.165,8.622,38.437,17.714,50.215,23.823,12.763,6.62,20.868,11.264,20.949,11.31Z" transform="translate(-136.268 -210.294)" fill="#00accb" opacity="0.8"/>
        <path id="Path_845" data-name="Path 845" d="M589.93,462.932c-35.494-47.069-93.223-77.971-149.288-98.071l-.685.744c-17.5,19.034-31.841,37.459-31.983,37.643l-.594.766-.784-.57c-.076-.055-7.692-5.587-19.823-13.608-5.971-3.948-13.72-8.948-22.61-14.4a436.984,436.984,0,0,0-44.345,25.247c-23.258,15.393-37.5,29.73-42.331,42.613l-1.873-.7a48.126,48.126,0,0,1,6.088-11.045,86.256,86.256,0,0,1,9.577-10.985,185.9,185.9,0,0,1,27.441-21.553,435.4,435.4,0,0,1,43.434-24.8c-7.243-4.409-15.186-9.075-23.5-13.692-21.893-12.153-41.868-21.492-59.37-27.757a191.949,191.949,0,0,0-23.4-6.874c-18.621-1.714-30-2.1-30.139-2.107l-.1-1.991c7.313-.984,15.881-.614,25.466,1.1q2.5.447,5.111,1.02c3.96.365,8.245.79,12.815,1.284,15.408,1.664,31.007,3.769,46.364,6.259,19.2,3.112,38.069,6.836,56.09,11.069q19.481,4.576,37.7,9.941c20.047-8.555,38.563-15.686,51.734-20.565,12.552-4.65,22.243-8,27.137-9.661a27.42,27.42,0,0,1,3.585-1.2l.557,1.92c-.038.012-1.258.413-3.477,1.166-5.653,2.319-12.7,7.073-21.025,14.182a320.612,320.612,0,0,0-25.513,24.9,476.563,476.563,0,0,1,50.35,21.232c9.959,4.927,19.516,10.169,28.407,15.58a305.689,305.689,0,0,1,26.395,17.961,251.309,251.309,0,0,1,23.745,20.513,210.944,210.944,0,0,1,20.453,23.238ZM366.268,374.385c8.477,5.214,15.873,9.99,21.625,13.794,9.935,6.57,16.854,11.477,19.1,13.083,2.89-3.674,15.943-20.1,31.487-37l.119-.129c-9.881-3.5-19.708-6.666-29.336-9.526-5.442,2.327-10.994,4.759-16.579,7.277Q378.7,368.186,366.268,374.385ZM268.7,327.171q5.461,1.636,11.263,3.712c17.606,6.3,37.683,15.69,59.674,27.9,8.746,4.855,17.078,9.764,24.62,14.372q12.952-6.488,27.613-13.1c4.834-2.18,9.643-4.295,14.378-6.333-12.149-3.545-23.968-6.605-35.19-9.242A861.224,861.224,0,0,0,268.85,327.187Zm143.486,26.187q14.4,4.317,27.939,9.116a325.787,325.787,0,0,1,26.26-25.685,132.968,132.968,0,0,1,11.545-8.924c-4.581,1.619-10.107,3.607-16.339,5.916C448.935,338.47,431.336,345.241,412.188,353.358Z" transform="translate(-136.268 -209.419)" fill="#00accb" opacity="0.8"/>
        <circle id="Ellipse_65" data-name="Ellipse 65" cx="5.621" cy="5.621" r="5.621" transform="translate(83.881 107.743)" fill="#00accb"/>
        <circle id="Ellipse_66" data-name="Ellipse 66" cx="5.621" cy="5.621" r="5.621" transform="translate(134.662 227.91)" fill="#00accb"/>
        <circle id="Ellipse_67" data-name="Ellipse 67" cx="5.621" cy="5.621" r="5.621" transform="translate(349.992 106.967)" fill="#00accb"/>
        <circle id="Ellipse_68" data-name="Ellipse 68" cx="5.621" cy="5.621" r="5.621" transform="translate(448.84 247.291)" fill="#00accb"/>
        <circle id="Ellipse_69" data-name="Ellipse 69" cx="5.621" cy="5.621" r="5.621" transform="translate(265.294 187.595)" fill="#00accb"/>
      </g>
    </g>
  </g>
</svg>
