<svg xmlns="http://www.w3.org/2000/svg" xmlns:xlink="http://www.w3.org/1999/xlink" width="512" height="512" viewBox="0 0 512 512">
  <defs>
    <clipPath id="clip-path">
      <rect id="Rectangle_517" data-name="Rectangle 517" width="512" height="512" transform="translate(57 661)" fill="none" stroke="#707070" stroke-width="1"/>
    </clipPath>
  </defs>
  <g id="UXID-L" transform="translate(-57 -661)">
    <g id="Mask_Group_5" data-name="Mask Group 5" clip-path="url(#clip-path)">
      <g id="Group_41" data-name="Group 41" transform="translate(74.649 776.487)">
        <path id="Path_235" data-name="Path 235" d="M498.017,161.943V385.906a10.063,10.063,0,0,1-10.063,10.059H397.03a10.046,10.046,0,0,1-10.063-10.059V161.943A10.063,10.063,0,0,1,397.03,151.88h13.608v1.746a8.286,8.286,0,0,0,8.286,8.286h46.242a8.286,8.286,0,0,0,8.286-8.286V151.88h14.5a10.06,10.06,0,0,1,10.063,10.063Z" transform="translate(-203.919 -84.586)" fill="#cd94ff"/>
        <path id="Path_235_-_Outline" data-name="Path 235 - Outline" d="M397.029,151.13h14.359v2.5a7.545,7.545,0,0,0,7.536,7.536h46.242a7.545,7.545,0,0,0,7.536-7.536v-2.5h15.252l0,.75,0,.75H474.2v1a9.046,9.046,0,0,1-9.036,9.036H418.924a9.046,9.046,0,0,1-9.036-9.036v-1H397.03a9.324,9.324,0,0,0-9.314,9.313V385.906a9.359,9.359,0,0,0,2.724,6.588,9.236,9.236,0,0,0,6.572,2.721h90.941a9.325,9.325,0,0,0,9.313-9.309V161.943a9.31,9.31,0,0,0-9.31-9.313v-1.5a10.81,10.81,0,0,1,10.81,10.814V385.906a10.813,10.813,0,0,1-10.813,10.809H397.013a10.8,10.8,0,0,1-10.8-10.81V161.943a10.813,10.813,0,0,1,10.813-10.813Z" transform="translate(-203.919 -84.586)" fill="#434343"/>
        <rect id="Rectangle_91" data-name="Rectangle 91" width="103.076" height="50.205" transform="translate(187.042 104.726)" fill="#3f3d56"/>
        <path id="Path_236" data-name="Path 236" d="M466.983,263.914c2.7,9.974,11.94,16.152,11.94,16.152s4.867-9.994,2.169-19.969-11.94-16.152-11.94-16.152S464.285,253.94,466.983,263.914Z" transform="translate(-238.441 -124.715)" fill="#c383d2"/>
        <path id="Path_237" data-name="Path 237" d="M460.344,269.506c7.4,7.208,8.308,18.287,8.308,18.287s-11.1-.606-18.5-7.814-8.309-18.287-8.309-18.287S452.94,262.3,460.344,269.506Z" transform="translate(-227.837 -132.45)" fill="#8eb291"/>
        <path id="Path_238" data-name="Path 238" d="M499.595,263.914c-2.7,9.974-11.94,16.152-11.94,16.152s-4.867-9.994-2.169-19.969,11.94-16.152,11.94-16.152S502.293,253.94,499.595,263.914Z" transform="translate(-246.506 -124.715)" fill="#c383d2"/>
        <path id="Path_239" data-name="Path 239" d="M497.677,269.506c-7.4,7.208-8.308,18.287-8.308,18.287s11.1-.606,18.5-7.814,8.309-18.287,8.309-18.287S505.082,262.3,497.677,269.506Z" transform="translate(-248.554 -132.45)" fill="#8eb291"/>
        <rect id="Rectangle_92" data-name="Rectangle 92" width="84.637" height="4.646" transform="translate(196.261 183.045)" fill="#f0f0f0"/>
        <rect id="Rectangle_93" data-name="Rectangle 93" width="84.637" height="4.646" transform="translate(196.261 190.53)" fill="#f0f0f0"/>
        <rect id="Rectangle_94" data-name="Rectangle 94" width="84.637" height="4.646" transform="translate(196.261 198.015)" fill="#f0f0f0"/>
        <rect id="Rectangle_95" data-name="Rectangle 95" width="84.637" height="4.646" transform="translate(196.261 205.501)" fill="#f0f0f0"/>
        <rect id="Rectangle_96" data-name="Rectangle 96" width="23.103" height="23.103" transform="matrix(0.815, 0.579, -0.579, 0.815, 235.84, 232.165)" fill="#f0f0f0"/>
        <path id="Path_240" data-name="Path 240" d="M485.817,501.612a5.332,5.332,0,1,1,5.332-5.332A5.331,5.331,0,0,1,485.817,501.612Zm0-9.774a4.443,4.443,0,1,0,4.443,4.443,4.443,4.443,0,0,0-4.443-4.443Z" transform="translate(-244.681 -232.378)" fill="#3f3d56"/>
        <path id="Path_241" data-name="Path 241" d="M173.536,76.885V300.848a10.063,10.063,0,0,1-10.063,10.059H72.548a10.046,10.046,0,0,1-10.063-10.059V76.885A10.063,10.063,0,0,1,72.549,66.822H86.157v1.746a8.286,8.286,0,0,0,8.286,8.286h46.242a8.286,8.286,0,0,0,8.286-8.286V66.822h14.5A10.06,10.06,0,0,1,173.536,76.885Z" transform="translate(-62.485 -47.511)" fill="#fff"/>
        <path id="Path_241_-_Outline" data-name="Path 241 - Outline" d="M72.548,66.072H86.907v2.5A7.545,7.545,0,0,0,94.443,76.1h46.242a7.536,7.536,0,0,0,7.536-7.536v-2.5h15.255a10.81,10.81,0,0,1,10.81,10.813V300.848a10.813,10.813,0,0,1-10.813,10.809H72.531a10.8,10.8,0,0,1-10.8-10.81V76.885A10.813,10.813,0,0,1,72.548,66.072Zm90.925,244.085a9.325,9.325,0,0,0,9.313-9.309V76.885a9.31,9.31,0,0,0-9.31-9.313v-.75l0,.75H149.721v1a9.036,9.036,0,0,1-9.036,9.036H94.443a9.046,9.046,0,0,1-9.036-9.036v-1H72.549a9.324,9.324,0,0,0-9.314,9.313V300.848a9.359,9.359,0,0,0,2.724,6.588,9.235,9.235,0,0,0,6.572,2.721Z" transform="translate(-62.485 -47.511)" fill="#434343"/>
        <path id="Path_242" data-name="Path 242" d="M170.237,222.155H81.379V142.627h88.858Zm-87.969-.889h87.081V143.516H82.268Z" transform="translate(-70.72 -80.553)" fill="#3f3d56"/>
        <rect id="Rectangle_97" data-name="Rectangle 97" width="0.889" height="117.995" transform="translate(10.806 62.849) rotate(-48.206)" fill="#3f3d56"/>
        <rect id="Rectangle_98" data-name="Rectangle 98" width="117.995" height="0.889" transform="translate(10.806 140.826) rotate(-41.794)" fill="#3f3d56"/>
        <rect id="Rectangle_99" data-name="Rectangle 99" width="87.969" height="0.889" transform="translate(11.103 164.705)" fill="#3f3d56"/>
        <rect id="Rectangle_100" data-name="Rectangle 100" width="87.969" height="0.889" transform="translate(11.103 172.702)" fill="#3f3d56"/>
        <rect id="Rectangle_101" data-name="Rectangle 101" width="87.969" height="0.889" transform="translate(11.103 180.7)" fill="#3f3d56"/>
        <rect id="Rectangle_102" data-name="Rectangle 102" width="43.985" height="0.889" transform="translate(11.103 188.697)" fill="#3f3d56"/>
        <rect id="Rectangle_103" data-name="Rectangle 103" width="43.985" height="0.889" transform="translate(11.103 196.694)" fill="#3f3d56"/>
        <path id="Path_243" data-name="Path 243" d="M821.711,76.885V300.848a10.064,10.064,0,0,1-10.063,10.059H720.724a10.046,10.046,0,0,1-10.063-10.059V76.885a10.063,10.063,0,0,1,10.064-10.063h13.608v1.746a8.286,8.286,0,0,0,8.286,8.286H788.86a8.286,8.286,0,0,0,8.286-8.286V66.822h14.5A10.06,10.06,0,0,1,821.711,76.885Z" transform="translate(-345.009 -47.511)" fill="#fff"/>
        <path id="Path_243_-_Outline" data-name="Path 243 - Outline" d="M720.723,66.072h14.359v2.5a7.545,7.545,0,0,0,7.536,7.536H788.86a7.545,7.545,0,0,0,7.536-7.536v-2.5h15.255a10.81,10.81,0,0,1,10.81,10.813V300.848a10.813,10.813,0,0,1-10.813,10.809H720.706a10.8,10.8,0,0,1-10.8-10.81V76.885a10.813,10.813,0,0,1,10.813-10.813Zm90.924,244.085a9.325,9.325,0,0,0,9.313-9.309V76.885a9.31,9.31,0,0,0-9.31-9.313v-.75l0,.75H797.9v1A9.046,9.046,0,0,1,788.86,77.6H742.618a9.046,9.046,0,0,1-9.036-9.036v-1H720.724a9.324,9.324,0,0,0-9.314,9.313V300.848a9.358,9.358,0,0,0,2.724,6.587,9.235,9.235,0,0,0,6.571,2.721Z" transform="translate(-345.009 -47.511)" fill="#434343"/>
        <rect id="Rectangle_104" data-name="Rectangle 104" width="87.969" height="0.889" transform="translate(377.643 134.049)" fill="#3f3d56"/>
        <rect id="Rectangle_105" data-name="Rectangle 105" width="87.969" height="0.889" transform="translate(377.643 157.152)" fill="#3f3d56"/>
        <rect id="Rectangle_106" data-name="Rectangle 106" width="87.969" height="0.889" transform="translate(377.643 180.255)" fill="#3f3d56"/>
        <circle id="Ellipse_9" data-name="Ellipse 9" cx="14.443" cy="14.443" r="14.443" transform="translate(404.838 71.433)" fill="#d96bd3"/>
        <rect id="Rectangle_107" data-name="Rectangle 107" width="6.22" height="14.217" transform="translate(443.397 130.05)" fill="#470137"/>
        <rect id="Rectangle_108" data-name="Rectangle 108" width="6.22" height="14.217" transform="translate(388.75 152.709)" fill="#470137"/>
        <rect id="Rectangle_109" data-name="Rectangle 109" width="6.22" height="14.217" transform="translate(425.182 175.368)" fill="#470137"/>
        <path id="Path_244" data-name="Path 244" d="M795.357,186.045a17.772,17.772,0,1,1,17.772-17.772A17.772,17.772,0,0,1,795.357,186.045Zm0-34.655a16.883,16.883,0,1,0,16.883,16.883,16.883,16.883,0,0,0-16.883-16.883Z" transform="translate(-374.18 -83.985)" fill="#3f3d56"/>
        <rect id="Rectangle_110" data-name="Rectangle 110" width="1.128" height="55.993" transform="translate(122.184 137.518) rotate(-39.546)" fill="#3f3d56"/>
        <path id="Path_245" data-name="Path 245" d="M342.789,353.188a34.1,34.1,0,0,0-10.278-4.02l5.373-1.92,2.9-4.912A34.059,34.059,0,0,0,342.789,353.188Z" transform="translate(-180.183 -167.601)" fill="#3f3d56"/>
        <rect id="Rectangle_111" data-name="Rectangle 111" width="55.993" height="1.129" transform="translate(317.57 179.982) rotate(-50.466)" fill="#3f3d56"/>
        <path id="Path_246" data-name="Path 246" d="M618.506,353.188a34.1,34.1,0,0,0,2-10.853l2.9,4.913,5.372,1.919A34.064,34.064,0,0,0,618.506,353.188Z" transform="translate(-304.841 -167.601)" fill="#3f3d56"/>
        <g id="Layer_2_1_" transform="translate(205.204 -30.355)">
          <g id="Surfaces" transform="translate(0 0)">
            <g id="UI_UX_Surface">
              <g id="Outline_no_shadow">
                <path id="Path_247" data-name="Path 247" d="M11.674,0H54.248A11.664,11.664,0,0,1,65.921,11.674V52.6A11.664,11.664,0,0,1,54.248,64.273H11.674A11.664,11.664,0,0,1,0,52.6V11.674A11.664,11.664,0,0,1,11.674,0Z" transform="translate(0 0)" fill="#470137"/>
              </g>
            </g>
          </g>
          <g id="Outlined_Mnemonics_Logos" transform="translate(9.603 14.086)">
            <g id="Xd">
              <path id="Path_248" data-name="Path 248" d="M60.022,60.412l-8.24,13.6,8.789,14.42a.473.473,0,0,1,.055.33c-.027.11-.137.027-.3.055h-6.29c-.439,0-.742-.027-.934-.3-.577-1.154-1.181-2.28-1.758-3.433-.577-1.126-1.209-2.28-1.868-3.461s-1.318-2.362-1.978-3.571h-.055c-.577,1.181-1.209,2.362-1.84,3.543s-1.263,2.362-1.868,3.516c-.632,1.154-1.263,2.335-1.9,3.461-.11.275-.33.3-.632.3H35.164c-.11,0-.192.055-.192-.082a.381.381,0,0,1,.055-.3l8.542-14.008L35.246,60.385c-.082-.11-.11-.22-.055-.275a.319.319,0,0,1,.275-.11H41.7a1.621,1.621,0,0,1,.385.055.779.779,0,0,1,.275.247c.522,1.181,1.126,2.362,1.758,3.543.659,1.181,1.291,2.335,1.978,3.488.659,1.154,1.263,2.307,1.84,3.488h.055c.577-1.209,1.181-2.39,1.785-3.543s1.236-2.307,1.868-3.461,1.236-2.335,1.84-3.461a.467.467,0,0,1,.165-.275.524.524,0,0,1,.357-.055h5.8a.253.253,0,0,1,.3.192c.027.027-.027.137-.082.192Z" transform="translate(-34.961 -57.606)" fill="#ff61f6"/>
              <path id="Path_249" data-name="Path 249" d="M141.861,83.068a13.656,13.656,0,0,1-5.905-1.236,9.576,9.576,0,0,1-4.148-3.736,11.884,11.884,0,0,1-1.511-6.262,11.281,11.281,0,0,1,1.511-5.8,11.406,11.406,0,0,1,4.367-4.257,14.05,14.05,0,0,1,6.949-1.593,4.9,4.9,0,0,1,.577.027c.247.027.522.027.852.055v-8.68c0-.192.082-.3.275-.3H150.4a.246.246,0,0,1,.275.192v26.2c0,.494.027,1.044.055,1.648.055.577.082,1.126.11,1.593a.446.446,0,0,1-.275.439,20.976,20.976,0,0,1-4.477,1.318A24.227,24.227,0,0,1,141.861,83.068Zm2.692-5.493V65.489a7.026,7.026,0,0,0-.742-.137c-.3-.027-.6-.055-.906-.055a6.771,6.771,0,0,0-3.1.714,6.157,6.157,0,0,0-2.335,2.033,6.088,6.088,0,0,0-.906,3.488,7.654,7.654,0,0,0,.467,2.829,5.368,5.368,0,0,0,1.236,1.95,4.745,4.745,0,0,0,1.868,1.1,7.19,7.19,0,0,0,2.28.357c.412,0,.8-.027,1.154-.055A2.4,2.4,0,0,0,144.553,77.575Z" transform="translate(-104.11 -51.284)" fill="#ff61f6"/>
            </g>
          </g>
        </g>
      </g>
    </g>
  </g>
</svg>
