<?xml version="1.0" encoding="UTF-8"?>
<svg xmlns="http://www.w3.org/2000/svg" xmlns:xlink="http://www.w3.org/1999/xlink" width="512px"
    height="512" viewBox="0 0 512 268" version="1.1">
    <g id="surface1">
        <path
            style=" stroke:none;fill-rule:nonzero;fill:rgb(94.509804%,94.509804%,94.509804%);fill-opacity:1;"
            d="M 39.519531 253.828125 C 31.441406 258.183594 27.976562 267.429688 27.976562 267.429688 C 27.976562 267.429688 37.601562 269.613281 45.675781 265.253906 C 53.753906 260.898438 57.21875 251.652344 57.21875 251.652344 C 57.21875 251.652344 47.59375 249.472656 39.519531 253.828125 Z M 39.519531 253.828125 " />
        <path
            style=" stroke:none;fill-rule:nonzero;fill:rgb(94.509804%,94.509804%,94.509804%);fill-opacity:1;"
            d="M 42.175781 256.820312 C 37.445312 264.6875 28.050781 267.714844 28.050781 267.714844 C 28.050781 267.714844 26.324219 257.992188 31.054688 250.128906 C 35.785156 242.261719 45.179688 239.234375 45.179688 239.234375 C 45.179688 239.234375 46.90625 248.957031 42.175781 256.820312 Z M 42.175781 256.820312 " />
        <path
            style=" stroke:none;fill-rule:nonzero;fill:rgb(79.607843%,79.607843%,79.607843%);fill-opacity:1;"
            d="M 252.269531 5.898438 L 484.945312 5.898438 L 484.945312 6.929688 L 252.269531 6.929688 Z M 252.269531 5.898438 " />
        <path
            style=" stroke:none;fill-rule:nonzero;fill:rgb(79.607843%,79.607843%,79.607843%);fill-opacity:1;"
            d="M 283.449219 6.289062 L 284.480469 6.289062 L 284.480469 39.109375 L 283.449219 39.109375 Z M 283.449219 6.289062 " />
        <path
            style=" stroke:none;fill-rule:nonzero;fill:rgb(79.607843%,79.607843%,79.607843%);fill-opacity:1;"
            d="M 369.136719 65.128906 L 315.953125 65.128906 L 315.953125 6.253906 L 316.984375 6.253906 L 316.984375 64.09375 L 369.136719 64.09375 Z M 369.136719 65.128906 " />
        <path
            style=" stroke:none;fill-rule:nonzero;fill:rgb(79.607843%,79.607843%,79.607843%);fill-opacity:1;"
            d="M 350.910156 6.289062 L 351.941406 6.289062 L 351.941406 39.109375 L 350.910156 39.109375 Z M 350.910156 6.289062 " />
        <path
            style=" stroke:none;fill-rule:nonzero;fill:rgb(79.607843%,79.607843%,79.607843%);fill-opacity:1;"
            d="M 368.230469 64.636719 L 369.261719 64.636719 L 369.261719 97.460938 L 368.230469 97.460938 Z M 368.230469 64.636719 " />
        <path
            style=" stroke:none;fill-rule:nonzero;fill:rgb(79.607843%,79.607843%,79.607843%);fill-opacity:1;"
            d="M 421.679688 6.289062 L 422.710938 6.289062 L 422.710938 39.109375 L 421.679688 39.109375 Z M 421.679688 6.289062 " />
        <path
            style=" stroke:none;fill-rule:nonzero;fill:rgb(79.607843%,79.607843%,79.607843%);fill-opacity:1;"
            d="M 457.0625 6.289062 L 458.09375 6.289062 L 458.09375 39.109375 L 457.0625 39.109375 Z M 457.0625 6.289062 " />
        <path style=" stroke:none;fill-rule:nonzero;fill:rgb(100%,80%,29.803922%);fill-opacity:1;"
            d="M 274.289062 44.128906 L 293.890625 44.128906 L 293.890625 51.769531 L 274.289062 51.769531 Z M 274.289062 44.128906 " />
        <path
            style=" stroke:none;fill-rule:nonzero;fill:rgb(24.705882%,23.921569%,33.72549%);fill-opacity:1;"
            d="M 341.382812 44.128906 L 360.984375 44.128906 L 360.984375 51.769531 L 341.382812 51.769531 Z M 341.382812 44.128906 " />
        <path
            style=" stroke:none;fill-rule:nonzero;fill:rgb(79.607843%,79.607843%,79.607843%);fill-opacity:1;"
            d="M 412.609375 44.128906 L 432.210938 44.128906 L 432.210938 51.769531 L 412.609375 51.769531 Z M 412.609375 44.128906 " />
        <path style=" stroke:none;fill-rule:nonzero;fill:rgb(100%,80%,29.803922%);fill-opacity:1;"
            d="M 446.675781 44.128906 L 466.277344 44.128906 L 466.277344 51.769531 L 446.675781 51.769531 Z M 446.675781 44.128906 " />
        <path
            style=" stroke:none;fill-rule:nonzero;fill:rgb(24.705882%,23.921569%,33.72549%);fill-opacity:1;"
            d="M 492.609375 2.820312 L 512.210938 2.820312 L 512.210938 10.460938 L 492.609375 10.460938 Z M 492.609375 2.820312 " />
        <path
            style=" stroke:none;fill-rule:nonzero;fill:rgb(24.705882%,23.921569%,33.72549%);fill-opacity:1;"
            d="M 358.933594 101.964844 L 378.535156 101.964844 L 378.535156 109.605469 L 358.933594 109.605469 Z M 358.933594 101.964844 " />
        <path style=" stroke:none;fill-rule:nonzero;fill:rgb(100%,80%,29.803922%);fill-opacity:1;"
            d="M 214.183594 0 L 245.605469 0 L 245.605469 12.25 L 214.183594 12.25 Z M 214.183594 0 " />
        <path
            style=" stroke:none;fill-rule:nonzero;fill:rgb(100%,71.764706%,71.764706%);fill-opacity:1;"
            d="M 145.796875 124.527344 L 147.847656 143.050781 L 174.070312 143.503906 L 170.90625 121.34375 Z M 145.796875 124.527344 " />
        <path
            style=" stroke:none;fill-rule:nonzero;fill:rgb(100%,71.764706%,71.764706%);fill-opacity:1;"
            d="M 133.984375 165.730469 C 134.789062 164.769531 135.125 163.496094 134.902344 162.261719 C 134.679688 161.027344 133.921875 159.953125 132.832031 159.332031 L 134.050781 149.714844 L 128.390625 147.550781 L 126.863281 161.152344 C 125.917969 163.09375 126.574219 165.4375 128.390625 166.605469 C 130.207031 167.773438 132.609375 167.398438 133.984375 165.730469 Z M 133.984375 165.730469 " />
        <path
            style=" stroke:none;fill-rule:nonzero;fill:rgb(100%,71.764706%,71.764706%);fill-opacity:1;"
            d="M 181.664062 262.027344 L 187.207031 262.027344 L 189.84375 240.640625 L 181.664062 240.640625 Z M 181.664062 262.027344 " />
        <path
            style=" stroke:none;fill-rule:nonzero;fill:rgb(18.431373%,18.039216%,25.490196%);fill-opacity:1;"
            d="M 180.25 260.21875 L 191.167969 260.21875 C 195.007812 260.21875 198.121094 263.332031 198.121094 267.175781 L 198.121094 267.402344 L 180.25 267.402344 Z M 180.25 260.21875 " />
        <path
            style=" stroke:none;fill-rule:nonzero;fill:rgb(100%,71.764706%,71.764706%);fill-opacity:1;"
            d="M 118.375 262.027344 L 123.917969 262.027344 L 126.554688 240.640625 L 118.375 240.640625 Z M 118.375 262.027344 " />
        <path
            style=" stroke:none;fill-rule:nonzero;fill:rgb(18.431373%,18.039216%,25.490196%);fill-opacity:1;"
            d="M 116.960938 260.21875 L 127.878906 260.21875 C 131.71875 260.21875 134.832031 263.332031 134.832031 267.175781 L 134.832031 267.402344 L 116.960938 267.402344 Z M 116.960938 260.21875 " />
        <path style=" stroke:none;fill-rule:nonzero;fill:rgb(100%,80%,29.803922%);fill-opacity:1;"
            d="M 126.355469 158.222656 L 128.792969 130.011719 L 135.902344 104.242188 C 136.984375 100.386719 140.316406 97.585938 144.300781 97.1875 L 144.53125 97.164062 L 145.796875 116.503906 L 136.703125 135.203125 L 133.695312 157.632812 Z M 126.355469 158.222656 " />
        <path
            style=" stroke:none;fill-rule:nonzero;fill:rgb(18.431373%,18.039216%,25.490196%);fill-opacity:1;"
            d="M 147.433594 132.273438 L 143.699219 138.996094 C 143.699219 138.996094 129.140625 153.71875 128.019531 176.46875 L 114.503906 253.894531 L 127.03125 253.585938 L 152.394531 181.019531 L 170.335938 211.808594 L 179.304688 252.039062 L 193.53125 249.40625 L 187.191406 202.679688 L 174.972656 159.203125 L 173.738281 135.527344 Z M 147.433594 132.273438 " />
        <path
            style=" stroke:none;fill-rule:nonzero;fill:rgb(100%,71.764706%,71.764706%);fill-opacity:1;"
            d="M 171.472656 76.722656 C 171.472656 82.855469 166.503906 87.832031 160.371094 87.832031 C 154.238281 87.832031 149.269531 82.855469 149.269531 76.722656 C 149.269531 70.585938 154.238281 65.613281 160.371094 65.613281 C 166.503906 65.613281 171.472656 70.585938 171.472656 76.722656 Z M 171.472656 76.722656 " />
        <path
            style=" stroke:none;fill-rule:nonzero;fill:rgb(18.431373%,18.039216%,25.490196%);fill-opacity:1;"
            d="M 116.542969 101.953125 C 118.605469 97.921875 119.3125 93.34375 120.898438 89.101562 C 122.484375 84.863281 125.371094 80.652344 129.742188 79.484375 C 132.226562 78.820312 134.859375 79.226562 137.410156 78.910156 C 139.648438 78.632812 142.0625 77.488281 142.917969 75.496094 C 142.746094 73.523438 142.992188 71.535156 143.640625 69.664062 C 145.242188 65.121094 149.050781 61.535156 153.496094 59.679688 C 157.105469 58.171875 161.261719 57.75 164.949219 59.054688 C 168.632812 60.363281 171.730469 63.5625 172.390625 67.417969 C 173.054688 71.273438 170.929688 75.578125 167.265625 76.949219 C 164.636719 77.933594 161.25 77.605469 159.53125 79.828125 C 157.789062 82.078125 159.039062 85.363281 160.617188 87.726562 L 160.511719 87.835938 C 155.347656 87.898438 149.769531 86.902344 146.214844 83.15625 C 145.828125 82.746094 145.472656 82.3125 145.152344 81.847656 C 145.042969 82.023438 144.929688 82.195312 144.808594 82.355469 C 143.015625 84.734375 140.214844 86.085938 137.542969 87.398438 C 134.875 88.714844 132.105469 90.1875 130.5 92.695312 C 127.601562 97.230469 129.503906 103.332031 127.847656 108.453125 C 126.335938 113.121094 122.0625 116.339844 117.160156 116.496094 C 112.257812 116.65625 107.78125 113.722656 105.96875 109.160156 C 110.480469 109.539062 114.480469 105.984375 116.542969 101.953125 Z M 116.542969 101.953125 " />
        <path
            style=" stroke:none;fill-rule:nonzero;fill:rgb(100%,71.764706%,71.764706%);fill-opacity:1;"
            d="M 187.644531 165.363281 C 187.910156 164.136719 187.621094 162.855469 186.855469 161.863281 C 186.085938 160.871094 184.917969 160.269531 183.664062 160.21875 L 180.296875 151.132812 L 174.28125 151.832031 L 179.214844 164.597656 C 179.273438 166.757812 180.9375 168.53125 183.089844 168.726562 C 185.238281 168.921875 187.195312 167.476562 187.644531 165.363281 Z M 187.644531 165.363281 " />
        <path style=" stroke:none;fill-rule:nonzero;fill:rgb(100%,80%,29.803922%);fill-opacity:1;"
            d="M 145.675781 135.007812 L 142.464844 119.539062 L 141.453125 107.761719 C 140.882812 101.078125 142.75 94.417969 146.707031 89.007812 L 147.734375 87.601562 L 165.027344 93.753906 L 173.457031 104.871094 C 178.601562 110.046875 174.574219 115 174.015625 115.640625 L 173.839844 131.265625 L 173.648438 131.292969 Z M 145.675781 135.007812 " />
        <path style=" stroke:none;fill-rule:nonzero;fill:rgb(100%,80%,29.803922%);fill-opacity:1;"
            d="M 177.519531 162.125 L 164.660156 132.480469 L 162.789062 105.316406 L 162.414062 99.609375 C 162.21875 96.671875 164.386719 94.113281 167.3125 93.820312 C 170.238281 93.527344 172.871094 95.609375 173.261719 98.527344 L 177.308594 128.804688 L 184.277344 159.011719 Z M 177.519531 162.125 " />
        <path
            style=" stroke:none;fill-rule:nonzero;fill:rgb(79.607843%,79.607843%,79.607843%);fill-opacity:1;"
            d="M 277.675781 267.863281 L 0.515625 267.863281 C 0.230469 267.863281 0 267.632812 0 267.347656 C 0 267.0625 0.230469 266.828125 0.515625 266.828125 L 277.675781 266.828125 C 277.960938 266.828125 278.195312 267.0625 278.195312 267.347656 C 278.195312 267.632812 277.960938 267.863281 277.675781 267.863281 Z M 277.675781 267.863281 " />
    </g>
</svg>