<svg xmlns="http://www.w3.org/2000/svg" xmlns:xlink="http://www.w3.org/1999/xlink" width="256" height="256" viewBox="0 0 256 256">
  <defs>
    <clipPath id="clip-path">
      <rect id="Rectangle_510" data-name="Rectangle 510" width="256" height="256" transform="translate(77 426)" fill="#fff" stroke="#707070" stroke-width="1"/>
    </clipPath>
  </defs>
  <g id="AdobeXD" transform="translate(-77 -426)" clip-path="url(#clip-path)">
    <g id="Layer_2_1_" transform="translate(77 429.2)">
      <g id="Surfaces">
        <g id="UI_UX_Surface">
          <g id="Outline_no_shadow">
            <path id="Path_1056" data-name="Path 1056" d="M45.333,0H210.667A45.3,45.3,0,0,1,256,45.333V204.267A45.3,45.3,0,0,1,210.667,249.6H45.333A45.3,45.3,0,0,1,0,204.267V45.333A45.3,45.3,0,0,1,45.333,0Z" fill="#470137"/>
          </g>
        </g>
      </g>
      <g id="Outlined_Mnemonics_Logos">
        <g id="Xd">
          <path id="Path_1057" data-name="Path 1057" d="M134.613,65.6l-32,52.8,34.133,56a1.836,1.836,0,0,1,.213,1.28c-.107.427-.533.107-1.173.213H111.36c-1.707,0-2.88-.107-3.627-1.173-2.24-4.48-4.587-8.853-6.827-13.333-2.24-4.373-4.693-8.853-7.253-13.44s-5.12-9.173-7.68-13.867H85.76c-2.24,4.587-4.693,9.173-7.147,13.76s-4.907,9.173-7.253,13.653c-2.453,4.48-4.907,9.067-7.36,13.44-.427,1.067-1.28,1.173-2.453,1.173H38.08c-.427,0-.747.213-.747-.32a1.481,1.481,0,0,1,.213-1.173l33.173-54.4L38.4,65.493c-.32-.427-.427-.853-.213-1.067A1.237,1.237,0,0,1,39.253,64H63.467a6.3,6.3,0,0,1,1.493.213,3.025,3.025,0,0,1,1.067.96c2.027,4.587,4.373,9.173,6.827,13.76,2.56,4.587,5.013,9.067,7.68,13.547,2.56,4.48,4.907,8.96,7.147,13.547h.213c2.24-4.693,4.587-9.28,6.933-13.76s4.8-8.96,7.253-13.44,4.8-9.067,7.147-13.44a1.814,1.814,0,0,1,.64-1.067,2.034,2.034,0,0,1,1.387-.213H133.76a.983.983,0,0,1,1.173.747c.107.107-.107.533-.32.747Z" fill="#ff61f6"/>
          <path id="Path_1058" data-name="Path 1058" d="M183.893,178.133a53.03,53.03,0,0,1-22.933-4.8,37.187,37.187,0,0,1-16.107-14.507c-3.947-6.507-5.867-14.613-5.867-24.32A43.809,43.809,0,0,1,144.853,112a44.3,44.3,0,0,1,16.96-16.533c7.467-4.16,16.427-6.187,26.987-6.187a19.048,19.048,0,0,1,2.24.107c.96.107,2.027.107,3.307.213V55.893c0-.747.32-1.173,1.067-1.173h21.653a.956.956,0,0,1,1.067.747v101.76c0,1.92.107,4.053.213,6.4.213,2.24.32,4.373.427,6.187a1.732,1.732,0,0,1-1.067,1.707,81.464,81.464,0,0,1-17.387,5.12A94.09,94.09,0,0,1,183.893,178.133ZM194.347,156.8V109.867a27.286,27.286,0,0,0-2.88-.533c-1.173-.107-2.347-.213-3.52-.213a26.3,26.3,0,0,0-12.053,2.773,23.912,23.912,0,0,0-9.067,7.893c-2.347,3.413-3.52,8-3.52,13.547a29.725,29.725,0,0,0,1.813,10.987,20.847,20.847,0,0,0,4.8,7.573,18.428,18.428,0,0,0,7.253,4.267,27.921,27.921,0,0,0,8.853,1.387c1.6,0,3.093-.107,4.48-.213A9.329,9.329,0,0,0,194.347,156.8Z" fill="#ff61f6"/>
        </g>
      </g>
    </g>
  </g>
</svg>
