<svg xmlns="http://www.w3.org/2000/svg" xmlns:xlink="http://www.w3.org/1999/xlink" width="256" height="256" viewBox="0 0 256 256">
  <defs>
    <clipPath id="clip-path">
      <rect id="Rectangle_508" data-name="Rectangle 508" width="256" height="256" transform="translate(77 76)" fill="#fff"/>
    </clipPath>
  </defs>
  <g id="AndroidStudio" transform="translate(-77 -76)" clip-path="url(#clip-path)">
    <g id="android-studio" transform="translate(99.519 76)">
      <path id="Path_1048" data-name="Path 1048" d="M79.055,32.346H21.231A21.292,21.292,0,0,0,0,53.618a20.622,20.622,0,0,0,19.973,21.21h59.7Z" fill="#073042"/>
      <path id="Path_1049" data-name="Path 1049" d="M210.78,221.555H21.164A21.292,21.292,0,0,1,0,200.335V53.5A21.292,21.292,0,0,0,21.189,74.9c.474,0,.943,0,1.413-.041H179.877s30.9-2.681,30.9,20.622Z" fill="#4285f4"/>
      <path id="Path_1050" data-name="Path 1050" d="M110.649,119.428a11.744,11.744,0,1,0,11.136,7.429,11.744,11.744,0,0,0-11.136-7.429Z"/>
      <path id="Path_1051" data-name="Path 1051" d="M122.326,146.351a19.076,19.076,0,0,0-10.919-34.336h.619a17.436,17.436,0,0,1,3.361,0V100.2a3.764,3.764,0,0,0-1.784-3.361,3.707,3.707,0,0,0-3.779,0,3.764,3.764,0,0,0-1.784,3.361v12.023a19.158,19.158,0,0,0-8.378,34.336L64.7,221.282h22.8l16.121-34.341a8.383,8.383,0,0,1,7.558-4.738,8.249,8.249,0,0,1,7.486,4.738l16.616,34.341h23.092Zm-11.677-3.367a11.858,11.858,0,1,1,11.811-11.811A11.858,11.858,0,0,1,110.649,142.984Z" fill="#3870b2"/>
      <path id="Path_1052" data-name="Path 1052" d="M66.558,42.791h81.107v14.9H66.558Z" fill="#fff"/>
      <path id="Path_1053" data-name="Path 1053" d="M104.333,119.428a11.739,11.739,0,1,1-8.383,3.434A11.987,11.987,0,0,1,104.333,119.428Zm4.64-6.867V100.188a3.764,3.764,0,0,0-1.784-3.361,3.707,3.707,0,0,0-3.779,0,3.774,3.774,0,0,0-1.784,3.361v12.023a19.158,19.158,0,0,0-8.378,34.336L49.39,240.991a10.435,10.435,0,0,0,.753,10.507,10.59,10.59,0,0,0,9.548,4.465,10.378,10.378,0,0,0,8.517-6.187L97.44,186.94A8.45,8.45,0,0,1,105,182.2a8.249,8.249,0,0,1,7.486,4.738l30.01,62.5a10.381,10.381,0,1,0,18.679-9.063L116,146.351a19.323,19.323,0,0,0-6.867-33.717" fill="#073042"/>
      <path id="Path_1054" data-name="Path 1054" d="M135.921,55.9a5.5,5.5,0,0,1-3.98-9.409,5.563,5.563,0,0,1,9.476,3.918,5.491,5.491,0,0,1-5.5,5.491h0m-61.052,0a5.5,5.5,0,0,1-3.918-9.409,5.564,5.564,0,1,1,8.6,7.058,5.48,5.48,0,0,1-.773.773A5.418,5.418,0,0,1,74.869,55.9m63.047-33.3L148.9,3.521a2.335,2.335,0,0,0-3.985-2.335L133.792,20.535a69.213,69.213,0,0,0-56.711,0L65.873,1.165a2.341,2.341,0,0,0-2-1.165,2.537,2.537,0,0,0-2.011,1.165,2.335,2.335,0,0,0,0,2.335L72.925,22.576A65.372,65.372,0,0,0,39.182,74.859H171.732A65.4,65.4,0,0,0,137.916,22.6" fill="#3ddc84"/>
      <path id="Path_1055" data-name="Path 1055" d="M191.756,115.582h-8.734a1.1,1.1,0,0,0-1.1,1.1h0V254.38a1.1,1.1,0,0,0,1.031,1.1h9A19.076,19.076,0,0,0,210.97,236.4V96.491a19.076,19.076,0,0,1-19.076,19.076Z" fill="#073042"/>
    </g>
  </g>
</svg>
