<?xml version="1.0" encoding="UTF-8"?>
<svg version="1.1" xmlns="http://www.w3.org/2000/svg" width="288" height="288">
<path d="M0 0 C0.75941895 0.59337158 0.75941895 0.59337158 1.53417969 1.19873047 C17.61261657 13.87540905 30.30029778 30.93919871 38 50 C37.67 50.66 37.34 51.32 37 52 C36.28457031 51.27296875 35.56914062 50.5459375 34.83203125 49.796875 C6.75977933 22.07310621 -32.12304591 12.54717959 -70.55282593 12.56347656 C-83.97891373 12.64907824 -96.91148241 13.8590446 -110 17 C-110.87108398 17.20898926 -111.74216797 17.41797852 -112.63964844 17.63330078 C-131.77327597 22.42568216 -151.68546257 30.5252 -165.7578125 44.796875 C-168 47 -168 47 -170 47 C-170.4021875 47.9590625 -170.4021875 47.9590625 -170.8125 48.9375 C-172 51 -172 51 -175 52 C-163.52283147 22.10197598 -142.27921743 -1.06381554 -112.97167969 -14.15234375 C-76.09647645 -30.00557625 -31.70270087 -24.99444912 0 0 Z " fill="#F37726" transform="translate(212,48)"/>
<path d="M0 0 C0.33 0.66 0.66 1.32 1 2 C-0.08593554 4.554965 -1.22948255 6.97567864 -2.5 9.4375 C-2.87020264 10.16106689 -3.24040527 10.88463379 -3.62182617 11.63012695 C-17.79224195 38.95423346 -40.28219374 59.54452963 -69.5 69.875 C-99.67642794 79.03570134 -131.36907081 76.66232916 -159.29785156 61.77368164 C-166.43747606 57.82540552 -172.84418381 53.37659895 -179 48 C-179.68191406 47.44957031 -180.36382812 46.89914063 -181.06640625 46.33203125 C-195.45990086 34.4735944 -204.66866408 17.83142717 -212 1 C-211.01 1 -210.02 1 -209 1 C-207.8553125 2.423125 -207.8553125 2.423125 -206.6875 3.875 C-201.85706402 9.81366568 -195.2949397 13.76949003 -189 18 C-188.19820312 18.55816406 -187.39640625 19.11632812 -186.5703125 19.69140625 C-152.59306573 41.8793948 -104.79018357 43.92163602 -66.25 35.875 C-40.39268443 30.03496589 -18.57751321 18.88317613 0 0 Z " fill="#F37726" transform="translate(249,174)"/>
<path d="M0 0 C5.58710325 4.32441791 9.27286305 9.16331379 10.34765625 16.3125 C10.76198738 23.11178008 8.97166791 28.47957164 5 34 C-1.14138428 39.89047169 -6.42738539 41.44405044 -14.859375 41.33203125 C-20.82508639 40.70132793 -25.02550372 38.37855986 -28.8515625 33.76953125 C-33.36414297 27.21452692 -34.81537427 21.94103637 -34 14 C-32.12554792 7.31405628 -27.56770196 2.9103899 -22 -1 C-14.80592501 -4.44716093 -6.87135338 -3.88918601 0 0 Z " fill="#9E9E9E" transform="translate(72,244)"/>
<path d="M0 0 C5.01791684 2.41935276 8.49958655 5.9991731 11 11 C11.5072965 16.55531248 11.76260422 21.41830236 9.3125 26.5 C5.71280658 30.39156045 2.23956187 33.71921821 -3 35 C-9.10191659 35.18711158 -13.84393647 34.31947748 -18.59765625 30.37109375 C-22.74506783 26.3161036 -23.72108644 22.21728985 -24.125 16.5625 C-23.88449881 11.63222559 -21.88531758 7.92849279 -18.46484375 4.4296875 C-12.57067672 -0.63900651 -7.57488696 -0.71386369 0 0 Z " fill="#767677" transform="translate(232,2)"/>
<path d="M0 0 C4.53915521 4.22246997 7.29193441 7.54873674 8.13671875 13.8515625 C8.35266984 20.80667689 8.08240348 26.87168812 3.6875 32.5 C-0.39610685 36.38440651 -3.6121058 37.64832108 -9.1875 37.75 C-10.03054687 37.77578125 -10.87359375 37.8015625 -11.7421875 37.828125 C-14.3125 37.5 -14.3125 37.5 -19.3125 34.5 C-19.6425 40.44 -19.9725 46.38 -20.3125 52.5 C-22.9525 52.5 -25.5925 52.5 -28.3125 52.5 C-28.3125 35.01 -28.3125 17.52 -28.3125 -0.5 C-26.0025 -0.5 -23.6925 -0.5 -21.3125 -0.5 C-20.9825 0.82 -20.6525 2.14 -20.3125 3.5 C-19.714375 2.860625 -19.11625 2.22125 -18.5 1.5625 C-13.58021149 -3.07615774 -5.86298118 -2.65493487 0 0 Z M-17.3125 7.5 C-20.05685225 11.22401464 -20.72267872 13.90331397 -20.6875 18.5 C-20.69523437 19.510625 -20.70296875 20.52125 -20.7109375 21.5625 C-20.25852885 24.89790498 -19.26775257 26.78570589 -17.3125 29.5 C-14.09653559 31.82880181 -11.20371476 31.8242679 -7.3125 31.5 C-4.44790823 30.59969973 -3.46936294 29.70334085 -1.625 27.3125 C0.92824255 21.84126597 1.07998475 17.00304393 -0.58984375 11.296875 C-1.6827252 8.57944004 -2.91171849 7.16720938 -5.3125 5.5 C-10.25256305 3.88910988 -13.02753363 4.64335576 -17.3125 7.5 Z " fill="#4E4E4E" transform="translate(123.3125,119.5)"/>
<path d="M0 0 C4.15264851 2.76199413 5.5190711 5.82839909 7.1875 10.5 C7.1875 13.8 7.1875 17.1 7.1875 20.5 C-1.3925 20.5 -9.9725 20.5 -18.8125 20.5 C-17.8225 22.48 -16.8325 24.46 -15.8125 26.5 C-15.8125 27.16 -15.8125 27.82 -15.8125 28.5 C-8.96902108 31.23739157 -2.95079695 30.92765939 4.1875 29.5 C4.5175 31.48 4.8475 33.46 5.1875 35.5 C1.43379436 37.9311565 -2.36061142 37.86706075 -6.6875 37.875 C-7.38230469 37.89949219 -8.07710937 37.92398438 -8.79296875 37.94921875 C-13.9750934 37.97849629 -16.82342328 36.73262958 -20.8125 33.5 C-25.94198073 27.81598081 -26.16437496 23.2456213 -26.08984375 15.80078125 C-25.57619258 9.68760886 -23.32264631 5.58779713 -18.75 1.5625 C-13.16668819 -2.35769766 -6.22074642 -3.04991239 0 0 Z M-15.8125 6.5 C-16.8025 8.81 -17.7925 11.12 -18.8125 13.5 C-12.5425 13.5 -6.2725 13.5 0.1875 13.5 C-0.16587251 7.79546275 -0.16587251 7.79546275 -2.625 5.6875 C-7.85878078 2.84630472 -10.50994925 3.41487956 -15.8125 6.5 Z " fill="#4E4E4E" transform="translate(228.8125,119.5)"/>
<path d="M0 0 C3.3125 -0.25 3.3125 -0.25 7 0 C9.59568318 2.73762534 10.7938232 5.6809441 12.04296875 9.203125 C12.36031982 10.08645508 12.6776709 10.96978516 13.00463867 11.87988281 C13.39498291 12.99202148 13.78532715 14.10416016 14.1875 15.25 C15.445625 18.7975 16.70375 22.345 18 26 C20.97 17.75 23.94 9.5 27 1 C29.64 0.67 32.28 0.34 35 0 C34.09735692 6.74637367 31.58240044 12.79597859 29.12719727 19.09301758 C28.32297272 21.16057597 27.53300731 23.23318214 26.74414062 25.30664062 C17.63817141 48.97556025 17.63817141 48.97556025 9 54 C5.5625 54.875 5.5625 54.875 3 55 C2.67 52.69 2.34 50.38 2 48 C2.54269531 47.69707031 3.08539063 47.39414063 3.64453125 47.08203125 C9.52843544 43.68687724 9.52843544 43.68687724 13 38 C12.47976774 33.73793519 10.90067805 30.00799945 9.27734375 26.0546875 C8.73370738 24.71745466 8.19008809 23.38021487 7.64648438 22.04296875 C6.78976586 19.95106763 5.93129302 17.85989663 5.07202148 15.76904297 C4.24033124 13.74098185 3.41487374 11.71046518 2.58984375 9.6796875 C2.09347412 8.47038574 1.59710449 7.26108398 1.08569336 6.01513672 C0 3 0 3 0 0 Z " fill="#4F4F4F" transform="translate(135,118)"/>
<path d="M0 0 C2.64 0 5.28 0 8 0 C8 12.87 8 25.74 8 39 C5.69 39 3.38 39 1 39 C0.67 37.68 0.34 36.36 0 35 C-0.78375 35.66 -1.5675 36.32 -2.375 37 C-5.99915098 39.38182972 -9.24313086 39.68898675 -13.5234375 39.52734375 C-17.66304097 38.64588244 -20.40044667 36.26732849 -23 33 C-24.13917218 29.58248347 -24.11338481 26.96512063 -24.09765625 23.36328125 C-24.09443359 22.06455078 -24.09121094 20.76582031 -24.08789062 19.42773438 C-24.07953531 18.05598892 -24.07107037 16.68424413 -24.0625 15.3125 C-24.05748335 13.92903805 -24.05292073 12.54557437 -24.04882812 11.16210938 C-24.03702529 7.77469605 -24.02056019 4.38736967 -24 1 C-21.69 1 -19.38 1 -17 1 C-16.98018066 1.6297876 -16.96036133 2.2595752 -16.93994141 2.90844727 C-16.84401103 5.7935136 -16.7346103 8.6779223 -16.625 11.5625 C-16.5940625 12.55314453 -16.563125 13.54378906 -16.53125 14.56445312 C-16.55771353 23.35460844 -16.55771353 23.35460844 -13 31 C-7.5508103 31.689366 -7.5508103 31.689366 -2.90649414 29.36694336 C-0.46022112 26.32985577 -0.46361014 24.5713374 -0.390625 20.703125 C-0.35839844 19.49785156 -0.32617188 18.29257813 -0.29296875 17.05078125 C-0.27878906 15.79652344 -0.26460937 14.54226562 -0.25 13.25 C-0.20552734 11.34541016 -0.20552734 11.34541016 -0.16015625 9.40234375 C-0.08946049 6.26816515 -0.03675988 3.13473044 0 0 Z " fill="#4E4E4E" transform="translate(76,118)"/>
<path d="M0 0 C3.76287533 2.47635867 6.55778666 4.67335997 8 9 C8.39544498 13.19171681 8.26960901 15.48075302 6.3125 19.25 C2.76412865 23.46968485 0.58944665 24.82339482 -4.9375 25.4375 C-9.22902681 25.25126393 -11.7525341 23.86985359 -15 21 C-18.0480951 16.77199712 -18.52964987 13.22219006 -17.78125 8.1875 C-16.39077116 4.29415924 -13.44907737 2.10860625 -10 0 C-6.09649995 -1.30116668 -3.99981631 -0.99995408 0 0 Z " fill="#616262" transform="translate(48,29)"/>
<path d="M0 0 C0 3.63 0 7.26 0 11 C3.3 11 6.6 11 10 11 C10 12.98 10 14.96 10 17 C6.7 17 3.4 17 0 17 C0.14062311 20.43778631 0.28726929 23.87513171 0.4375 27.3125 C0.47681641 28.28896484 0.51613281 29.26542969 0.55664062 30.27148438 C0.61948242 31.67817383 0.61948242 31.67817383 0.68359375 33.11328125 C0.72025146 33.97735596 0.75690918 34.84143066 0.79467773 35.73168945 C0.92747354 38.1647826 0.92747354 38.1647826 2 41 C5.465 41.495 5.465 41.495 9 42 C9.38133299 43.9914056 9.71325582 45.99279077 10 48 C8.35962605 49.64037395 6.50523159 49.24911331 4.25 49.3125 C0.80429542 49.25835321 -0.86433752 49.06783124 -4 47.5 C-8.8912656 41.385918 -8.16156574 33.8831446 -7.625 26.5 C-7.56828125 25.5821875 -7.5115625 24.664375 -7.453125 23.71875 C-7.31309137 21.47821188 -7.1618513 19.23904958 -7 17 C-8.98 17 -10.96 17 -13 17 C-13 15.02 -13 13.04 -13 11 C-11 10 -11 10 -7 11 C-7 8.03 -7 5.06 -7 2 C-2.25 0 -2.25 0 0 0 Z " fill="#4E4E4E" transform="translate(188,108)"/>
<path d="M0 0 C2.64 0 5.28 0 8 0 C8.12414511 5.97730032 8.21459663 11.95384052 8.2746582 17.93212891 C8.29971104 19.96318647 8.3337632 21.9941547 8.37719727 24.02490234 C8.43825687 26.95432648 8.46630227 29.88255279 8.48828125 32.8125 C8.51408768 33.71178223 8.5398941 34.61106445 8.56648254 35.53759766 C8.56925046 41.84283503 7.14848677 46.17084663 3 51 C-1.08346122 53.78022891 -4.10344225 54.34975412 -9 54 C-9 52.02 -9 50.04 -9 48 C-7.2984375 47.319375 -7.2984375 47.319375 -5.5625 46.625 C-1.95278308 45.42904194 -1.95278308 45.42904194 -1 43 C-0.88273341 41.61182327 -0.82318594 40.21851286 -0.79467773 38.82568359 C-0.77473251 37.96494232 -0.75478729 37.10420105 -0.73423767 36.21737671 C-0.71752518 35.28712677 -0.70081268 34.35687683 -0.68359375 33.3984375 C-0.6524221 31.97103745 -0.6524221 31.97103745 -0.62062073 30.51480103 C-0.55511867 27.46827568 -0.4962372 24.42166257 -0.4375 21.375 C-0.39431541 19.31249084 -0.35070114 17.24999063 -0.30664062 15.1875 C-0.1994366 10.12509046 -0.09817098 5.06259245 0 0 Z " fill="#4F4F4F" transform="translate(32,118)"/>
<path d="M0 0 C0.33 0.99 0.66 1.98 1 3 C1.70125 2.34 2.4025 1.68 3.125 1 C6.43460229 -1.30233203 8.06225823 -1.36630156 12 -1 C12 1.31 12 3.62 12 6 C10.3603125 6.37125 10.3603125 6.37125 8.6875 6.75 C4.75182105 8.08412846 3.97778301 8.52301963 2 12 C1.49888483 14.79763443 1.49888483 14.79763443 1.48828125 17.859375 C1.45283203 18.97441406 1.41738281 20.08945313 1.38085938 21.23828125 C1.34702148 22.97658203 1.34702148 22.97658203 1.3125 24.75 C1.27833984 25.92433594 1.24417969 27.09867188 1.20898438 28.30859375 C1.12654827 31.20563389 1.05738189 34.10237298 1 37 C-1.64 37 -4.28 37 -7 37 C-7 24.79 -7 12.58 -7 0 C-2 -1 -2 -1 0 0 Z " fill="#4E4E4E" transform="translate(252,119)"/>
</svg>
