<svg width="512" height="512" viewBox="0 0 512 512" fill="none" xmlns="http://www.w3.org/2000/svg">
<g clip-path="url(#clip0_120_3680)">
<rect x="69.3101" y="111.303" width="440.69" height="243.929" rx="11" fill="white"/>
<path d="M114.568 112.761H82.1722C79.0577 112.764 76.0715 113.999 73.8691 116.195C71.6668 118.392 70.4283 121.37 70.4255 124.476V159.503C70.0113 159.479 69.5971 159.442 69.189 159.392C61.5141 158.587 54.2173 155.659 48.1215 150.94C42.0256 146.22 37.373 139.896 34.6883 132.68C32.0037 125.465 31.3936 117.645 32.9269 110.102C34.4603 102.559 38.0761 95.5931 43.3667 89.9899C48.6572 84.3868 55.4121 80.369 62.8698 78.3896C70.3275 76.4102 78.1914 76.5479 85.5748 78.7871C92.9582 81.0264 99.5676 85.2782 104.658 91.0631C109.748 96.848 113.116 103.936 114.383 111.528C114.451 111.935 114.513 112.348 114.568 112.761Z" fill="#D60FA8"/>
<path d="M497.017 111.528H82.1722C78.73 111.532 75.4298 112.897 72.9958 115.324C70.5618 117.752 69.1927 121.043 69.189 124.476V342.742C69.1927 346.175 70.5618 349.466 72.9958 351.893C75.4298 354.32 78.73 355.686 82.1722 355.69H497.017C500.459 355.686 503.759 354.32 506.193 351.893C508.627 349.466 509.996 346.175 510 342.742V124.476C509.996 121.043 508.627 117.752 506.193 115.324C503.759 112.897 500.459 111.532 497.017 111.528ZM508.764 342.742C508.761 345.848 507.522 348.826 505.32 351.022C503.118 353.219 500.131 354.454 497.017 354.456H82.1722C79.0576 354.454 76.0714 353.219 73.8691 351.022C71.6668 348.826 70.4283 345.848 70.4255 342.742V124.476C70.4283 121.37 71.6668 118.392 73.8691 116.195C76.0714 113.999 79.0576 112.764 82.1722 112.761H497.017C500.131 112.764 503.118 113.999 505.32 116.195C507.522 118.392 508.761 121.37 508.764 124.476V342.742Z" fill="#262B37"/>
<path d="M476.615 146.9H102.574C102.41 146.9 102.253 146.835 102.137 146.72C102.021 146.604 101.956 146.447 101.956 146.284C101.956 146.12 102.021 145.963 102.137 145.848C102.253 145.732 102.41 145.667 102.574 145.667H476.615C476.779 145.667 476.936 145.732 477.052 145.848C477.168 145.963 477.233 146.12 477.233 146.284C477.233 146.447 477.168 146.604 477.052 146.72C476.936 146.835 476.779 146.9 476.615 146.9Z" fill="#3F3D56"/>
<path d="M208.295 329.177C208.131 329.177 207.974 329.112 207.858 328.996C207.742 328.881 207.677 328.724 207.677 328.56V125.709C207.677 125.545 207.742 125.389 207.858 125.273C207.974 125.157 208.131 125.092 208.295 125.092C208.459 125.092 208.616 125.157 208.732 125.273C208.848 125.389 208.913 125.545 208.913 125.709V328.56C208.913 328.724 208.848 328.881 208.732 328.996C208.616 329.112 208.459 329.177 208.295 329.177Z" fill="#3F3D56"/>
<path d="M301.65 329.177C301.487 329.177 301.329 329.112 301.213 328.996C301.097 328.881 301.032 328.724 301.032 328.56V125.709C301.032 125.545 301.097 125.389 301.213 125.273C301.329 125.157 301.487 125.092 301.65 125.092C301.814 125.092 301.972 125.157 302.088 125.273C302.204 125.389 302.269 125.545 302.269 125.709V328.56C302.269 328.724 302.204 328.881 302.088 328.996C301.972 329.112 301.814 329.177 301.65 329.177Z" fill="#3F3D56"/>
<path d="M395.006 329.177C394.842 329.177 394.685 329.112 394.569 328.996C394.453 328.881 394.388 328.724 394.388 328.56V125.709C394.388 125.545 394.453 125.389 394.569 125.273C394.685 125.157 394.842 125.092 395.006 125.092C395.17 125.092 395.327 125.157 395.443 125.273C395.559 125.389 395.624 125.545 395.624 125.709V328.56C395.624 328.724 395.559 328.881 395.443 328.996C395.327 329.112 395.17 329.177 395.006 329.177Z" fill="#3F3D56"/>
<path d="M148.272 210.541H125.682C124.944 210.54 124.237 210.248 123.715 209.728C123.194 209.207 122.9 208.502 122.899 207.767V181.18C122.9 180.445 123.194 179.739 123.715 179.219C124.237 178.699 124.944 178.407 125.682 178.406H148.272C149.01 178.407 149.717 178.699 150.239 179.219C150.76 179.739 151.054 180.445 151.054 181.18V207.767C151.054 208.502 150.76 209.207 150.239 209.728C149.717 210.248 149.01 210.54 148.272 210.541Z" fill="#CA4F68"/>
<path d="M180.421 286.38H157.83C157.093 286.379 156.386 286.086 155.864 285.566C155.343 285.046 155.049 284.341 155.048 283.605V257.019C155.049 256.283 155.343 255.578 155.864 255.058C156.386 254.538 157.093 254.245 157.83 254.244H180.421C181.159 254.245 181.866 254.538 182.388 255.058C182.909 255.578 183.203 256.283 183.203 257.019V283.605C183.203 284.341 182.909 285.046 182.388 285.566C181.866 286.086 181.159 286.379 180.421 286.38Z" fill="#6DB581"/>
<path d="M253.375 226.572H230.784C230.046 226.571 229.339 226.278 228.818 225.758C228.296 225.238 228.003 224.533 228.002 223.797V197.211C228.003 196.475 228.296 195.77 228.818 195.25C229.339 194.73 230.046 194.437 230.784 194.437H253.375C254.112 194.437 254.82 194.73 255.341 195.25C255.863 195.77 256.156 196.475 256.157 197.211V223.797C256.156 224.533 255.863 225.238 255.341 225.758C254.82 226.279 254.112 226.571 253.375 226.572Z" fill="#6DB581"/>
<path d="M347.967 197.593H325.376C324.638 197.593 323.931 197.3 323.41 196.78C322.888 196.26 322.595 195.554 322.594 194.819V168.233C322.595 167.497 322.888 166.792 323.41 166.272C323.931 165.751 324.638 165.459 325.376 165.458H347.967C348.704 165.459 349.411 165.751 349.933 166.272C350.455 166.792 350.748 167.497 350.749 168.233V194.819C350.748 195.554 350.455 196.26 349.933 196.78C349.411 197.3 348.704 197.593 347.967 197.593Z" fill="#6DB581"/>
<path d="M435.14 197.593H412.549C411.812 197.593 411.104 197.3 410.583 196.78C410.061 196.26 409.768 195.554 409.767 194.819V168.233C409.768 167.497 410.061 166.792 410.583 166.272C411.104 165.751 411.812 165.459 412.549 165.458H435.14C435.878 165.459 436.585 165.751 437.106 166.272C437.628 166.792 437.921 167.497 437.922 168.233V194.819C437.921 195.554 437.628 196.26 437.106 196.78C436.585 197.3 435.878 197.593 435.14 197.593Z" fill="#A863FF"/>
<path d="M475.326 204.992H452.735C451.998 204.991 451.29 204.699 450.769 204.179C450.247 203.659 449.954 202.953 449.953 202.218V175.631C449.954 174.896 450.247 174.191 450.769 173.67C451.29 173.15 451.998 172.858 452.735 172.857H475.326C476.064 172.858 476.771 173.15 477.292 173.67C477.814 174.191 478.107 174.896 478.108 175.631V202.218C478.107 202.953 477.814 203.659 477.292 204.179C476.771 204.699 476.064 204.991 475.326 204.992Z" fill="#6DB581"/>
<path d="M457.397 252.468H434.806C434.068 252.467 433.361 252.174 432.84 251.654C432.318 251.134 432.025 250.429 432.024 249.693V223.107C432.025 222.371 432.318 221.666 432.84 221.146C433.361 220.626 434.068 220.333 434.806 220.333H457.397C458.134 220.333 458.842 220.626 459.363 221.146C459.885 221.666 460.178 222.371 460.179 223.107V249.693C460.178 250.429 459.885 251.134 459.363 251.654C458.842 252.174 458.134 252.467 457.397 252.468Z" fill="#6DB581"/>
<path d="M380.734 242.603H358.143C357.406 242.602 356.699 242.31 356.177 241.79C355.656 241.269 355.362 240.564 355.361 239.829V213.242C355.362 212.507 355.656 211.801 356.177 211.281C356.699 210.761 357.406 210.469 358.143 210.468H380.734C381.472 210.469 382.179 210.761 382.701 211.281C383.222 211.801 383.516 212.507 383.516 213.242V239.829C383.516 240.564 383.222 241.269 382.701 241.79C382.179 242.31 381.472 242.602 380.734 242.603Z" fill="#CA4F68"/>
<path d="M336.838 252.468H314.247C313.51 252.467 312.803 252.174 312.281 251.654C311.76 251.134 311.466 250.429 311.465 249.693V223.107C311.466 222.371 311.76 221.666 312.281 221.146C312.803 220.626 313.51 220.333 314.247 220.333H336.838C337.576 220.333 338.283 220.626 338.805 221.146C339.326 221.666 339.62 222.371 339.62 223.107V249.693C339.62 250.429 339.326 251.134 338.805 251.654C338.283 252.174 337.576 252.467 336.838 252.468Z" fill="#C67755"/>
<path d="M242.246 294.395H219.656C218.918 294.394 218.211 294.101 217.689 293.581C217.168 293.061 216.874 292.356 216.874 291.62V265.034C216.874 264.298 217.168 263.593 217.689 263.073C218.211 262.553 218.918 262.26 219.656 262.259H242.246C242.984 262.26 243.691 262.553 244.213 263.073C244.734 263.593 245.028 264.298 245.029 265.034V291.62C245.028 292.356 244.734 293.061 244.213 293.581C243.691 294.101 242.984 294.394 242.246 294.395Z" fill="#CA4F68"/>
<path d="M127.87 259.25H105.28C104.542 259.249 103.835 258.957 103.313 258.437C102.792 257.916 102.498 257.211 102.498 256.476V229.889C102.498 229.154 102.792 228.448 103.313 227.928C103.835 227.408 104.542 227.116 105.28 227.115H127.87C128.608 227.116 129.315 227.408 129.837 227.928C130.358 228.448 130.652 229.154 130.653 229.889V256.476C130.652 257.211 130.358 257.916 129.837 258.437C129.315 258.957 128.608 259.249 127.87 259.25Z" fill="#6DB581"/>
<path d="M191.55 210.541H168.959C168.222 210.54 167.515 210.248 166.993 209.728C166.471 209.207 166.178 208.502 166.177 207.767V181.18C166.178 180.445 166.471 179.739 166.993 179.219C167.515 178.699 168.222 178.407 168.959 178.406H191.55C192.288 178.407 192.995 178.699 193.517 179.219C194.038 179.739 194.331 180.445 194.332 181.18V207.767C194.331 208.502 194.038 209.207 193.517 209.728C192.995 210.248 192.288 210.54 191.55 210.541Z" fill="#C67755"/>
<path d="M173.054 136.807H137.814C137.158 136.807 136.529 136.547 136.066 136.085C135.602 135.622 135.341 134.995 135.341 134.341C135.341 133.687 135.602 133.059 136.066 132.597C136.529 132.134 137.158 131.875 137.814 131.875H173.054C173.71 131.875 174.339 132.134 174.803 132.597C175.267 133.059 175.527 133.687 175.527 134.341C175.527 134.995 175.267 135.622 174.803 136.085C174.339 136.547 173.71 136.807 173.054 136.807Z" fill="#B5B5CB"/>
<path d="M272.593 136.807H237.352C236.697 136.807 236.067 136.547 235.604 136.085C235.14 135.622 234.879 134.995 234.879 134.341C234.879 133.687 235.14 133.059 235.604 132.597C236.067 132.134 236.697 131.875 237.352 131.875H272.593C273.248 131.875 273.877 132.134 274.341 132.597C274.805 133.059 275.066 133.687 275.066 134.341C275.066 134.995 274.805 135.622 274.341 136.085C273.877 136.547 273.248 136.807 272.593 136.807Z" fill="#DBCE5D"/>
<path d="M365.948 136.807H330.708C330.052 136.807 329.423 136.547 328.959 136.085C328.495 135.622 328.235 134.995 328.235 134.341C328.235 133.687 328.495 133.059 328.959 132.597C329.423 132.134 330.052 131.875 330.708 131.875H365.948C366.604 131.875 367.233 132.134 367.697 132.597C368.16 133.059 368.421 133.687 368.421 134.341C368.421 134.995 368.16 135.622 367.697 136.085C367.233 136.547 366.604 136.807 365.948 136.807Z" fill="#7AD183"/>
<path d="M453.121 136.807H417.881C417.225 136.807 416.596 136.547 416.133 136.085C415.669 135.622 415.408 134.995 415.408 134.341C415.408 133.687 415.669 133.059 416.133 132.597C416.596 132.134 417.225 131.875 417.881 131.875H453.121C453.777 131.875 454.406 132.134 454.87 132.597C455.334 133.059 455.594 133.687 455.594 134.341C455.594 134.995 455.334 135.622 454.87 136.085C454.406 136.547 453.777 136.807 453.121 136.807Z" fill="#F171EC"/>
<path d="M94.1247 317.395C93.2202 317.307 92.346 317.022 91.5639 316.56C90.7818 316.099 90.1107 315.472 89.5978 314.723C89.085 313.975 88.743 313.123 88.5958 312.229C88.4486 311.335 88.4998 310.419 88.7459 309.546L72.8984 294.834L81.2774 292.714L96.8608 305.319C98.3033 305.829 99.5082 306.848 100.247 308.184C100.986 309.521 101.208 311.081 100.871 312.569C100.534 314.058 99.6609 315.371 98.4174 316.261C97.174 317.15 95.6467 317.554 94.1247 317.395Z" fill="#FFB8B8"/>
<path d="M116.008 426.135H123.587L127.193 396.979H116.006L116.008 426.135Z" fill="#FFB8B8"/>
<path d="M138.205 433.153L114.384 433.154L114.383 423.975L129.001 423.974C131.442 423.974 133.783 424.941 135.509 426.663C137.235 428.384 138.205 430.718 138.205 433.153Z" fill="#8C3957"/>
<path d="M64.0381 420.677L71.3631 422.621L82.3685 395.371L71.5585 392.502L64.0381 420.677Z" fill="#FFB8B8"/>
<path d="M83.6787 433.155L60.6587 427.045L63.0261 418.175L77.152 421.924C79.5109 422.551 81.5237 424.086 82.7477 426.192C83.9717 428.298 84.3066 430.803 83.6787 433.155Z" fill="#8C3957"/>
<path d="M125.625 420.614H114.06C113.329 420.617 112.624 420.347 112.083 419.857C111.543 419.367 111.205 418.693 111.138 417.967L104.117 345.254C104.065 344.721 103.83 344.222 103.45 343.843C103.07 343.464 102.57 343.228 102.036 343.176C101.501 343.124 100.965 343.259 100.519 343.557C100.073 343.856 99.7445 344.3 99.5905 344.813L79.2048 412.759C78.9892 413.481 78.5023 414.092 77.8457 414.465C77.1892 414.838 76.4136 414.944 75.6808 414.76L64.9213 412.077C64.5458 411.984 64.1926 411.817 63.8819 411.587C63.5712 411.357 63.3093 411.067 63.1112 410.736C62.9132 410.404 62.7828 410.037 62.7277 409.654C62.6725 409.272 62.6938 408.883 62.7901 408.509C62.9658 407.825 80.3549 340.053 80.5067 339.356C84.4467 310.397 89.1604 302.637 91.6927 298.468C91.9024 298.123 92.095 297.806 92.2684 297.506C92.4855 297.131 93.8217 293.409 94.6694 290.992C94.7795 290.599 94.9701 290.233 95.2292 289.917C95.4883 289.601 95.8103 289.342 96.1749 289.157C106.815 283.73 119.265 287.486 122.827 288.767C123.418 288.974 123.925 289.367 124.273 289.886C134.959 305.961 129.715 399.322 128.555 417.875C128.506 418.617 128.177 419.313 127.633 419.822C127.089 420.33 126.371 420.614 125.625 420.614Z" fill="#2F2E41"/>
<path d="M95.7786 236.436C104.165 236.436 110.963 229.656 110.963 221.293C110.963 212.929 104.165 206.149 95.7786 206.149C87.3922 206.149 80.5938 212.929 80.5938 221.293C80.5938 229.656 87.3922 236.436 95.7786 236.436Z" fill="#FFB8B8"/>
<path d="M94.1695 293.933L94.0604 293.827C93.8557 293.63 73.6238 273.863 76.2421 255.585C77.3619 247.767 83.7046 242.772 94.5841 241.138C98.5811 240.546 102.658 241.413 106.065 243.579C109.473 245.745 111.982 249.064 113.131 252.928L123.889 289.604L94.1695 293.933Z" fill="#B06C85"/>
<path d="M83.8143 307.992L69.3977 293.706C68.412 292.723 67.6963 291.504 67.3195 290.166C66.9428 288.828 66.9176 287.416 67.2464 286.065L74.2255 257.753C74.4346 256.905 74.816 256.108 75.3462 255.413C75.8764 254.717 76.5441 254.138 77.3079 253.71C78.0717 253.282 78.9155 253.016 79.7869 252.926C80.6583 252.837 81.5388 252.927 82.374 253.19C83.9658 253.702 85.2955 254.812 86.0812 256.284C86.867 257.756 87.0472 259.476 86.5837 261.079L79.2361 285.986L91.1178 298.71L83.8143 307.992Z" fill="#B06C85"/>
<path d="M161.14 259.235C160.759 260.058 160.201 260.787 159.507 261.372C158.812 261.957 157.998 262.382 157.121 262.619C156.243 262.856 155.325 262.898 154.429 262.743C153.534 262.587 152.683 262.237 151.938 261.719L132.692 271.667L133.543 263.216L150.605 252.686C151.562 251.495 152.923 250.695 154.432 250.439C155.94 250.182 157.49 250.486 158.789 251.294C160.088 252.101 161.044 253.355 161.478 254.819C161.911 256.282 161.791 257.854 161.14 259.235Z" fill="#FFB8B8"/>
<path d="M149.836 265.526L131.075 273.611C129.826 274.145 128.46 274.349 127.109 274.205C125.758 274.06 124.467 273.572 123.361 272.786L99.5032 255.738C98.7911 255.229 98.1914 254.58 97.741 253.831C97.2906 253.082 96.9993 252.248 96.8849 251.382C96.7705 250.516 96.8356 249.636 97.0761 248.795C97.3166 247.955 97.7273 247.174 98.283 246.498C99.3508 245.214 100.878 244.395 102.541 244.215C104.203 244.034 105.871 244.507 107.191 245.531L127.648 261.588L143.908 255.314L149.836 265.526Z" fill="#B06C85"/>
<path d="M98.2957 226.145C100.169 223.804 103.669 223.678 106.242 222.134C109.612 220.112 111.006 215.592 109.92 211.822C108.834 208.051 105.63 205.113 101.958 203.707C98.2852 202.302 94.1991 202.285 90.3249 202.964C84.5565 203.975 78.8773 206.66 75.3592 211.33C71.8411 216 70.9458 222.839 74.1342 227.739C75.5996 229.991 77.8617 231.849 78.4467 234.47C79.2148 237.91 76.7951 241.228 74.2029 243.623C71.2497 246.353 67.8616 248.638 65.2743 251.715C62.6869 254.791 60.9616 258.994 62.1422 262.833C63.1314 266.049 66.0099 268.418 69.1664 269.605C72.3229 270.792 75.7607 270.963 79.1333 271.029C82.4083 271.093 85.8868 271.013 88.6457 269.252C91.5992 267.367 93.1761 263.791 93.2926 260.296C93.4091 256.8 92.238 253.376 90.6684 250.249C89.7328 248.385 88.645 246.579 88.0234 244.589C87.4017 242.598 87.294 240.34 88.2896 238.507C89.3361 236.581 91.4532 235.419 93.6091 234.997C93.7211 234.975 93.8396 234.955 93.9635 234.938C94.5769 234.858 95.1678 234.656 95.7004 234.342C96.2331 234.028 96.6964 233.61 97.0624 233.113C97.4284 232.616 97.6895 232.05 97.8299 231.449C97.9702 230.848 97.987 230.225 97.8791 229.618C97.6335 228.253 97.6547 226.946 98.2957 226.145Z" fill="#674E28"/>
<path d="M300.756 426.78H293.176L289.57 397.624L300.757 397.625L300.756 426.78Z" fill="#A0616A"/>
<path d="M287.762 424.62H302.38V433.799H278.558C278.558 432.594 278.796 431.4 279.259 430.286C279.721 429.173 280.399 428.161 281.254 427.309C282.108 426.456 283.123 425.78 284.24 425.319C285.356 424.858 286.553 424.62 287.762 424.62Z" fill="#F0F0F0"/>
<path d="M355.752 418.218L348.858 421.358L333.43 396.332L343.606 391.697L355.752 418.218Z" fill="#A0616A"/>
<path d="M343.033 421.637L356.329 415.581L360.153 423.93L338.485 433.8C337.983 432.703 337.702 431.519 337.659 430.314C337.616 429.11 337.811 427.909 338.233 426.779C338.655 425.65 339.297 424.614 340.12 423.732C340.944 422.85 341.934 422.138 343.033 421.637Z" fill="#F0F0F0"/>
<path d="M333.679 328.472C334.405 327.927 335.003 327.23 335.429 326.43C335.856 325.63 336.102 324.746 336.149 323.841C336.196 322.935 336.044 322.031 335.703 321.191C335.361 320.351 334.84 319.595 334.174 318.978L343.084 298.816L331.765 300.729L325.039 319.582C324.073 320.766 323.577 322.262 323.643 323.787C323.71 325.311 324.334 326.759 325.399 327.854C326.464 328.95 327.895 329.618 329.421 329.732C330.947 329.846 332.462 329.398 333.679 328.472Z" fill="#A0616A"/>
<path d="M300.273 419.093H293.032C292.329 419.09 291.654 418.824 291.14 418.347C290.625 417.87 290.31 417.218 290.257 416.519L286.308 311.358C286.279 310.955 286.338 310.55 286.482 310.173C286.625 309.795 286.85 309.453 287.14 309.171C287.43 308.889 287.778 308.673 288.161 308.539C288.543 308.405 288.95 308.356 289.353 308.395L331.23 312.831C331.909 312.897 332.54 313.209 333.003 313.709C333.466 314.208 333.729 314.86 333.742 315.54L334.619 361.927C334.624 362.179 334.673 362.428 334.764 362.663L351.942 407.089C352.075 407.432 352.138 407.798 352.127 408.166C352.117 408.534 352.033 408.896 351.881 409.231C351.729 409.566 351.511 409.867 351.241 410.118C350.971 410.368 350.654 410.563 350.308 410.69L342.97 413.386C342.333 413.62 341.632 413.614 340.999 413.368C340.366 413.122 339.845 412.654 339.534 412.052L318.432 371.131C318.317 370.908 318.233 370.671 318.182 370.426L314.577 353.105C314.473 352.602 314.192 352.154 313.786 351.839C313.38 351.524 312.874 351.364 312.361 351.387C311.847 351.411 311.358 351.616 310.982 351.966C310.606 352.316 310.367 352.788 310.309 353.297L303.037 416.634C302.959 417.31 302.635 417.935 302.125 418.389C301.615 418.842 300.956 419.093 300.273 419.093Z" fill="#B9B9B9"/>
<path d="M303.878 229.132C312.265 229.132 319.063 222.352 319.063 213.988C319.063 205.625 312.265 198.845 303.878 198.845C295.492 198.845 288.693 205.625 288.693 213.988C288.693 222.352 295.492 229.132 303.878 229.132Z" fill="#A0616A"/>
<path d="M314.291 320.973C303.994 320.86 293.942 317.824 285.312 312.219L285.165 312.118L285.18 311.939L290.988 244.476C291.188 242.188 292.213 240.049 293.872 238.455C295.531 236.861 297.713 235.92 300.014 235.806C307.542 235.461 317.653 235.896 323.066 239.917C331.246 245.993 335.188 255.142 333.883 265.019C331.175 285.501 334.242 313.129 334.601 316.212L334.627 316.434L334.423 316.528C328.117 319.454 321.246 320.971 314.291 320.973Z" fill="#6C8BB0"/>
<path d="M334.531 316.327C334.103 316.326 333.68 316.237 333.288 316.065C332.896 315.892 332.545 315.641 332.255 315.327L328.934 311.713C328.575 311.32 328.323 310.842 328.203 310.324C328.083 309.806 328.098 309.266 328.248 308.756L335.822 283.191L324.298 259.056C323.76 257.926 323.628 256.646 323.925 255.431C324.186 254.364 324.766 253.402 325.587 252.67C326.408 251.939 327.432 251.472 328.525 251.333C329.617 251.194 330.726 251.388 331.705 251.891C332.684 252.393 333.488 253.179 334.01 254.146L349.649 279.451C350.284 280.478 350.657 281.644 350.734 282.848C350.812 284.052 350.592 285.257 350.094 286.356L337.352 314.512C337.142 314.977 336.819 315.383 336.413 315.693C336.006 316.003 335.529 316.207 335.023 316.287C334.86 316.313 334.696 316.326 334.531 316.327Z" fill="#6C8BB0"/>
<path d="M227.499 267.491C228.228 268.032 229.067 268.407 229.957 268.589C230.848 268.772 231.767 268.757 232.651 268.547C233.535 268.337 234.362 267.936 235.074 267.372C235.786 266.808 236.365 266.096 236.771 265.285L258.681 268.119L253.646 257.829L233.612 256.716C232.201 256.126 230.621 256.073 229.174 256.567C227.726 257.061 226.51 258.067 225.756 259.395C225.003 260.723 224.764 262.281 225.085 263.773C225.406 265.265 226.265 266.588 227.499 267.491Z" fill="#A0616A"/>
<path d="M275.791 273.111C275.409 273.111 275.028 273.084 274.65 273.032L240.182 268.265C239.619 268.187 239.084 267.972 238.625 267.637C238.166 267.302 237.798 266.858 237.554 266.346C237.476 266.181 237.41 266.01 237.358 265.835C237.225 265.38 237.187 264.902 237.248 264.432C237.31 263.961 237.468 263.509 237.713 263.103L240.566 258.386C240.872 257.882 241.304 257.465 241.819 257.175C242.334 256.885 242.915 256.732 243.506 256.73H243.511L273.555 256.765L295.994 236.716C297.038 235.785 298.371 235.241 299.769 235.174C300.997 235.118 302.214 235.434 303.258 236.08C304.302 236.727 305.126 237.674 305.619 238.797C306.113 239.92 306.254 241.165 306.023 242.37C305.792 243.574 305.201 244.68 304.327 245.542L281.937 270.377C281.163 271.237 280.215 271.925 279.156 272.396C278.097 272.867 276.95 273.111 275.791 273.111Z" fill="#6C8BB0"/>
<path d="M305.604 227.46C306.992 224.257 308.166 219.992 305.505 217.728C303.961 216.414 301.737 216.411 299.714 216.248C294.016 215.788 288.15 213.173 285.364 208.193C282.579 203.214 284.135 195.81 289.389 193.563C292.931 192.049 296.992 193.081 300.7 194.129L311.832 197.277C315.14 198.213 318.612 199.244 320.994 201.718C324.791 205.662 324.508 212.33 321.491 216.896C318.475 221.463 313.932 226.226 308.732 227.959L305.604 227.46Z" fill="#353230"/>
</g>
<defs>
<clipPath id="clip0_120_3680">
<rect width="508" height="357" fill="white" transform="translate(2 77)"/>
</clipPath>
</defs>
</svg>
