<svg width="512" height="512" viewBox="0 0 512 512" fill="none" xmlns="http://www.w3.org/2000/svg">
<path d="M195.977 166.561C198.898 164.796 202.007 163.461 205.215 162.547L207.114 153.399L222.561 153.13L224.783 162.197C228.018 162.995 231.181 164.222 234.155 165.889L241.96 160.773L253.079 171.507L248.241 179.49C250.006 182.411 251.341 185.52 252.255 188.728L261.403 190.627L261.672 206.075L252.604 208.297C251.807 211.531 250.579 214.685 248.913 217.669L254.029 225.482L243.295 236.601L235.311 231.763C232.39 233.528 229.281 234.863 226.074 235.777L224.174 244.925L208.727 245.194L206.505 236.117C203.27 235.32 200.116 234.092 197.133 232.426L189.329 237.542L178.209 226.808L183.048 218.825C181.283 215.904 179.947 212.795 179.034 209.587L169.885 207.687L169.617 192.24L178.684 190.018C179.482 186.784 180.709 183.63 182.376 180.646L177.259 172.833L187.994 161.714L195.977 166.561ZM204.211 187.142C197.85 193.728 198.038 204.22 204.623 210.581C211.209 216.943 221.701 216.755 228.063 210.169C234.424 203.584 234.236 193.091 227.65 186.73C221.065 180.368 210.573 180.556 204.211 187.142Z" fill="#8E9DB3"/>
<path d="M286.849 193.513C289.304 192.662 291.84 192.16 294.376 191.99L297.252 185.476L308.81 187.734L309.025 194.848C311.31 195.959 313.469 197.374 315.432 199.086L322.071 196.514L328.648 206.29L323.773 211.469C324.625 213.924 325.126 216.459 325.297 218.995L331.811 221.871L329.553 233.43L322.438 233.645C321.327 235.929 319.912 238.089 318.2 240.042L320.772 246.681L311.005 253.258L305.827 248.384C303.371 249.235 300.836 249.737 298.3 249.907L295.424 256.421L283.866 254.163L283.651 247.049C281.366 245.938 279.206 244.522 277.244 242.811L270.605 245.382L264.028 235.616L268.902 230.437C268.051 227.982 267.549 225.446 267.379 222.91L260.865 220.034L263.123 208.476L270.237 208.261C271.348 205.976 272.764 203.817 274.475 201.863L271.904 195.224L281.67 188.647L286.849 193.513ZM289.716 210.169C283.928 214.067 282.396 221.925 286.294 227.713C290.191 233.501 298.049 235.033 303.837 231.136C309.626 227.238 311.158 219.38 307.26 213.592C303.354 207.804 295.505 206.272 289.716 210.169Z" fill="#6D6D6D"/>
<path d="M341.693 152.79C338.97 145.667 334.848 139.215 329.481 133.741C320.234 124.306 309.706 115.946 297.798 110.095C285.882 104.236 266.456 99.0387 252.309 99.1104C245.006 98.8326 241.315 99.2896 234.666 101.852C230.509 103.456 227.023 107.156 226.737 111.538C226.468 115.597 228.977 120.588 232.328 122.953C246.735 133.105 257.649 133.642 271.626 138.113C285.595 142.584 299.976 149.206 307.511 161.642C311.597 168.389 313.935 177.018 321.032 180.602C327.913 184.069 336.989 180.7 341.201 174.321C345.421 167.941 344.417 159.913 341.693 152.79Z" fill="#E1EBF1"/>
<path d="M150.129 280.272C150.129 280.272 149.779 280.479 149.089 280.855C148.399 281.24 147.351 281.769 146.025 282.557C143.355 284.081 139.457 286.428 134.753 289.896C130.058 293.363 124.53 297.942 118.849 303.999C116.009 307.027 113.142 310.414 110.337 314.186C107.515 317.94 104.863 322.169 102.605 326.873C101.521 329.239 100.517 331.721 99.7286 334.328C98.967 336.945 98.3936 339.677 98.1338 342.509C97.8918 345.34 98.0262 348.252 98.5907 351.146C98.8416 352.598 99.3075 354.013 99.7734 355.438C100.311 356.836 100.929 358.224 101.7 359.542C104.728 364.855 109.513 369.317 115.167 372.543C120.829 375.786 127.37 377.748 134.153 378.877C137.558 379.442 141.025 379.827 144.556 380.096C146.321 380.248 148.095 380.302 149.878 380.383C151.661 380.463 153.462 380.535 155.263 380.616C157.064 380.732 158.883 380.687 160.71 380.687C162.538 380.678 164.375 380.678 166.212 380.669C168.058 380.705 169.903 380.553 171.767 380.481C173.631 380.392 175.494 380.311 177.367 380.221C192.366 379.316 207.795 376.924 223.323 373.322C254.414 366.1 282.826 354.847 307.843 343.172C320.369 337.375 332.097 331.318 341.971 324.006C346.908 320.368 351.325 316.372 355.107 312.116C355.572 311.579 356.047 311.05 356.504 310.521C356.961 309.993 357.373 309.419 357.812 308.882C358.243 308.335 358.673 307.789 359.094 307.242C359.488 306.678 359.882 306.113 360.268 305.549C361.88 303.344 363.197 301.015 364.273 298.64C366.396 293.901 367.606 288.964 367.409 284.278C367.212 279.609 365.428 275.264 362.445 272.397C359.488 269.494 355.743 268.024 352.284 267.379C348.79 266.734 345.51 266.895 342.643 267.388C339.767 267.872 337.276 268.625 335.153 269.359C333.029 270.103 331.273 270.829 329.848 271.42C328.442 272.029 327.366 272.486 326.632 272.8C325.906 273.113 325.53 273.266 325.53 273.266C325.53 273.266 325.888 273.087 326.605 272.755C327.322 272.433 328.388 271.94 329.804 271.33C331.219 270.721 332.975 269.977 335.099 269.225C337.222 268.472 339.713 267.702 342.607 267.2C345.484 266.689 348.799 266.519 352.32 267.155C355.805 267.8 359.604 269.261 362.624 272.208C365.67 275.112 367.498 279.538 367.704 284.269C367.919 289.017 366.701 294.008 364.568 298.784C363.493 301.176 362.167 303.533 360.554 305.746C360.16 306.31 359.775 306.875 359.38 307.448C358.95 307.995 358.529 308.541 358.09 309.097C357.651 309.643 357.239 310.217 356.773 310.754C356.307 311.283 355.841 311.821 355.366 312.358C351.576 316.641 347.141 320.655 342.186 324.32C332.285 331.676 320.539 337.76 308.013 343.566C282.988 355.277 254.548 366.548 223.421 373.788C192.357 381.055 161.517 383.088 134.072 379.298C127.254 378.152 120.668 376.18 114.952 372.892C109.253 369.64 104.415 365.124 101.35 359.73C100.571 358.395 99.9437 356.988 99.4061 355.563C98.9312 354.121 98.4653 352.687 98.2144 351.209C97.6499 348.279 97.5155 345.331 97.7664 342.473C98.0352 339.615 98.6176 336.864 99.3882 334.23C100.186 331.604 101.207 329.113 102.3 326.73C104.576 322.008 107.246 317.77 110.095 314.007C112.918 310.226 115.803 306.839 118.661 303.819C124.369 297.762 129.924 293.193 134.646 289.752C139.377 286.303 143.292 283.982 145.98 282.486C148.668 280.971 150.129 280.272 150.129 280.272Z" fill="#E0E0E0"/>
<path d="M113.644 406.868L114.629 408.499C115.731 410.327 117.335 411.805 119.253 412.755L120.955 413.597L119.324 414.583C117.496 415.685 116.018 417.289 115.068 419.206L114.226 420.908L113.24 419.278C112.138 417.45 110.534 415.972 108.617 415.022L106.906 414.18L108.536 413.194C110.364 412.092 111.843 410.488 112.792 408.571L113.644 406.868Z" fill="#39AF92"/>
<path d="M429.69 86.3062L430.675 87.9369C431.777 89.7647 433.381 91.2431 435.299 92.1929L437.001 93.0351L435.37 94.0207C433.542 95.1228 432.064 96.7266 431.114 98.6441L430.272 100.346L429.286 98.7158C428.184 96.8879 426.581 95.4095 424.663 94.4598L422.961 93.6175L424.591 92.6319C426.419 91.5298 427.898 89.926 428.847 88.0086L429.69 86.3062Z" fill="#E4DF56"/>
<path d="M440.916 111.618L441.768 113.034C442.726 114.629 444.115 115.91 445.782 116.734L447.269 117.469L445.853 118.32C444.259 119.279 442.977 120.668 442.153 122.334L441.418 123.822L440.567 122.406C439.608 120.811 438.219 119.53 436.553 118.706L435.066 117.971L436.481 117.12C438.076 116.161 439.357 114.772 440.182 113.106L440.916 111.618Z" fill="#39AF92"/>
<path d="M94.702 388.438L95.4009 389.593C96.1804 390.893 97.3183 391.932 98.6713 392.604L99.8809 393.204L98.7251 393.903C97.4259 394.683 96.3865 395.821 95.7145 397.174L95.1142 398.383L94.4153 397.227C93.6358 395.928 92.4979 394.889 91.1449 394.217L89.9353 393.616L91.0911 392.918C92.3903 392.138 93.4297 391 94.1017 389.647L94.702 388.438Z" fill="#E4DF56"/>
<path d="M391.108 401.089L391.807 402.245C392.586 403.544 393.724 404.583 395.077 405.255L396.287 405.856L395.131 406.554C393.832 407.334 392.792 408.472 392.12 409.825L391.52 411.034L390.821 409.879C390.042 408.579 388.904 407.54 387.551 406.868L386.341 406.268L387.497 405.569C388.796 404.789 389.835 403.651 390.507 402.298L391.108 401.089Z" fill="#39AF92"/>
<path d="M86.0557 70.7339L86.7545 71.8897C87.5341 73.1889 88.672 74.2283 90.0249 74.9003L91.2345 75.5006L90.0787 76.1995C88.7795 76.979 87.7401 78.1169 87.0681 79.4699L86.4678 80.6795L85.7689 79.5236C84.9894 78.2244 83.8515 77.1851 82.4985 76.5131L81.2889 75.9128L82.4448 75.2139C83.744 74.4344 84.7833 73.2964 85.4553 71.9435L86.0557 70.7339Z" fill="#E4DF56"/>
<path d="M430.46 281.644L431.159 282.799C431.938 284.099 433.076 285.138 434.429 285.81L435.639 286.41L434.483 287.109C433.184 287.889 432.145 289.027 431.473 290.38L430.872 291.589L430.173 290.433C429.394 289.134 428.256 288.095 426.903 287.423L425.693 286.822L426.849 286.124C428.148 285.344 429.188 284.206 429.86 282.853L430.46 281.644Z" fill="#E4DF56"/>
<path d="M83.0989 153.999L83.7978 155.155C84.5773 156.454 85.7152 157.493 87.0682 158.165L88.2778 158.766L87.1219 159.465C85.8227 160.244 84.7834 161.382 84.1114 162.735L83.511 163.945L82.8122 162.789C82.0326 161.49 80.8947 160.45 79.5418 159.778L78.3322 159.178L79.488 158.479C80.7872 157.7 81.8266 156.562 82.4986 155.209L83.0989 153.999Z" fill="#39AF92"/>
<path d="M130.363 168.721L131.008 169.796C131.734 171.006 132.791 171.973 134.054 172.6L135.174 173.156L134.099 173.801C132.89 174.527 131.922 175.584 131.295 176.847L130.739 177.967L130.094 176.892C129.368 175.683 128.311 174.715 127.048 174.088L125.928 173.532L127.003 172.887C128.213 172.161 129.18 171.104 129.807 169.841L130.363 168.721Z" fill="#E4DF56"/>
<path d="M362.938 286.715L363.583 287.79C364.309 289 365.366 289.967 366.629 290.595L367.749 291.15L366.674 291.795C365.464 292.521 364.497 293.578 363.87 294.842L363.314 295.962L362.669 294.886C361.943 293.677 360.886 292.709 359.622 292.082L358.502 291.526L359.578 290.881C360.787 290.155 361.755 289.098 362.382 287.835L362.938 286.715Z" fill="#E4DF56"/>
<path d="M236.611 65.125L237.256 66.2002C237.981 67.4098 239.039 68.3775 240.302 69.0047L241.422 69.5602L240.347 70.2053C239.137 70.9311 238.17 71.9884 237.542 73.2517L236.987 74.3717L236.342 73.2965C235.616 72.0869 234.559 71.1192 233.295 70.492L232.175 69.9365L233.251 69.2914C234.46 68.5656 235.428 67.5084 236.055 66.245L236.611 65.125Z" fill="#39AF92"/>
<path d="M387.837 166.373L388.483 167.448C389.208 168.658 390.266 169.626 391.529 170.253L392.649 170.808L391.574 171.453C390.364 172.179 389.396 173.236 388.769 174.5L388.214 175.62L387.569 174.545C386.843 173.335 385.786 172.367 384.522 171.74L383.402 171.185L384.477 170.539C385.687 169.814 386.655 168.756 387.282 167.493L387.837 166.373Z" fill="#E4DF56"/>
<path d="M154.86 210.125L155.334 210.905C155.863 211.783 156.634 212.49 157.556 212.947L158.381 213.351L157.601 213.825C156.723 214.354 156.015 215.125 155.558 216.048L155.155 216.872L154.68 216.092C154.152 215.214 153.381 214.506 152.458 214.049L151.634 213.646L152.413 213.171C153.292 212.643 153.999 211.872 154.456 210.949L154.86 210.125Z" fill="#E4DF56"/>
<path d="M176.292 310.531L176.767 311.31C177.295 312.188 178.066 312.896 178.989 313.353L179.813 313.756L179.034 314.231C178.156 314.76 177.448 315.53 176.991 316.453L176.588 317.278L176.113 316.498C175.584 315.62 174.813 314.912 173.891 314.455L173.066 314.052L173.846 313.577C174.724 313.049 175.432 312.278 175.889 311.355L176.292 310.531Z" fill="#39AF92"/>
<path d="M380.813 135.972L381.288 136.752C381.816 137.63 382.587 138.338 383.51 138.795L384.334 139.198L383.554 139.673C382.676 140.201 381.969 140.972 381.512 141.895L381.108 142.719L380.634 141.94C380.105 141.061 379.334 140.354 378.411 139.897L377.587 139.493L378.367 139.019C379.245 138.49 379.953 137.719 380.41 136.796L380.813 135.972Z" fill="#39AF92"/>
<path d="M112.909 188.943L113.384 189.723C113.912 190.601 114.683 191.309 115.606 191.766L116.43 192.169L115.651 192.644C114.773 193.172 114.065 193.943 113.608 194.866L113.205 195.69L112.73 194.911C112.201 194.033 111.43 193.325 110.508 192.868L109.683 192.465L110.463 191.99C111.341 191.461 112.049 190.691 112.506 189.768L112.909 188.943Z" fill="#39AF92"/>
<path d="M403.464 140.792L403.733 141.24C404.037 141.742 404.476 142.154 405.005 142.414L405.471 142.647L405.023 142.916C404.521 143.221 404.109 143.66 403.849 144.188L403.616 144.654L403.347 144.206C403.043 143.704 402.604 143.292 402.075 143.032L401.609 142.8L402.057 142.531C402.559 142.226 402.971 141.787 403.231 141.258L403.464 140.792Z" fill="#E4DF56"/>
<path d="M386.718 269.781L386.986 270.229C387.291 270.731 387.73 271.143 388.259 271.403L388.725 271.635L388.277 271.904C387.775 272.209 387.363 272.648 387.103 273.177L386.87 273.643L386.601 273.195C386.296 272.693 385.857 272.281 385.329 272.021L384.863 271.788L385.311 271.519C385.813 271.214 386.225 270.775 386.485 270.247L386.718 269.781Z" fill="#39AF92"/>
<path d="M270.847 55.0542L271.116 55.5022C271.42 56.004 271.859 56.4161 272.388 56.676L272.854 56.9089L272.406 57.1777C271.904 57.4824 271.492 57.9214 271.232 58.45L270.999 58.916L270.73 58.468C270.426 57.9662 269.987 57.554 269.458 57.2942L268.992 57.0612L269.44 56.7924C269.942 56.4878 270.354 56.0488 270.614 55.5201L270.847 55.0542Z" fill="#39AF92"/>
<path d="M219.533 77.9292L219.802 78.3772C220.106 78.879 220.545 79.2911 221.074 79.551L221.54 79.7839L221.092 80.0527C220.59 80.3574 220.178 80.7964 219.918 81.325L219.685 81.791L219.416 81.343C219.112 80.8412 218.673 80.429 218.144 80.1692L217.678 79.9362L218.126 79.6674C218.628 79.3628 219.04 78.9238 219.3 78.3951L219.533 77.9292Z" fill="#39AF92"/>
<path d="M182.026 322.313L182.295 322.761C182.6 323.263 183.039 323.675 183.567 323.935L184.033 324.168L183.585 324.437C183.084 324.741 182.671 325.18 182.412 325.709L182.179 326.175L181.91 325.727C181.605 325.225 181.166 324.813 180.637 324.553L180.172 324.32L180.62 324.051C181.121 323.747 181.533 323.308 181.793 322.779L182.026 322.313Z" fill="#E4DF56"/>
<path d="M313.864 388.456L202.778 388.196C198.172 388.187 194.445 384.943 194.454 380.956C194.463 376.969 198.199 373.752 202.804 373.761L313.891 374.021C318.496 374.03 322.223 377.274 322.214 381.261C322.205 385.239 318.469 388.465 313.864 388.456Z" fill="#6121A0"/>
<path d="M313.864 370.93L202.778 370.67C198.172 370.661 194.445 367.418 194.454 363.431C194.463 359.444 198.199 356.227 202.804 356.236L313.891 356.496C318.496 356.505 322.223 359.748 322.214 363.735C322.205 367.723 318.469 370.939 313.864 370.93Z" fill="#6121A0"/>
<path d="M309.402 391.072L207.688 390.839C203.467 390.83 200.045 394.235 200.036 398.455C200.027 402.667 203.432 406.098 207.652 406.107L218.816 406.134L233.564 434.358C235.249 437.584 238.591 439.618 242.228 439.627L278.57 439.707C282.253 439.716 285.622 437.664 287.306 434.394L301.768 406.322L309.357 406.34C313.568 406.349 317 402.944 317.009 398.724C317.027 394.504 313.613 391.081 309.402 391.072Z" fill="#6121A0"/>
<path d="M344.337 272.728C344.337 272.728 344.337 272.728 344.346 272.728C344.346 272.728 344.068 273.15 343.53 273.956C342.984 274.762 342.168 275.954 341.111 277.522C340.573 278.302 339.982 279.18 339.319 280.147C338.674 281.124 338.038 282.244 337.303 283.427C336.586 284.618 335.807 285.9 334.973 287.28C334.122 288.641 333.387 290.192 332.509 291.786C332.079 292.584 331.64 293.408 331.192 294.259C330.968 294.68 330.735 295.111 330.502 295.55C330.296 295.998 330.081 296.446 329.866 296.903C329.006 298.73 328.11 300.657 327.16 302.673C326.318 304.734 325.44 306.884 324.526 309.115C323.693 311.382 322.868 313.756 322.017 316.22C320.476 321.202 318.944 326.596 317.86 332.447C316.785 338.289 315.942 344.588 316.05 351.218V351.37H315.906C283.659 351.388 243.375 351.406 197.321 351.433H197.133L197.115 351.245C196.022 338.011 192.402 324.338 186.417 311.149C183.433 304.545 179.894 298.058 175.871 291.733C173.864 288.57 171.731 285.452 169.464 282.405C167.242 279.332 164.724 276.438 162.26 273.454L161.965 273.096H162.44L162.26 273.454C151.589 259.754 143.633 242.972 140.138 224.703C139.654 222.427 139.359 220.115 139.009 217.804C138.866 216.648 138.758 215.474 138.624 214.309L138.445 212.562L138.328 210.806C138.266 209.632 138.158 208.458 138.122 207.276C138.095 206.093 138.068 204.91 138.051 203.728C137.997 202.545 138.086 201.362 138.095 200.17C138.131 198.988 138.14 197.796 138.203 196.604C138.749 187.098 140.425 177.546 143.31 168.282C151.634 141.751 169.59 119.297 191.775 105.454C197.312 101.969 203.082 98.9761 209.005 96.4942C214.918 93.9944 221.029 92.1217 227.149 90.6971C239.406 87.8209 251.869 87.1669 263.831 88.2331C269.807 88.8245 275.685 89.7832 281.357 91.2168C287.028 92.6862 292.521 94.5141 297.771 96.7003C303.004 98.9493 308.004 101.512 312.744 104.343C317.439 107.255 321.892 110.382 326.031 113.76C334.257 120.579 341.344 128.204 347.042 136.33C352.822 144.403 357.212 152.933 360.491 161.4C361.37 163.497 362.006 165.656 362.74 167.744C363.43 169.85 363.968 171.973 364.577 174.052C365.052 176.158 365.572 178.227 365.984 180.297C366.172 181.336 366.351 182.358 366.531 183.379C366.71 184.401 366.907 185.413 367.014 186.435C368.152 194.544 368.394 202.294 367.964 209.489C367.131 223.923 363.708 236.046 359.954 245.454C358.09 250.176 356.029 254.199 354.202 257.658C352.302 261.072 350.564 263.894 349.085 266.116C348.333 267.218 347.67 268.195 347.096 269.028C346.496 269.834 345.985 270.515 345.582 271.062C344.785 272.128 344.426 272.612 344.337 272.728C344.426 272.603 344.776 272.128 345.537 271.062C345.94 270.506 346.442 269.807 347.042 268.983C347.607 268.141 348.261 267.164 349.014 266.053C350.483 263.822 352.203 261 354.094 257.586C355.904 254.128 357.947 250.104 359.802 245.383C363.529 235.975 366.907 223.87 367.713 209.462C368.125 202.276 367.875 194.543 366.728 186.462C366.62 185.449 366.423 184.437 366.244 183.415C366.065 182.394 365.876 181.372 365.688 180.342C365.276 178.281 364.756 176.22 364.282 174.124C363.672 172.054 363.135 169.939 362.445 167.843C361.71 165.755 361.074 163.605 360.196 161.517C356.916 153.077 352.526 144.583 346.756 136.536C341.066 128.446 334.006 120.847 325.798 114.056C321.668 110.696 317.224 107.578 312.547 104.675C307.816 101.852 302.834 99.3077 297.619 97.0677C292.378 94.8904 286.903 93.0715 281.258 91.611C275.595 90.1774 269.745 89.2277 263.795 88.6453C251.878 87.588 239.46 88.251 227.256 91.1182C221.155 92.5429 215.08 94.4065 209.184 96.8974C203.288 99.3704 197.536 102.354 192.026 105.822C169.93 119.62 152.055 141.984 143.767 168.407C140.891 177.636 139.224 187.151 138.678 196.613C138.615 197.796 138.606 198.979 138.57 200.161C138.561 201.344 138.472 202.527 138.525 203.701C138.552 204.883 138.579 206.057 138.597 207.231C138.624 208.405 138.731 209.578 138.803 210.743L138.911 212.499L139.09 214.247C139.215 215.411 139.323 216.567 139.466 217.723C139.816 220.026 140.111 222.328 140.595 224.595C144.072 242.793 151.992 259.512 162.619 273.159L162.897 273.517H162.44L162.619 273.159C165.065 276.124 167.583 279.018 169.823 282.119C172.099 285.174 174.231 288.301 176.247 291.473C180.27 297.816 183.827 304.321 186.811 310.943C192.814 324.177 196.443 337.904 197.527 351.182L197.321 350.994C243.384 351.021 283.659 351.039 315.906 351.057L315.763 351.209C315.665 344.525 316.516 338.235 317.609 332.375C318.711 326.506 320.261 321.112 321.811 316.131C322.671 313.667 323.505 311.283 324.347 309.016C325.27 306.776 326.148 304.626 326.999 302.565C327.949 300.549 328.854 298.632 329.723 296.804C329.938 296.347 330.153 295.89 330.359 295.451C330.592 295.012 330.825 294.591 331.049 294.161C331.506 293.319 331.945 292.494 332.375 291.688C333.262 290.102 334.006 288.552 334.857 287.19C335.699 285.819 336.479 284.538 337.204 283.346C337.939 282.163 338.584 281.043 339.238 280.076C339.901 279.108 340.511 278.239 341.048 277.459C342.123 275.9 342.948 274.718 343.503 273.911C344.059 273.114 344.355 272.711 344.355 272.711C344.337 272.728 344.337 272.728 344.337 272.728Z" fill="#D8D353"/>
<path d="M154.51 241.306C154.501 241.306 154.465 241.225 154.412 241.055C154.349 240.858 154.259 240.607 154.152 240.302C153.928 239.603 153.605 238.627 153.202 237.381C152.996 236.745 152.772 236.037 152.53 235.267C152.306 234.487 152.109 233.627 151.876 232.713C151.437 230.867 150.828 228.789 150.451 226.432C150.236 225.259 150.003 224.031 149.77 222.75C149.537 221.468 149.421 220.115 149.233 218.727C148.812 215.949 148.677 212.947 148.462 209.794C148.238 203.486 148.453 196.524 149.394 189.293C150.415 182.071 152.064 175.307 153.964 169.285C155.003 166.302 155.935 163.452 157.082 160.881C157.637 159.591 158.112 158.318 158.676 157.145C159.25 155.971 159.796 154.851 160.316 153.776C161.311 151.607 162.449 149.762 163.363 148.104C163.837 147.28 164.25 146.509 164.68 145.81C165.119 145.129 165.531 144.511 165.898 143.955C166.624 142.862 167.188 142.002 167.592 141.393C167.78 141.124 167.923 140.9 168.04 140.73C168.147 140.587 168.201 140.506 168.21 140.515C168.219 140.524 168.174 140.604 168.084 140.757C167.977 140.936 167.843 141.16 167.672 141.438C167.287 142.065 166.74 142.934 166.051 144.045C165.692 144.61 165.298 145.237 164.868 145.918C164.456 146.617 164.052 147.396 163.587 148.22C162.691 149.887 161.58 151.733 160.603 153.91C160.092 154.985 159.555 156.105 158.99 157.279C158.435 158.453 157.969 159.725 157.431 161.015C156.302 163.578 155.388 166.427 154.367 169.402C152.503 175.405 150.872 182.152 149.851 189.347C148.91 196.551 148.695 203.477 148.883 209.767C149.08 212.903 149.206 215.895 149.6 218.664C149.779 220.053 149.887 221.397 150.111 222.678C150.335 223.959 150.559 225.187 150.765 226.352C151.123 228.708 151.706 230.787 152.118 232.633C152.342 233.555 152.521 234.416 152.736 235.195C152.969 235.966 153.184 236.674 153.372 237.319C153.74 238.573 154.026 239.559 154.241 240.267C154.331 240.58 154.403 240.84 154.456 241.037C154.501 241.207 154.519 241.306 154.51 241.306Z" fill="#BCBBA1"/>
<path d="M188.737 120.731C188.818 120.83 186.058 123.347 182.573 126.358C179.078 129.368 176.184 131.734 176.104 131.635C176.023 131.537 178.783 129.019 182.268 126.008C185.754 122.998 188.648 120.632 188.737 120.731Z" fill="#BCBBA1"/>
<path d="M345.555 254.307C345.546 254.307 345.573 254.235 345.636 254.101C345.707 253.948 345.797 253.751 345.905 253.518C346.164 252.981 346.523 252.246 346.971 251.314C347.204 250.83 347.464 250.302 347.75 249.728C348.028 249.146 348.297 248.492 348.602 247.802C349.193 246.413 349.937 244.863 350.591 243.071C350.931 242.184 351.29 241.252 351.666 240.293C352.033 239.326 352.347 238.295 352.714 237.238C353.467 235.132 354.085 232.83 354.775 230.41C356.038 225.554 357.149 220.133 357.875 214.381C358.547 208.62 358.753 203.091 358.69 198.074C358.592 195.565 358.547 193.182 358.314 190.951C358.216 189.84 358.153 188.764 358.027 187.734C357.893 186.704 357.768 185.718 357.651 184.777C357.445 182.887 357.096 181.202 356.854 179.715C356.719 178.971 356.612 178.281 356.486 177.645C356.352 177.018 356.218 176.444 356.11 175.916C355.895 174.903 355.725 174.106 355.599 173.523C355.554 173.273 355.51 173.066 355.474 172.896C355.447 172.753 355.438 172.681 355.447 172.681C355.456 172.681 355.483 172.753 355.519 172.887C355.563 173.049 355.617 173.255 355.689 173.505C355.832 174.088 356.038 174.876 356.289 175.88C356.415 176.4 356.558 176.973 356.71 177.6C356.854 178.236 356.97 178.926 357.114 179.67C357.382 181.157 357.759 182.842 357.983 184.732C358.117 185.673 358.251 186.668 358.395 187.698C358.529 188.729 358.601 189.813 358.708 190.924C358.959 193.155 359.022 195.547 359.13 198.065C359.219 203.1 359.022 208.656 358.35 214.435C357.624 220.214 356.495 225.644 355.205 230.518C354.497 232.937 353.861 235.249 353.09 237.354C352.714 238.412 352.392 239.442 352.015 240.41C351.63 241.377 351.263 242.3 350.913 243.187C350.241 244.97 349.48 246.521 348.861 247.9C348.539 248.59 348.261 249.235 347.974 249.809C347.679 250.382 347.401 250.902 347.159 251.377C346.675 252.291 346.29 253.017 346.012 253.545C345.887 253.769 345.788 253.957 345.707 254.101C345.609 254.244 345.564 254.307 345.555 254.307Z" fill="#BCBBA1"/>
<path d="M308.416 144.618C302.287 141.106 295.881 137.907 288.991 136.384C288.023 136.169 287.029 135.989 286.052 136.142C285.075 136.294 284.108 136.832 283.678 137.719C283.086 138.946 283.66 140.407 284.412 141.545C286.07 144.044 288.552 145.872 291.052 147.53C297.897 152.073 305.262 155.773 312.6 159.456C311.66 154.223 309.823 149.734 308.416 144.618Z" fill="#5D887D"/>
<path d="M355.402 158.121C357.4 164.895 359.82 171.633 363.744 177.501C364.291 178.326 364.891 179.141 365.697 179.715C366.504 180.279 367.579 180.566 368.511 180.216C369.783 179.741 370.383 178.29 370.625 176.946C371.154 173.989 370.625 170.961 369.962 168.031C368.152 160.021 365.393 152.252 362.642 144.511C359.703 148.937 357.92 153.453 355.402 158.121Z" fill="#5D887D"/>
<path d="M308.327 144.475C308.327 144.475 308.81 191.38 335.135 192.303C361.459 193.226 362.561 144.815 362.561 144.475C362.561 144.475 359.452 137.477 335.448 137.755C311.436 138.032 308.327 144.475 308.327 144.475Z" fill="#75A99C"/>
<path d="M343.288 163.103C342.921 168.102 338.575 171.857 333.576 171.489C328.576 171.122 324.822 166.776 325.189 161.777C325.557 156.777 329.902 153.023 334.902 153.39C339.902 153.757 343.656 158.103 343.288 163.103Z" fill="#263238"/>
<path d="M340.833 162.923C340.565 166.57 337.402 169.303 333.755 169.034C330.108 168.765 327.376 165.602 327.644 161.956C327.913 158.309 331.076 155.576 334.723 155.845C338.369 156.114 341.102 159.286 340.833 162.923Z" fill="white"/>
<path d="M308.21 144.439C308.21 144.439 308.255 144.448 308.344 144.475C308.443 144.511 308.577 144.555 308.739 144.609C309.097 144.735 309.608 144.914 310.262 145.147C310.593 145.263 310.961 145.398 311.364 145.541C311.767 145.675 312.215 145.801 312.69 145.953C313.649 146.24 314.724 146.607 315.942 146.894C316.552 147.046 317.188 147.217 317.851 147.387C318.514 147.557 319.222 147.682 319.939 147.835C321.381 148.166 322.94 148.39 324.58 148.659C327.868 149.107 331.506 149.412 335.341 149.43C339.176 149.412 342.813 149.107 346.102 148.659C347.741 148.39 349.301 148.166 350.743 147.844C351.46 147.691 352.168 147.566 352.831 147.396C353.494 147.226 354.13 147.064 354.739 146.903C355.958 146.616 357.042 146.249 357.992 145.962C358.467 145.81 358.915 145.684 359.318 145.55C359.721 145.407 360.088 145.272 360.42 145.156C361.074 144.923 361.585 144.744 361.943 144.618C362.113 144.564 362.248 144.52 362.337 144.484C362.427 144.457 362.472 144.439 362.472 144.448C362.472 144.448 362.427 144.475 362.337 144.502C362.239 144.538 362.113 144.591 361.943 144.654C361.585 144.788 361.083 144.977 360.429 145.227C360.097 145.353 359.73 145.487 359.336 145.64C358.933 145.783 358.485 145.908 358.01 146.07C357.051 146.365 355.985 146.742 354.757 147.037C354.148 147.199 353.512 147.369 352.849 147.539C352.186 147.709 351.478 147.835 350.761 147.996C349.318 148.337 347.759 148.561 346.12 148.838C342.822 149.295 339.176 149.609 335.332 149.618C331.497 149.6 327.841 149.286 324.553 148.829C322.913 148.561 321.345 148.328 319.912 147.987C319.186 147.826 318.487 147.7 317.824 147.53C317.161 147.36 316.525 147.19 315.916 147.028C314.697 146.733 313.622 146.356 312.663 146.061C312.188 145.908 311.74 145.774 311.337 145.631C310.934 145.478 310.575 145.344 310.244 145.218C309.59 144.977 309.088 144.779 308.73 144.645C308.568 144.582 308.434 144.529 308.335 144.493C308.255 144.457 308.21 144.439 308.21 144.439Z" fill="#263238"/>
<g opacity="0.3">
<path d="M308.327 144.475C308.327 144.475 311.436 138.023 335.44 137.755C359.443 137.477 362.552 144.475 362.552 144.475C362.552 144.475 338.343 156.418 308.327 144.475Z" fill="black"/>
</g>
<path d="M316.579 177.86C316.579 177.86 316.561 177.842 316.534 177.788C316.498 177.734 316.462 177.662 316.417 177.573C316.31 177.367 316.167 177.098 315.987 176.749C315.898 176.569 315.79 176.372 315.683 176.148C315.575 175.924 315.468 175.682 315.342 175.422C315.1 174.903 314.822 174.311 314.563 173.639C314.428 173.308 314.285 172.958 314.133 172.591C313.998 172.224 313.855 171.838 313.702 171.444C313.398 170.656 313.138 169.787 312.824 168.882C312.26 167.063 311.713 165.038 311.23 162.887C310.755 160.737 310.396 158.676 310.11 156.786C309.85 154.895 309.635 153.193 309.527 151.759C309.455 151.042 309.42 150.388 309.384 149.824C309.348 149.25 309.321 148.758 309.303 148.354C309.294 147.96 309.276 147.655 309.276 147.431C309.276 147.333 309.276 147.252 309.276 147.19C309.276 147.136 309.276 147.109 309.285 147.109C309.285 147.109 309.294 147.136 309.303 147.19C309.312 147.252 309.312 147.333 309.321 147.431C309.339 147.655 309.357 147.969 309.384 148.354C309.411 148.758 309.447 149.25 309.491 149.815C309.536 150.388 309.59 151.033 309.67 151.75C309.805 153.184 310.02 154.886 310.298 156.768C310.593 158.649 310.961 160.71 311.427 162.852C311.91 164.993 312.448 167.009 313.004 168.837C313.308 169.742 313.559 170.611 313.864 171.399C314.007 171.794 314.142 172.179 314.276 172.555C314.419 172.923 314.563 173.272 314.697 173.604C314.957 174.276 315.217 174.867 315.45 175.387C315.566 175.646 315.674 175.888 315.772 176.112C315.88 176.327 315.978 176.534 316.068 176.713C316.238 177.062 316.373 177.34 316.471 177.546C316.507 177.636 316.543 177.707 316.57 177.77C316.57 177.833 316.579 177.86 316.579 177.86Z" fill="white"/>
<path d="M329.266 189.14C329.266 189.149 329.114 189.131 328.845 189.087C328.576 189.042 328.191 188.952 327.725 188.818C327.259 188.683 326.712 188.477 326.13 188.208C325.548 187.931 324.929 187.581 324.32 187.16C323.711 186.73 323.173 186.264 322.716 185.816C322.268 185.359 321.883 184.92 321.596 184.526C321.31 184.132 321.095 183.8 320.96 183.567C320.826 183.334 320.763 183.2 320.772 183.191C320.799 183.173 321.103 183.693 321.695 184.445C321.991 184.822 322.376 185.252 322.824 185.7C323.281 186.139 323.818 186.596 324.41 187.017C325.01 187.438 325.619 187.778 326.184 188.065C326.757 188.343 327.286 188.558 327.743 188.71C328.675 188.997 329.266 189.104 329.266 189.14Z" fill="white"/>
<path d="M334.75 172.591C334.75 172.6 334.66 172.609 334.499 172.618C334.337 172.618 334.086 172.654 333.773 172.636C333.146 172.636 332.232 172.537 331.148 172.215C330.61 172.054 330.037 171.821 329.436 171.525C328.854 171.211 328.236 170.853 327.662 170.378C326.488 169.455 325.404 168.165 324.705 166.579C324.024 164.984 323.827 163.309 323.953 161.821C324.006 161.077 324.159 160.379 324.329 159.742C324.526 159.106 324.741 158.533 324.992 158.022C325.494 157.01 326.04 156.275 326.47 155.818C326.668 155.576 326.865 155.424 326.981 155.307C327.098 155.191 327.169 155.137 327.169 155.146C327.187 155.164 326.927 155.397 326.524 155.872C326.112 156.347 325.592 157.081 325.109 158.085C324.867 158.587 324.661 159.16 324.472 159.787C324.311 160.423 324.168 161.104 324.123 161.839C324.006 163.3 324.213 164.948 324.876 166.507C325.566 168.057 326.623 169.33 327.77 170.244C328.334 170.709 328.934 171.068 329.508 171.39C330.09 171.686 330.655 171.928 331.183 172.089C332.241 172.421 333.146 172.546 333.773 172.564C334.4 172.591 334.75 172.573 334.75 172.591Z" fill="white"/>
<path d="M333.612 95.7054C333.612 95.7054 310.665 95.4277 307.027 115.31C303.399 135.183 322.806 135.559 328.388 135.936C330.924 136.106 336.335 136.124 341.111 136.043C351.693 135.855 359.166 133.812 361.71 124.001C362.006 122.854 362.203 121.68 362.284 120.489C362.956 109.719 355.671 95.1768 333.612 95.7054Z" fill="#75A99C"/>
<path d="M350.259 125.981L316.919 126.501C313.425 126.555 310.549 123.768 310.495 120.274C310.441 116.779 313.228 113.903 316.722 113.85L350.062 113.33C353.557 113.276 356.433 116.063 356.486 119.557C356.549 123.051 353.754 125.928 350.259 125.981Z" fill="#263238"/>
<path d="M323.836 119.584C323.621 120.686 322.555 121.402 321.453 121.187C320.351 120.972 319.634 119.906 319.849 118.804C320.064 117.702 321.13 116.985 322.232 117.2C323.334 117.415 324.051 118.481 323.836 119.584Z" fill="white"/>
<path d="M347.132 119.208C346.917 120.31 345.851 121.026 344.749 120.811C343.647 120.596 342.93 119.53 343.145 118.428C343.36 117.326 344.426 116.609 345.528 116.824C346.63 117.039 347.347 118.106 347.132 119.208Z" fill="white"/>
<path d="M329.678 118.643C329.83 118.661 329.75 119.369 330.198 120.309C330.413 120.775 330.771 121.295 331.273 121.725C331.775 122.164 332.447 122.496 333.182 122.567C333.916 122.63 334.642 122.415 335.215 122.084C335.798 121.743 336.237 121.304 336.533 120.883C337.142 120.032 337.196 119.324 337.348 119.333C337.411 119.333 337.464 119.512 337.464 119.853C337.464 120.184 337.366 120.677 337.097 121.223C336.828 121.77 336.353 122.352 335.672 122.809C335 123.266 334.086 123.58 333.101 123.499C332.124 123.401 331.282 122.926 330.7 122.361C330.108 121.788 329.75 121.125 329.589 120.542C329.418 119.96 329.409 119.458 329.472 119.127C329.526 118.795 329.624 118.634 329.678 118.643Z" fill="white"/>
<path d="M330.709 97.1928C330.709 97.1928 330.682 97.2017 330.628 97.2107C330.565 97.2196 330.485 97.2196 330.386 97.2286C330.171 97.2465 329.857 97.2555 329.454 97.3092C328.648 97.3809 327.483 97.5422 326.067 97.8737C324.652 98.1963 323.003 98.7339 321.265 99.5313C319.526 100.338 317.717 101.431 316.005 102.838C314.303 104.253 312.878 105.821 311.758 107.38C310.638 108.939 309.805 110.454 309.213 111.78C308.622 113.106 308.246 114.217 308.022 114.996C307.896 115.382 307.834 115.695 307.771 115.892C307.744 115.982 307.717 116.063 307.699 116.125C307.681 116.179 307.672 116.206 307.672 116.206C307.672 116.206 307.672 116.179 307.681 116.125C307.699 116.063 307.708 115.982 307.735 115.883C307.789 115.677 307.843 115.364 307.95 114.969C308.156 114.181 308.515 113.052 309.097 111.717C309.67 110.382 310.504 108.841 311.624 107.273C312.744 105.705 314.177 104.11 315.889 102.685C317.609 101.27 319.446 100.167 321.202 99.37C322.958 98.5636 324.625 98.044 326.049 97.7393C327.474 97.4257 328.648 97.2824 329.463 97.2376C329.866 97.2017 330.189 97.2017 330.404 97.1928C330.502 97.1928 330.583 97.1928 330.646 97.1928C330.682 97.1838 330.709 97.1838 330.709 97.1928Z" fill="white"/>
<path d="M308.255 124.727C308.237 124.736 308.094 124.467 307.932 124.01C307.762 123.553 307.583 122.908 307.466 122.173C307.35 121.439 307.332 120.767 307.35 120.283C307.368 119.799 307.422 119.503 307.439 119.503C307.502 119.503 307.413 120.704 307.646 122.147C307.87 123.598 308.309 124.709 308.255 124.727Z" fill="white"/>
<path d="M344.749 112.156C344.749 112.21 340.358 112.246 334.938 112.246C329.517 112.246 325.126 112.201 325.126 112.156C325.126 112.102 329.517 112.066 334.938 112.066C340.358 112.066 344.749 112.111 344.749 112.156Z" fill="white"/>
<path d="M328.012 134.52C328.012 134.529 327.958 134.538 327.85 134.547C327.716 134.556 327.564 134.574 327.376 134.592C327.169 134.61 326.91 134.628 326.614 134.628C326.318 134.637 325.978 134.654 325.61 134.637C324.867 134.637 323.98 134.583 322.994 134.475C322.017 134.359 320.942 134.189 319.831 133.929C318.72 133.66 317.681 133.337 316.758 133.006C315.835 132.656 315.011 132.307 314.348 131.975C314.007 131.823 313.712 131.653 313.452 131.518C313.192 131.384 312.968 131.25 312.789 131.142C312.627 131.044 312.493 130.963 312.376 130.891C312.287 130.829 312.233 130.802 312.242 130.793C312.242 130.784 312.296 130.811 312.394 130.855C312.511 130.918 312.654 130.99 312.824 131.07C313.004 131.169 313.237 131.286 313.496 131.411C313.765 131.536 314.061 131.698 314.401 131.841C315.073 132.155 315.889 132.495 316.812 132.827C317.735 133.149 318.774 133.463 319.876 133.732C320.978 133.991 322.044 134.162 323.021 134.287C323.998 134.404 324.876 134.466 325.619 134.484C325.987 134.502 326.327 134.493 326.623 134.502C326.919 134.511 327.169 134.502 327.384 134.493C327.573 134.493 327.734 134.493 327.859 134.484C327.958 134.511 328.012 134.52 328.012 134.52Z" fill="white"/>
<path d="M356.074 147.342C356.074 147.342 356.047 147.36 355.985 147.378C355.913 147.405 355.832 147.431 355.725 147.476C355.483 147.566 355.151 147.682 354.73 147.835C354.3 147.987 353.772 148.175 353.144 148.354C352.517 148.542 351.818 148.775 351.021 148.973C350.627 149.08 350.206 149.188 349.775 149.304C349.345 149.421 348.888 149.51 348.414 149.618C347.473 149.842 346.46 150.021 345.394 150.227C343.253 150.585 340.887 150.89 338.387 151.051C335.887 151.195 333.495 151.186 331.327 151.087C330.243 151.015 329.212 150.962 328.254 150.854C327.77 150.8 327.313 150.765 326.865 150.711C326.426 150.648 325.996 150.594 325.592 150.541C324.777 150.442 324.051 150.299 323.406 150.191C322.761 150.084 322.214 149.967 321.766 149.869C321.327 149.77 320.987 149.698 320.736 149.636C320.629 149.609 320.539 149.591 320.467 149.573C320.405 149.555 320.378 149.546 320.378 149.546C320.378 149.546 320.414 149.546 320.467 149.555C320.539 149.564 320.629 149.582 320.736 149.6C320.987 149.645 321.336 149.716 321.775 149.797C322.223 149.886 322.779 149.994 323.415 150.084C324.06 150.182 324.786 150.317 325.601 150.406C326.005 150.46 326.435 150.514 326.874 150.567C327.313 150.621 327.779 150.657 328.262 150.702C329.221 150.809 330.252 150.854 331.327 150.917C333.486 151.006 335.87 151.006 338.369 150.863C340.86 150.702 343.226 150.406 345.358 150.057C346.424 149.86 347.437 149.689 348.378 149.465C348.844 149.358 349.301 149.268 349.74 149.161C350.17 149.053 350.591 148.946 350.985 148.847C351.782 148.659 352.49 148.435 353.118 148.256C353.745 148.085 354.282 147.906 354.712 147.763C355.142 147.629 355.474 147.521 355.716 147.44C355.823 147.405 355.913 147.387 355.976 147.36C356.047 147.351 356.074 147.342 356.074 147.342Z" fill="white"/>
<path d="M283.677 235.769L287.333 269.61L309.124 276.877L310.011 287.414L279.251 285.353C279.251 285.353 269.772 285.586 267.711 273.096L267.209 240.266L283.677 235.769Z" fill="#FFBE9D"/>
<path d="M328.899 287.235C328.495 287.692 327.85 287.889 327.268 287.683C327.151 287.638 327.035 287.584 326.918 287.513C326.148 287.02 326.677 285.335 326.677 285.335L322.833 283.615C322.833 283.615 316.722 285.604 314.276 287.342C311.83 289.081 307.565 286.025 307.565 286.025L308.183 277.029L317.34 272.299C317.34 272.299 316.785 272.576 317.618 271.465C318.46 270.345 320.655 271.438 320.655 271.438C321.184 270.919 322.752 271.098 322.752 271.098L329.042 273.562C330.341 274.073 331.336 275.139 331.748 276.465L333.343 281.527C333.343 281.527 333.97 285.04 333.54 285.703C332.895 286.706 331.802 286.16 331.802 286.16C331.802 286.16 330.941 288.131 330.377 288.059C329.848 287.979 328.899 287.235 328.899 287.235Z" fill="#FFBE9D"/>
<path d="M316.068 286.348C316.077 286.357 316.229 286.294 316.534 286.16C316.874 286.007 317.304 285.819 317.851 285.577C319.007 285.093 320.709 284.412 322.886 283.767L322.788 283.758C323.935 284.278 325.225 284.869 326.623 285.506L326.533 285.299C326.435 285.622 326.372 285.954 326.345 286.303C326.327 286.643 326.336 287.029 326.542 287.387C326.65 287.566 326.838 287.701 327.008 287.772C327.178 287.862 327.366 287.934 327.564 287.952C327.958 287.996 328.37 287.889 328.71 287.665C328.791 287.611 328.872 287.539 328.943 287.477L328.997 287.423L329.024 287.396L329.033 287.378C329.087 287.369 328.54 287.423 328.773 287.405L328.782 287.414L328.899 287.504C329.051 287.611 329.203 287.719 329.365 287.826C329.526 287.925 329.696 288.023 329.875 288.113C329.965 288.158 330.063 288.194 330.162 288.22C330.261 288.247 330.377 288.283 330.556 288.247C330.825 288.149 330.959 287.978 331.094 287.817C331.219 287.656 331.336 287.486 331.443 287.315C331.649 286.975 331.829 286.617 331.999 286.249L331.721 286.348C332.214 286.581 332.868 286.617 333.352 286.231C333.576 286.052 333.782 285.81 333.845 285.497C333.907 285.21 333.907 284.95 333.907 284.681C333.889 283.624 333.737 282.576 333.567 281.5V281.491L333.558 281.474C333.289 280.613 333.002 279.699 332.707 278.768C332.527 278.194 332.348 277.621 332.169 277.056C331.981 276.501 331.847 275.9 331.524 275.363C331.219 274.834 330.807 274.368 330.323 274.01C329.848 273.634 329.266 273.427 328.764 273.23C326.677 272.424 324.687 271.653 322.833 270.928L322.806 270.919H322.779C322.385 270.883 322.008 270.883 321.632 270.919C321.256 270.963 320.862 271.026 320.53 271.322L320.772 271.313C320.163 270.847 319.365 270.641 318.657 270.883C317.95 271.125 317.502 271.689 317.197 272.254L317.269 272.182C314.643 273.526 312.493 274.628 310.961 275.417C310.253 275.793 309.679 276.089 309.258 276.322C308.873 276.537 308.667 276.653 308.676 276.662C308.685 276.68 308.9 276.59 309.303 276.402C309.742 276.196 310.325 275.918 311.05 275.578C312.6 274.825 314.769 273.768 317.421 272.469L317.466 272.451L317.493 272.397C317.77 271.904 318.2 271.385 318.774 271.214C319.347 271.017 320.037 271.205 320.548 271.6L320.673 271.698L320.79 271.591C320.987 271.411 321.336 271.331 321.677 271.295C322.017 271.259 322.385 271.268 322.743 271.304L322.698 271.295C324.553 272.03 326.533 272.809 328.621 273.634C329.15 273.84 329.651 274.028 330.081 274.368C330.52 274.691 330.888 275.112 331.166 275.596C331.452 276.071 331.578 276.635 331.766 277.2C331.945 277.764 332.124 278.338 332.303 278.911C332.599 279.834 332.886 280.748 333.155 281.617L333.146 281.59C333.316 282.638 333.468 283.687 333.486 284.699C333.486 284.95 333.486 285.201 333.432 285.416C333.406 285.604 333.262 285.783 333.092 285.918C332.769 286.187 332.277 286.169 331.9 285.998L331.703 285.909L331.622 286.097C331.461 286.446 331.291 286.796 331.094 287.118C330.906 287.423 330.655 287.79 330.449 287.871C330.44 287.871 330.368 287.88 330.278 287.844C330.198 287.826 330.117 287.79 330.037 287.754C329.875 287.683 329.723 287.593 329.562 287.495C329.409 287.396 329.257 287.298 329.114 287.19L329.006 287.109L328.997 287.1C329.23 287.082 328.684 287.127 328.737 287.127L328.728 287.136L328.71 287.154L328.666 287.199C328.603 287.253 328.549 287.306 328.478 287.351C328.218 287.53 327.895 287.62 327.59 287.584C327.438 287.566 327.295 287.522 327.151 287.441C326.999 287.378 326.901 287.306 326.829 287.19C326.551 286.688 326.686 285.962 326.829 285.398L326.865 285.246L326.73 285.192C325.324 284.574 324.024 284.009 322.878 283.498L322.824 283.481L322.779 283.498C320.584 284.188 318.899 284.905 317.752 285.443C317.188 285.712 316.749 285.936 316.462 286.097C316.211 286.24 316.059 286.33 316.068 286.348Z" fill="#EB996E"/>
<path d="M321.166 274.01C321.139 274.054 321.829 274.547 323.083 275.183C324.329 275.811 326.166 276.536 328.334 276.984L328.155 276.778C328.182 277.128 328.209 277.495 328.253 277.862C328.558 280.326 329.409 282.432 330.198 283.83C330.592 284.538 330.968 285.066 331.237 285.425C331.515 285.783 331.685 285.962 331.712 285.944C331.775 285.9 331.183 285.102 330.475 283.686C329.768 282.271 328.988 280.201 328.692 277.809C328.648 277.45 328.621 277.092 328.594 276.751L328.585 276.581L328.424 276.545C326.3 276.124 324.481 275.461 323.218 274.906C321.937 274.368 321.202 273.956 321.166 274.01Z" fill="#EB996E"/>
<path d="M326.327 279.422C326.22 279.413 326.166 281.312 326.972 283.48C327.761 285.658 329.024 287.073 329.096 287.002C329.203 286.921 328.137 285.434 327.384 283.328C326.605 281.231 326.461 279.404 326.327 279.422Z" fill="#EB996E"/>
<path d="M306.982 283.086C306.973 283.095 307.036 283.158 307.153 283.256C307.278 283.364 307.466 283.507 307.726 283.669C308.246 284 309.07 284.421 310.199 284.636C311.319 284.851 312.753 284.851 314.222 284.278C315.683 283.713 317.152 282.584 318.075 280.936L317.797 281.025C319.168 281.688 320.745 282.208 322.429 282.486C323.03 282.584 323.63 282.647 324.23 282.683C324.822 282.71 325.422 282.746 326.031 282.575C326.309 282.495 326.659 282.342 326.847 282.029C327.035 281.733 327.071 281.375 326.99 281.061C326.909 280.748 326.694 280.461 326.408 280.3C326.175 280.174 325.942 280.04 325.709 279.914C323.863 278.92 322.161 278.104 320.709 277.468C319.258 276.832 318.066 276.366 317.233 276.062C316.399 275.757 315.933 275.622 315.916 275.649C315.907 275.676 316.355 275.873 317.161 276.223C317.976 276.572 319.141 277.083 320.575 277.746C321.999 278.418 323.684 279.26 325.503 280.273C325.727 280.398 325.96 280.533 326.193 280.658C326.381 280.766 326.515 280.945 326.569 281.16C326.623 281.375 326.596 281.608 326.479 281.787C326.363 281.975 326.166 282.065 325.906 282.145C325.404 282.289 324.831 282.262 324.257 282.226C323.675 282.19 323.092 282.127 322.501 282.029C320.861 281.76 319.32 281.258 317.976 280.622L317.797 280.533L317.699 280.712C316.838 282.271 315.459 283.364 314.079 283.928C312.69 284.502 311.319 284.538 310.235 284.358C309.142 284.188 308.317 283.812 307.789 283.525C307.269 283.265 307 283.059 306.982 283.086Z" fill="#EB996E"/>
<path d="M333.271 409.548C333.298 409.548 333.334 409.243 333.244 408.705C333.155 408.168 332.94 407.388 332.393 406.555C332.25 406.349 332.115 406.134 331.882 405.937C331.667 405.74 331.291 405.587 330.924 405.722C330.744 405.785 330.565 405.946 330.502 406.143C330.431 406.349 330.467 406.546 330.52 406.716C330.637 407.057 330.816 407.299 330.968 407.577C331.3 408.132 331.569 408.688 331.999 409.315C332.214 409.637 332.689 409.897 333.128 409.825C333.558 409.772 333.907 409.566 334.221 409.342C334.83 408.903 335.368 408.392 335.834 407.863C336.067 407.594 336.273 407.317 336.47 407.039C336.649 406.761 336.864 406.474 336.945 406.089C337.025 405.713 336.882 405.229 336.461 405.059C336.031 404.906 335.681 405.121 335.439 405.292C334.956 405.695 334.66 406.107 334.364 406.51C333.8 407.308 333.486 408.042 333.307 408.553C333.137 409.064 333.092 409.368 333.128 409.377C333.217 409.413 333.504 408.222 334.651 406.725C334.938 406.367 335.287 405.937 335.681 405.632C335.878 405.489 336.138 405.399 336.291 405.471C336.452 405.525 336.541 405.767 336.488 406C336.434 406.241 336.255 406.501 336.067 406.761C335.878 407.021 335.672 407.281 335.457 407.541C335.018 408.042 334.499 408.517 333.925 408.938C333.647 409.136 333.352 409.297 333.065 409.333C332.787 409.369 332.563 409.252 332.375 409.019C332.026 408.508 331.685 407.872 331.363 407.353C331.21 407.075 331.022 406.815 330.941 406.582C330.852 406.34 330.906 406.188 331.067 406.116C331.452 405.955 331.829 406.394 332.088 406.761C333.19 408.302 333.172 409.584 333.271 409.548Z" fill="#9B797E"/>
<path d="M311.4 410.3L300.54 433.838L283.014 425.738L294.241 396.609L311.4 410.3Z" fill="#FFBE9D"/>
<path d="M302.592 432.261L296.248 444.366C296.248 444.366 312.493 461.157 310.969 464.911L272.782 446.606L283.274 422.333L302.592 432.261Z" fill="#353938"/>
<path d="M285.228 437.046C284.394 436.893 283.48 437.476 283.292 438.309C283.104 439.142 283.695 440.065 284.529 440.235C285.362 440.406 286.473 439.734 286.563 438.891C286.652 438.049 285.908 436.992 285.057 437.028" fill="#E0E0E0"/>
<g opacity="0.6">
<path d="M272.773 446.606L274.359 443.56L310.378 462.25C310.378 462.25 311.722 463.809 310.961 464.911L272.773 446.606Z" fill="white"/>
</g>
<path d="M296.956 444.464C296.858 444.653 295.89 444.285 294.68 444.447C293.471 444.572 292.61 445.154 292.476 445.002C292.324 444.886 293.13 443.9 294.6 443.739C296.06 443.551 297.082 444.312 296.956 444.464Z" fill="#E1DDDE"/>
<path d="M300.164 448.049C300.119 448.246 299.16 448.183 298.148 448.667C297.126 449.124 296.553 449.895 296.374 449.805C296.186 449.751 296.58 448.595 297.852 448.013C299.116 447.422 300.244 447.861 300.164 448.049Z" fill="#E1DDDE"/>
<path d="M300.146 453.926C299.958 453.881 300.146 452.833 301.114 452.036C302.072 451.238 303.147 451.256 303.156 451.453C303.192 451.659 302.359 451.937 301.57 452.591C300.764 453.236 300.334 453.998 300.146 453.926Z" fill="#E1DDDE"/>
<path d="M298.775 439.806C298.614 439.94 297.879 439.268 296.795 438.838C295.72 438.381 294.725 438.345 294.707 438.139C294.662 437.951 295.791 437.646 297.073 438.175C298.345 438.695 298.936 439.707 298.775 439.806Z" fill="#E1DDDE"/>
<path d="M306.167 429.125L334.794 357.481C334.794 357.481 334.149 345.26 331.9 341.398C329.651 337.536 261.448 315.02 261.448 315.02C261.448 315.02 244.074 310.836 232.498 315.02C220.913 319.204 212.23 333.675 213.843 341.721C215.456 349.767 222.848 356.281 222.848 356.281L272.397 357.159L299.734 367.131L281.321 419.888L306.167 429.125Z" fill="#9B797E"/>
<path d="M331.631 380.168L332.276 406.08L312.977 406.555L310.199 375.455L331.631 380.168Z" fill="#FFBE9D"/>
<path d="M333.423 403.759L333.074 417.414C333.074 417.414 355.062 425.317 355.348 429.358L313.004 429.788L311.704 403.374L333.423 403.759Z" fill="#353938"/>
<path d="M319.956 415.721C319.141 415.954 318.586 416.877 318.783 417.71C318.98 418.535 319.921 419.108 320.745 418.893C321.569 418.678 322.268 417.585 321.981 416.787C321.695 415.99 320.557 415.372 319.804 415.784" fill="#E0E0E0"/>
<g opacity="0.6">
<path d="M313.004 429.797L313.084 426.365L353.655 427.234C353.655 427.234 355.546 428.032 355.349 429.367L313.004 429.797Z" fill="white"/>
</g>
<path d="M333.755 417.199C333.746 417.405 332.715 417.513 331.703 418.185C330.673 418.83 330.162 419.735 329.965 419.654C329.777 419.618 330.072 418.373 331.309 417.584C332.545 416.778 333.8 417.011 333.755 417.199Z" fill="#E1DDDE"/>
<path d="M338.217 418.991C338.262 419.188 337.375 419.556 336.685 420.434C335.968 421.294 335.798 422.244 335.592 422.235C335.395 422.271 335.242 421.061 336.129 419.977C336.998 418.893 338.208 418.794 338.217 418.991Z" fill="#E1DDDE"/>
<path d="M340.797 424.277C340.609 424.322 340.314 423.292 340.833 422.154C341.344 421.016 342.312 420.559 342.401 420.729C342.518 420.9 341.9 421.509 341.487 422.45C341.048 423.39 340.995 424.26 340.797 424.277Z" fill="#E1DDDE"/>
<path d="M333.334 412.217C333.253 412.406 332.294 412.128 331.13 412.226C329.956 412.298 329.051 412.692 328.943 412.522C328.818 412.37 329.705 411.599 331.076 411.51C332.456 411.402 333.432 412.047 333.334 412.217Z" fill="#E1DDDE"/>
<path d="M320.36 308.21C320.36 308.21 331.927 307.287 333.208 319.831C334.499 332.375 335.762 390.929 335.762 390.929L308.739 393.178L304.554 333.343L261.448 315.002C261.448 315.011 312.636 306.606 320.36 308.21Z" fill="#9B797E"/>
<path d="M272.701 291.285C272.701 291.285 279.717 310.961 278.382 313.156C277.047 315.351 259.002 324.374 259.002 324.374L213.843 341.721C213.843 341.721 209.202 334.346 209.202 323.012C209.202 311.678 224.909 291.294 224.909 291.294H272.701V291.285Z" fill="#9B797E"/>
<path d="M259.315 314.007C259.315 314.016 259.387 314.052 259.53 314.124C259.692 314.204 259.907 314.294 260.175 314.419C260.767 314.688 261.609 315.055 262.675 315.53C264.888 316.498 268.078 317.887 272.065 319.616C280.12 323.084 291.41 327.94 304.474 333.567L304.33 333.361C304.742 339.274 305.181 345.654 305.638 352.257C306.74 367.695 307.753 381.933 308.55 393.196L308.568 393.402L308.774 393.384C316.991 392.658 323.738 392.067 328.46 391.654C330.78 391.439 332.608 391.269 333.88 391.144C334.481 391.081 334.947 391.036 335.296 391C335.619 390.965 335.78 390.938 335.78 390.929C335.78 390.92 335.61 390.92 335.296 390.938C334.947 390.956 334.481 390.991 333.871 391.027C332.59 391.117 330.771 391.251 328.442 391.422C323.72 391.798 316.964 392.326 308.739 392.972L308.954 393.16C308.183 381.897 307.206 367.66 306.14 352.222C305.674 345.618 305.226 339.238 304.805 333.325L304.796 333.173L304.662 333.119C291.571 327.564 280.255 322.761 272.182 319.329C268.177 317.645 264.969 316.301 262.738 315.369C261.654 314.921 260.812 314.581 260.202 314.33C259.933 314.222 259.718 314.141 259.548 314.07C259.396 314.025 259.315 313.998 259.315 314.007Z" fill="#455A64"/>
<path d="M223.395 315.979C223.404 316.014 223.86 315.889 224.658 315.629C225.554 315.342 226.692 314.975 228.054 314.536C230.921 313.622 234.899 312.359 239.433 311.66C243.967 310.961 248.151 311.176 251.081 311.812C254.02 312.421 255.713 313.264 255.749 313.165C255.758 313.138 255.355 312.905 254.575 312.574C253.796 312.233 252.64 311.821 251.162 311.472C248.214 310.737 243.949 310.459 239.361 311.167C234.774 311.875 230.787 313.201 227.946 314.204C226.522 314.706 225.384 315.145 224.595 315.45C223.816 315.755 223.386 315.943 223.395 315.979Z" fill="#455A64"/>
<path d="M229.783 305.603C229.792 305.684 231.297 305.388 233.734 305.576C234.953 305.657 236.395 305.845 238.008 306.033C239.621 306.221 241.386 306.445 243.214 306.786C246.879 307.44 250.042 308.721 252.067 310.065C254.109 311.391 255.068 312.61 255.131 312.538C255.149 312.52 254.943 312.198 254.477 311.687C254.011 311.176 253.285 310.477 252.264 309.769C250.248 308.309 247.022 306.947 243.313 306.284C241.458 305.934 239.684 305.728 238.071 305.567C236.458 305.406 234.998 305.254 233.761 305.218C232.525 305.173 231.521 305.245 230.84 305.352C230.141 305.46 229.774 305.576 229.783 305.603Z" fill="#455A64"/>
<path d="M249.728 147.486C244.531 146.599 239.962 148.606 235.58 151.535C231.199 154.465 227.902 158.883 225.993 163.802C223.986 168.981 223.502 174.805 225.043 180.136C226.584 185.467 230.24 190.243 235.186 192.76C241.942 196.192 250.588 195 256.636 190.422C262.684 185.852 266.143 178.29 266.43 170.719C266.627 165.504 265.381 160.164 262.469 155.827C259.548 151.482 254.898 148.238 249.728 147.486Z" fill="#263238"/>
<path d="M234.953 165.155C235.715 163.165 235.419 160.943 235.715 158.838C236.378 154.196 240.114 150.478 244.442 148.668C248.465 146.984 253.375 147.351 258.222 148.919C261.546 149.994 264.673 151.867 266.886 154.564C269.825 158.148 270.865 163.201 269.565 167.654L245.83 164.196C243.608 166.033 241.332 167.905 238.635 168.927C237.847 169.231 236.996 169.455 236.154 169.321C235.32 169.187 234.505 168.622 234.308 167.798C234.084 166.902 234.621 166.015 234.953 165.155Z" fill="#263238"/>
<path d="M258.724 155.469L237.999 159.859C235.992 159.994 234.424 161.642 234.389 163.649L234.639 208.494C234.657 211.559 235.679 214.533 237.56 216.952L239.541 219.497C244.047 225.312 253.178 224.721 256.618 218.225C256.86 217.768 257.022 217.374 257.093 217.051C257.165 216.648 257.272 216.379 257.29 216.039L257.685 211.666C257.891 207.67 257.918 203.611 257.918 203.656C257.918 203.656 266.403 202.581 268.571 191.658C269.655 186.229 269.727 177.251 269.548 169.903C269.377 163.291 265.327 155.03 258.724 155.469Z" fill="#FFBE9D"/>
<path d="M266.053 179.069C266.053 179.813 265.417 180.431 264.637 180.44C263.858 180.449 263.231 179.858 263.231 179.114C263.231 178.37 263.867 177.752 264.646 177.743C265.426 177.725 266.053 178.325 266.053 179.069Z" fill="#263238"/>
<path d="M267.415 174.491C267.236 174.67 266.196 173.837 264.682 173.783C263.168 173.702 262.021 174.446 261.869 174.249C261.788 174.159 261.985 173.837 262.478 173.505C262.971 173.173 263.795 172.86 264.745 172.905C265.686 172.949 266.474 173.326 266.913 173.702C267.361 174.078 267.505 174.419 267.415 174.491Z" fill="#263238"/>
<path d="M252.031 178.344C252.031 179.087 251.394 179.705 250.615 179.714C249.835 179.723 249.208 179.132 249.208 178.388C249.208 177.645 249.844 177.026 250.624 177.017C251.403 177 252.04 177.6 252.031 178.344Z" fill="#263238"/>
<path d="M253.007 174.123C252.828 174.303 251.789 173.469 250.266 173.416C248.751 173.335 247.604 174.079 247.452 173.881C247.371 173.792 247.56 173.469 248.061 173.138C248.554 172.806 249.378 172.493 250.328 172.537C251.269 172.582 252.058 172.959 252.497 173.335C252.954 173.711 253.097 174.043 253.007 174.123Z" fill="#263238"/>
<path d="M257.559 185.664C257.559 185.574 258.509 185.449 260.041 185.315C260.426 185.288 260.802 185.225 260.874 184.965C260.973 184.687 260.829 184.266 260.659 183.809C260.328 182.86 259.987 181.856 259.629 180.817C258.204 176.552 257.183 173.057 257.353 173.004C257.523 172.95 258.822 176.355 260.247 180.62C260.587 181.668 260.919 182.671 261.233 183.63C261.358 184.078 261.591 184.589 261.376 185.162C261.259 185.449 260.964 185.646 260.713 185.7C260.462 185.763 260.247 185.763 260.05 185.763C258.518 185.781 257.559 185.754 257.559 185.664Z" fill="#263238"/>
<path d="M257.908 203.664C257.908 203.664 250.49 203.853 243.339 199.167C243.339 199.167 246.744 206.917 257.792 206.317L257.908 203.664Z" fill="#EB996E"/>
<path d="M256.779 189.293C256.26 188.549 255.319 188.119 254.369 188.182C253.706 188.227 253.034 188.522 252.613 189.042C252.192 189.562 252.075 190.323 252.425 190.843C252.81 191.434 253.661 191.605 254.396 191.425C255.131 191.246 255.767 190.798 256.376 190.341C256.546 190.216 256.717 190.081 256.824 189.911C256.932 189.732 256.968 189.499 256.842 189.347" fill="#EB996E"/>
<path d="M253.052 186.542C253.303 186.533 253.24 188.182 254.602 189.409C255.964 190.637 257.729 190.52 257.729 190.753C257.747 190.861 257.326 191.058 256.582 191.049C255.857 191.049 254.799 190.771 253.966 190.019C253.133 189.266 252.801 188.298 252.774 187.617C252.739 186.927 252.945 186.524 253.052 186.542Z" fill="#263238"/>
<path d="M252.927 169.626C252.765 170.029 251.251 169.778 249.468 169.921C247.676 170.029 246.225 170.495 246.001 170.119C245.902 169.939 246.171 169.563 246.762 169.187C247.354 168.81 248.285 168.47 249.361 168.389C250.436 168.318 251.404 168.524 252.04 168.81C252.676 169.088 252.998 169.429 252.927 169.626Z" fill="#263238"/>
<path d="M267.236 167.843C266.958 168.174 265.928 167.78 264.664 167.708C263.41 167.601 262.335 167.852 262.102 167.484C262.003 167.305 262.182 166.964 262.657 166.66C263.132 166.355 263.903 166.113 264.772 166.176C265.632 166.239 266.367 166.579 266.797 166.947C267.227 167.314 267.361 167.681 267.236 167.843Z" fill="#263238"/>
<path d="M231.154 161.947C233.304 155.639 242.685 147.037 249.325 147.638L259.817 154.214C259.1 157.816 256.242 160.916 252.712 161.911C250.821 162.449 248.563 162.556 247.407 164.151C246.234 165.773 246.852 168.192 245.759 169.867C244.244 172.197 240.221 172 239.075 174.527C238.573 175.629 238.797 176.964 238.268 178.057C237.569 179.517 233.806 181.309 232.274 180.79C230.742 180.27 230.787 177.645 230.312 176.265C229.496 173.899 229.873 172.69 230.186 171.382C230.921 168.29 230.124 164.957 231.154 161.947Z" fill="#263238"/>
<path d="M236.79 182.188C236.817 181.372 235.948 179.401 235.141 179.24C232.991 178.819 229.093 178.846 228.851 184.32C228.511 191.811 236.109 190.61 236.127 190.395C236.145 190.243 236.691 185.019 236.79 182.188Z" fill="#FFBE9D"/>
<path d="M233.967 187.465C233.931 187.438 233.833 187.554 233.609 187.644C233.385 187.734 233.018 187.787 232.632 187.617C231.853 187.295 231.243 186.004 231.27 184.651C231.279 183.97 231.459 183.325 231.718 182.797C231.969 182.259 232.346 181.892 232.749 181.838C233.152 181.766 233.421 182.017 233.501 182.232C233.591 182.447 233.537 182.591 233.573 182.608C233.591 182.626 233.743 182.492 233.69 182.178C233.663 182.026 233.582 181.847 233.412 181.695C233.242 181.542 232.982 181.453 232.695 181.471C232.113 181.488 231.575 181.99 231.279 182.573C230.957 183.155 230.742 183.872 230.733 184.642C230.715 186.157 231.423 187.599 232.489 187.967C233.009 188.128 233.457 187.993 233.69 187.823C233.949 187.644 233.994 187.483 233.967 187.465Z" fill="#EB996E"/>
<path d="M229.55 160.003C229.577 157.655 226.647 156.123 224.362 155.594C222.077 155.066 219.667 155.756 217.606 156.885C216.406 157.548 215.196 158.48 214.918 159.824C214.65 161.168 215.94 162.771 217.23 162.288C214.766 163.13 213.521 166.418 214.802 168.676C216.083 170.943 219.542 171.561 221.531 169.886C220.886 172.036 219.488 173.945 217.633 175.208C221.486 175.754 225.581 174.115 227.982 171.042C230.383 167.986 231.002 163.614 229.55 160.003Z" fill="#263238"/>
<path d="M224.344 171.929C224.291 171.938 224.093 171.086 224.067 169.68C224.04 168.273 224.246 166.32 224.927 164.268C225.617 162.225 226.638 160.54 227.516 159.438C228.385 158.336 229.066 157.781 229.102 157.817C229.237 157.915 226.728 160.406 225.402 164.429C224.022 168.425 224.515 171.929 224.344 171.929Z" fill="#39AF92"/>
<path d="M257.631 151.948C258.321 155.003 262.962 158.91 264.996 161.284C268.876 165.818 269.646 167.323 269.61 177.457C271.447 173.954 272.845 170.531 272.71 166.58C272.567 162.628 271.116 158.677 268.374 155.837C265.623 152.996 261.546 151.383 257.631 151.948Z" fill="#263238"/>
<path d="M289.421 235.338C289.421 235.338 281.339 221.871 279.099 219.148C276.993 216.594 274.287 215.089 272.486 214.3C271.483 213.861 270.426 213.557 269.341 213.368L257.729 210.797C257.729 210.797 257.711 218.726 249.397 219.219C241.091 219.712 234.093 208.136 234.093 208.136C234.093 208.136 220.671 210.214 217.463 211.863C214.255 213.512 209.202 215.617 206.424 229.523L204.471 243.125L227.615 245.266L229.828 279.654L241.306 287.647C241.306 287.647 273.123 295.917 275.157 296.463C277.19 297.01 277.862 245.266 277.862 245.266C277.862 245.266 286.034 239.971 289.421 235.338Z" fill="#42685F"/>
<path d="M274.189 229.559C274.216 229.55 274.377 229.9 274.637 230.554C274.906 231.199 275.237 232.158 275.613 233.349C276.366 235.733 277.19 239.111 277.665 242.91C278.122 246.709 278.14 250.185 277.979 252.685C277.907 253.93 277.809 254.943 277.701 255.633C277.603 256.323 277.54 256.708 277.504 256.699C277.468 256.699 277.477 256.305 277.522 255.615C277.567 254.916 277.612 253.913 277.647 252.667C277.719 250.176 277.656 246.736 277.199 242.963C276.733 239.2 275.963 235.84 275.3 233.439C274.968 232.238 274.682 231.271 274.467 230.608C274.26 229.945 274.162 229.568 274.189 229.559Z" fill="#263238"/>
<path d="M273.203 285.882L229.631 276.393L227.615 245.248L208.234 243.456C208.234 243.456 208.951 264.745 209.695 271.08C210.77 280.183 216.146 292.602 219.3 295.084C222.445 297.565 275.156 296.446 275.156 296.446L273.203 285.882Z" fill="#FFBE9D"/>
<path d="M297.933 291.526C297.628 292.136 296.992 292.53 296.311 292.467C296.177 292.458 296.033 292.431 295.89 292.378C294.922 292.064 295.021 290.102 295.021 290.102L290.406 289.349C290.406 289.349 284.403 293.22 282.262 295.791C280.129 298.354 274.673 296.275 274.673 296.275L272.782 286.437L281.285 278.75C281.285 278.75 280.765 279.206 281.348 277.773C281.93 276.339 284.609 276.877 284.609 276.877C285.021 276.169 286.769 275.909 286.769 275.909L294.223 276.769C295.756 276.949 297.135 277.809 297.96 279.117L301.114 284.108C301.114 284.108 302.78 287.701 302.511 288.534C302.108 289.797 300.773 289.51 300.773 289.51C300.773 289.51 300.406 291.876 299.788 291.957C299.169 292.037 297.933 291.526 297.933 291.526Z" fill="#FFBE9D"/>
<path d="M282.065 284.457C282.074 284.538 283.068 284.448 284.654 284.511C286.24 284.591 288.444 284.869 290.738 285.649C291.885 286.034 292.942 286.5 293.874 286.993C294.779 287.503 295.711 287.916 296.006 288.57C296.15 288.892 296.087 289.215 295.926 289.457C295.764 289.699 295.549 289.851 295.361 289.932C294.967 290.093 294.716 289.985 294.707 290.03C294.689 290.039 294.94 290.236 295.424 290.111C295.657 290.048 295.926 289.896 296.141 289.618C296.365 289.358 296.49 288.883 296.32 288.453C296.159 288.014 295.791 287.683 295.388 287.405C294.985 287.136 294.555 286.867 294.08 286.616C293.139 286.097 292.064 285.604 290.89 285.21C288.543 284.412 286.276 284.179 284.663 284.188C283.041 284.197 282.056 284.412 282.065 284.457Z" fill="#EB996E"/>
<path d="M281.545 289.215C281.554 289.358 284.591 289.233 288.319 289.448C292.046 289.654 295.048 290.12 295.075 289.985C295.083 289.922 294.349 289.725 293.13 289.51C291.921 289.295 290.227 289.08 288.346 288.973C286.464 288.865 284.762 288.892 283.534 288.964C282.298 289.035 281.545 289.152 281.545 289.215Z" fill="#EB996E"/>
<path d="M297.888 291.338C297.915 291.338 297.942 291.06 297.978 290.541C298.004 290.03 298.04 289.286 297.987 288.354C297.951 287.889 297.906 287.387 297.78 286.84C297.664 286.294 297.404 285.72 297.046 285.218C296.374 284.206 295.442 283.149 294.25 282.36C293.068 281.581 291.885 280.918 290.684 280.559C289.492 280.201 288.381 280.111 287.468 280.066C286.545 280.031 285.801 280.058 285.29 280.075C284.78 280.093 284.493 280.12 284.493 280.156C284.493 280.237 285.631 280.273 287.45 280.407C288.355 280.488 289.43 280.613 290.559 280.98C291.679 281.339 292.844 282.002 293.981 282.754C295.128 283.525 295.997 284.484 296.687 285.469C297.404 286.41 297.539 287.485 297.655 288.39C297.834 290.2 297.789 291.347 297.888 291.338Z" fill="#EB996E"/>
<path d="M287.118 277.818C287.118 277.89 288.229 277.916 290.012 278.122C291.723 278.382 294.474 278.508 296.033 280.873C297.727 283.024 299.169 285.058 299.796 286.724C300.459 288.382 300.406 289.52 300.504 289.52C300.531 289.52 300.576 289.242 300.549 288.731C300.531 288.22 300.415 287.477 300.119 286.617C299.546 284.86 298.112 282.755 296.41 280.586C295.979 280.04 295.505 279.529 294.958 279.126C294.411 278.714 293.784 278.472 293.202 278.302C292.028 277.97 290.944 277.872 290.039 277.8C288.238 277.666 287.118 277.755 287.118 277.818Z" fill="#EB996E"/>
<path d="M283.883 294.215C283.892 294.224 284.045 294.107 284.323 293.874C284.645 293.614 285.057 293.283 285.568 292.871C286.67 292.019 288.31 290.81 290.469 289.493L290.362 289.511C291.741 289.744 293.292 290.012 294.976 290.299L294.815 290.102C294.806 290.478 294.824 290.846 294.904 291.231C294.985 291.607 295.101 292.01 295.424 292.342C295.594 292.503 295.836 292.602 296.033 292.62C296.239 292.673 296.463 292.691 296.678 292.656C297.117 292.593 297.53 292.36 297.825 292.019C297.897 291.939 297.969 291.84 298.022 291.751L298.067 291.679L298.085 291.643L298.094 291.625C298.157 291.598 297.574 291.813 297.825 291.724H297.834H297.843L297.987 291.786C298.184 291.867 298.381 291.93 298.587 292.001C298.793 292.064 298.999 292.118 299.223 292.163C299.331 292.181 299.447 292.199 299.563 292.199C299.68 292.199 299.814 292.208 299.994 292.118C300.253 291.93 300.343 291.715 300.442 291.509C300.531 291.303 300.612 291.088 300.675 290.873C300.8 290.442 300.899 290.012 300.97 289.564L300.701 289.753C301.302 289.86 302.01 289.717 302.422 289.17C302.61 288.919 302.762 288.597 302.735 288.238C302.717 287.916 302.646 287.629 302.574 287.342C302.252 286.213 301.795 285.12 301.302 284.018L301.293 284.009L301.284 283.991C300.746 283.14 300.182 282.244 299.599 281.33C299.241 280.766 298.883 280.201 298.533 279.646C298.175 279.108 297.861 278.499 297.368 278.015C296.893 277.531 296.311 277.155 295.693 276.904C295.075 276.635 294.394 276.572 293.793 276.51C291.32 276.232 288.964 275.963 286.769 275.721H286.742H286.715C286.285 275.793 285.882 275.891 285.478 276.044C285.093 276.196 284.681 276.375 284.412 276.796L284.672 276.716C283.884 276.393 282.97 276.384 282.28 276.85C281.59 277.307 281.267 278.042 281.097 278.741L281.151 278.642C278.714 280.837 276.716 282.629 275.291 283.911C274.637 284.52 274.108 285.004 273.714 285.362C273.355 285.703 273.176 285.882 273.185 285.9C273.194 285.909 273.4 285.756 273.777 285.443C274.189 285.093 274.735 284.636 275.416 284.063C276.868 282.809 278.893 281.061 281.375 278.911L281.411 278.875L281.428 278.812C281.581 278.203 281.903 277.531 282.477 277.173C283.032 276.796 283.839 276.805 284.493 277.083L284.654 277.155L284.753 277.002C284.914 276.752 285.263 276.563 285.622 276.438C285.98 276.304 286.374 276.205 286.769 276.142H286.715C288.919 276.402 291.267 276.68 293.739 276.976C294.367 277.047 294.958 277.101 295.523 277.343C296.078 277.567 296.598 277.916 297.037 278.355C297.476 278.777 297.772 279.35 298.139 279.914C298.488 280.47 298.847 281.034 299.205 281.599C299.779 282.513 300.352 283.409 300.89 284.26L300.872 284.233C301.355 285.308 301.812 286.402 302.126 287.477C302.198 287.746 302.269 288.023 302.278 288.265C302.305 288.48 302.198 288.704 302.054 288.901C301.786 289.278 301.248 289.403 300.791 289.322L300.558 289.287L300.522 289.511C300.451 289.932 300.361 290.362 300.244 290.756C300.137 291.132 299.967 291.598 299.761 291.751C299.752 291.76 299.671 291.778 299.572 291.769C299.483 291.769 299.384 291.751 299.286 291.742C299.098 291.706 298.9 291.661 298.703 291.598C298.515 291.536 298.318 291.473 298.139 291.401L298.004 291.347H297.995C298.237 291.258 297.664 291.464 297.718 291.446L297.709 291.464L297.691 291.491L297.655 291.553C297.61 291.625 297.556 291.706 297.494 291.769C297.261 292.037 296.938 292.226 296.607 292.27C296.436 292.297 296.266 292.288 296.096 292.243C295.908 292.217 295.791 292.163 295.675 292.064C295.236 291.607 295.173 290.792 295.173 290.138V289.968L295.012 289.941C293.327 289.681 291.768 289.43 290.388 289.215L290.326 289.206L290.281 289.233C288.122 290.595 286.509 291.849 285.434 292.745C284.896 293.193 284.502 293.561 284.233 293.811C284.009 294.062 283.875 294.206 283.883 294.215Z" fill="#EB996E"/>
<path d="M345.654 262.899L288.265 263.365C286.401 263.365 284.627 264.261 284.349 266.098L278.077 307.923H248.518C247.569 307.923 246.798 308.694 246.798 309.644C246.798 310.593 247.569 311.364 248.518 311.364H277.567H283.077H342.939L349.39 267.218C349.722 264.951 347.965 262.899 345.654 262.899Z" fill="#E0E0E0"/>
<path d="M345.654 262.899C345.654 262.899 345.967 262.863 346.559 262.98C347.132 263.114 348.037 263.464 348.754 264.431C349.112 264.906 349.381 265.534 349.462 266.259C349.551 266.994 349.345 267.774 349.247 268.616C349.005 270.309 348.727 272.254 348.422 274.44C347.159 283.212 345.34 295.845 343.1 311.391L343.082 311.543H342.93C318.496 311.561 286.392 311.579 251.332 311.597C250.507 311.597 249.683 311.597 248.868 311.597C248.491 311.615 247.954 311.588 247.56 311.346C247.156 311.122 246.834 310.746 246.673 310.307C246.332 309.429 246.735 308.362 247.56 307.923C247.954 307.681 248.474 307.663 248.85 307.681H250.068C253.303 307.681 256.502 307.681 259.665 307.681C265.981 307.681 272.137 307.681 278.068 307.69L277.844 307.878C280.102 292.897 282.208 278.92 284.099 266.385C284.161 265.587 284.52 264.736 285.156 264.198C285.783 263.643 286.571 263.356 287.351 263.231C288.148 263.105 288.91 263.177 289.663 263.15C290.424 263.141 291.168 263.141 291.921 263.132C294.904 263.114 297.78 263.096 300.558 263.078C306.113 263.043 311.247 263.007 315.915 262.98C325.234 262.935 332.662 262.89 337.778 262.863C340.323 262.855 342.285 262.854 343.629 262.854C344.283 262.854 344.785 262.863 345.143 262.863C345.483 262.89 345.654 262.899 345.654 262.899C345.654 262.899 345.483 262.917 345.143 262.926C344.794 262.935 344.292 262.944 343.638 262.962C342.294 262.98 340.331 263.007 337.787 263.043C332.671 263.096 325.243 263.186 315.924 263.285C311.256 263.329 306.122 263.383 300.567 263.437C297.789 263.464 294.904 263.491 291.93 263.518C291.186 263.527 290.433 263.535 289.681 263.535C288.928 263.562 288.148 263.5 287.423 263.616C286.697 263.733 285.971 264.01 285.425 264.503C284.86 264.996 284.564 265.677 284.493 266.465C282.62 279 280.541 292.978 278.301 307.968L278.275 308.156H278.086C272.155 308.156 265.999 308.156 259.683 308.165C256.52 308.165 253.321 308.165 250.086 308.165H248.868C248.438 308.156 248.124 308.174 247.802 308.353C247.174 308.685 246.861 309.5 247.121 310.172C247.237 310.504 247.479 310.79 247.793 310.961C248.115 311.14 248.438 311.158 248.868 311.149C249.692 311.149 250.507 311.149 251.332 311.149C286.392 311.167 318.496 311.185 342.93 311.203L342.751 311.355C345.053 295.827 346.926 283.194 348.225 274.431C348.557 272.245 348.843 270.3 349.103 268.616C349.202 267.774 349.426 266.994 349.336 266.286C349.265 265.578 349.014 264.969 348.673 264.503C347.992 263.553 347.114 263.186 346.55 263.043C345.967 262.89 345.654 262.917 345.654 262.899Z" fill="#263238"/>
<path d="M310.934 286.608C310.934 288.588 312.547 290.201 314.527 290.201C316.507 290.201 318.12 288.588 318.12 286.608C318.12 284.627 316.507 283.015 314.527 283.015C312.547 283.015 310.934 284.618 310.934 286.608Z" fill="white"/>
<path d="M280.398 310.988C280.479 310.997 282.306 300.352 284.475 287.199C286.643 274.046 288.346 263.374 288.265 263.356C288.184 263.347 286.356 273.992 284.188 287.145C282.011 300.308 280.317 310.979 280.398 310.988Z" fill="#263238"/>
</svg>
