<svg xmlns="http://www.w3.org/2000/svg" xmlns:xlink="http://www.w3.org/1999/xlink" width="512" height="512" viewBox="0 0 512 512">
  <defs>
    <clipPath id="clip-path">
      <rect id="Rectangle_517" data-name="Rectangle 517" width="512" height="512" transform="translate(1413 661)" fill="none" stroke="#707070" stroke-width="1"/>
    </clipPath>
  </defs>
  <g id="Others-L" transform="translate(-1413 -661)">
    <g id="Mask_Group_7" data-name="Mask Group 7" clip-path="url(#clip-path)">
      <g id="Group_48" data-name="Group 48" transform="translate(1437.398 708.234)">
        <path id="Path_991" data-name="Path 991" d="M520.31,354.059a89.651,89.651,0,1,1,89.651-89.651A89.651,89.651,0,0,1,520.31,354.059Zm0-177.889a88.239,88.239,0,1,0,88.239,88.239A88.239,88.239,0,0,0,520.31,176.17Z" transform="translate(-343.413 -161.13)" fill="#f2f2f2"/>
        <path id="Path_992" data-name="Path 992" d="M567.057,328.959h57.485a.706.706,0,0,0,0-1.412H567.057a.706.706,0,1,0,0,1.412Z" transform="translate(-401.392 -206.064)" fill="#3f3d56"/>
        <path id="Path_993" data-name="Path 993" d="M661.533,326.547a18.118,18.118,0,0,0-18.1,18.1V421.4a18.118,18.118,0,0,0,18.1,18.1h119.1a18.118,18.118,0,0,0,18.1-18.1v-76.75a18.119,18.119,0,0,0-18.1-18.1Z" transform="translate(-424.061 -205.77)" fill="#fff"/>
        <path id="Path_994" data-name="Path 994" d="M780.344,439.9h-119.1a18.825,18.825,0,0,1-18.8-18.8v-76.75a18.825,18.825,0,0,1,18.8-18.8h119.1a18.825,18.825,0,0,1,18.8,18.8V421.1a18.825,18.825,0,0,1-18.8,18.8Zm-119.1-112.946a17.412,17.412,0,0,0-17.392,17.392V421.1a17.411,17.411,0,0,0,17.392,17.392h119.1A17.412,17.412,0,0,0,797.736,421.1v-76.75a17.412,17.412,0,0,0-17.392-17.392Z" transform="translate(-423.767 -205.476)" fill="#3f3d56"/>
        <path id="Path_995" data-name="Path 995" d="M547.408,320.14a6.938,6.938,0,0,0-5.678,7.836,6.652,6.652,0,0,0,.265,1.068l-35.512,31.3,13.154,9.214,31.384-36.559a6.919,6.919,0,0,0,4.131-7.368,6.621,6.621,0,0,0-7.565-5.518Z" transform="translate(-383.786 -203.853)" fill="#a0616a"/>
        <path id="Path_996" data-name="Path 996" d="M506.867,365.387s-8.012,9.226-17.768,19.674c-.678.72-1.355,1.447-2.054,2.181-5.93,6.282-12.318,12.805-17.86,17.867-5.909,5.414-10.857,9.184-13.257,9.276a1.741,1.741,0,0,1-.593-.063c-7.179-2.16-1.264.409-4.334,4.793s-2.7-1.37-9.615-4.793-3.226-.021-5.979,5.386c-.854,1.694-8.351,1.348-18.234.078-1.115-9.424-2.739-17.556-2.739-17.556a80.2,80.2,0,0,1,1.722-16.822c17.217-.311,31.455-.487,32.182-.261,1.878.572,5.915-.875,10.377-3.4.635-.36,1.835-1.193,3.424-2.365,1.4-1.031,3.1-2.315,4.984-3.756,2.118-1.638,5.725-2.534,6.9-5.386,3.4-8.231,2.238-2.09,3.148-2.471,1.038-.438,2.873-.607,3.946-1.235a1.419,1.419,0,0,0,.826-1.56,2.878,2.878,0,0,0-.268-.769c-.974-1.955.508-2.146,1.906-2.351a3.628,3.628,0,0,0,1.645-.487c5.612-4.475,9.862-7.913,9.862-7.913l1.525,1.553.007.007,9.021,9.134Z" transform="translate(-356.715 -213.684)" fill="#3f3d56"/>
        <path id="Path_997" data-name="Path 997" d="M494.421,696.543H405.21c-3.819,0-6.926-3.922-6.926-8.742V593c0-4.82,3.107-8.742,6.926-8.742h89.212c3.819,0,6.926,3.922,6.926,8.742v94.8C501.347,692.621,498.24,696.543,494.421,696.543Z" transform="translate(-351.965 -281.561)" fill="#ffacac"/>
        <path id="Path_998" data-name="Path 998" d="M332.663,742.6a.967.967,0,0,0,.84,1.061H709.252a1.089,1.089,0,0,0,0-2.121H333.5A.967.967,0,0,0,332.663,742.6Z" transform="translate(-332.665 -327.815)" fill="#ccc"/>
        <path id="Path_999" data-name="Path 999" d="M289.564,554.79h8.994l4.279-34.694H289.562Z" transform="translate(-85.159 -152.954)" fill="#a0616a"/>
        <path id="Path_1000" data-name="Path 1000" d="M621.781,731.761h27.66v-.35a10.767,10.767,0,0,0-10.765-10.766h0l-5.052-3.833-9.427,3.834h-2.415Z" transform="translate(-417.693 -320.542)" fill="#2f2e41"/>
        <path id="Path_1001" data-name="Path 1001" d="M210.422,549.472l8.658,2.437L232.6,519.672l-12.779-3.6Z" transform="translate(-61.885 -151.772)" fill="#a0616a"/>
        <path id="Path_1002" data-name="Path 1002" d="M539.052,726.853l26.625,7.5.095-.337a10.767,10.767,0,0,0-7.445-13.281h0l-3.824-5.059-10.113,1.135-2.324-.654Z" transform="translate(-393.364 -320.207)" fill="#2f2e41"/>
        <path id="Path_1003" data-name="Path 1003" d="M483.9,500.109s-2.88-.287,4.5,2.269c7.991,2.774,20.118,2.414,31.731,6.579,3.586,1.285,7.221,2.6,10.829,3.911.727.261,1.454.529,2.181.791,4.694,1.715,9.311,3.431,13.674,5.068.614.233,1.221.466,1.821.692.014.007.028.007.035.014,14.224,5.407,25.413,10.038,27.262,11.887,1.977,1.977,2.8,15.332,3.021,31.837.409,30.587-1.207,72-1.207,72l-16.638-.064s-.106-.367-.311-1.052c-.367-1.264-1.052-3.614-1.963-6.685-3.784-12.826-11.4-38.246-15.608-49.887-1.186-3.29-2.1-5.478-2.591-5.972-2.824-2.894,0-4.172,2.824-6.007s0-2.4-2.076-4.8.776-7.807.776-7.807l-4.871-.127c-4.419-.113-11.294-.282-18.177-.452-.007.007-.007.007-.007,0-2.591-.064-5.181-.127-7.638-.184-1.906-.049-3.734-.092-5.428-.134-5.076-.113-8.916-.191-9.876-.191-3.134,0-.7,0-2.591-2.478a11.09,11.09,0,0,0-.939-1.052,12.22,12.22,0,0,0-1.553-1.454c-.4-.183.141.953-.155,2.428a4.458,4.458,0,0,1-1.094,2.139c-2.8,3.113-11.4-.247-11.4-.247-14.146,7.073-25.752,6.565-34.688,3.254A44.478,44.478,0,0,1,426.924,542.9,42,42,0,0,1,422,536.622l-1.165-.219s-1.567-52.508.24-56.059c2.817-5.534,44.472-1.412,44.472-1.412Z" transform="translate(-358.411 -250.15)" fill="#2f2e41"/>
        <path id="Path_1004" data-name="Path 1004" d="M620.057,207.959h57.485a.706.706,0,0,0,0-1.412H620.057a.706.706,0,0,0,0,1.412Z" transform="translate(-386.788 -170.479)" fill="#3f3d56"/>
        <path id="Path_1005" data-name="Path 1005" d="M24.3,93.223C9.28,73.245.6,50.9.314,25.435a5.5,5.5,0,0,1,3.344-7.006L54.853.314A5.5,5.5,0,0,1,61.86,3.658L85.845,71.447A5.5,5.5,0,0,1,82.5,78.453l-51.2,18.114A5.5,5.5,0,0,1,24.3,93.223Z" transform="matrix(0.921, 0.391, -0.391, 0.921, 383.902, 13.628)" fill="#e6e6e6"/>
        <path id="Path_1006" data-name="Path 1006" d="M15.714,66C6.681,56.87,2.814,40.58.294,22.423a5.147,5.147,0,0,1,3.132-6.561l44-15.568a5.147,5.147,0,0,1,6.562,3.132L75.329,63.749A5.147,5.147,0,0,1,72.2,70.31L44.942,79.954A22.926,22.926,0,0,1,15.714,66Z" transform="matrix(0.921, 0.391, -0.391, 0.921, 386.659, 20.616)" fill="#fff"/>
        <path id="Path_1007" data-name="Path 1007" d="M37.191,4.24,2.918,16.474A2.183,2.183,0,1,1,1.45,12.362L35.723.128a2.184,2.184,0,0,1,1.468,4.113Z" transform="matrix(0.921, 0.391, -0.391, 0.921, 387.134, 55.236)" fill="#56537b"/>
        <path id="Path_1008" data-name="Path 1008" d="M10.458,4.24,2.918,6.932A2.184,2.184,0,0,1,1.45,2.819L8.99.128A2.183,2.183,0,0,1,10.458,4.24Z" transform="matrix(0.921, 0.391, -0.391, 0.921, 380.677, 50.609)" fill="#59a57d"/>
        <path id="Path_1009" data-name="Path 1009" d="M37.192,4.24,2.918,16.474A2.183,2.183,0,1,1,1.45,12.361L35.724.128A2.183,2.183,0,1,1,37.192,4.24Z" transform="matrix(0.921, 0.391, -0.391, 0.921, 386.827, 74.747)" fill="#c4a26f"/>
        <path id="Path_1010" data-name="Path 1010" d="M37.192,4.241,2.918,16.474A2.183,2.183,0,0,1,1.45,12.362L35.723.128A2.183,2.183,0,1,1,37.191,4.24Z" transform="matrix(0.921, 0.391, -0.391, 0.921, 386.981, 64.991)" fill="#f88"/>
        <circle id="Ellipse_89" data-name="Ellipse 89" cx="7.059" cy="7.059" r="7.059" transform="translate(290.521 32.539)" fill="#f88"/>
        <path id="Path_1011" data-name="Path 1011" d="M502.277,188.959H444.793a.706.706,0,1,1,0-1.412h57.484a.706.706,0,0,1,0,1.412Z" transform="translate(-354.108 -164.891)" fill="#3f3d56"/>
        <path id="Path_1012" data-name="Path 1012" d="M339.5,204.56c4.992-18.742,14.465-34.748,29.872-47.129a4.265,4.265,0,0,1,5.878-1.317l35.593,22.56a4.265,4.265,0,0,1,1.318,5.878l-29.872,47.129A4.265,4.265,0,0,1,376.415,233l-35.593-22.56A4.265,4.265,0,0,1,339.5,204.56Z" transform="translate(-334.484 -155.453)" fill="#e6e6e6"/>
        <path id="Path_1013" data-name="Path 1013" d="M355.281,193.91c1.244-9.891,9.332-20.059,19.2-30.3a3.994,3.994,0,0,1,5.505-1.234l30.589,19.388a3.994,3.994,0,0,1,1.234,5.505L385.232,229.21a3.994,3.994,0,0,1-5.505,1.234l-18.949-12.011A17.79,17.79,0,0,1,355.281,193.91Z" transform="translate(-338.508 -157.307)" fill="#fff"/>
        <path id="Path_1014" data-name="Path 1014" d="M398.538,212.9l-23.894-15.051a1.694,1.694,0,0,1,1.806-2.867l23.893,15.052a1.694,1.694,0,1,1-1.806,2.867Z" transform="translate(-344.78 -167.001)" fill="#f88"/>
        <path id="Path_1015" data-name="Path 1015" d="M386.916,190.022l-5.257-3.311a1.694,1.694,0,0,1,1.806-2.867l5.256,3.311a1.694,1.694,0,1,1-1.806,2.867Z" transform="translate(-346.843 -163.725)" fill="#c8d4ce"/>
        <path id="Path_1016" data-name="Path 1016" d="M387.289,230.756,363.4,215.7a1.694,1.694,0,1,1,1.806-2.867L389.1,227.889a1.694,1.694,0,0,1-1.806,2.867Z" transform="translate(-341.472 -172.252)" fill="#6c63ff"/>
        <path id="Path_1017" data-name="Path 1017" d="M392.913,221.828l-23.894-15.052a1.694,1.694,0,0,1,1.806-2.867l23.894,15.051a1.694,1.694,0,0,1-1.806,2.867Z" transform="translate(-343.126 -169.626)" fill="#46436a"/>
        <circle id="Ellipse_90" data-name="Ellipse 90" cx="7.059" cy="7.059" r="7.059" transform="translate(76.652 19.127)" fill="#f88"/>
        <circle id="Ellipse_91" data-name="Ellipse 91" cx="7.059" cy="7.059" r="7.059" transform="translate(220.079 117.954)" fill="#f88"/>
        <path id="Path_1018" data-name="Path 1018" d="M583.153,567.7c-2.944,16.038-15.417,53.628-22.956,75.631-3.438,10.052-3.72,6.269-3.72,6.269l-3.918-1.236-6.607-2.089-2.414-.762-2.922-.925s-1.433-25.568-1.892-44.748c-.155-6.184-.424-10.6-.868-11.478-1.835-3.6,1.236-3.981,4.476-4.892s.713-2.28-.551-5.2c-.854-1.948.826-4.539,2.019-6.021a14.6,14.6,0,0,1,1.052-1.193s-8.259-2.809-17.6-5.979c-.007.007-.007,0-.007,0-.939-.318-1.885-.635-2.831-.96,3.29-1.186,5.478-2.1,5.972-2.591,2.894-2.824,4.172,0,6.007,2.823s2.4,0,4.8-2.075,7.807.777,7.807.777.049-1.878.127-4.871c.113-4.419.282-11.295.452-18.177-.007-.007-.007-.007,0-.007.063-2.591.127-5.181.184-7.638,4.977,3.812,9.8,7.553,14.182,11.012.007.007.021.014.021.028,10.525,8.315,18.424,14.993,19.532,17.111C584,561.472,583.83,564.02,583.153,567.7Z" transform="translate(-389.058 -266.297)" fill="#2f2e41"/>
        <path id="Path_1019" data-name="Path 1019" d="M482.1,457.122l-2.6,1.687-6.65,4.32-9.022,5.852-48.087,31.2s-5.944-12.113-.5-22.646a23.3,23.3,0,0,0,1.7-4.172c2.2-7.553-2.033-10.829-2.033-10.829s-7.059-6.869-.29-13.2c1.391-1.3,2.167-3.96,2.52-7.377.593-5.619.049-13.271-.776-20.224-1.115-9.424-2.739-17.556-2.739-17.556a80.211,80.211,0,0,1,1.722-16.822,48.867,48.867,0,0,1,6.438-16.321,31.049,31.049,0,0,1,3.875-4.857,25.1,25.1,0,0,1,7.024-5.061c3.925-1.892,10.652-.755,16.582.071,1.193.162,2.351.318,3.445.431a30.824,30.824,0,0,0,3.268.2l2.457,8.965.932,3.4.466,1.7,1.059,3.868.438,1.581,7.045,25.723,5.753,20.98,3.177,11.591,4.751,17.33Z" transform="translate(-355.907 -215.633)" fill="#3f3d56"/>
        <circle id="Ellipse_92" data-name="Ellipse 92" cx="21.428" cy="21.428" r="21.428" transform="translate(65.409 97.162)" fill="#a0616a"/>
        <path id="Path_1020" data-name="Path 1020" d="M441.018,327.365l-1.745,5.581c-3.87-1.911-7.793-3.856-11.015-6.727s-5.715-6.833-5.868-11.147c-.079-2.228.461-4.475.091-6.673-.418-2.484-1.951-4.637-2.653-7.056a11.256,11.256,0,0,1,6.072-12.992c3.552-1.561,7.614-1.123,11.475-1.5s8.169-2.124,9.256-5.849c.406-1.393.36-3.034,1.6-3.946a3.044,3.044,0,0,1,4.03.583c1.819,2.065,1.371,4.783.895,7.255a18.127,18.127,0,0,0,12.531-7.619,7.023,7.023,0,0,1,.278,9.977,5.416,5.416,0,0,0,5.27-4.156c1.479,2.043,3,4.173,3.472,6.649s-.407,5.405-2.678,6.5a8.7,8.7,0,0,1-3.648.6l-9.521.181a10.9,10.9,0,0,0-10.7,10.761h0c-2.77-.266-5.623-.526-8.242.64a6.326,6.326,0,0,0-2.94,2.526c-1.731,2.974-.014,6.064,1.508,8.768,1.3,2.312,2.535,5.1,1.455,7.519" transform="translate(-358.194 -191.064)" fill="#2f2e41"/>
        <path id="Path_1021" data-name="Path 1021" d="M570.834,625.532l-39.727-14.056a4.265,4.265,0,0,1-2.595-5.437l18.612-52.6a4.265,4.265,0,0,1,5.437-2.595L592.288,564.9a4.265,4.265,0,0,1,2.595,5.437c-.221,19.764-6.957,37.1-18.612,52.6A4.264,4.264,0,0,1,570.834,625.532Z" transform="translate(-390.192 -271.66)" fill="#e6e6e6"/>
        <path id="Path_1022" data-name="Path 1022" d="M557.868,618.526l-21.15-7.484a3.994,3.994,0,0,1-2.43-5.092l16.562-46.809a3.994,3.994,0,0,1,5.092-2.43l34.142,12.08a3.994,3.994,0,0,1,2.43,5.092c-1.955,14.089-4.956,26.73-11.966,33.818A17.791,17.791,0,0,1,557.868,618.526Z" transform="translate(-391.895 -273.391)" fill="#fff"/>
        <path id="Path_1023" data-name="Path 1023" d="M555.7,592.435a1.7,1.7,0,0,1,2.165-1.026l26.6,9.493a1.694,1.694,0,1,1-1.139,3.191l-26.6-9.493A1.7,1.7,0,0,1,555.7,592.435Z" transform="translate(-398.231 -283.634)" fill="#6c63ff"/>
        <path id="Path_1024" data-name="Path 1024" d="M589.515,590.529a1.7,1.7,0,0,1,2.165-1.026l5.851,2.089a1.694,1.694,0,0,1-1.139,3.191l-5.851-2.088A1.7,1.7,0,0,1,589.515,590.529Z" transform="translate(-408.175 -283.073)" fill="#d6af2d"/>
        <path id="Path_1025" data-name="Path 1025" d="M548.608,612.312a1.7,1.7,0,0,1,2.165-1.026l26.6,9.493a1.694,1.694,0,0,1-1.139,3.192l-26.6-9.493A1.7,1.7,0,0,1,548.608,612.312Z" transform="translate(-396.145 -289.479)" fill="#6c63ff"/>
        <path id="Path_1026" data-name="Path 1026" d="M552.155,602.373a1.7,1.7,0,0,1,2.165-1.026l26.6,9.493a1.694,1.694,0,1,1-1.139,3.191l-26.6-9.494A1.7,1.7,0,0,1,552.155,602.373Z" transform="translate(-397.188 -286.556)" fill="#6c63ff"/>
        <path id="Path_1027" data-name="Path 1027" d="M549.744,536.982a6.938,6.938,0,0,0-8.428-4.755,6.65,6.65,0,0,0-1.031.384L505.17,500.868,497.5,514.98l39.876,27.046a6.919,6.919,0,0,0,7.788,3.271,6.621,6.621,0,0,0,4.627-8.141Q549.771,537.068,549.744,536.982Z" transform="translate(-381.145 -257.035)" fill="#a0616a"/>
        <path id="Path_1028" data-name="Path 1028" d="M503.26,473.145l-1.369,1.694-8.062,10-1.087,1.355s-11.513-7.906-23.959-17.217c-14.937-11.189-31.215-24.41-30.488-28.441,1.334-7.377-.551-1.214-5.259-3.77s1.059-2.838,3.678-10.087-.339-3.212-6.021-5.33c-3.791-1.412-1.807-33.8-.078-55.174a25.1,25.1,0,0,1,7.024-5.061c4.708-2.273,13.469-.176,20.027.5,3.713,27.368,9.071,67.4,8.831,68.664-.367,1.927,1.539,5.774,4.546,9.925,1.412,1.962,8.69,9.424,15.968,16.751C495.128,465.133,503.26,473.145,503.26,473.145Z" transform="translate(-360.859 -215.633)" fill="#3f3d56"/>
        <path id="Path_1029" data-name="Path 1029" d="M747.767,376.176h-74.74a1.612,1.612,0,0,1,0-3.224h74.74a1.612,1.612,0,1,1,0,3.224Z" transform="translate(-432.29 -219.417)" fill="#6c63ff"/>
        <path id="Path_1030" data-name="Path 1030" d="M785.6,397.05H673.027a1.612,1.612,0,0,1,0-3.224H785.6a1.612,1.612,0,1,1,0,3.224Z" transform="translate(-432.29 -225.556)" fill="#f88"/>
        <path id="Path_1031" data-name="Path 1031" d="M785.6,414.7H673.023a1.613,1.613,0,1,0,0,3.226H785.6a1.613,1.613,0,0,0,0-3.226Z" transform="translate(-432.288 -231.694)" fill="#56537b"/>
        <path id="Path_1032" data-name="Path 1032" d="M785.6,438.8H673.027a1.612,1.612,0,0,1,0-3.224H785.6a1.612,1.612,0,1,1,0,3.224Z" transform="translate(-432.29 -237.834)" fill="#63bbff"/>
        <path id="Path_1033" data-name="Path 1033" d="M.661,49.107C5.653,30.366,15.125,14.36,30.532,1.978A4.265,4.265,0,0,1,36.41.661L72,23.22A4.265,4.265,0,0,1,73.321,29.1L43.449,76.228a4.265,4.265,0,0,1-5.878,1.317L1.978,54.986A4.265,4.265,0,0,1,.661,49.107Z" transform="matrix(0.438, -0.899, 0.899, 0.438, 357.115, 383.246)" fill="#e6e6e6"/>
        <path id="Path_1034" data-name="Path 1034" d="M2.756,32.151C4,22.261,12.087,12.093,21.96,1.852A3.994,3.994,0,0,1,27.465.619L58.054,20.007a3.994,3.994,0,0,1,1.234,5.505L32.707,67.451A3.994,3.994,0,0,1,27.2,68.685L8.252,56.674A17.79,17.79,0,0,1,2.756,32.151Z" transform="matrix(0.438, -0.899, 0.899, 0.438, 365.35, 376.517)" fill="#fff"/>
        <path id="Path_1035" data-name="Path 1035" d="M24.685,18.18.791,3.128A1.694,1.694,0,1,1,2.6.261L26.491,15.313a1.694,1.694,0,1,1-1.806,2.867Z" transform="matrix(0.438, -0.899, 0.899, 0.438, 392.862, 373.186)" fill="#63bbff"/>
        <path id="Path_1036" data-name="Path 1036" d="M6.048,6.44.791,3.128A1.694,1.694,0,0,1,2.6.261L7.854,3.572A1.694,1.694,0,1,1,6.048,6.44Z" transform="matrix(0.438, -0.899, 0.899, 0.438, 387.967, 365.288)" fill="#f88"/>
        <path id="Path_1037" data-name="Path 1037" d="M24.685,18.18.791,3.128A1.694,1.694,0,1,1,2.6.261L26.491,15.313a1.694,1.694,0,0,1-1.806,2.867Z" transform="matrix(0.438, -0.899, 0.899, 0.438, 400.71, 385.848)" fill="#c18861"/>
        <path id="Path_1038" data-name="Path 1038" d="M24.685,18.18.791,3.128A1.694,1.694,0,0,1,2.6.261L26.491,15.312a1.694,1.694,0,0,1-1.806,2.867Z" transform="matrix(0.438, -0.899, 0.899, 0.438, 396.786, 379.517)" fill="#6378ff"/>
      </g>
    </g>
  </g>
</svg>
