<?xml version="1.0" encoding="UTF-8"?>
<svg version="1.1" xmlns="http://www.w3.org/2000/svg" width="225" height="225">
<path d="M0 0 C74.25 0 148.5 0 225 0 C225 74.25 225 148.5 225 225 C150.75 225 76.5 225 0 225 C0 150.75 0 76.5 0 0 Z " fill="#FEFEFE" transform="translate(0,0)"/>
<path d="M0 0 C1.32 0 2.64 0 4 0 C4 3.96 4 7.92 4 12 C4.66 11.67 5.32 11.34 6 11 C9.08332494 10.52144858 11.92173477 10.46395726 15 11 C18.48583848 13.70330331 19.64709479 15.17130938 20.47265625 19.44921875 C20.7467111 24.15031341 20.56111737 26.29500638 17.5625 30.0625 C16.716875 30.701875 15.87125 31.34125 15 32 C14.505 32.495 14.505 32.495 14 33 C12.21059028 33.09908783 10.41714492 33.12970379 8.625 33.125 C7.64789063 33.12757813 6.67078125 33.13015625 5.6640625 33.1328125 C3 33 3 33 0 32 C0 21.44 0 10.88 0 0 Z " fill="#0F3195" transform="translate(81,130)"/>
<path d="M0 0 C0 6.93 0 13.86 0 21 C-5.25394774 22.75131591 -10.86438351 22.8898402 -16 20.75 C-18.64625042 18.43453089 -19.77168091 16.32184735 -20.37109375 12.8515625 C-20.50393884 8.39734478 -20.33690737 4.46539669 -17.109375 1.01953125 C-12.06766954 -1.41729306 -5.35245368 -0.27925845 0 0 Z " fill="#143797" transform="translate(66,141)"/>
<path d="M0 0 C0 6.93 0 13.86 0 21 C-4.35449535 22.45149845 -8.45381926 22.6423951 -13 22 C-16.62433515 20.12259439 -18.69081123 17.92756632 -20 14 C-20.53756448 8.30181648 -19.60129241 5.44865533 -16 1 C-11.53794887 -1.23102556 -4.78092876 -0.04346299 0 0 Z " fill="#0B2D94" transform="translate(183,141)"/>
<path d="M0 0 C3 2.0625 3 2.0625 5 5 C5.33 7.31 5.66 9.62 6 12 C0.72 12 -4.56 12 -10 12 C-9.01 13.65 -8.02 15.3 -7 17 C-4.26622386 17.60393692 -4.26622386 17.60393692 -1.3125 17.3125 C0.17830078 17.24482422 0.17830078 17.24482422 1.69921875 17.17578125 C2.45847656 17.11777344 3.21773437 17.05976563 4 17 C4 18.32 4 19.64 4 21 C0.31040237 22.84479881 -3.96413651 22.34956298 -8 22 C-11.32388575 20.68429522 -12.52478565 19.81465318 -14.3125 16.75 C-15.58828937 11.64684254 -15.71793783 8.29228809 -13.125 3.625 C-9.50665021 -0.84472621 -5.47854123 -0.8232005 0 0 Z " fill="#183B97" transform="translate(146,141)"/>
<path d="M0 0 C1.65 0 3.3 0 5 0 C5 4.29 5 8.58 5 13 C8.96 13 12.92 13 17 13 C17 14.32 17 15.64 17 17 C13.04 17 9.08 17 5 17 C5 21.95 5 26.9 5 32 C3.35 32 1.7 32 0 32 C0 27.05 0 22.1 0 17 C-3.96 17 -7.92 17 -12 17 C-12 15.68 -12 14.36 -12 13 C-8.04 13 -4.08 13 0 13 C0 8.71 0 4.42 0 0 Z " fill="#24479D" transform="translate(18,132)"/>
<path d="M0 0 C1.32 0 2.64 0 4 0 C4.04898438 1.13179687 4.09796875 2.26359375 4.1484375 3.4296875 C4.22346514 4.91148339 4.29901297 6.393253 4.375 7.875 C4.4059375 8.62136719 4.436875 9.36773437 4.46875 10.13671875 C4.55643831 14.53473188 4.55643831 14.53473188 7 18 C9.54190002 18.2500773 9.54190002 18.2500773 12 18 C14.11925604 15.88074396 13.41831017 11.3803907 13.5625 8.4375 C13.60568359 7.63119141 13.64886719 6.82488281 13.69335938 5.99414062 C13.79975262 3.99631195 13.90040888 1.9981793 14 0 C15.65 0 17.3 0 19 0 C19.13548815 2.73083902 19.23429855 5.45491807 19.3125 8.1875 C19.35439453 8.95642578 19.39628906 9.72535156 19.43945312 10.51757812 C19.53061413 14.76568108 19.37829775 16.49098156 16.76171875 20.01171875 C13.99570568 22.00309167 12.84085266 22.68381783 9.5 22.625 C8.7678125 22.63789063 8.035625 22.65078125 7.28125 22.6640625 C3.67771963 21.61508962 2.22599845 19.99519163 0 17 C-0.58530086 14.03080998 -0.47656828 11.19878396 -0.3125 8.1875 C-0.28994141 7.39923828 -0.26738281 6.61097656 -0.24414062 5.79882812 C-0.18554161 3.86506071 -0.09586827 1.93227833 0 0 Z " fill="#062B92" transform="translate(196,141)"/>
<path d="M0 0 C1.32 0 2.64 0 4 0 C4 13.53 4 27.06 4 41 C2.68 41 1.36 41 0 41 C0 27.47 0 13.94 0 0 Z " fill="#0D2891" transform="translate(114,126)"/>
<path d="M0 0 C2.375 1.0625 2.375 1.0625 4 3 C4.56495922 6.88409465 4.57491801 9.06575823 2.5 12.4375 C-1.13646461 14.71029038 -3.75782535 14.28281164 -8 14 C-8 9.71 -8 5.42 -8 1 C-5.19084526 -0.40457737 -3.11189466 -0.24895157 0 0 Z " fill="#EEF2F6" transform="translate(93,145)"/>
<path d="M0 0 C1.32 0 2.64 0 4 0 C4 3.3 4 6.6 4 10 C6.97 10 9.94 10 13 10 C13 10.99 13 11.98 13 13 C10.03 13 7.06 13 4 13 C4 16.63 4 20.26 4 24 C2.68 24 1.36 24 0 24 C0 20.37 0 16.74 0 13 C-2.97 13 -5.94 13 -9 13 C-9 12.01 -9 11.02 -9 10 C-6.03 10 -3.06 10 0 10 C0 6.7 0 3.4 0 0 Z " fill="#EC6B2F" transform="translate(114,68)"/>
<path d="M0 0 C1 1 1 1 1.09765625 3.94140625 C1.08605469 5.13636719 1.07445312 6.33132812 1.0625 7.5625 C1.05347656 8.76003906 1.04445312 9.95757812 1.03515625 11.19140625 C1.02355469 12.11824219 1.01195312 13.04507813 1 14 C-6.28358209 14.35820896 -6.28358209 14.35820896 -9 13 C-10.62932095 9.7413581 -10.52673518 6.56102656 -10 3 C-7.8259613 -1.09230814 -4.20163915 -0.31123253 0 0 Z " fill="#F7F9FB" transform="translate(178,145)"/>
<path d="M0 0 C1 1 1 1 1.09765625 3.94140625 C1.08605469 5.13636719 1.07445312 6.33132812 1.0625 7.5625 C1.05347656 8.76003906 1.04445313 9.95757812 1.03515625 11.19140625 C1.02355469 12.11824219 1.01195312 13.04507813 1 14 C-6.40256709 14.48541424 -6.40256709 14.48541424 -9 12.375 C-10.29618989 9.296549 -10.48288863 7.31123632 -10 4 C-7.18331645 -0.11669134 -4.84699254 -0.53855473 0 0 Z " fill="#F4F6F9" transform="translate(60,145)"/>
<path d="M0 0 C0.99 0 1.98 0 3 0 C3 2.97 3 5.94 3 9 C5.64 9 8.28 9 11 9 C11 9.99 11 10.98 11 12 C8.36 12 5.72 12 3 12 C3 14.97 3 17.94 3 21 C2.01 21 1.02 21 0 21 C0 18.03 0 15.06 0 12 C-2.97 12 -5.94 12 -9 12 C-9 11.01 -9 10.02 -9 9 C-6.03 9 -3.06 9 0 9 C0 6.03 0 3.06 0 0 Z " fill="#EC9339" transform="translate(97,53)"/>
<path d="M0 0 C0.99 0 1.98 0 3 0 C3 2.97 3 5.94 3 9 C5.64 9 8.28 9 11 9 C11 9.99 11 10.98 11 12 C8.36 12 5.72 12 3 12 C3 14.97 3 17.94 3 21 C2.01 21 1.02 21 0 21 C0 18.03 0 15.06 0 12 C-2.64 12 -5.28 12 -8 12 C-8 11.01 -8 10.02 -8 9 C-5.36 9 -2.72 9 0 9 C0 6.03 0 3.06 0 0 Z " fill="#5FA6AA" transform="translate(132,53)"/>
<path d="M0 0 C1.32 0.33 2.64 0.66 4 1 C4 1.99 4 2.98 4 4 C3.505 4.433125 3.01 4.86625 2.5 5.3125 C0.72658407 6.99776083 0.72658407 6.99776083 0.5625 9.9375 C0.76354608 13.05583297 0.76354608 13.05583297 2.6875 15.3125 C5.19598492 17.14301602 6.94082833 17.66009204 10 18 C6.30513897 20.46324069 4.36706908 20.38991688 0 20 C-2.61593153 18.16884793 -2.96989455 17.09031634 -4 14 C-4.54184779 9.25661115 -4.66079766 6.01184642 -2 1.9375 C-1.34 1.298125 -0.68 0.65875 0 0 Z " fill="#082993" transform="translate(50,142)"/>
<path d="M0 0 C0.99 0 1.98 0 3 0 C3 2.97 3 5.94 3 9 C5.64 9 8.28 9 11 9 C11 9.66 11 10.32 11 11 C8.36 11 5.72 11 3 11 C3 13.97 3 16.94 3 20 C2.01 20 1.02 20 0 20 C0 17.03 0 14.06 0 11 C-2.64 11 -5.28 11 -8 11 C-8 10.34 -8 9.68 -8 9 C-5.36 9 -2.72 9 0 9 C0 6.03 0 3.06 0 0 Z " fill="#0E268E" transform="translate(132,86)"/>
<path d="M0 0 C0.99 0 1.98 0 3 0 C3 2.97 3 5.94 3 9 C5.64 9 8.28 9 11 9 C11 9.66 11 10.32 11 11 C8.36 11 5.72 11 3 11 C3 13.97 3 16.94 3 20 C2.01 20 1.02 20 0 20 C0 17.03 0 14.06 0 11 C-2.64 11 -5.28 11 -8 11 C-8 10.34 -8 9.68 -8 9 C-5.36 9 -2.72 9 0 9 C0 6.03 0 3.06 0 0 Z " fill="#C41328" transform="translate(97,86)"/>
<path d="M0 0 C1.65 0 3.3 0 5 0 C5 5.61 5 11.22 5 17 C3.33333333 17 1.66666667 17 0 17 C0 11.39 0 5.78 0 0 Z " fill="#26429B" transform="translate(210,141)"/>
<path d="M0 0 C0.598125 0.825 1.19625 1.65 1.8125 2.5 C3.83614956 4.58835929 4.83972819 4.98086643 7.78125 5.33203125 C10.53563439 5.31428393 13.25442969 5.21637594 16 5 C16 6.32 16 7.64 16 9 C12.31016264 10.84491868 8.03607928 10.34903201 4 10 C0.9375 8.8125 0.9375 8.8125 -1 7 C-1.8125 4.3125 -1.8125 4.3125 -2 2 C-1.34 2 -0.68 2 0 2 C0 1.34 0 0.68 0 0 Z " fill="#1A3997" transform="translate(134,153)"/>
<path d="M0 0 C1.22589844 0.01353516 1.22589844 0.01353516 2.4765625 0.02734375 C3.41628906 0.04474609 3.41628906 0.04474609 4.375 0.0625 C3.5625 2 3.5625 2 2.375 4.0625 C0.375 4.72916667 -1.625 5.39583333 -3.625 6.0625 C-4.83382096 8.06266466 -4.83382096 8.06266466 -5.625 10.0625 C-6.615 10.3925 -7.605 10.7225 -8.625 11.0625 C-9.285 12.0525 -9.945 13.0425 -10.625 14.0625 C-11.0810284 8.36214499 -10.22912752 5.51465753 -6.625 1.0625 C-4.21954362 -0.14022819 -2.67503047 -0.03821472 0 0 Z " fill="#143597" transform="translate(173.625,140.9375)"/>
<path d="M0 0 C2.27029534 0.39143023 3.83408198 0.88741278 5.75 2.1875 C7 4 7 4 7 10 C2.05 10 -2.9 10 -8 10 C-8 9.34 -8 8.68 -8 8 C-4.37 8 -0.74 8 3 8 C1.31622777 4.10540926 1.31622777 4.10540926 -1 2 C-0.67 1.34 -0.34 0.68 0 0 Z " fill="#032592" transform="translate(144,142)"/>
<path d="M0 0 C0.33 0 0.66 0 1 0 C1 4.29 1 8.58 1 13 C3.97 13.495 3.97 13.495 7 14 C6.67 14.99 6.34 15.98 6 17 C0.25 17.125 0.25 17.125 -2 16 C-2.05402274 13.89611431 -2.09280256 11.79183286 -2.125 9.6875 C-2.14820312 8.51574219 -2.17140625 7.34398437 -2.1953125 6.13671875 C-2 3 -2 3 0 0 Z " fill="#022492" transform="translate(84,146)"/>
<path d="M0 0 C0.8353125 0.495 0.8353125 0.495 1.6875 1 C5.41611387 2.61237356 8.01792899 2.3491808 11.8125 1 C12.534375 0.67 13.25625 0.34 14 0 C14.33 0.99 14.66 1.98 15 3 C12.36701229 5.74746544 10.17866359 6.28598997 6.5 6.4375 C3.07887726 6.34168602 2.2358327 6.18406455 -0.5625 4 C-1.2740625 3.01 -1.2740625 3.01 -2 2 C-1.34 2 -0.68 2 0 2 C0 1.34 0 0.68 0 0 Z " fill="#163695" transform="translate(199,157)"/>
<path d="M0 0 C0.66 0 1.32 0 2 0 C2 2.31 2 4.62 2 7 C3.98 7 5.96 7 8 7 C8 7.66 8 8.32 8 9 C6.02 9 4.04 9 2 9 C2 10.98 2 12.96 2 15 C1.34 15 0.68 15 0 15 C0 13.02 0 11.04 0 9 C-1.98 9 -3.96 9 -6 9 C-6 8.34 -6 7.68 -6 7 C-4.02 7 -2.04 7 0 7 C0 4.69 0 2.38 0 0 Z " fill="#3859A7" transform="translate(142,72)"/>
<path d="M0 0 C0.66 0 1.32 0 2 0 C2 1.98 2 3.96 2 6 C3.98 6 5.96 6 8 6 C8 6.66 8 7.32 8 8 C6.02 8 4.04 8 2 8 C2 9.98 2 11.96 2 14 C1.34 14 0.68 14 0 14 C0 12.02 0 10.04 0 8 C-1.98 8 -3.96 8 -6 8 C-6 7.34 -6 6.68 -6 6 C-4.02 6 -2.04 6 0 6 C0 4.02 0 2.04 0 0 Z " fill="#3456A9" transform="translate(115,99)"/>
<path d="M0 0 C3.0625 0.1875 3.0625 0.1875 5.0625 2.1875 C5.0625 3.1775 5.0625 4.1675 5.0625 5.1875 C1.4325 5.1875 -2.1975 5.1875 -5.9375 5.1875 C-3.45398352 0.22046703 -3.45398352 0.22046703 0 0 Z " fill="#DAE2EC" transform="translate(141.9375,144.8125)"/>
<path d="M0 0 C0.33 0 0.66 0 1 0 C1 1.98 1 3.96 1 6 C2.98 6 4.96 6 7 6 C7 6.66 7 7.32 7 8 C5.02 8 3.04 8 1 8 C1 9.98 1 11.96 1 14 C0.67 14 0.34 14 0 14 C0 12.02 0 10.04 0 8 C-1.98 8 -3.96 8 -6 8 C-6 7.34 -6 6.68 -6 6 C-4.02 6 -2.04 6 0 6 C0 4.02 0 2.04 0 0 Z " fill="#6AB5A6" transform="translate(88,73)"/>
<path d="M0 0 C0.66 0 1.32 0 2 0 C2 1.98 2 3.96 2 6 C3.65 6 5.3 6 7 6 C7 6.33 7 6.66 7 7 C5.35 7 3.7 7 2 7 C2 9.31 2 11.62 2 14 C1.34 14 0.68 14 0 14 C0 11.69 0 9.38 0 7 C-1.65 7 -3.3 7 -5 7 C-5 6.67 -5 6.34 -5 6 C-3.35 6 -1.7 6 0 6 C0 4.02 0 2.04 0 0 Z " fill="#76B9AB" transform="translate(115,47)"/>
<path d="M0 0 C0.33 1.32 0.66 2.64 1 4 C-2.21451269 5.60725635 -5.43612536 5.05748185 -9 5 C-8.67 4.01 -8.34 3.02 -8 2 C-6.15234375 1.26953125 -6.15234375 1.26953125 -3.9375 0.8125 C-3.20402344 0.65394531 -2.47054687 0.49539062 -1.71484375 0.33203125 C-1.14894531 0.22246094 -0.58304688 0.11289063 0 0 Z " fill="#032291" transform="translate(149,158)"/>
<path d="M0 0 C0.99 0 1.98 0 3 0 C3 4.29 3 8.58 3 13 C-0.09902323 9.90097677 0.0101421 7.60852615 -0.0625 3.25 C-0.041875 2.1775 -0.02125 1.105 0 0 Z " fill="#001F92" transform="translate(19,132)"/>
<path d="M0 0 C0.33 0 0.66 0 1 0 C1 4.62 1 9.24 1 14 C0.01 14 -0.98 14 -2 14 C-1.85923685 12.0412957 -1.7122324 10.08303907 -1.5625 8.125 C-1.48128906 7.03445312 -1.40007813 5.94390625 -1.31640625 4.8203125 C-1 2 -1 2 0 0 Z " fill="#001E92" transform="translate(21,149)"/>
<path d="M0 0 C2.97 0 5.94 0 9 0 C8.34 1.32 7.68 2.64 7 4 C4.625 3.6875 4.625 3.6875 2 3 C1.34 2.01 0.68 1.02 0 0 Z " fill="#1F429B" transform="translate(169,141)"/>
</svg>
